G04*
G04 #@! TF.GenerationSoftware,Altium Limited,Altium Designer,21.9.2 (33)*
G04*
G04 Layer_Physical_Order=2*
G04 Layer_Color=16711680*
%FSTAX24Y24*%
%MOIN*%
G70*
G04*
G04 #@! TF.SameCoordinates,7D792EBD-1CCB-4A66-8B02-D1F74A79ED49*
G04*
G04*
G04 #@! TF.FilePolarity,Positive*
G04*
G01*
G75*
%ADD14R,0.0630X0.0591*%
%ADD46C,0.0150*%
%ADD47C,0.0300*%
%ADD48R,0.0700X0.0700*%
%ADD49O,0.0700X0.0750*%
%ADD50R,0.0519X0.0519*%
%ADD51C,0.0519*%
%ADD52C,0.1100*%
%ADD53R,0.0827X0.0827*%
%ADD54C,0.0827*%
%ADD55C,0.0750*%
%ADD56R,0.0700X0.1330*%
%ADD57R,0.0700X0.1000*%
%ADD58O,0.0700X0.1000*%
%ADD59C,0.0602*%
%ADD60R,0.0602X0.0602*%
%ADD61C,0.0594*%
%ADD62R,0.0594X0.0594*%
%ADD63O,0.0436X0.0872*%
%ADD64C,0.0630*%
%ADD65R,0.0630X0.0630*%
%ADD66R,0.0591X0.0591*%
%ADD67C,0.0591*%
%ADD68R,0.0630X0.0630*%
%ADD69C,0.0480*%
%ADD70R,0.0476X0.0476*%
%ADD71C,0.0476*%
%ADD72C,0.0900*%
%ADD73O,0.0660X0.1000*%
%ADD74C,0.0300*%
%ADD75C,0.0500*%
G04:AMPARAMS|DCode=76|XSize=91.7mil|YSize=61mil|CornerRadius=15.3mil|HoleSize=0mil|Usage=FLASHONLY|Rotation=180.000|XOffset=0mil|YOffset=0mil|HoleType=Round|Shape=RoundedRectangle|*
%AMROUNDEDRECTD76*
21,1,0.0917,0.0305,0,0,180.0*
21,1,0.0612,0.0610,0,0,180.0*
1,1,0.0305,-0.0306,0.0153*
1,1,0.0305,0.0306,0.0153*
1,1,0.0305,0.0306,-0.0153*
1,1,0.0305,-0.0306,-0.0153*
%
%ADD76ROUNDEDRECTD76*%
%ADD77R,0.0669X0.0669*%
%ADD78R,0.4268X0.3102*%
%ADD79R,0.0390X0.1492*%
%ADD80R,0.0591X0.0630*%
%ADD81C,0.0500*%
G36*
X070547Y03416D02*
X070497Y034145D01*
X070476Y034176D01*
X0698Y034852D01*
Y0349D01*
X069762Y034992D01*
X069692Y035062D01*
X0696Y0351D01*
X0695D01*
X069408Y035062D01*
X069338Y034992D01*
X0693Y0349D01*
Y0348D01*
X069338Y034708D01*
X069408Y034638D01*
X0695Y0346D01*
X069548D01*
X070172Y033976D01*
Y018024D01*
X069376Y017228D01*
X061256D01*
X061225Y017267D01*
X06123Y017292D01*
Y018118D01*
X061278Y018155D01*
X061329Y018221D01*
X061361Y018299D01*
X061372Y018382D01*
Y018818D01*
X061361Y018901D01*
X061329Y018979D01*
X061278Y019045D01*
X061212Y019096D01*
X061134Y019128D01*
X061051Y019139D01*
X060968Y019128D01*
X060891Y019096D01*
X060824Y019045D01*
X060773Y018979D01*
X060741Y018901D01*
X06073Y018818D01*
Y018382D01*
X060741Y018299D01*
X060773Y018221D01*
X060824Y018155D01*
X060873Y018118D01*
Y017366D01*
X060807Y0173D01*
X0608D01*
X060708Y017262D01*
X060638Y017192D01*
X0606Y0171D01*
Y017D01*
X060638Y016908D01*
X060708Y016838D01*
X0608Y0168D01*
X0609D01*
X060992Y016838D01*
X061025Y016872D01*
X06945D01*
X069518Y016885D01*
X069576Y016924D01*
X070476Y017824D01*
X070497Y017855D01*
X070547Y01784D01*
Y01035D01*
Y008853D01*
X03127D01*
X031255Y008903D01*
X03128Y00892D01*
X03168Y00932D01*
X031735Y009402D01*
X031755Y0095D01*
Y010035D01*
X03195D01*
Y010895D01*
X03205D01*
Y010035D01*
X03295D01*
Y011565D01*
X03205D01*
Y011405D01*
X03195D01*
Y011565D01*
X03105D01*
Y010035D01*
X031245D01*
Y009606D01*
X030994Y009355D01*
X008306D01*
X007355Y010306D01*
Y030244D01*
X009056Y031945D01*
X009659D01*
X00966Y031895D01*
Y031105D01*
X01045D01*
Y031895D01*
X010451Y031945D01*
X01161D01*
X011635Y03192D01*
X011715Y031874D01*
X011804Y03185D01*
X011896D01*
X011985Y031874D01*
X012065Y03192D01*
X01213Y031985D01*
X012176Y032065D01*
X0122Y032154D01*
Y032246D01*
X012176Y032335D01*
X01213Y032415D01*
X012065Y03248D01*
X011985Y032526D01*
X011896Y03255D01*
X011804D01*
X011715Y032526D01*
X011635Y03248D01*
X01161Y032455D01*
X00895D01*
X008852Y032436D01*
X00877Y03238D01*
X006999Y03061D01*
X006953Y030629D01*
Y035697D01*
X040873D01*
X040894Y035647D01*
X040838Y035592D01*
X0408Y0355D01*
Y0354D01*
X040838Y035308D01*
X040908Y035238D01*
X041Y0352D01*
X0411D01*
X041192Y035238D01*
X041225Y035272D01*
X066326D01*
X069522Y032076D01*
Y019524D01*
X068776Y018778D01*
X062372D01*
Y018818D01*
X062361Y018901D01*
X062329Y018979D01*
X062278Y019045D01*
X062212Y019096D01*
X062134Y019128D01*
X062051Y019139D01*
X061968Y019128D01*
X061891Y019096D01*
X061824Y019045D01*
X061773Y018979D01*
X061741Y018901D01*
X06173Y018818D01*
Y018382D01*
X061741Y018299D01*
X061773Y018221D01*
X061824Y018155D01*
X061891Y018104D01*
X061968Y018072D01*
X062051Y018061D01*
X062134Y018072D01*
X062212Y018104D01*
X062278Y018155D01*
X062329Y018221D01*
X062361Y018299D01*
X062372Y018382D01*
Y018422D01*
X06885D01*
X068918Y018435D01*
X068976Y018474D01*
X069826Y019324D01*
X069826Y019324D01*
X069865Y019382D01*
X069878Y01945D01*
X069878Y01945D01*
Y03215D01*
X069878Y03215D01*
X069865Y032218D01*
X069826Y032276D01*
X069826Y032276D01*
X066526Y035576D01*
X066468Y035615D01*
X0664Y035628D01*
X041253D01*
X041239Y035647D01*
X041265Y035697D01*
X070547D01*
Y03416D01*
D02*
G37*
%LPC*%
G36*
X016063Y035405D02*
X01605D01*
Y03498D01*
X016475D01*
Y034993D01*
X016443Y035113D01*
X01638Y035222D01*
X016292Y03531D01*
X016183Y035373D01*
X016063Y035405D01*
D02*
G37*
G36*
X01595D02*
X015937D01*
X015817Y035373D01*
X015708Y03531D01*
X01562Y035222D01*
X015557Y035113D01*
X015525Y034993D01*
Y03498D01*
X01595D01*
Y035405D01*
D02*
G37*
G36*
X013353D02*
X01334D01*
Y03498D01*
X013765D01*
Y034993D01*
X013733Y035113D01*
X01367Y035222D01*
X013582Y03531D01*
X013473Y035373D01*
X013353Y035405D01*
D02*
G37*
G36*
X01324D02*
X013227D01*
X013107Y035373D01*
X012998Y03531D01*
X01291Y035222D01*
X012847Y035113D01*
X012815Y034993D01*
Y03498D01*
X01324D01*
Y035405D01*
D02*
G37*
G36*
X019993Y035385D02*
X01998D01*
Y03496D01*
X020405D01*
Y034973D01*
X020373Y035093D01*
X02031Y035202D01*
X020222Y03529D01*
X020113Y035353D01*
X019993Y035385D01*
D02*
G37*
G36*
X01988D02*
X019867D01*
X019747Y035353D01*
X019638Y03529D01*
X01955Y035202D01*
X019487Y035093D01*
X019455Y034973D01*
Y03496D01*
X01988D01*
Y035385D01*
D02*
G37*
G36*
X017283D02*
X01727D01*
Y03496D01*
X017695D01*
Y034973D01*
X017663Y035093D01*
X0176Y035202D01*
X017512Y03529D01*
X017403Y035353D01*
X017283Y035385D01*
D02*
G37*
G36*
X01717D02*
X017157D01*
X017037Y035353D01*
X016928Y03529D01*
X01684Y035202D01*
X016777Y035093D01*
X016745Y034973D01*
Y03496D01*
X01717D01*
Y035385D01*
D02*
G37*
G36*
X016475Y03488D02*
X01605D01*
Y034455D01*
X016063D01*
X016183Y034487D01*
X016292Y03455D01*
X01638Y034638D01*
X016443Y034747D01*
X016475Y034867D01*
Y03488D01*
D02*
G37*
G36*
X01595D02*
X015525D01*
Y034867D01*
X015557Y034747D01*
X01562Y034638D01*
X015708Y03455D01*
X015817Y034487D01*
X015937Y034455D01*
X01595D01*
Y03488D01*
D02*
G37*
G36*
X013765D02*
X01334D01*
Y034455D01*
X013353D01*
X013473Y034487D01*
X013582Y03455D01*
X01367Y034638D01*
X013733Y034747D01*
X013765Y034867D01*
Y03488D01*
D02*
G37*
G36*
X01324D02*
X012815D01*
Y034867D01*
X012847Y034747D01*
X01291Y034638D01*
X012998Y03455D01*
X013107Y034487D01*
X013227Y034455D01*
X01324D01*
Y03488D01*
D02*
G37*
G36*
X020405Y03486D02*
X01998D01*
Y034435D01*
X019993D01*
X020113Y034467D01*
X020222Y03453D01*
X02031Y034618D01*
X020373Y034727D01*
X020405Y034847D01*
Y03486D01*
D02*
G37*
G36*
X01988D02*
X019455D01*
Y034847D01*
X019487Y034727D01*
X01955Y034618D01*
X019638Y03453D01*
X019747Y034467D01*
X019867Y034435D01*
X01988D01*
Y03486D01*
D02*
G37*
G36*
X017695D02*
X01727D01*
Y034435D01*
X017283D01*
X017403Y034467D01*
X017512Y03453D01*
X0176Y034618D01*
X017663Y034727D01*
X017695Y034847D01*
Y03486D01*
D02*
G37*
G36*
X01717D02*
X016745D01*
Y034847D01*
X016777Y034727D01*
X01684Y034618D01*
X016928Y03453D01*
X017037Y034467D01*
X017157Y034435D01*
X01717D01*
Y03486D01*
D02*
G37*
G36*
X048115Y034565D02*
X04775D01*
Y0342D01*
X048115D01*
Y034565D01*
D02*
G37*
G36*
X044915D02*
X04455D01*
Y0342D01*
X044915D01*
Y034565D01*
D02*
G37*
G36*
X04765D02*
X047285D01*
Y0342D01*
X04765D01*
Y034565D01*
D02*
G37*
G36*
X04445D02*
X044085D01*
Y0342D01*
X04445D01*
Y034565D01*
D02*
G37*
G36*
X028915Y034465D02*
X02855D01*
Y0341D01*
X028915D01*
Y034465D01*
D02*
G37*
G36*
X025665D02*
X0253D01*
Y0341D01*
X025665D01*
Y034465D01*
D02*
G37*
G36*
X02845D02*
X028085D01*
Y0341D01*
X02845D01*
Y034465D01*
D02*
G37*
G36*
X0252D02*
X024835D01*
Y0341D01*
X0252D01*
Y034465D01*
D02*
G37*
G36*
X048115Y0341D02*
X04775D01*
Y033735D01*
X048115D01*
Y0341D01*
D02*
G37*
G36*
X04765D02*
X047285D01*
Y033735D01*
X04765D01*
Y0341D01*
D02*
G37*
G36*
X044915D02*
X04455D01*
Y033735D01*
X044915D01*
Y0341D01*
D02*
G37*
G36*
X04445D02*
X044085D01*
Y033735D01*
X04445D01*
Y0341D01*
D02*
G37*
G36*
X028915Y034D02*
X02855D01*
Y033635D01*
X028915D01*
Y034D01*
D02*
G37*
G36*
X02845D02*
X028085D01*
Y033635D01*
X02845D01*
Y034D01*
D02*
G37*
G36*
X025665D02*
X0253D01*
Y033635D01*
X025665D01*
Y034D01*
D02*
G37*
G36*
X0252D02*
X024835D01*
Y033635D01*
X0252D01*
Y034D01*
D02*
G37*
G36*
X016063Y033525D02*
X015937D01*
X015817Y033493D01*
X015708Y03343D01*
X01562Y033342D01*
X015557Y033233D01*
X015556Y033228D01*
X013734D01*
X013733Y033233D01*
X01367Y033342D01*
X013582Y03343D01*
X013473Y033493D01*
X013353Y033525D01*
X013227D01*
X013107Y033493D01*
X012998Y03343D01*
X01291Y033342D01*
X012847Y033233D01*
X012815Y033113D01*
Y032987D01*
X012847Y032867D01*
X01291Y032758D01*
X012998Y03267D01*
X013107Y032607D01*
X013227Y032575D01*
X013322D01*
Y023265D01*
X01305D01*
Y021735D01*
X01395D01*
Y023265D01*
X013678D01*
Y032678D01*
X013678Y032678D01*
X013665Y032746D01*
X013662Y03275D01*
X01367Y032758D01*
X013733Y032867D01*
X013734Y032872D01*
X015556D01*
X015557Y032867D01*
X01562Y032758D01*
X015708Y03267D01*
X015817Y032607D01*
X015937Y032575D01*
X016063D01*
X016183Y032607D01*
X016292Y03267D01*
X01638Y032758D01*
X016443Y032867D01*
X016475Y032987D01*
Y033113D01*
X016443Y033233D01*
X01638Y033342D01*
X016292Y03343D01*
X016183Y033493D01*
X016063Y033525D01*
D02*
G37*
G36*
X019993Y033505D02*
X019867D01*
X019747Y033473D01*
X019638Y03341D01*
X01955Y033322D01*
X019487Y033213D01*
X019486Y033208D01*
X017664D01*
X017663Y033213D01*
X0176Y033322D01*
X017512Y03341D01*
X017403Y033473D01*
X017283Y033505D01*
X017157D01*
X017037Y033473D01*
X016928Y03341D01*
X01684Y033322D01*
X016777Y033213D01*
X016745Y033093D01*
Y032967D01*
X016777Y032847D01*
X01684Y032738D01*
X016928Y03265D01*
X017037Y032587D01*
X017042Y032586D01*
Y02633D01*
X017055Y026262D01*
X017094Y026204D01*
X02005Y023248D01*
Y021735D01*
X02095D01*
Y023265D01*
X020475D01*
X020437Y023292D01*
X020423Y02336D01*
X020385Y023418D01*
X020385Y023418D01*
X017398Y026404D01*
Y032586D01*
X017403Y032587D01*
X017512Y03265D01*
X0176Y032738D01*
X017663Y032847D01*
X017664Y032852D01*
X019486D01*
X019487Y032847D01*
X01955Y032738D01*
X019638Y03265D01*
X019747Y032587D01*
X019867Y032555D01*
X019993D01*
X020113Y032587D01*
X020222Y03265D01*
X02031Y032738D01*
X020373Y032847D01*
X020405Y032967D01*
Y033093D01*
X020373Y033213D01*
X02031Y033322D01*
X020222Y03341D01*
X020113Y033473D01*
X019993Y033505D01*
D02*
G37*
G36*
X0092Y033572D02*
Y03315D01*
X009601D01*
X009588Y033242D01*
X009543Y033352D01*
X009471Y033446D01*
X009377Y033518D01*
X009267Y033563D01*
X0092Y033572D01*
D02*
G37*
G36*
X0091D02*
X009033Y033563D01*
X008923Y033518D01*
X008829Y033446D01*
X008757Y033352D01*
X008712Y033242D01*
X008699Y03315D01*
X0091D01*
Y033572D01*
D02*
G37*
G36*
X047755Y033565D02*
X047645D01*
X04754Y033537D01*
X047445Y033482D01*
X047368Y033405D01*
X047313Y03331D01*
X04731Y033297D01*
X047268D01*
X0472Y033283D01*
X047142Y033244D01*
X047142Y033244D01*
X046324Y032426D01*
X046285Y032368D01*
X046272Y0323D01*
Y0105D01*
X046285Y010432D01*
X046324Y010374D01*
X046974Y009724D01*
X047032Y009685D01*
X0471Y009672D01*
X0471Y009672D01*
X053612D01*
X05368Y009685D01*
X053738Y009724D01*
X054176Y010162D01*
X054215Y01022D01*
X054228Y010288D01*
X054228Y010288D01*
Y011306D01*
X054296Y011345D01*
X054371Y011419D01*
X054424Y011511D01*
X054451Y011613D01*
Y011719D01*
X054424Y011821D01*
X054371Y011912D01*
X054296Y011987D01*
X054205Y01204D01*
X054103Y012067D01*
X053997D01*
X053895Y01204D01*
X053804Y011987D01*
X053729Y011912D01*
X053676Y011821D01*
X053649Y011719D01*
Y011613D01*
X053676Y011511D01*
X053729Y011419D01*
X053804Y011345D01*
X053872Y011306D01*
Y010362D01*
X053538Y010028D01*
X047174D01*
X046628Y010574D01*
Y032226D01*
X047306Y032903D01*
X047368Y032895D01*
X047368Y032895D01*
X047445Y032818D01*
X04754Y032763D01*
X047645Y032735D01*
X047755D01*
X04786Y032763D01*
X047955Y032818D01*
X048032Y032895D01*
X048087Y03299D01*
X048115Y033095D01*
Y033205D01*
X048087Y03331D01*
X048032Y033405D01*
X047955Y033482D01*
X04786Y033537D01*
X047755Y033565D01*
D02*
G37*
G36*
X0395Y035355D02*
X0277D01*
X027602Y035336D01*
X02752Y03528D01*
X025585Y033346D01*
X025541D01*
X025505Y033382D01*
X02541Y033437D01*
X025305Y033465D01*
X025195D01*
X02509Y033437D01*
X024995Y033382D01*
X024918Y033305D01*
X024863Y03321D01*
X024835Y033105D01*
Y032995D01*
X024863Y03289D01*
X024918Y032795D01*
X024995Y032718D01*
X02509Y032663D01*
X025195Y032635D01*
X025305D01*
X02541Y032663D01*
X025505Y032718D01*
X025582Y032795D01*
X025606Y032836D01*
X025691D01*
X025788Y032855D01*
X025871Y032911D01*
X027806Y034845D01*
X039394D01*
X041207Y033033D01*
X041289Y032978D01*
X041387Y032958D01*
X044132D01*
X044168Y032895D01*
X044245Y032818D01*
X04434Y032763D01*
X044445Y032735D01*
X044555D01*
X04466Y032763D01*
X044755Y032818D01*
X044832Y032895D01*
X044887Y03299D01*
X044915Y033095D01*
Y033205D01*
X044887Y03331D01*
X044832Y033405D01*
X044755Y033482D01*
X04466Y033537D01*
X044555Y033565D01*
X044445D01*
X04434Y033537D01*
X044245Y033482D01*
X044231Y033468D01*
X041492D01*
X03968Y03528D01*
X039598Y035336D01*
X0395Y035355D01*
D02*
G37*
G36*
X028555Y033465D02*
X028445D01*
X02834Y033437D01*
X028245Y033382D01*
X028168Y033305D01*
X028124Y033228D01*
X02725D01*
X027182Y033215D01*
X027124Y033176D01*
X026374Y032426D01*
X026335Y032368D01*
X026322Y0323D01*
Y023265D01*
X02605D01*
Y021735D01*
X02695D01*
Y023265D01*
X026678D01*
Y032226D01*
X027324Y032872D01*
X028124D01*
X028168Y032795D01*
X028245Y032718D01*
X02834Y032663D01*
X028445Y032635D01*
X028555D01*
X02866Y032663D01*
X028755Y032718D01*
X028832Y032795D01*
X028887Y03289D01*
X028915Y032995D01*
Y033105D01*
X028887Y03321D01*
X028832Y033305D01*
X028755Y033382D01*
X02866Y033437D01*
X028555Y033465D01*
D02*
G37*
G36*
X009601Y03305D02*
X0092D01*
Y032628D01*
X009267Y032637D01*
X009377Y032682D01*
X009471Y032754D01*
X009543Y032848D01*
X009588Y032958D01*
X009601Y03305D01*
D02*
G37*
G36*
X0091D02*
X008699D01*
X008712Y032958D01*
X008757Y032848D01*
X008829Y032754D01*
X008923Y032682D01*
X009033Y032637D01*
X0091Y032628D01*
Y03305D01*
D02*
G37*
G36*
X047755Y032565D02*
X047645D01*
X04754Y032537D01*
X047445Y032482D01*
X047368Y032405D01*
X047313Y03231D01*
X047285Y032205D01*
Y032095D01*
X047308Y03201D01*
X046774Y031476D01*
X046735Y031418D01*
X046722Y03135D01*
Y01095D01*
X046735Y010882D01*
X046774Y010824D01*
X047274Y010324D01*
X047274Y010324D01*
X047332Y010285D01*
X0474Y010272D01*
X0474Y010272D01*
X0527D01*
X052768Y010285D01*
X052826Y010324D01*
X053176Y010674D01*
X053176Y010674D01*
X053215Y010732D01*
X053228Y0108D01*
X053228Y0108D01*
Y011306D01*
X053296Y011345D01*
X053371Y011419D01*
X053424Y011511D01*
X053451Y011613D01*
Y011719D01*
X053424Y011821D01*
X053371Y011912D01*
X053296Y011987D01*
X053205Y01204D01*
X053103Y012067D01*
X052997D01*
X052895Y01204D01*
X052804Y011987D01*
X052729Y011912D01*
X052676Y011821D01*
X052649Y011719D01*
Y011613D01*
X052676Y011511D01*
X052729Y011419D01*
X052804Y011345D01*
X052872Y011306D01*
Y010874D01*
X052626Y010628D01*
X047474D01*
X047078Y011024D01*
Y031276D01*
X04756Y031758D01*
X047645Y031735D01*
X047755D01*
X04786Y031763D01*
X047955Y031818D01*
X048032Y031895D01*
X048087Y03199D01*
X048115Y032095D01*
Y032205D01*
X048087Y03231D01*
X048032Y032405D01*
X047955Y032482D01*
X04786Y032537D01*
X047755Y032565D01*
D02*
G37*
G36*
X028555Y032465D02*
X028445D01*
X02834Y032437D01*
X028245Y032382D01*
X028168Y032305D01*
X028113Y03221D01*
X028085Y032105D01*
Y031995D01*
X028108Y03191D01*
X027374Y031176D01*
X027335Y031118D01*
X027322Y03105D01*
Y023265D01*
X02705D01*
Y021735D01*
X02795D01*
Y023265D01*
X027678D01*
Y030976D01*
X02836Y031658D01*
X028445Y031635D01*
X028555D01*
X02866Y031663D01*
X028755Y031718D01*
X028832Y031795D01*
X028887Y03189D01*
X028915Y031995D01*
Y032105D01*
X028887Y03221D01*
X028832Y032305D01*
X028755Y032382D01*
X02866Y032437D01*
X028555Y032465D01*
D02*
G37*
G36*
X019352Y03106D02*
X01935D01*
Y030713D01*
X019697D01*
Y030715D01*
X01967Y030816D01*
X019618Y030907D01*
X019544Y030981D01*
X019453Y031033D01*
X019352Y03106D01*
D02*
G37*
G36*
X01925D02*
X019248D01*
X019147Y031033D01*
X019056Y030981D01*
X018982Y030907D01*
X01893Y030816D01*
X018903Y030715D01*
Y030713D01*
X01925D01*
Y03106D01*
D02*
G37*
G36*
X021352D02*
X021248D01*
X021147Y031033D01*
X021056Y030981D01*
X020982Y030907D01*
X02093Y030816D01*
X020903Y030715D01*
Y030611D01*
X020923Y030538D01*
X020674Y030289D01*
X020635Y030231D01*
X020622Y030163D01*
Y0291D01*
X020635Y029032D01*
X020674Y028974D01*
X021024Y028624D01*
X021024Y028624D01*
X021082Y028585D01*
X02115Y028572D01*
X02115Y028572D01*
X022476D01*
X024296Y026751D01*
X024292Y026721D01*
X024229Y026658D01*
X024185Y026581D01*
X024162Y026495D01*
Y026405D01*
X024185Y026319D01*
X024229Y026242D01*
X024292Y026179D01*
X024322Y026163D01*
Y025515D01*
X023995D01*
Y024685D01*
X024212D01*
Y024264D01*
X023876Y023928D01*
X0228D01*
X022732Y023915D01*
X022674Y023876D01*
X022374Y023576D01*
X022335Y023518D01*
X022322Y02345D01*
Y023265D01*
X02205D01*
Y021735D01*
X02295D01*
Y023265D01*
X022678D01*
Y023376D01*
X022874Y023572D01*
X02395D01*
X024018Y023585D01*
X024076Y023624D01*
X024517Y024064D01*
X024555Y024122D01*
X024569Y024191D01*
Y024685D01*
X024786D01*
Y025515D01*
X024678D01*
Y026163D01*
X024708Y026179D01*
X024771Y026242D01*
X024815Y026319D01*
X024838Y026405D01*
Y026495D01*
X024815Y026581D01*
X024771Y026658D01*
X024708Y026721D01*
X024676Y026739D01*
Y026803D01*
X024676Y026803D01*
X024662Y026871D01*
X024624Y026929D01*
X022676Y028876D01*
X022618Y028915D01*
X02255Y028928D01*
X021224D01*
X020978Y029174D01*
Y030089D01*
X021175Y030286D01*
X021248Y030266D01*
X021352D01*
X021453Y030293D01*
X021544Y030345D01*
X021618Y030419D01*
X02167Y03051D01*
X021697Y030611D01*
Y030715D01*
X02167Y030816D01*
X021618Y030907D01*
X021544Y030981D01*
X021453Y031033D01*
X021352Y03106D01*
D02*
G37*
G36*
X019697Y030613D02*
X01935D01*
Y030266D01*
X019352D01*
X019453Y030293D01*
X019544Y030345D01*
X019618Y030419D01*
X01967Y03051D01*
X019697Y030611D01*
Y030613D01*
D02*
G37*
G36*
X01925D02*
X018903D01*
Y030611D01*
X01893Y03051D01*
X018982Y030419D01*
X019056Y030345D01*
X019147Y030293D01*
X019248Y030266D01*
X01925D01*
Y030613D01*
D02*
G37*
G36*
X06205Y031153D02*
X061967Y031142D01*
X06189Y03111D01*
X061823Y031059D01*
X061772Y030993D01*
X06174Y030915D01*
X061729Y030832D01*
Y030396D01*
X06174Y030313D01*
X061772Y030236D01*
X061823Y030169D01*
X06189Y030118D01*
X061967Y030086D01*
X06205Y030075D01*
X062133Y030086D01*
X06221Y030118D01*
X062277Y030169D01*
X062328Y030236D01*
X06236Y030313D01*
X062371Y030396D01*
Y030832D01*
X06236Y030915D01*
X062328Y030993D01*
X062277Y031059D01*
X06221Y03111D01*
X062133Y031142D01*
X06205Y031153D01*
D02*
G37*
G36*
X06085Y03245D02*
X06075D01*
X060658Y032412D01*
X060588Y032342D01*
X06055Y03225D01*
Y03215D01*
X060588Y032058D01*
X060658Y031988D01*
X06075Y03195D01*
X060767D01*
X060872Y031846D01*
Y031096D01*
X060823Y031059D01*
X060772Y030993D01*
X06074Y030915D01*
X060729Y030832D01*
Y030396D01*
X06074Y030313D01*
X060772Y030236D01*
X060823Y030169D01*
X06089Y030118D01*
X060967Y030086D01*
X06105Y030075D01*
X061133Y030086D01*
X06121Y030118D01*
X061277Y030169D01*
X061328Y030236D01*
X06136Y030313D01*
X061371Y030396D01*
Y030832D01*
X06136Y030915D01*
X061328Y030993D01*
X061277Y031059D01*
X061228Y031096D01*
Y03192D01*
X061215Y031988D01*
X061176Y032046D01*
X061176Y032046D01*
X06105Y032172D01*
Y03225D01*
X061012Y032342D01*
X060942Y032412D01*
X06085Y03245D01*
D02*
G37*
G36*
X06005Y031153D02*
X059967Y031142D01*
X05989Y03111D01*
X059823Y031059D01*
X059772Y030993D01*
X05974Y030915D01*
X059729Y030832D01*
Y030396D01*
X05974Y030313D01*
X059772Y030236D01*
X059823Y030169D01*
X05989Y030118D01*
X059967Y030086D01*
X06005Y030075D01*
X060133Y030086D01*
X06021Y030118D01*
X060277Y030169D01*
X060328Y030236D01*
X06036Y030313D01*
X060371Y030396D01*
Y030832D01*
X06036Y030915D01*
X060328Y030993D01*
X060277Y031059D01*
X06021Y03111D01*
X060133Y031142D01*
X06005Y031153D01*
D02*
G37*
G36*
X04185Y03245D02*
X04175D01*
X041658Y032412D01*
X041588Y032342D01*
X04155Y03225D01*
Y03215D01*
X041588Y032058D01*
X041658Y031988D01*
X04175Y03195D01*
X041765D01*
X04187Y031845D01*
Y031096D01*
X041822Y031059D01*
X041771Y030993D01*
X041739Y030915D01*
X041728Y030832D01*
Y030396D01*
X041739Y030313D01*
X041771Y030236D01*
X041822Y030169D01*
X041888Y030118D01*
X041966Y030086D01*
X042049Y030075D01*
X042132Y030086D01*
X042209Y030118D01*
X042276Y030169D01*
X042327Y030236D01*
X042359Y030313D01*
X04237Y030396D01*
Y030832D01*
X042359Y030915D01*
X042327Y030993D01*
X042276Y031059D01*
X042227Y031096D01*
Y031918D01*
X042227Y031918D01*
X042214Y031987D01*
X042175Y032045D01*
X04205Y03217D01*
Y03225D01*
X042012Y032342D01*
X041942Y032412D01*
X04185Y03245D01*
D02*
G37*
G36*
X03995Y0329D02*
X03985D01*
X039758Y032862D01*
X039688Y032792D01*
X03965Y0327D01*
Y0326D01*
X039688Y032508D01*
X039758Y032438D01*
X03985Y0324D01*
X039857D01*
X03987Y032387D01*
Y031096D01*
X039822Y031059D01*
X039771Y030993D01*
X039739Y030915D01*
X039728Y030832D01*
Y030396D01*
X039739Y030313D01*
X039771Y030236D01*
X039822Y030169D01*
X039888Y030118D01*
X039966Y030086D01*
X040049Y030075D01*
X040132Y030086D01*
X040209Y030118D01*
X040276Y030169D01*
X040327Y030236D01*
X040359Y030313D01*
X04037Y030396D01*
Y030832D01*
X040359Y030915D01*
X040327Y030993D01*
X040276Y031059D01*
X040227Y031096D01*
Y032461D01*
X040214Y032529D01*
X040175Y032587D01*
X040175Y032587D01*
X04015Y032612D01*
Y0327D01*
X040112Y032792D01*
X040042Y032862D01*
X03995Y0329D01*
D02*
G37*
G36*
X03875Y0334D02*
X03865D01*
X038558Y033362D01*
X038488Y033292D01*
X03845Y0332D01*
Y0331D01*
X038488Y033008D01*
X038558Y032938D01*
X03865Y0329D01*
X038698D01*
X03887Y032727D01*
Y031096D01*
X038822Y031059D01*
X038771Y030993D01*
X038739Y030915D01*
X038728Y030832D01*
Y030396D01*
X038739Y030313D01*
X038771Y030236D01*
X038822Y030169D01*
X038888Y030118D01*
X038966Y030086D01*
X039049Y030075D01*
X039132Y030086D01*
X039209Y030118D01*
X039276Y030169D01*
X039327Y030236D01*
X039359Y030313D01*
X03937Y030396D01*
Y030832D01*
X039359Y030915D01*
X039327Y030993D01*
X039276Y031059D01*
X039227Y031096D01*
Y032801D01*
X039214Y032869D01*
X039175Y032927D01*
X03895Y033152D01*
Y0332D01*
X038912Y033292D01*
X038842Y033362D01*
X03875Y0334D01*
D02*
G37*
G36*
X033549Y031153D02*
X033466Y031142D01*
X033388Y03111D01*
X033322Y031059D01*
X033271Y030993D01*
X033239Y030915D01*
X033228Y030832D01*
Y030396D01*
X033239Y030313D01*
X033271Y030236D01*
X033322Y030169D01*
X033388Y030118D01*
X033466Y030086D01*
X033549Y030075D01*
X033632Y030086D01*
X033709Y030118D01*
X033776Y030169D01*
X033827Y030236D01*
X033859Y030313D01*
X03387Y030396D01*
Y030832D01*
X033859Y030915D01*
X033827Y030993D01*
X033776Y031059D01*
X033709Y03111D01*
X033632Y031142D01*
X033549Y031153D01*
D02*
G37*
G36*
X032549D02*
X032466Y031142D01*
X032388Y03111D01*
X032322Y031059D01*
X032271Y030993D01*
X032239Y030915D01*
X032228Y030832D01*
Y030396D01*
X032239Y030313D01*
X032271Y030236D01*
X032322Y030169D01*
X032388Y030118D01*
X032466Y030086D01*
X032549Y030075D01*
X032632Y030086D01*
X032709Y030118D01*
X032776Y030169D01*
X032827Y030236D01*
X032859Y030313D01*
X03287Y030396D01*
Y030832D01*
X032859Y030915D01*
X032827Y030993D01*
X032776Y031059D01*
X032709Y03111D01*
X032632Y031142D01*
X032549Y031153D01*
D02*
G37*
G36*
X029549D02*
X029466Y031142D01*
X029388Y03111D01*
X029322Y031059D01*
X029271Y030993D01*
X029239Y030915D01*
X029228Y030832D01*
Y030396D01*
X029239Y030313D01*
X029271Y030236D01*
X029322Y030169D01*
X029388Y030118D01*
X029466Y030086D01*
X029549Y030075D01*
X029632Y030086D01*
X029709Y030118D01*
X029776Y030169D01*
X029827Y030236D01*
X029859Y030313D01*
X02987Y030396D01*
Y030832D01*
X029859Y030915D01*
X029827Y030993D01*
X029776Y031059D01*
X029709Y03111D01*
X029632Y031142D01*
X029549Y031153D01*
D02*
G37*
G36*
X05255Y031139D02*
X052467Y031128D01*
X05239Y031096D01*
X052323Y031045D01*
X052272Y030979D01*
X05224Y030901D01*
X052229Y030818D01*
Y030382D01*
X05224Y030299D01*
X052272Y030221D01*
X052323Y030155D01*
X05239Y030104D01*
X052467Y030072D01*
X05255Y030061D01*
X052633Y030072D01*
X05271Y030104D01*
X052777Y030155D01*
X052828Y030221D01*
X05286Y030299D01*
X052871Y030382D01*
Y030818D01*
X05286Y030901D01*
X052828Y030979D01*
X052777Y031045D01*
X05271Y031096D01*
X052633Y031128D01*
X05255Y031139D01*
D02*
G37*
G36*
X05155D02*
X051467Y031128D01*
X05139Y031096D01*
X051323Y031045D01*
X051272Y030979D01*
X05124Y030901D01*
X051229Y030818D01*
Y030382D01*
X05124Y030299D01*
X051272Y030221D01*
X051323Y030155D01*
X05139Y030104D01*
X051467Y030072D01*
X05155Y030061D01*
X051633Y030072D01*
X05171Y030104D01*
X051777Y030155D01*
X051828Y030221D01*
X05186Y030299D01*
X051871Y030382D01*
Y030818D01*
X05186Y030901D01*
X051828Y030979D01*
X051777Y031045D01*
X05171Y031096D01*
X051633Y031128D01*
X05155Y031139D01*
D02*
G37*
G36*
X05055D02*
X050467Y031128D01*
X05039Y031096D01*
X050323Y031045D01*
X050272Y030979D01*
X05024Y030901D01*
X050229Y030818D01*
Y030382D01*
X05024Y030299D01*
X050272Y030221D01*
X050323Y030155D01*
X05039Y030104D01*
X050467Y030072D01*
X05055Y030061D01*
X050633Y030072D01*
X05071Y030104D01*
X050777Y030155D01*
X050828Y030221D01*
X05086Y030299D01*
X050871Y030382D01*
Y030818D01*
X05086Y030901D01*
X050828Y030979D01*
X050777Y031045D01*
X05071Y031096D01*
X050633Y031128D01*
X05055Y031139D01*
D02*
G37*
G36*
X02455Y029913D02*
Y029626D01*
X024837D01*
X024815Y029707D01*
X024771Y029784D01*
X024708Y029847D01*
X024631Y029891D01*
X02455Y029913D01*
D02*
G37*
G36*
X02445D02*
X024369Y029891D01*
X024292Y029847D01*
X024229Y029784D01*
X024185Y029707D01*
X024163Y029626D01*
X02445D01*
Y029913D01*
D02*
G37*
G36*
X016395Y03014D02*
X016305D01*
X016219Y030117D01*
X016141Y030072D01*
X016078Y030009D01*
X016033Y029931D01*
X01601Y029845D01*
Y029755D01*
X016033Y029669D01*
X016078Y029591D01*
X016141Y029528D01*
X016219Y029483D01*
X016305Y02946D01*
X016395D01*
X016481Y029483D01*
X016559Y029528D01*
X016622Y029591D01*
X016667Y029669D01*
X01669Y029755D01*
Y029845D01*
X016667Y029931D01*
X016622Y030009D01*
X016559Y030072D01*
X016481Y030117D01*
X016395Y03014D01*
D02*
G37*
G36*
X024837Y029526D02*
X02455D01*
Y029239D01*
X024631Y029261D01*
X024708Y029305D01*
X024771Y029368D01*
X024815Y029445D01*
X024837Y029526D01*
D02*
G37*
G36*
X02445D02*
X024163D01*
X024185Y029445D01*
X024229Y029368D01*
X024292Y029305D01*
X024369Y029261D01*
X02445Y029239D01*
Y029526D01*
D02*
G37*
G36*
X0219Y034205D02*
X011D01*
X010902Y034186D01*
X01082Y03413D01*
X01024Y03355D01*
X0097D01*
Y03265D01*
X0106D01*
Y03319D01*
X011106Y033695D01*
X021794D01*
X023245Y032244D01*
Y029799D01*
X023229Y029784D01*
X023185Y029707D01*
X023162Y029621D01*
Y029531D01*
X023185Y029445D01*
X023229Y029368D01*
X023292Y029305D01*
X023369Y029261D01*
X023455Y029238D01*
X023545D01*
X023631Y029261D01*
X023708Y029305D01*
X023771Y029368D01*
X023815Y029445D01*
X023838Y029531D01*
Y029621D01*
X023815Y029707D01*
X023771Y029784D01*
X023755Y029799D01*
Y03235D01*
X023735Y032448D01*
X02368Y03253D01*
X02208Y03413D01*
X021998Y034186D01*
X0219Y034205D01*
D02*
G37*
G36*
X022545Y029914D02*
X022455D01*
X022369Y029891D01*
X022292Y029847D01*
X022229Y029784D01*
X022185Y029707D01*
X022162Y029621D01*
Y029531D01*
X022185Y029445D01*
X022229Y029368D01*
X022292Y029305D01*
X022369Y029261D01*
X022455Y029238D01*
X022545D01*
X022631Y029261D01*
X022708Y029305D01*
X022771Y029368D01*
X022815Y029445D01*
X022838Y029531D01*
Y029621D01*
X022815Y029707D01*
X022771Y029784D01*
X022708Y029847D01*
X022631Y029891D01*
X022545Y029914D01*
D02*
G37*
G36*
X021838D02*
X021162D01*
Y029238D01*
X021838D01*
Y029914D01*
D02*
G37*
G36*
X028718Y029402D02*
X0287D01*
Y028939D01*
X029163D01*
Y028957D01*
X029128Y029087D01*
X029061Y029204D01*
X028965Y0293D01*
X028848Y029367D01*
X028718Y029402D01*
D02*
G37*
G36*
X0286D02*
X028582D01*
X028452Y029367D01*
X028335Y0293D01*
X028239Y029204D01*
X028172Y029087D01*
X028137Y028957D01*
Y028939D01*
X0286D01*
Y029402D01*
D02*
G37*
G36*
X016395Y02914D02*
X016305D01*
X016219Y029117D01*
X016141Y029072D01*
X016078Y029009D01*
X016033Y028931D01*
X01601Y028845D01*
Y028755D01*
X016033Y028669D01*
X016078Y028591D01*
X016141Y028528D01*
X016219Y028483D01*
X016305Y02846D01*
X016395D01*
X016481Y028483D01*
X016559Y028528D01*
X016622Y028591D01*
X016667Y028669D01*
X01669Y028755D01*
Y028845D01*
X016667Y028931D01*
X016622Y029009D01*
X016559Y029072D01*
X016481Y029117D01*
X016395Y02914D01*
D02*
G37*
G36*
X029163Y028839D02*
X0287D01*
Y028376D01*
X028718D01*
X028848Y028411D01*
X028965Y028478D01*
X029061Y028574D01*
X029128Y028691D01*
X029163Y028821D01*
Y028839D01*
D02*
G37*
G36*
X0286D02*
X028137D01*
Y028821D01*
X028172Y028691D01*
X028239Y028574D01*
X028335Y028478D01*
X028452Y028411D01*
X028582Y028376D01*
X0286D01*
Y028839D01*
D02*
G37*
G36*
X0364Y028609D02*
Y0283D01*
X036709D01*
X036685Y028389D01*
X036638Y028471D01*
X036571Y028538D01*
X036489Y028585D01*
X0364Y028609D01*
D02*
G37*
G36*
X0414D02*
Y0283D01*
X041709D01*
X041685Y028389D01*
X041638Y028471D01*
X041571Y028538D01*
X041489Y028585D01*
X0414Y028609D01*
D02*
G37*
G36*
X0363D02*
X036211Y028585D01*
X036129Y028538D01*
X036062Y028471D01*
X036015Y028389D01*
X035991Y0283D01*
X0363D01*
Y028609D01*
D02*
G37*
G36*
X0413D02*
X041211Y028585D01*
X041129Y028538D01*
X041062Y028471D01*
X041015Y028389D01*
X040991Y0283D01*
X0413D01*
Y028609D01*
D02*
G37*
G36*
X060883Y028966D02*
X060639D01*
Y02817D01*
X060883D01*
Y028966D01*
D02*
G37*
G36*
X060539D02*
X060294D01*
Y02817D01*
X060539D01*
Y028966D01*
D02*
G37*
G36*
X059545D02*
X0593D01*
Y02817D01*
X059545D01*
Y028966D01*
D02*
G37*
G36*
X0592D02*
X058955D01*
Y02817D01*
X0592D01*
Y028966D01*
D02*
G37*
G36*
X054466Y02851D02*
X054209D01*
Y02815D01*
X054723D01*
Y028253D01*
X054703Y028351D01*
X054648Y028435D01*
X054564Y02849D01*
X054466Y02851D01*
D02*
G37*
G36*
X054109D02*
X053853D01*
X053755Y02849D01*
X053671Y028435D01*
X053615Y028351D01*
X053596Y028253D01*
Y02815D01*
X054109D01*
Y02851D01*
D02*
G37*
G36*
X010102Y028895D02*
X009998D01*
X009897Y028868D01*
X009807Y028816D01*
X009734Y028743D01*
X009682Y028653D01*
X009655Y028552D01*
Y028448D01*
X009674Y028376D01*
X008724Y027426D01*
X008685Y027368D01*
X008672Y0273D01*
Y026012D01*
X008633Y025996D01*
X008543Y025927D01*
X008474Y025837D01*
X008431Y025732D01*
X008416Y02562D01*
Y02528D01*
X008431Y025168D01*
X008474Y025063D01*
X008543Y024973D01*
X008633Y024904D01*
X008738Y024861D01*
X00885Y024846D01*
X008962Y024861D01*
X009067Y024904D01*
X009157Y024973D01*
X009226Y025063D01*
X009269Y025168D01*
X009284Y02528D01*
Y02562D01*
X009269Y025732D01*
X009226Y025837D01*
X009157Y025927D01*
X009067Y025996D01*
X009028Y026012D01*
Y027226D01*
X009926Y028124D01*
X009998Y028105D01*
X010102D01*
X010203Y028132D01*
X010293Y028184D01*
X010366Y028257D01*
X010418Y028347D01*
X010445Y028448D01*
Y028552D01*
X010418Y028653D01*
X010366Y028743D01*
X010293Y028816D01*
X010203Y028868D01*
X010102Y028895D01*
D02*
G37*
G36*
X041709Y0282D02*
X0414D01*
Y027891D01*
X041489Y027915D01*
X041571Y027962D01*
X041638Y028029D01*
X041685Y028111D01*
X041709Y0282D01*
D02*
G37*
G36*
X036709D02*
X0364D01*
Y027891D01*
X036489Y027915D01*
X036571Y027962D01*
X036638Y028029D01*
X036685Y028111D01*
X036709Y0282D01*
D02*
G37*
G36*
X0413D02*
X040991D01*
X041015Y028111D01*
X041062Y028029D01*
X041129Y027962D01*
X041211Y027915D01*
X0413Y027891D01*
Y0282D01*
D02*
G37*
G36*
X0363D02*
X035991D01*
X036015Y028111D01*
X036062Y028029D01*
X036129Y027962D01*
X036211Y027915D01*
X0363Y027891D01*
Y0282D01*
D02*
G37*
G36*
X041049Y031153D02*
X040966Y031142D01*
X040888Y03111D01*
X040822Y031059D01*
X040771Y030993D01*
X040739Y030915D01*
X040728Y030832D01*
Y030396D01*
X040739Y030313D01*
X040771Y030236D01*
X040822Y030169D01*
X040888Y030118D01*
X040966Y030086D01*
X041049Y030075D01*
X041132Y030086D01*
X041209Y030118D01*
X041221Y030127D01*
X043003Y028344D01*
X042991Y028297D01*
Y028203D01*
X043015Y028111D01*
X043062Y028029D01*
X043129Y027962D01*
X043211Y027915D01*
X043303Y027891D01*
X043397D01*
X043489Y027915D01*
X043571Y027962D01*
X043638Y028029D01*
X043685Y028111D01*
X043709Y028203D01*
Y028297D01*
X043685Y028389D01*
X043638Y028471D01*
X043571Y028538D01*
X043489Y028585D01*
X043397Y028609D01*
X043303D01*
X043256Y028597D01*
X041385Y030467D01*
X04137Y030478D01*
Y030832D01*
X041359Y030915D01*
X041327Y030993D01*
X041276Y031059D01*
X041209Y03111D01*
X041132Y031142D01*
X041049Y031153D01*
D02*
G37*
G36*
X042397Y028609D02*
X042303D01*
X042211Y028585D01*
X042129Y028538D01*
X042062Y028471D01*
X042015Y028389D01*
X041991Y028297D01*
Y028203D01*
X042015Y028111D01*
X042062Y028029D01*
X042129Y027962D01*
X042211Y027915D01*
X042303Y027891D01*
X042397D01*
X042489Y027915D01*
X042571Y027962D01*
X042638Y028029D01*
X042685Y028111D01*
X042709Y028203D01*
Y028297D01*
X042685Y028389D01*
X042638Y028471D01*
X042571Y028538D01*
X042489Y028585D01*
X042397Y028609D01*
D02*
G37*
G36*
X040397D02*
X040303D01*
X040211Y028585D01*
X040129Y028538D01*
X040062Y028471D01*
X040015Y028389D01*
X039991Y028297D01*
Y028203D01*
X040015Y028111D01*
X040062Y028029D01*
X040129Y027962D01*
X040211Y027915D01*
X040303Y027891D01*
X040397D01*
X040489Y027915D01*
X040571Y027962D01*
X040638Y028029D01*
X040685Y028111D01*
X040709Y028203D01*
Y028297D01*
X040685Y028389D01*
X040638Y028471D01*
X040571Y028538D01*
X040489Y028585D01*
X040397Y028609D01*
D02*
G37*
G36*
X039397D02*
X039303D01*
X039211Y028585D01*
X039129Y028538D01*
X039062Y028471D01*
X039015Y028389D01*
X038991Y028297D01*
Y028203D01*
X039015Y028111D01*
X039062Y028029D01*
X039129Y027962D01*
X039211Y027915D01*
X039303Y027891D01*
X039397D01*
X039489Y027915D01*
X039571Y027962D01*
X039638Y028029D01*
X039685Y028111D01*
X039709Y028203D01*
Y028297D01*
X039685Y028389D01*
X039638Y028471D01*
X039571Y028538D01*
X039489Y028585D01*
X039397Y028609D01*
D02*
G37*
G36*
X038397D02*
X038303D01*
X038211Y028585D01*
X038129Y028538D01*
X038062Y028471D01*
X038015Y028389D01*
X037991Y028297D01*
Y028203D01*
X038015Y028111D01*
X038062Y028029D01*
X038129Y027962D01*
X038211Y027915D01*
X038303Y027891D01*
X038397D01*
X038489Y027915D01*
X038571Y027962D01*
X038638Y028029D01*
X038685Y028111D01*
X038709Y028203D01*
Y028297D01*
X038685Y028389D01*
X038638Y028471D01*
X038571Y028538D01*
X038489Y028585D01*
X038397Y028609D01*
D02*
G37*
G36*
X037397D02*
X037303D01*
X037211Y028585D01*
X037129Y028538D01*
X037062Y028471D01*
X037015Y028389D01*
X036991Y028297D01*
Y028203D01*
X037015Y028111D01*
X037062Y028029D01*
X037129Y027962D01*
X037211Y027915D01*
X037303Y027891D01*
X037397D01*
X037489Y027915D01*
X037571Y027962D01*
X037638Y028029D01*
X037685Y028111D01*
X037709Y028203D01*
Y028297D01*
X037685Y028389D01*
X037638Y028471D01*
X037571Y028538D01*
X037489Y028585D01*
X037397Y028609D01*
D02*
G37*
G36*
X035397D02*
X035303D01*
X035211Y028585D01*
X035129Y028538D01*
X035062Y028471D01*
X035015Y028389D01*
X034991Y028297D01*
Y028203D01*
X035015Y028111D01*
X035062Y028029D01*
X035129Y027962D01*
X035211Y027915D01*
X035303Y027891D01*
X035397D01*
X035489Y027915D01*
X035571Y027962D01*
X035638Y028029D01*
X035685Y028111D01*
X035709Y028203D01*
Y028297D01*
X035685Y028389D01*
X035638Y028471D01*
X035571Y028538D01*
X035489Y028585D01*
X035397Y028609D01*
D02*
G37*
G36*
X033709D02*
X032991D01*
Y027891D01*
X033709D01*
Y028609D01*
D02*
G37*
G36*
X054723Y02805D02*
X054209D01*
Y02769D01*
X054466D01*
X054564Y02771D01*
X054648Y027765D01*
X054703Y027849D01*
X054723Y027947D01*
Y02805D01*
D02*
G37*
G36*
X054109D02*
X053596D01*
Y027947D01*
X053615Y027849D01*
X053671Y027765D01*
X053755Y02771D01*
X053853Y02769D01*
X054109D01*
Y02805D01*
D02*
G37*
G36*
X058206Y028966D02*
X057617D01*
Y027274D01*
X057657D01*
Y026889D01*
X057676Y026791D01*
X057731Y026708D01*
X05797Y02647D01*
X058052Y026414D01*
X05815Y026395D01*
X062272D01*
X06237Y026414D01*
X062452Y02647D01*
X063097Y027115D01*
X063763D01*
Y027642D01*
X063818Y027697D01*
X067454D01*
X067495Y027636D01*
X067586Y027545D01*
X067692Y027474D01*
X06781Y027425D01*
X067936Y0274D01*
X068064D01*
X06819Y027425D01*
X068308Y027474D01*
X068414Y027545D01*
X068505Y027636D01*
X068576Y027742D01*
X068625Y02786D01*
X06865Y027986D01*
Y028114D01*
X068625Y02824D01*
X068576Y028358D01*
X068505Y028464D01*
X068414Y028555D01*
X068308Y028626D01*
X06819Y028675D01*
X068064Y0287D01*
X067936D01*
X06781Y028675D01*
X067692Y028626D01*
X067586Y028555D01*
X067495Y028464D01*
X067454Y028403D01*
X063672D01*
X063581Y028391D01*
X063496Y028356D01*
X063422Y0283D01*
X063264Y028141D01*
X062737D01*
Y027475D01*
X062166Y026905D01*
X058256D01*
X058166Y026994D01*
Y027274D01*
X058206D01*
Y028966D01*
D02*
G37*
G36*
X060883Y02807D02*
X060639D01*
Y027274D01*
X060883D01*
Y02807D01*
D02*
G37*
G36*
X060539D02*
X060294D01*
Y027274D01*
X060539D01*
Y02807D01*
D02*
G37*
G36*
X05765Y03355D02*
X05755D01*
X057458Y033512D01*
X057388Y033442D01*
X05735Y03335D01*
Y03325D01*
X057388Y033158D01*
X057458Y033088D01*
X05755Y03305D01*
X057611D01*
X057872Y03279D01*
Y031096D01*
X057823Y031059D01*
X057772Y030993D01*
X05774Y030915D01*
X057729Y030832D01*
Y030396D01*
X05774Y030313D01*
X057772Y030236D01*
X057823Y030169D01*
X057842Y030155D01*
X057825Y030105D01*
X05405D01*
X053952Y030085D01*
X05387Y03003D01*
X05287Y02903D01*
X052814Y028948D01*
X052795Y02885D01*
Y02655D01*
X052814Y026452D01*
X05287Y02637D01*
X053352Y025887D01*
X053337Y025862D01*
X0533Y025722D01*
Y025578D01*
X053337Y025438D01*
X05341Y025312D01*
X053495Y025227D01*
Y024856D01*
X052994Y024355D01*
X051465D01*
Y024515D01*
X050635D01*
Y023685D01*
X051465D01*
Y023845D01*
X0531D01*
X053198Y023865D01*
X05328Y02392D01*
X05393Y02457D01*
X053986Y024652D01*
X054005Y02475D01*
Y025122D01*
X054062Y025137D01*
X054188Y02521D01*
X05429Y025312D01*
X054363Y025438D01*
X0544Y025578D01*
Y025722D01*
X054363Y025862D01*
X05429Y025988D01*
X054188Y02609D01*
X054062Y026163D01*
X053922Y0262D01*
X053778D01*
X053764Y026196D01*
X053305Y026656D01*
Y028744D01*
X054156Y029595D01*
X056072D01*
X056076Y029545D01*
X056028Y029536D01*
X055946Y02948D01*
X05566Y029195D01*
X055605Y029112D01*
X055586Y029015D01*
Y02851D01*
X055534D01*
X055436Y02849D01*
X055352Y028435D01*
X055297Y028351D01*
X055277Y028253D01*
Y027947D01*
X055297Y027849D01*
X055352Y027765D01*
X055436Y02771D01*
X055534Y02769D01*
X05559D01*
Y026135D01*
X055512Y02609D01*
X05541Y025988D01*
X055337Y025862D01*
X0553Y025722D01*
Y025578D01*
X055337Y025438D01*
X05541Y025312D01*
X055512Y02521D01*
X055638Y025137D01*
X055778Y0251D01*
X055922D01*
X056062Y025137D01*
X056188Y02521D01*
X05629Y025312D01*
X056363Y025438D01*
X0564Y025578D01*
Y025722D01*
X056363Y025862D01*
X05629Y025988D01*
X056188Y02609D01*
X0561Y026141D01*
Y02769D01*
X056147D01*
X056245Y02771D01*
X056329Y027765D01*
X056385Y027849D01*
X056404Y027947D01*
Y028253D01*
X056385Y028351D01*
X056329Y028435D01*
X056245Y02849D01*
X056147Y02851D01*
X056095D01*
Y028909D01*
X056231Y029045D01*
X058319D01*
X058345Y029019D01*
Y028966D01*
X058286D01*
Y027274D01*
X058876D01*
Y028966D01*
X058855D01*
Y029124D01*
X058836Y029222D01*
X05878Y029304D01*
X058604Y02948D01*
X058522Y029536D01*
X058474Y029545D01*
X058478Y029595D01*
X059194D01*
X059664Y029125D01*
Y028966D01*
X059624D01*
Y027274D01*
X060214D01*
Y028966D01*
X060174D01*
Y029231D01*
X060155Y029328D01*
X0601Y029411D01*
X05948Y03003D01*
X059398Y030085D01*
X0593Y030105D01*
X059275D01*
X059258Y030155D01*
X059277Y030169D01*
X059328Y030236D01*
X05936Y030313D01*
X059371Y030396D01*
Y030832D01*
X05936Y030915D01*
X059328Y030993D01*
X059277Y031059D01*
X059228Y031096D01*
Y03242D01*
X059215Y032488D01*
X059176Y032546D01*
X059176Y032546D01*
X05905Y032672D01*
Y03275D01*
X059012Y032842D01*
X058942Y032912D01*
X05885Y03295D01*
X05875D01*
X058658Y032912D01*
X058588Y032842D01*
X05855Y03275D01*
Y03265D01*
X058588Y032558D01*
X058658Y032488D01*
X05875Y03245D01*
X058767D01*
X058872Y032346D01*
Y031096D01*
X058823Y031059D01*
X058772Y030993D01*
X05874Y030915D01*
X058729Y030832D01*
Y030396D01*
X05874Y030313D01*
X058772Y030236D01*
X058823Y030169D01*
X058842Y030155D01*
X058825Y030105D01*
X058275D01*
X058258Y030155D01*
X058277Y030169D01*
X058328Y030236D01*
X05836Y030313D01*
X058371Y030396D01*
Y030832D01*
X05836Y030915D01*
X058328Y030993D01*
X058277Y031059D01*
X058228Y031096D01*
Y032864D01*
X058228Y032864D01*
X058215Y032932D01*
X058176Y03299D01*
X05785Y033316D01*
Y03335D01*
X057812Y033442D01*
X057742Y033512D01*
X05765Y03355D01*
D02*
G37*
G36*
X059545Y02807D02*
X0593D01*
Y027274D01*
X059545D01*
Y02807D01*
D02*
G37*
G36*
X0592D02*
X058955D01*
Y027274D01*
X0592D01*
Y02807D01*
D02*
G37*
G36*
X031549Y031153D02*
X031466Y031142D01*
X031388Y03111D01*
X031322Y031059D01*
X031271Y030993D01*
X031239Y030915D01*
X031228Y030832D01*
Y030396D01*
X031239Y030313D01*
X031271Y030236D01*
X031322Y030169D01*
X03137Y030132D01*
Y027851D01*
X031384Y027783D01*
X031423Y027725D01*
X031874Y027274D01*
X031874Y027274D01*
X031932Y027235D01*
X032Y027222D01*
X032Y027222D01*
X03395D01*
X034018Y027235D01*
X034076Y027274D01*
X034442Y027639D01*
X03448Y027697D01*
X034494Y027766D01*
Y027918D01*
X034571Y027962D01*
X034638Y028029D01*
X034685Y028111D01*
X034709Y028203D01*
Y028297D01*
X034685Y028389D01*
X034638Y028471D01*
X034571Y028538D01*
X034489Y028585D01*
X034397Y028609D01*
X034303D01*
X034211Y028585D01*
X034129Y028538D01*
X034062Y028471D01*
X034015Y028389D01*
X033991Y028297D01*
Y028203D01*
X034015Y028111D01*
X034062Y028029D01*
X034129Y027962D01*
X034137Y027958D01*
Y027839D01*
X033876Y027578D01*
X032074D01*
X031727Y027925D01*
Y030132D01*
X031776Y030169D01*
X031827Y030236D01*
X031859Y030313D01*
X03187Y030396D01*
Y030832D01*
X031859Y030915D01*
X031827Y030993D01*
X031776Y031059D01*
X031709Y03111D01*
X031632Y031142D01*
X031549Y031153D01*
D02*
G37*
G36*
X044397Y028609D02*
X044303D01*
X044211Y028585D01*
X044129Y028538D01*
X044062Y028471D01*
X044015Y028389D01*
X043991Y028297D01*
Y028203D01*
X044015Y028111D01*
X044062Y028029D01*
X044129Y027962D01*
X044172Y027938D01*
Y027474D01*
X043776Y027078D01*
X032975D01*
X032942Y027112D01*
X03285Y02715D01*
X03275D01*
X032658Y027112D01*
X032588Y027042D01*
X03255Y02695D01*
Y02685D01*
X032588Y026758D01*
X032658Y026688D01*
X03275Y02665D01*
X03285D01*
X032942Y026688D01*
X032975Y026722D01*
X04385D01*
X043918Y026735D01*
X043976Y026774D01*
X044476Y027274D01*
X044476Y027274D01*
X044515Y027332D01*
X044528Y0274D01*
X044528Y0274D01*
Y027938D01*
X044571Y027962D01*
X044638Y028029D01*
X044685Y028111D01*
X044709Y028203D01*
Y028297D01*
X044685Y028389D01*
X044638Y028471D01*
X044571Y028538D01*
X044489Y028585D01*
X044397Y028609D01*
D02*
G37*
G36*
X018697Y03106D02*
X017903D01*
Y030266D01*
X018045D01*
Y027154D01*
X01806Y027082D01*
X01805Y027046D01*
Y026954D01*
X018074Y026865D01*
X01812Y026785D01*
X018185Y02672D01*
X018265Y026674D01*
X018354Y02665D01*
X018446D01*
X018535Y026674D01*
X018615Y02672D01*
X01868Y026785D01*
X018726Y026865D01*
X01875Y026954D01*
Y027046D01*
X018726Y027135D01*
X01868Y027215D01*
X018615Y02728D01*
X018555Y027315D01*
Y030266D01*
X018697D01*
Y03106D01*
D02*
G37*
G36*
X043049Y031153D02*
X042966Y031142D01*
X042888Y03111D01*
X042822Y031059D01*
X042771Y030993D01*
X042739Y030915D01*
X042728Y030832D01*
Y030396D01*
X042739Y030313D01*
X042771Y030236D01*
X042822Y030169D01*
X042888Y030118D01*
X042966Y030086D01*
X043049Y030075D01*
X043132Y030086D01*
X043209Y030118D01*
X043276Y030169D01*
X043327Y030236D01*
X043359Y030313D01*
X04337Y030396D01*
Y030436D01*
X044638D01*
X045172Y029902D01*
Y026912D01*
X044638Y026378D01*
X04185D01*
X04185Y026378D01*
X041782Y026365D01*
X041724Y026326D01*
X041724Y026326D01*
X041224Y025826D01*
X041185Y025768D01*
X041172Y0257D01*
Y025436D01*
X041129Y025412D01*
X041062Y025345D01*
X041015Y025263D01*
X040991Y025171D01*
Y025077D01*
X041015Y024985D01*
X041062Y024903D01*
X041129Y024836D01*
X041211Y024789D01*
X041303Y024765D01*
X041397D01*
X041489Y024789D01*
X041571Y024836D01*
X041638Y024903D01*
X041685Y024985D01*
X041709Y025077D01*
Y025171D01*
X041685Y025263D01*
X041638Y025345D01*
X041571Y025412D01*
X041528Y025436D01*
Y025626D01*
X041924Y026022D01*
X044712D01*
X04478Y026035D01*
X044838Y026074D01*
X045476Y026712D01*
X045476Y026712D01*
X045515Y02677D01*
X045528Y026838D01*
X045528Y026838D01*
Y029976D01*
X045515Y030044D01*
X045476Y030102D01*
X044814Y030764D01*
X044756Y030803D01*
X044688Y030816D01*
X04462Y030803D01*
X044604Y030793D01*
X04337D01*
Y030832D01*
X043359Y030915D01*
X043327Y030993D01*
X043276Y031059D01*
X043209Y03111D01*
X043132Y031142D01*
X043049Y031153D01*
D02*
G37*
G36*
X063318Y026763D02*
X0633D01*
Y0263D01*
X063763D01*
Y026318D01*
X063728Y026448D01*
X063661Y026565D01*
X063565Y026661D01*
X063448Y026728D01*
X063318Y026763D01*
D02*
G37*
G36*
X04955Y031139D02*
X049467Y031128D01*
X04939Y031096D01*
X049323Y031045D01*
X049272Y030979D01*
X04924Y030901D01*
X049229Y030818D01*
Y030382D01*
X04924Y030299D01*
X049272Y030221D01*
X049323Y030155D01*
X049372Y030118D01*
Y027024D01*
X049148Y0268D01*
X0491D01*
X049008Y026762D01*
X048938Y026692D01*
X0489Y0266D01*
Y0265D01*
X048938Y026408D01*
X049008Y026338D01*
X0491Y0263D01*
X0492D01*
X049292Y026338D01*
X049362Y026408D01*
X0494Y0265D01*
Y026548D01*
X049676Y026824D01*
X049715Y026882D01*
X049728Y02695D01*
Y030118D01*
X049777Y030155D01*
X049828Y030221D01*
X04986Y030299D01*
X049871Y030382D01*
Y030818D01*
X04986Y030901D01*
X049828Y030979D01*
X049777Y031045D01*
X04971Y031096D01*
X049633Y031128D01*
X04955Y031139D01*
D02*
G37*
G36*
X0632Y026763D02*
X063182D01*
X063052Y026728D01*
X062935Y026661D01*
X062839Y026565D01*
X062772Y026448D01*
X062737Y026318D01*
Y0263D01*
X0632D01*
Y026763D01*
D02*
G37*
G36*
X05015Y02835D02*
X05005D01*
X049958Y028312D01*
X049888Y028242D01*
X04985Y02815D01*
Y02805D01*
X049888Y027958D01*
X049958Y027888D01*
X05005Y02785D01*
X050123D01*
X05155Y026423D01*
Y0264D01*
X051588Y026308D01*
X051658Y026238D01*
X05175Y0262D01*
X05185D01*
X051942Y026238D01*
X052012Y026308D01*
X05205Y0264D01*
Y0265D01*
X052012Y026592D01*
X051942Y026662D01*
X05185Y0267D01*
X051777D01*
X05035Y028127D01*
Y02815D01*
X050312Y028242D01*
X050242Y028312D01*
X05015Y02835D01*
D02*
G37*
G36*
X020352Y03106D02*
X020248D01*
X020147Y031033D01*
X020056Y030981D01*
X019982Y030907D01*
X01993Y030816D01*
X019903Y030715D01*
Y030611D01*
X01993Y03051D01*
X019982Y030419D01*
X020056Y030345D01*
X020122Y030308D01*
Y0276D01*
X020135Y027532D01*
X020174Y027474D01*
X020348Y0273D01*
X019883Y026836D01*
X019845Y026778D01*
X019831Y026709D01*
Y025465D01*
X019614D01*
Y024635D01*
X019831D01*
Y024341D01*
X019845Y024272D01*
X019883Y024214D01*
X020374Y023724D01*
X020432Y023685D01*
X0205Y023672D01*
X0205Y023672D01*
X021126D01*
X021322Y023476D01*
Y023265D01*
X02105D01*
Y021735D01*
X02195D01*
Y023265D01*
X021678D01*
Y02355D01*
X021665Y023618D01*
X021626Y023676D01*
X021326Y023976D01*
X021268Y024015D01*
X0212Y024028D01*
X020574D01*
X020188Y024414D01*
Y024635D01*
X020405D01*
Y025465D01*
X020188D01*
Y026636D01*
X020674Y027122D01*
X022776D01*
X023235Y026663D01*
X023229Y026658D01*
X023185Y026581D01*
X023162Y026495D01*
Y026405D01*
X023185Y026319D01*
X023229Y026242D01*
X023292Y026179D01*
X023369Y026135D01*
X023455Y026112D01*
X023545D01*
X023631Y026135D01*
X023708Y026179D01*
X023771Y026242D01*
X023815Y026319D01*
X023838Y026405D01*
Y026495D01*
X023815Y026581D01*
X023771Y026658D01*
X023708Y026721D01*
X023631Y026765D01*
X023604Y026772D01*
X023602Y026781D01*
X023564Y026839D01*
X023564Y026839D01*
X022976Y027426D01*
X022918Y027465D01*
X02285Y027478D01*
X020674D01*
X020478Y027674D01*
Y030308D01*
X020544Y030345D01*
X020618Y030419D01*
X02067Y03051D01*
X020697Y030611D01*
Y030715D01*
X02067Y030816D01*
X020618Y030907D01*
X020544Y030981D01*
X020453Y031033D01*
X020352Y03106D01*
D02*
G37*
G36*
X022545Y026788D02*
X022455D01*
X022369Y026765D01*
X022292Y026721D01*
X022229Y026658D01*
X022185Y026581D01*
X022162Y026495D01*
Y026405D01*
X022185Y026319D01*
X022229Y026242D01*
X022292Y026179D01*
X022369Y026135D01*
X022455Y026112D01*
X022545D01*
X022631Y026135D01*
X022708Y026179D01*
X022771Y026242D01*
X022815Y026319D01*
X022838Y026405D01*
Y026495D01*
X022815Y026581D01*
X022771Y026658D01*
X022708Y026721D01*
X022631Y026765D01*
X022545Y026788D01*
D02*
G37*
G36*
X068064Y0267D02*
X06805D01*
Y0261D01*
X06865D01*
Y026114D01*
X068625Y02624D01*
X068576Y026358D01*
X068505Y026464D01*
X068414Y026555D01*
X068308Y026626D01*
X06819Y026675D01*
X068064Y0267D01*
D02*
G37*
G36*
X06795D02*
X067936D01*
X06781Y026675D01*
X067692Y026626D01*
X067586Y026555D01*
X067495Y026464D01*
X067424Y026358D01*
X067375Y02624D01*
X06735Y026114D01*
Y0261D01*
X06795D01*
Y0267D01*
D02*
G37*
G36*
X063763Y0262D02*
X0633D01*
Y025737D01*
X063318D01*
X063448Y025772D01*
X063565Y025839D01*
X063661Y025935D01*
X063728Y026052D01*
X063763Y026182D01*
Y0262D01*
D02*
G37*
G36*
X0632D02*
X062737D01*
Y026182D01*
X062772Y026052D01*
X062839Y025935D01*
X062935Y025839D01*
X063052Y025772D01*
X063182Y025737D01*
X0632D01*
Y0262D01*
D02*
G37*
G36*
X04855Y031139D02*
X048467Y031128D01*
X04839Y031096D01*
X048323Y031045D01*
X048272Y030979D01*
X04824Y030901D01*
X048229Y030818D01*
Y030382D01*
X04824Y030299D01*
X048272Y030221D01*
X048323Y030155D01*
X048372Y030118D01*
Y026624D01*
X047898Y02615D01*
X04785D01*
X047758Y026112D01*
X047688Y026042D01*
X04765Y02595D01*
Y02585D01*
X047688Y025758D01*
X047758Y025688D01*
X04785Y02565D01*
X04795D01*
X048042Y025688D01*
X048112Y025758D01*
X04815Y02585D01*
Y025898D01*
X048676Y026424D01*
X048715Y026482D01*
X048728Y02655D01*
X048728Y02655D01*
Y030118D01*
X048777Y030155D01*
X048828Y030221D01*
X04886Y030299D01*
X048871Y030382D01*
Y030818D01*
X04886Y030901D01*
X048828Y030979D01*
X048777Y031045D01*
X04871Y031096D01*
X048633Y031128D01*
X04855Y031139D01*
D02*
G37*
G36*
X0079Y026047D02*
Y0255D01*
X008284D01*
Y02562D01*
X008269Y025732D01*
X008226Y025837D01*
X008157Y025927D01*
X008067Y025996D01*
X007962Y026039D01*
X0079Y026047D01*
D02*
G37*
G36*
X0078D02*
X007738Y026039D01*
X007633Y025996D01*
X007543Y025927D01*
X007474Y025837D01*
X007431Y025732D01*
X007416Y02562D01*
Y0255D01*
X0078D01*
Y026047D01*
D02*
G37*
G36*
X06865Y026D02*
X06805D01*
Y0254D01*
X068064D01*
X06819Y025425D01*
X068308Y025474D01*
X068414Y025545D01*
X068505Y025636D01*
X068576Y025742D01*
X068625Y02586D01*
X06865Y025986D01*
Y026D01*
D02*
G37*
G36*
X06795D02*
X06735D01*
Y025986D01*
X067375Y02586D01*
X067424Y025742D01*
X067495Y025636D01*
X067586Y025545D01*
X067692Y025474D01*
X06781Y025425D01*
X067936Y0254D01*
X06795D01*
Y026D01*
D02*
G37*
G36*
X051105Y025515D02*
X0511D01*
Y02515D01*
X051465D01*
Y025155D01*
X051437Y02526D01*
X051382Y025355D01*
X051305Y025432D01*
X05121Y025487D01*
X051105Y025515D01*
D02*
G37*
G36*
X051D02*
X050995D01*
X05089Y025487D01*
X050795Y025432D01*
X050718Y025355D01*
X050663Y02526D01*
X050635Y025155D01*
Y02515D01*
X051D01*
Y025515D01*
D02*
G37*
G36*
X00985Y026054D02*
X009738Y026039D01*
X009633Y025996D01*
X009543Y025927D01*
X009474Y025837D01*
X009431Y025732D01*
X009416Y02562D01*
Y02528D01*
X009431Y025168D01*
X009474Y025063D01*
X009543Y024973D01*
X009633Y024904D01*
X009738Y024861D01*
X00985Y024846D01*
X009962Y024861D01*
X010067Y024904D01*
X010157Y024973D01*
X010226Y025063D01*
X010269Y025168D01*
X010283Y025272D01*
X010605D01*
Y024935D01*
X011395D01*
Y025765D01*
X010605D01*
Y025628D01*
X010283D01*
X010269Y025732D01*
X010226Y025837D01*
X010157Y025927D01*
X010067Y025996D01*
X009962Y026039D01*
X00985Y026054D01*
D02*
G37*
G36*
X008284Y0254D02*
X0079D01*
Y024853D01*
X007962Y024861D01*
X008067Y024904D01*
X008157Y024973D01*
X008226Y025063D01*
X008269Y025168D01*
X008284Y02528D01*
Y0254D01*
D02*
G37*
G36*
X0078D02*
X007416D01*
Y02528D01*
X007431Y025168D01*
X007474Y025063D01*
X007543Y024973D01*
X007633Y024904D01*
X007738Y024861D01*
X0078Y024853D01*
Y0254D01*
D02*
G37*
G36*
X043397Y025483D02*
X043303D01*
X043211Y025459D01*
X043129Y025412D01*
X043062Y025345D01*
X043015Y025263D01*
X042991Y025171D01*
Y025077D01*
X043015Y024985D01*
X043062Y024903D01*
X043129Y024836D01*
X043211Y024789D01*
X043303Y024765D01*
X043397D01*
X043489Y024789D01*
X043571Y024836D01*
X043638Y024903D01*
X043685Y024985D01*
X043709Y025077D01*
Y025171D01*
X043685Y025263D01*
X043638Y025345D01*
X043571Y025412D01*
X043489Y025459D01*
X043397Y025483D01*
D02*
G37*
G36*
X042397D02*
X042303D01*
X042211Y025459D01*
X042129Y025412D01*
X042062Y025345D01*
X042015Y025263D01*
X041991Y025171D01*
Y025077D01*
X042015Y024985D01*
X042062Y024903D01*
X042129Y024836D01*
X042211Y024789D01*
X042303Y024765D01*
X042397D01*
X042489Y024789D01*
X042571Y024836D01*
X042638Y024903D01*
X042685Y024985D01*
X042709Y025077D01*
Y025171D01*
X042685Y025263D01*
X042638Y025345D01*
X042571Y025412D01*
X042489Y025459D01*
X042397Y025483D01*
D02*
G37*
G36*
X040397D02*
X040303D01*
X040211Y025459D01*
X040129Y025412D01*
X040062Y025345D01*
X040015Y025263D01*
X039991Y025171D01*
Y025077D01*
X040015Y024985D01*
X040062Y024903D01*
X040129Y024836D01*
X040211Y024789D01*
X040303Y024765D01*
X040397D01*
X040489Y024789D01*
X040571Y024836D01*
X040638Y024903D01*
X040685Y024985D01*
X040709Y025077D01*
Y025171D01*
X040685Y025263D01*
X040638Y025345D01*
X040571Y025412D01*
X040489Y025459D01*
X040397Y025483D01*
D02*
G37*
G36*
X037397D02*
X037303D01*
X037211Y025459D01*
X037129Y025412D01*
X037062Y025345D01*
X037015Y025263D01*
X036991Y025171D01*
Y025077D01*
X037015Y024985D01*
X037062Y024903D01*
X037129Y024836D01*
X037211Y024789D01*
X037303Y024765D01*
X037397D01*
X037489Y024789D01*
X037571Y024836D01*
X037638Y024903D01*
X037685Y024985D01*
X037709Y025077D01*
Y025171D01*
X037685Y025263D01*
X037638Y025345D01*
X037571Y025412D01*
X037489Y025459D01*
X037397Y025483D01*
D02*
G37*
G36*
X030549Y031153D02*
X030466Y031142D01*
X030388Y03111D01*
X030322Y031059D01*
X030271Y030993D01*
X030239Y030915D01*
X030228Y030832D01*
Y030396D01*
X030239Y030313D01*
X030271Y030236D01*
X030322Y030169D01*
X03037Y030132D01*
Y027101D01*
X030384Y027033D01*
X030423Y026975D01*
X031674Y025724D01*
X031674Y025724D01*
X031732Y025685D01*
X0318Y025672D01*
X0318Y025672D01*
X03555D01*
X036003Y025218D01*
X035991Y025171D01*
Y025077D01*
X036015Y024985D01*
X036062Y024903D01*
X036129Y024836D01*
X036211Y024789D01*
X036303Y024765D01*
X036397D01*
X036489Y024789D01*
X036571Y024836D01*
X036638Y024903D01*
X036685Y024985D01*
X036709Y025077D01*
Y025171D01*
X036685Y025263D01*
X036638Y025345D01*
X036571Y025412D01*
X036489Y025459D01*
X036397Y025483D01*
X036303D01*
X036256Y025471D01*
X03575Y025976D01*
X035692Y026015D01*
X035624Y026028D01*
X031874D01*
X030727Y027175D01*
Y030132D01*
X030776Y030169D01*
X030827Y030236D01*
X030859Y030313D01*
X03087Y030396D01*
Y030832D01*
X030859Y030915D01*
X030827Y030993D01*
X030776Y031059D01*
X030709Y03111D01*
X030632Y031142D01*
X030549Y031153D01*
D02*
G37*
G36*
X035397Y025483D02*
X035303D01*
X035211Y025459D01*
X035129Y025412D01*
X035062Y025345D01*
X035015Y025263D01*
X034991Y025171D01*
Y025077D01*
X035015Y024985D01*
X035062Y024903D01*
X035129Y024836D01*
X035211Y024789D01*
X035303Y024765D01*
X035397D01*
X035489Y024789D01*
X035571Y024836D01*
X035638Y024903D01*
X035685Y024985D01*
X035709Y025077D01*
Y025171D01*
X035685Y025263D01*
X035638Y025345D01*
X035571Y025412D01*
X035489Y025459D01*
X035397Y025483D01*
D02*
G37*
G36*
X034397D02*
X034303D01*
X034211Y025459D01*
X034129Y025412D01*
X034062Y025345D01*
X034015Y025263D01*
X033991Y025171D01*
Y025077D01*
X034015Y024985D01*
X034062Y024903D01*
X034129Y024836D01*
X034211Y024789D01*
X034303Y024765D01*
X034397D01*
X034489Y024789D01*
X034571Y024836D01*
X034638Y024903D01*
X034685Y024985D01*
X034709Y025077D01*
Y025171D01*
X034685Y025263D01*
X034638Y025345D01*
X034571Y025412D01*
X034489Y025459D01*
X034397Y025483D01*
D02*
G37*
G36*
X033397D02*
X033303D01*
X033211Y025459D01*
X033129Y025412D01*
X033062Y025345D01*
X033015Y025263D01*
X032991Y025171D01*
Y025077D01*
X033015Y024985D01*
X033062Y024903D01*
X033129Y024836D01*
X033211Y024789D01*
X033303Y024765D01*
X033397D01*
X033489Y024789D01*
X033571Y024836D01*
X033638Y024903D01*
X033685Y024985D01*
X033709Y025077D01*
Y025171D01*
X033685Y025263D01*
X033638Y025345D01*
X033571Y025412D01*
X033489Y025459D01*
X033397Y025483D01*
D02*
G37*
G36*
X051465Y02505D02*
X0511D01*
Y024685D01*
X051105D01*
X05121Y024713D01*
X051305Y024768D01*
X051382Y024845D01*
X051437Y02494D01*
X051465Y025045D01*
Y02505D01*
D02*
G37*
G36*
X051D02*
X050635D01*
Y025045D01*
X050663Y02494D01*
X050718Y024845D01*
X050795Y024768D01*
X05089Y024713D01*
X050995Y024685D01*
X051D01*
Y02505D01*
D02*
G37*
G36*
X021545Y026788D02*
X021455D01*
X021369Y026765D01*
X021292Y026721D01*
X021229Y026658D01*
X021185Y026581D01*
X021162Y026495D01*
Y026425D01*
X02112Y026383D01*
X021065Y0263D01*
X021045Y026202D01*
Y025465D01*
X020795D01*
Y024635D01*
X021586D01*
Y02482D01*
X022814D01*
Y024685D01*
X023605D01*
Y025515D01*
X022814D01*
Y02533D01*
X021586D01*
Y025465D01*
X021555D01*
Y026097D01*
X021579Y026121D01*
X021631Y026135D01*
X021708Y026179D01*
X021771Y026242D01*
X021815Y026319D01*
X021838Y026405D01*
Y026495D01*
X021815Y026581D01*
X021771Y026658D01*
X021708Y026721D01*
X021631Y026765D01*
X021545Y026788D01*
D02*
G37*
G36*
X029163Y028024D02*
X028137D01*
Y026998D01*
X028345D01*
Y025834D01*
X028115D01*
Y024965D01*
X028985D01*
Y025065D01*
X029335D01*
Y024845D01*
X030165D01*
Y025072D01*
X030426D01*
X031174Y024324D01*
X031189Y024314D01*
X031202Y024246D01*
X031196Y024238D01*
X030165D01*
Y024455D01*
X029335D01*
Y023664D01*
X030165D01*
Y023881D01*
X038709D01*
X038778Y023895D01*
X038836Y023933D01*
X039526Y024624D01*
X039526Y024624D01*
X039565Y024682D01*
X039578Y02475D01*
X039578Y02475D01*
Y024844D01*
X039638Y024903D01*
X039685Y024985D01*
X039709Y025077D01*
Y025171D01*
X039685Y025263D01*
X039638Y025345D01*
X039571Y025412D01*
X039489Y025459D01*
X039397Y025483D01*
X039303D01*
X039211Y025459D01*
X039129Y025412D01*
X039062Y025345D01*
X039015Y025263D01*
X038991Y025171D01*
Y025077D01*
X039015Y024985D01*
X039062Y024903D01*
X039129Y024836D01*
X03916Y024819D01*
X039167Y024769D01*
X038636Y024238D01*
X037904D01*
X037898Y024246D01*
X037911Y024314D01*
X037926Y024324D01*
X038346Y024743D01*
X038346Y024743D01*
X03836Y024765D01*
X038397D01*
X038489Y024789D01*
X038571Y024836D01*
X038638Y024903D01*
X038685Y024985D01*
X038709Y025077D01*
Y025171D01*
X038685Y025263D01*
X038638Y025345D01*
X038571Y025412D01*
X038489Y025459D01*
X038397Y025483D01*
X038303D01*
X038211Y025459D01*
X038129Y025412D01*
X038062Y025345D01*
X038015Y025263D01*
X037991Y025171D01*
Y025077D01*
X038015Y024985D01*
X03804Y024942D01*
X037726Y024628D01*
X031374D01*
X030626Y025376D01*
X030568Y025415D01*
X0305Y025428D01*
X030165D01*
Y025636D01*
X029335D01*
Y025575D01*
X028985D01*
Y025834D01*
X028855D01*
Y026998D01*
X029163D01*
Y028024D01*
D02*
G37*
G36*
X028985Y024535D02*
X0286D01*
Y02415D01*
X028985D01*
Y024535D01*
D02*
G37*
G36*
X0285D02*
X028115D01*
Y02415D01*
X0285D01*
Y024535D01*
D02*
G37*
G36*
X061484Y025539D02*
X0593D01*
Y023937D01*
X061484D01*
Y025539D01*
D02*
G37*
G36*
X0592D02*
X057016D01*
Y023937D01*
X0592D01*
Y025539D01*
D02*
G37*
G36*
X028985Y02405D02*
X0286D01*
Y023666D01*
X028985D01*
Y02405D01*
D02*
G37*
G36*
X0285D02*
X028115D01*
Y023666D01*
X0285D01*
Y02405D01*
D02*
G37*
G36*
X03295Y023265D02*
X03255D01*
Y02255D01*
X03295D01*
Y023265D01*
D02*
G37*
G36*
X01195D02*
X01155D01*
Y02255D01*
X01195D01*
Y023265D01*
D02*
G37*
G36*
X01295D02*
X01255D01*
Y02255D01*
X01295D01*
Y023265D01*
D02*
G37*
G36*
X03245D02*
X03205D01*
Y02255D01*
X03245D01*
Y023265D01*
D02*
G37*
G36*
X012576Y025765D02*
X011786D01*
Y024935D01*
X012003D01*
Y024755D01*
X009724Y022476D01*
X009685Y022418D01*
X009672Y02235D01*
Y0163D01*
X009685Y016232D01*
X009724Y016174D01*
X013322Y012576D01*
Y011565D01*
X01305D01*
Y010035D01*
X01395D01*
Y011565D01*
X013678D01*
Y01265D01*
X013678Y01265D01*
X013665Y012718D01*
X013626Y012776D01*
X013626Y012776D01*
X010028Y016374D01*
Y022276D01*
X011Y023248D01*
X01105Y023227D01*
Y02255D01*
X01145D01*
Y023265D01*
X011088D01*
X011067Y023315D01*
X012307Y024555D01*
X012346Y024613D01*
X01236Y024681D01*
Y024935D01*
X012576D01*
Y025765D01*
D02*
G37*
G36*
X01245Y023265D02*
X01205D01*
Y02255D01*
X01245D01*
Y023265D01*
D02*
G37*
G36*
X061484Y023837D02*
X0593D01*
Y022236D01*
X061484D01*
Y023837D01*
D02*
G37*
G36*
X0592D02*
X057016D01*
Y022236D01*
X0592D01*
Y023837D01*
D02*
G37*
G36*
X03295Y02245D02*
X03255D01*
Y021735D01*
X03295D01*
Y02245D01*
D02*
G37*
G36*
X03245D02*
X03205D01*
Y021735D01*
X03245D01*
Y02245D01*
D02*
G37*
G36*
X03195Y023265D02*
X03105D01*
Y021735D01*
X03195D01*
Y023265D01*
D02*
G37*
G36*
X03095D02*
X03005D01*
Y021735D01*
X03095D01*
Y023265D01*
D02*
G37*
G36*
X02995D02*
X02905D01*
Y021735D01*
X02995D01*
Y023265D01*
D02*
G37*
G36*
X02895D02*
X02805D01*
Y021735D01*
X02895D01*
Y023265D01*
D02*
G37*
G36*
X025305Y032465D02*
X025195D01*
X02509Y032437D01*
X024995Y032382D01*
X024918Y032305D01*
X024863Y03221D01*
X024835Y032105D01*
Y031995D01*
X024863Y03189D01*
X024918Y031795D01*
X024995Y031718D01*
X02509Y031663D01*
X025195Y031635D01*
X025305D01*
X025322Y031622D01*
Y023265D01*
X02505D01*
Y021735D01*
X02595D01*
Y023265D01*
X025678D01*
Y031722D01*
X025665Y03179D01*
X025626Y031848D01*
X025626Y031848D01*
X025618Y031857D01*
X025637Y03189D01*
X025665Y031995D01*
Y032105D01*
X025637Y03221D01*
X025582Y032305D01*
X025505Y032382D01*
X02541Y032437D01*
X025305Y032465D01*
D02*
G37*
G36*
X02495Y023265D02*
X02405D01*
Y021735D01*
X02495D01*
Y023265D01*
D02*
G37*
G36*
X02395D02*
X02305D01*
Y021735D01*
X02395D01*
Y023265D01*
D02*
G37*
G36*
X01995D02*
X01905D01*
Y021735D01*
X01995D01*
Y023265D01*
D02*
G37*
G36*
X01895D02*
X01805D01*
Y021735D01*
X01895D01*
Y023265D01*
D02*
G37*
G36*
X01795D02*
X01705D01*
Y021735D01*
X01795D01*
Y023265D01*
D02*
G37*
G36*
X01555Y0265D02*
X01545D01*
X015358Y026462D01*
X015288Y026392D01*
X01525Y0263D01*
Y0262D01*
X015288Y026108D01*
X015322Y026075D01*
Y023265D01*
X01505D01*
Y021735D01*
X01595D01*
Y023265D01*
X015678D01*
Y026075D01*
X015712Y026108D01*
X01575Y0262D01*
Y0263D01*
X015712Y026392D01*
X015642Y026462D01*
X01555Y0265D01*
D02*
G37*
G36*
X01495Y023265D02*
X01405D01*
Y021735D01*
X01495D01*
Y023265D01*
D02*
G37*
G36*
X01295Y02245D02*
X01255D01*
Y021735D01*
X01295D01*
Y02245D01*
D02*
G37*
G36*
X01245D02*
X01205D01*
Y021735D01*
X01245D01*
Y02245D01*
D02*
G37*
G36*
X01195D02*
X01155D01*
Y021735D01*
X01195D01*
Y02245D01*
D02*
G37*
G36*
X01145D02*
X01105D01*
Y021735D01*
X01145D01*
Y02245D01*
D02*
G37*
G36*
X069103Y022051D02*
X0691D01*
Y0217D01*
X069451D01*
Y021703D01*
X069424Y021805D01*
X069371Y021896D01*
X069296Y021971D01*
X069205Y022024D01*
X069103Y022051D01*
D02*
G37*
G36*
X069D02*
X068997D01*
X068895Y022024D01*
X068804Y021971D01*
X068729Y021896D01*
X068676Y021805D01*
X068649Y021703D01*
Y0217D01*
X069D01*
Y022051D01*
D02*
G37*
G36*
X069451Y0216D02*
X0691D01*
Y021249D01*
X069103D01*
X069205Y021276D01*
X069296Y021329D01*
X069371Y021404D01*
X069424Y021495D01*
X069451Y021597D01*
Y0216D01*
D02*
G37*
G36*
X069D02*
X068649D01*
Y021597D01*
X068676Y021495D01*
X068729Y021404D01*
X068804Y021329D01*
X068895Y021276D01*
X068997Y021249D01*
X069D01*
Y0216D01*
D02*
G37*
G36*
X068103Y022051D02*
X067997D01*
X067895Y022024D01*
X067804Y021971D01*
X067729Y021896D01*
X067676Y021805D01*
X067649Y021703D01*
Y021597D01*
X067676Y021495D01*
X067729Y021404D01*
X067804Y021329D01*
X067895Y021276D01*
X067997Y021249D01*
X068103D01*
X068205Y021276D01*
X068296Y021329D01*
X068371Y021404D01*
X068424Y021495D01*
X068451Y021597D01*
Y021703D01*
X068424Y021805D01*
X068371Y021896D01*
X068296Y021971D01*
X068205Y022024D01*
X068103Y022051D01*
D02*
G37*
G36*
X067103D02*
X066997D01*
X066895Y022024D01*
X066804Y021971D01*
X066729Y021896D01*
X066676Y021805D01*
X066649Y021703D01*
Y021597D01*
X066676Y021495D01*
X066729Y021404D01*
X066804Y021329D01*
X066895Y021276D01*
X066997Y021249D01*
X067103D01*
X067205Y021276D01*
X067296Y021329D01*
X067371Y021404D01*
X067424Y021495D01*
X067451Y021597D01*
Y021703D01*
X067424Y021805D01*
X067371Y021896D01*
X067296Y021971D01*
X067205Y022024D01*
X067103Y022051D01*
D02*
G37*
G36*
X066103D02*
X065997D01*
X065895Y022024D01*
X065804Y021971D01*
X065729Y021896D01*
X065676Y021805D01*
X065649Y021703D01*
Y021597D01*
X065676Y021495D01*
X065729Y021404D01*
X065804Y021329D01*
X065895Y021276D01*
X065997Y021249D01*
X066103D01*
X066205Y021276D01*
X066296Y021329D01*
X066371Y021404D01*
X066424Y021495D01*
X066451Y021597D01*
Y021703D01*
X066424Y021805D01*
X066371Y021896D01*
X066296Y021971D01*
X066205Y022024D01*
X066103Y022051D01*
D02*
G37*
G36*
X065103D02*
X064997D01*
X064895Y022024D01*
X064804Y021971D01*
X064729Y021896D01*
X064676Y021805D01*
X064649Y021703D01*
Y021597D01*
X064676Y021495D01*
X064729Y021404D01*
X064804Y021329D01*
X064895Y021276D01*
X064997Y021249D01*
X065103D01*
X065205Y021276D01*
X065296Y021329D01*
X065371Y021404D01*
X065424Y021495D01*
X065451Y021597D01*
Y021703D01*
X065424Y021805D01*
X065371Y021896D01*
X065296Y021971D01*
X065205Y022024D01*
X065103Y022051D01*
D02*
G37*
G36*
X064103D02*
X063997D01*
X063895Y022024D01*
X063804Y021971D01*
X063729Y021896D01*
X063676Y021805D01*
X063649Y021703D01*
Y021597D01*
X063676Y021495D01*
X063729Y021404D01*
X063804Y021329D01*
X063895Y021276D01*
X063997Y021249D01*
X064103D01*
X064205Y021276D01*
X064296Y021329D01*
X064371Y021404D01*
X064424Y021495D01*
X064451Y021597D01*
Y021703D01*
X064424Y021805D01*
X064371Y021896D01*
X064296Y021971D01*
X064205Y022024D01*
X064103Y022051D01*
D02*
G37*
G36*
X063103D02*
X062997D01*
X062895Y022024D01*
X062804Y021971D01*
X062729Y021896D01*
X062676Y021805D01*
X062649Y021703D01*
Y021597D01*
X062676Y021495D01*
X062729Y021404D01*
X062804Y021329D01*
X062895Y021276D01*
X062997Y021249D01*
X063103D01*
X063205Y021276D01*
X063296Y021329D01*
X063371Y021404D01*
X063424Y021495D01*
X063451Y021597D01*
Y021703D01*
X063424Y021805D01*
X063371Y021896D01*
X063296Y021971D01*
X063205Y022024D01*
X063103Y022051D01*
D02*
G37*
G36*
X062103D02*
X061997D01*
X061895Y022024D01*
X061804Y021971D01*
X061729Y021896D01*
X061676Y021805D01*
X061649Y021703D01*
Y021597D01*
X061676Y021495D01*
X061729Y021404D01*
X061804Y021329D01*
X061895Y021276D01*
X061997Y021249D01*
X062103D01*
X062205Y021276D01*
X062296Y021329D01*
X062371Y021404D01*
X062424Y021495D01*
X062451Y021597D01*
Y021703D01*
X062424Y021805D01*
X062371Y021896D01*
X062296Y021971D01*
X062205Y022024D01*
X062103Y022051D01*
D02*
G37*
G36*
X061103D02*
X060997D01*
X060895Y022024D01*
X060804Y021971D01*
X060729Y021896D01*
X060676Y021805D01*
X060649Y021703D01*
Y021597D01*
X060676Y021495D01*
X060729Y021404D01*
X060804Y021329D01*
X060895Y021276D01*
X060997Y021249D01*
X061103D01*
X061205Y021276D01*
X061296Y021329D01*
X061371Y021404D01*
X061424Y021495D01*
X061451Y021597D01*
Y021703D01*
X061424Y021805D01*
X061371Y021896D01*
X061296Y021971D01*
X061205Y022024D01*
X061103Y022051D01*
D02*
G37*
G36*
X060103D02*
X059997D01*
X059895Y022024D01*
X059804Y021971D01*
X059729Y021896D01*
X059676Y021805D01*
X059649Y021703D01*
Y021597D01*
X059676Y021495D01*
X059729Y021404D01*
X059804Y021329D01*
X059895Y021276D01*
X059997Y021249D01*
X060103D01*
X060205Y021276D01*
X060296Y021329D01*
X060371Y021404D01*
X060424Y021495D01*
X060451Y021597D01*
Y021703D01*
X060424Y021805D01*
X060371Y021896D01*
X060296Y021971D01*
X060205Y022024D01*
X060103Y022051D01*
D02*
G37*
G36*
X059103D02*
X058997D01*
X058895Y022024D01*
X058804Y021971D01*
X058729Y021896D01*
X058676Y021805D01*
X058649Y021703D01*
Y021597D01*
X058676Y021495D01*
X058729Y021404D01*
X058804Y021329D01*
X058895Y021276D01*
X058997Y021249D01*
X059103D01*
X059205Y021276D01*
X059296Y021329D01*
X059371Y021404D01*
X059424Y021495D01*
X059451Y021597D01*
Y021703D01*
X059424Y021805D01*
X059371Y021896D01*
X059296Y021971D01*
X059205Y022024D01*
X059103Y022051D01*
D02*
G37*
G36*
X056103D02*
X055997D01*
X055895Y022024D01*
X055804Y021971D01*
X055729Y021896D01*
X055676Y021805D01*
X055649Y021703D01*
Y021597D01*
X055676Y021495D01*
X055729Y021404D01*
X055804Y021329D01*
X055895Y021276D01*
X055997Y021249D01*
X056103D01*
X056205Y021276D01*
X056296Y021329D01*
X056371Y021404D01*
X056424Y021495D01*
X056451Y021597D01*
Y021703D01*
X056424Y021805D01*
X056371Y021896D01*
X056296Y021971D01*
X056205Y022024D01*
X056103Y022051D01*
D02*
G37*
G36*
X055103D02*
X054997D01*
X054895Y022024D01*
X054804Y021971D01*
X054729Y021896D01*
X054676Y021805D01*
X054649Y021703D01*
Y021597D01*
X054676Y021495D01*
X054729Y021404D01*
X054804Y021329D01*
X054895Y021276D01*
X054997Y021249D01*
X055103D01*
X055205Y021276D01*
X055296Y021329D01*
X055371Y021404D01*
X055424Y021495D01*
X055451Y021597D01*
Y021703D01*
X055424Y021805D01*
X055371Y021896D01*
X055296Y021971D01*
X055205Y022024D01*
X055103Y022051D01*
D02*
G37*
G36*
X054103D02*
X053997D01*
X053895Y022024D01*
X053804Y021971D01*
X053729Y021896D01*
X053676Y021805D01*
X053649Y021703D01*
Y021597D01*
X053676Y021495D01*
X053729Y021404D01*
X053804Y021329D01*
X053895Y021276D01*
X053997Y021249D01*
X054103D01*
X054205Y021276D01*
X054296Y021329D01*
X054371Y021404D01*
X054424Y021495D01*
X054451Y021597D01*
Y021703D01*
X054424Y021805D01*
X054371Y021896D01*
X054296Y021971D01*
X054205Y022024D01*
X054103Y022051D01*
D02*
G37*
G36*
X053103D02*
X052997D01*
X052895Y022024D01*
X052804Y021971D01*
X052729Y021896D01*
X052676Y021805D01*
X052649Y021703D01*
Y021597D01*
X052676Y021495D01*
X052729Y021404D01*
X052804Y021329D01*
X052895Y021276D01*
X052997Y021249D01*
X053103D01*
X053205Y021276D01*
X053296Y021329D01*
X053371Y021404D01*
X053424Y021495D01*
X053451Y021597D01*
Y021703D01*
X053424Y021805D01*
X053371Y021896D01*
X053296Y021971D01*
X053205Y022024D01*
X053103Y022051D01*
D02*
G37*
G36*
X052103D02*
X051997D01*
X051895Y022024D01*
X051804Y021971D01*
X051729Y021896D01*
X051676Y021805D01*
X051649Y021703D01*
Y021597D01*
X051676Y021495D01*
X051729Y021404D01*
X051804Y021329D01*
X051895Y021276D01*
X051997Y021249D01*
X052103D01*
X052205Y021276D01*
X052296Y021329D01*
X052371Y021404D01*
X052424Y021495D01*
X052451Y021597D01*
Y021703D01*
X052424Y021805D01*
X052371Y021896D01*
X052296Y021971D01*
X052205Y022024D01*
X052103Y022051D01*
D02*
G37*
G36*
X051103D02*
X050997D01*
X050895Y022024D01*
X050804Y021971D01*
X050729Y021896D01*
X050676Y021805D01*
X050649Y021703D01*
Y021597D01*
X050676Y021495D01*
X050729Y021404D01*
X050804Y021329D01*
X050895Y021276D01*
X050997Y021249D01*
X051103D01*
X051205Y021276D01*
X051296Y021329D01*
X051371Y021404D01*
X051424Y021495D01*
X051451Y021597D01*
Y021703D01*
X051424Y021805D01*
X051371Y021896D01*
X051296Y021971D01*
X051205Y022024D01*
X051103Y022051D01*
D02*
G37*
G36*
X050103D02*
X049997D01*
X049895Y022024D01*
X049804Y021971D01*
X049729Y021896D01*
X049676Y021805D01*
X049649Y021703D01*
Y021597D01*
X049676Y021495D01*
X049729Y021404D01*
X049804Y021329D01*
X049895Y021276D01*
X049997Y021249D01*
X050103D01*
X050205Y021276D01*
X050296Y021329D01*
X050371Y021404D01*
X050424Y021495D01*
X050451Y021597D01*
Y021703D01*
X050424Y021805D01*
X050371Y021896D01*
X050296Y021971D01*
X050205Y022024D01*
X050103Y022051D01*
D02*
G37*
G36*
X049103D02*
X048997D01*
X048895Y022024D01*
X048804Y021971D01*
X048729Y021896D01*
X048676Y021805D01*
X048649Y021703D01*
Y021597D01*
X048676Y021495D01*
X048729Y021404D01*
X048804Y021329D01*
X048895Y021276D01*
X048997Y021249D01*
X049103D01*
X049205Y021276D01*
X049296Y021329D01*
X049371Y021404D01*
X049424Y021495D01*
X049451Y021597D01*
Y021703D01*
X049424Y021805D01*
X049371Y021896D01*
X049296Y021971D01*
X049205Y022024D01*
X049103Y022051D01*
D02*
G37*
G36*
X048451D02*
X047649D01*
Y021249D01*
X048451D01*
Y022051D01*
D02*
G37*
G36*
X044397Y025483D02*
X044303D01*
X044211Y025459D01*
X044129Y025412D01*
X044062Y025345D01*
X044015Y025263D01*
X043991Y025171D01*
Y025077D01*
X044015Y024985D01*
X044062Y024903D01*
X044129Y024836D01*
X044172Y024812D01*
Y023674D01*
X040926Y020428D01*
X017574D01*
X016678Y021324D01*
Y021735D01*
X01695D01*
Y023265D01*
X01605D01*
Y021735D01*
X016322D01*
Y02125D01*
X016335Y021182D01*
X016374Y021124D01*
X017374Y020124D01*
X017374Y020124D01*
X017432Y020085D01*
X0175Y020072D01*
X0175Y020072D01*
X041D01*
X041068Y020085D01*
X041126Y020124D01*
X044476Y023474D01*
X044476Y023474D01*
X044515Y023532D01*
X044528Y0236D01*
Y024812D01*
X044571Y024836D01*
X044638Y024903D01*
X044685Y024985D01*
X044709Y025077D01*
Y025171D01*
X044685Y025263D01*
X044638Y025345D01*
X044571Y025412D01*
X044489Y025459D01*
X044397Y025483D01*
D02*
G37*
G36*
X060051Y019139D02*
X059968Y019128D01*
X059891Y019096D01*
X059824Y019045D01*
X059773Y018979D01*
X059741Y018901D01*
X05973Y018818D01*
Y018382D01*
X059741Y018299D01*
X059773Y018221D01*
X059824Y018155D01*
X059891Y018104D01*
X059968Y018072D01*
X060051Y018061D01*
X060134Y018072D01*
X060212Y018104D01*
X060278Y018155D01*
X060329Y018221D01*
X060361Y018299D01*
X060372Y018382D01*
Y018818D01*
X060361Y018901D01*
X060329Y018979D01*
X060278Y019045D01*
X060212Y019096D01*
X060134Y019128D01*
X060051Y019139D01*
D02*
G37*
G36*
X04305D02*
X042967Y019128D01*
X04289Y019096D01*
X042823Y019045D01*
X042772Y018979D01*
X04274Y018901D01*
X042729Y018818D01*
Y018382D01*
X04274Y018299D01*
X042772Y018221D01*
X042823Y018155D01*
X04289Y018104D01*
X042967Y018072D01*
X04305Y018061D01*
X043133Y018072D01*
X04321Y018104D01*
X043277Y018155D01*
X043328Y018221D01*
X04336Y018299D01*
X043371Y018382D01*
Y018818D01*
X04336Y018901D01*
X043328Y018979D01*
X043277Y019045D01*
X04321Y019096D01*
X043133Y019128D01*
X04305Y019139D01*
D02*
G37*
G36*
X04105D02*
X040967Y019128D01*
X04089Y019096D01*
X040823Y019045D01*
X040772Y018979D01*
X04074Y018901D01*
X040729Y018818D01*
Y018382D01*
X04074Y018299D01*
X040772Y018221D01*
X040823Y018155D01*
X04089Y018104D01*
X040967Y018072D01*
X04105Y018061D01*
X041133Y018072D01*
X04121Y018104D01*
X041277Y018155D01*
X041328Y018221D01*
X04136Y018299D01*
X041371Y018382D01*
Y018818D01*
X04136Y018901D01*
X041328Y018979D01*
X041277Y019045D01*
X04121Y019096D01*
X041133Y019128D01*
X04105Y019139D01*
D02*
G37*
G36*
X03355D02*
X033467Y019128D01*
X03339Y019096D01*
X033323Y019045D01*
X033272Y018979D01*
X03324Y018901D01*
X033229Y018818D01*
Y018382D01*
X03324Y018299D01*
X033272Y018221D01*
X033323Y018155D01*
X03339Y018104D01*
X033467Y018072D01*
X03355Y018061D01*
X033633Y018072D01*
X03371Y018104D01*
X033777Y018155D01*
X033828Y018221D01*
X03386Y018299D01*
X033871Y018382D01*
Y018818D01*
X03386Y018901D01*
X033828Y018979D01*
X033777Y019045D01*
X03371Y019096D01*
X033633Y019128D01*
X03355Y019139D01*
D02*
G37*
G36*
X03255D02*
X032467Y019128D01*
X03239Y019096D01*
X032323Y019045D01*
X032272Y018979D01*
X03224Y018901D01*
X032229Y018818D01*
Y018382D01*
X03224Y018299D01*
X032272Y018221D01*
X032323Y018155D01*
X03239Y018104D01*
X032467Y018072D01*
X03255Y018061D01*
X032633Y018072D01*
X03271Y018104D01*
X032777Y018155D01*
X032828Y018221D01*
X03286Y018299D01*
X032871Y018382D01*
Y018818D01*
X03286Y018901D01*
X032828Y018979D01*
X032777Y019045D01*
X03271Y019096D01*
X032633Y019128D01*
X03255Y019139D01*
D02*
G37*
G36*
X03155D02*
X031467Y019128D01*
X03139Y019096D01*
X031323Y019045D01*
X031272Y018979D01*
X03124Y018901D01*
X031229Y018818D01*
Y018382D01*
X03124Y018299D01*
X031272Y018221D01*
X031323Y018155D01*
X03139Y018104D01*
X031467Y018072D01*
X03155Y018061D01*
X031633Y018072D01*
X03171Y018104D01*
X031777Y018155D01*
X031828Y018221D01*
X03186Y018299D01*
X031871Y018382D01*
Y018818D01*
X03186Y018901D01*
X031828Y018979D01*
X031777Y019045D01*
X03171Y019096D01*
X031633Y019128D01*
X03155Y019139D01*
D02*
G37*
G36*
X03055D02*
X030467Y019128D01*
X03039Y019096D01*
X030323Y019045D01*
X030272Y018979D01*
X03024Y018901D01*
X030229Y018818D01*
Y018382D01*
X03024Y018299D01*
X030272Y018221D01*
X030323Y018155D01*
X03039Y018104D01*
X030467Y018072D01*
X03055Y018061D01*
X030633Y018072D01*
X03071Y018104D01*
X030777Y018155D01*
X030828Y018221D01*
X03086Y018299D01*
X030871Y018382D01*
Y018818D01*
X03086Y018901D01*
X030828Y018979D01*
X030777Y019045D01*
X03071Y019096D01*
X030633Y019128D01*
X03055Y019139D01*
D02*
G37*
G36*
X02955D02*
X029467Y019128D01*
X02939Y019096D01*
X029323Y019045D01*
X029272Y018979D01*
X02924Y018901D01*
X029229Y018818D01*
Y018382D01*
X02924Y018299D01*
X029272Y018221D01*
X029323Y018155D01*
X02939Y018104D01*
X029467Y018072D01*
X02955Y018061D01*
X029633Y018072D01*
X02971Y018104D01*
X029777Y018155D01*
X029828Y018221D01*
X02986Y018299D01*
X029871Y018382D01*
Y018818D01*
X02986Y018901D01*
X029828Y018979D01*
X029777Y019045D01*
X02971Y019096D01*
X029633Y019128D01*
X02955Y019139D01*
D02*
G37*
G36*
X052551Y019125D02*
X052468Y019114D01*
X052391Y019082D01*
X052324Y019031D01*
X052273Y018964D01*
X052241Y018887D01*
X05223Y018804D01*
Y018368D01*
X052241Y018285D01*
X052273Y018207D01*
X052324Y018141D01*
X052391Y01809D01*
X052468Y018058D01*
X052551Y018047D01*
X052634Y018058D01*
X052712Y01809D01*
X052778Y018141D01*
X052829Y018207D01*
X052861Y018285D01*
X052872Y018368D01*
Y018804D01*
X052861Y018887D01*
X052829Y018964D01*
X052778Y019031D01*
X052712Y019082D01*
X052634Y019114D01*
X052551Y019125D01*
D02*
G37*
G36*
X051551D02*
X051468Y019114D01*
X051391Y019082D01*
X051324Y019031D01*
X051273Y018964D01*
X051241Y018887D01*
X05123Y018804D01*
Y018368D01*
X051241Y018285D01*
X051273Y018207D01*
X051324Y018141D01*
X051391Y01809D01*
X051468Y018058D01*
X051551Y018047D01*
X051634Y018058D01*
X051712Y01809D01*
X051778Y018141D01*
X051829Y018207D01*
X051861Y018285D01*
X051872Y018368D01*
Y018804D01*
X051861Y018887D01*
X051829Y018964D01*
X051778Y019031D01*
X051712Y019082D01*
X051634Y019114D01*
X051551Y019125D01*
D02*
G37*
G36*
X050551D02*
X050468Y019114D01*
X050391Y019082D01*
X050324Y019031D01*
X050273Y018964D01*
X050241Y018887D01*
X05023Y018804D01*
Y018368D01*
X050241Y018285D01*
X050273Y018207D01*
X050324Y018141D01*
X050391Y01809D01*
X050468Y018058D01*
X050551Y018047D01*
X050634Y018058D01*
X050712Y01809D01*
X050778Y018141D01*
X050829Y018207D01*
X050861Y018285D01*
X050872Y018368D01*
Y018804D01*
X050861Y018887D01*
X050829Y018964D01*
X050778Y019031D01*
X050712Y019082D01*
X050634Y019114D01*
X050551Y019125D01*
D02*
G37*
G36*
X049551D02*
X049468Y019114D01*
X049391Y019082D01*
X049324Y019031D01*
X049273Y018964D01*
X049241Y018887D01*
X04923Y018804D01*
Y018368D01*
X049241Y018285D01*
X049273Y018207D01*
X049324Y018141D01*
X049391Y01809D01*
X049468Y018058D01*
X049551Y018047D01*
X049634Y018058D01*
X049712Y01809D01*
X049778Y018141D01*
X049829Y018207D01*
X049861Y018285D01*
X049872Y018368D01*
Y018804D01*
X049861Y018887D01*
X049829Y018964D01*
X049778Y019031D01*
X049712Y019082D01*
X049634Y019114D01*
X049551Y019125D01*
D02*
G37*
G36*
X048551D02*
X048468Y019114D01*
X048391Y019082D01*
X048324Y019031D01*
X048273Y018964D01*
X048241Y018887D01*
X04823Y018804D01*
Y018368D01*
X048241Y018285D01*
X048273Y018207D01*
X048324Y018141D01*
X048391Y01809D01*
X048468Y018058D01*
X048551Y018047D01*
X048634Y018058D01*
X048712Y01809D01*
X048778Y018141D01*
X048829Y018207D01*
X048861Y018285D01*
X048872Y018368D01*
Y018804D01*
X048861Y018887D01*
X048829Y018964D01*
X048778Y019031D01*
X048712Y019082D01*
X048634Y019114D01*
X048551Y019125D01*
D02*
G37*
G36*
X04205Y019139D02*
X041967Y019128D01*
X04189Y019096D01*
X041823Y019045D01*
X041772Y018979D01*
X04174Y018901D01*
X041729Y018818D01*
Y018382D01*
X04174Y018299D01*
X041772Y018221D01*
X041823Y018155D01*
X041872Y018118D01*
Y017354D01*
X041767Y01725D01*
X04175D01*
X041658Y017212D01*
X041588Y017142D01*
X04155Y01705D01*
Y01695D01*
X041588Y016858D01*
X041658Y016788D01*
X04175Y01675D01*
X04185D01*
X041942Y016788D01*
X042012Y016858D01*
X04205Y01695D01*
Y017028D01*
X042176Y017154D01*
X042176Y017154D01*
X042215Y017212D01*
X042228Y01728D01*
Y018118D01*
X042277Y018155D01*
X042328Y018221D01*
X04236Y018299D01*
X042371Y018382D01*
Y018818D01*
X04236Y018901D01*
X042328Y018979D01*
X042277Y019045D01*
X04221Y019096D01*
X042133Y019128D01*
X04205Y019139D01*
D02*
G37*
G36*
X059051D02*
X058968Y019128D01*
X058891Y019096D01*
X058824Y019045D01*
X058773Y018979D01*
X058741Y018901D01*
X05873Y018818D01*
Y018382D01*
X058741Y018299D01*
X058773Y018221D01*
X058824Y018155D01*
X058873Y018118D01*
Y016903D01*
X05877Y0168D01*
X05875D01*
X058658Y016762D01*
X058588Y016692D01*
X05855Y0166D01*
Y0165D01*
X058588Y016408D01*
X058658Y016338D01*
X05875Y0163D01*
X05885D01*
X058942Y016338D01*
X059012Y016408D01*
X05905Y0165D01*
Y016576D01*
X059177Y016703D01*
X059216Y016761D01*
X05923Y016829D01*
X05923Y016829D01*
Y018118D01*
X059278Y018155D01*
X059329Y018221D01*
X059361Y018299D01*
X059372Y018382D01*
Y018818D01*
X059361Y018901D01*
X059329Y018979D01*
X059278Y019045D01*
X059212Y019096D01*
X059134Y019128D01*
X059051Y019139D01*
D02*
G37*
G36*
X04005D02*
X039967Y019128D01*
X03989Y019096D01*
X039823Y019045D01*
X039772Y018979D01*
X03974Y018901D01*
X039729Y018818D01*
Y018382D01*
X03974Y018299D01*
X039772Y018221D01*
X039823Y018155D01*
X039872Y018118D01*
Y016815D01*
X039807Y01675D01*
X0398D01*
X039708Y016712D01*
X039638Y016642D01*
X0396Y01655D01*
Y01645D01*
X039638Y016358D01*
X039708Y016288D01*
X0398Y01625D01*
X0399D01*
X039992Y016288D01*
X040062Y016358D01*
X0401Y01645D01*
Y016538D01*
X040176Y016614D01*
X040176Y016614D01*
X040215Y016672D01*
X040228Y016741D01*
X040228Y016741D01*
Y018118D01*
X040277Y018155D01*
X040328Y018221D01*
X04036Y018299D01*
X040371Y018382D01*
Y018818D01*
X04036Y018901D01*
X040328Y018979D01*
X040277Y019045D01*
X04021Y019096D01*
X040133Y019128D01*
X04005Y019139D01*
D02*
G37*
G36*
X058051D02*
X057968Y019128D01*
X057891Y019096D01*
X057824Y019045D01*
X057773Y018979D01*
X057741Y018901D01*
X05773Y018818D01*
Y018382D01*
X057741Y018299D01*
X057773Y018221D01*
X057824Y018155D01*
X057873Y018118D01*
Y016366D01*
X057807Y0163D01*
X0578D01*
X057708Y016262D01*
X057638Y016192D01*
X0576Y0161D01*
Y016D01*
X057638Y015908D01*
X057708Y015838D01*
X0578Y0158D01*
X0579D01*
X057992Y015838D01*
X058062Y015908D01*
X0581Y016D01*
Y016088D01*
X058177Y016166D01*
X058177Y016166D01*
X058216Y016223D01*
X05823Y016292D01*
Y018118D01*
X058278Y018155D01*
X058329Y018221D01*
X058361Y018299D01*
X058372Y018382D01*
Y018818D01*
X058361Y018901D01*
X058329Y018979D01*
X058278Y019045D01*
X058212Y019096D01*
X058134Y019128D01*
X058051Y019139D01*
D02*
G37*
G36*
X03905D02*
X038967Y019128D01*
X03889Y019096D01*
X038823Y019045D01*
X038772Y018979D01*
X03874Y018901D01*
X038729Y018818D01*
Y018382D01*
X03874Y018299D01*
X038772Y018221D01*
X038823Y018155D01*
X038872Y018118D01*
Y016224D01*
X038848Y0162D01*
X0388D01*
X038708Y016162D01*
X038638Y016092D01*
X0386Y016D01*
Y0159D01*
X038638Y015808D01*
X038708Y015738D01*
X0388Y0157D01*
X0389D01*
X038992Y015738D01*
X039062Y015808D01*
X0391Y0159D01*
Y015948D01*
X039176Y016024D01*
X039176Y016024D01*
X039215Y016082D01*
X039228Y01615D01*
X039228Y01615D01*
Y018118D01*
X039277Y018155D01*
X039328Y018221D01*
X03936Y018299D01*
X039371Y018382D01*
Y018818D01*
X03936Y018901D01*
X039328Y018979D01*
X039277Y019045D01*
X03921Y019096D01*
X039133Y019128D01*
X03905Y019139D01*
D02*
G37*
G36*
X067496Y0167D02*
X067404D01*
X067315Y016676D01*
X067235Y01663D01*
X06717Y016565D01*
X067124Y016485D01*
X067105Y016416D01*
X06609Y0154D01*
X066054D01*
X065965Y015376D01*
X065885Y01533D01*
X06582Y015265D01*
X065774Y015185D01*
X06575Y015096D01*
Y015004D01*
X065774Y014915D01*
X06582Y014835D01*
X065885Y01477D01*
X065965Y014724D01*
X066054Y0147D01*
X066146D01*
X066235Y014724D01*
X066315Y01477D01*
X06638Y014835D01*
X066426Y014915D01*
X06645Y015004D01*
Y01504D01*
X06741Y016D01*
X067496D01*
X067585Y016024D01*
X067665Y01607D01*
X06773Y016135D01*
X067776Y016215D01*
X0678Y016304D01*
Y016396D01*
X067776Y016485D01*
X06773Y016565D01*
X067665Y01663D01*
X067585Y016676D01*
X067496Y0167D01*
D02*
G37*
G36*
X057103Y022051D02*
X056997D01*
X056895Y022024D01*
X056804Y021971D01*
X056729Y021896D01*
X056676Y021805D01*
X056649Y021703D01*
Y021597D01*
X056676Y021495D01*
X056729Y021404D01*
X056804Y021329D01*
X056872Y02129D01*
Y021024D01*
X054374Y018526D01*
X054335Y018468D01*
X054322Y0184D01*
Y014974D01*
X053726Y014378D01*
X048925D01*
X048892Y014412D01*
X0488Y01445D01*
X0487D01*
X048608Y014412D01*
X048538Y014342D01*
X0485Y01425D01*
Y01415D01*
X048538Y014058D01*
X048608Y013988D01*
X0487Y01395D01*
X0488D01*
X048892Y013988D01*
X048925Y014022D01*
X0538D01*
X053868Y014035D01*
X053926Y014074D01*
X054626Y014774D01*
X054626Y014774D01*
X054665Y014832D01*
X054678Y0149D01*
Y018326D01*
X057176Y020824D01*
X057176Y020824D01*
X057215Y020882D01*
X057228Y02095D01*
X057228Y02095D01*
Y02129D01*
X057296Y021329D01*
X057371Y021404D01*
X057424Y021495D01*
X057451Y021597D01*
Y021703D01*
X057424Y021805D01*
X057371Y021896D01*
X057296Y021971D01*
X057205Y022024D01*
X057103Y022051D01*
D02*
G37*
G36*
X063005Y013965D02*
X063D01*
Y0136D01*
X063365D01*
Y013605D01*
X063337Y01371D01*
X063282Y013805D01*
X063205Y013882D01*
X06311Y013937D01*
X063005Y013965D01*
D02*
G37*
G36*
X0629D02*
X062895D01*
X06279Y013937D01*
X062695Y013882D01*
X062618Y013805D01*
X062563Y01371D01*
X062535Y013605D01*
Y0136D01*
X0629D01*
Y013965D01*
D02*
G37*
G36*
X058103Y022051D02*
X057997D01*
X057895Y022024D01*
X057804Y021971D01*
X057729Y021896D01*
X057676Y021805D01*
X057649Y021703D01*
Y021597D01*
X057676Y021495D01*
X057729Y021404D01*
X057804Y021329D01*
X057872Y02129D01*
Y020924D01*
X055174Y018226D01*
X055135Y018168D01*
X055122Y0181D01*
Y014324D01*
X054326Y013528D01*
X048875D01*
X048842Y013562D01*
X04875Y0136D01*
X04865D01*
X048558Y013562D01*
X048488Y013492D01*
X04845Y0134D01*
Y0133D01*
X048488Y013208D01*
X048558Y013138D01*
X04865Y0131D01*
X04875D01*
X048842Y013138D01*
X048875Y013172D01*
X0544D01*
X054468Y013185D01*
X054526Y013224D01*
X055426Y014124D01*
X055465Y014182D01*
X055478Y01425D01*
Y018026D01*
X058176Y020724D01*
X058176Y020724D01*
X058215Y020782D01*
X058228Y02085D01*
Y02129D01*
X058296Y021329D01*
X058371Y021404D01*
X058424Y021495D01*
X058451Y021597D01*
Y021703D01*
X058424Y021805D01*
X058371Y021896D01*
X058296Y021971D01*
X058205Y022024D01*
X058103Y022051D01*
D02*
G37*
G36*
X064365Y013965D02*
X063535D01*
Y013135D01*
X064365D01*
Y013965D01*
D02*
G37*
G36*
X063365Y0135D02*
X063D01*
Y013135D01*
X063005D01*
X06311Y013163D01*
X063205Y013218D01*
X063282Y013295D01*
X063337Y01339D01*
X063365Y013495D01*
Y0135D01*
D02*
G37*
G36*
X0629D02*
X062535D01*
Y013495D01*
X062563Y01339D01*
X062618Y013295D01*
X062695Y013218D01*
X06279Y013163D01*
X062895Y013135D01*
X0629D01*
Y0135D01*
D02*
G37*
G36*
X03675Y012647D02*
Y0121D01*
X037154D01*
Y0122D01*
X037138Y012317D01*
X037093Y012427D01*
X037021Y012521D01*
X036927Y012593D01*
X036817Y012638D01*
X03675Y012647D01*
D02*
G37*
G36*
X03665D02*
X036583Y012638D01*
X036473Y012593D01*
X036379Y012521D01*
X036307Y012427D01*
X036262Y012317D01*
X036246Y0122D01*
Y0121D01*
X03665D01*
Y012647D01*
D02*
G37*
G36*
X069103Y012067D02*
X0691D01*
Y011716D01*
X069451D01*
Y011719D01*
X069424Y011821D01*
X069371Y011912D01*
X069296Y011987D01*
X069205Y01204D01*
X069103Y012067D01*
D02*
G37*
G36*
X068103D02*
X0681D01*
Y011716D01*
X068451D01*
Y011719D01*
X068424Y011821D01*
X068371Y011912D01*
X068296Y011987D01*
X068205Y01204D01*
X068103Y012067D01*
D02*
G37*
G36*
X048103D02*
X0481D01*
Y011716D01*
X048451D01*
Y011719D01*
X048424Y011821D01*
X048371Y011912D01*
X048296Y011987D01*
X048205Y01204D01*
X048103Y012067D01*
D02*
G37*
G36*
X069D02*
X068997D01*
X068895Y01204D01*
X068804Y011987D01*
X068729Y011912D01*
X068676Y011821D01*
X068649Y011719D01*
Y011716D01*
X069D01*
Y012067D01*
D02*
G37*
G36*
X068D02*
X067997D01*
X067895Y01204D01*
X067804Y011987D01*
X067729Y011912D01*
X067676Y011821D01*
X067649Y011719D01*
Y011716D01*
X068D01*
Y012067D01*
D02*
G37*
G36*
X048D02*
X047997D01*
X047895Y01204D01*
X047804Y011987D01*
X047729Y011912D01*
X047676Y011821D01*
X047649Y011719D01*
Y011716D01*
X048D01*
Y012067D01*
D02*
G37*
G36*
X037154Y012D02*
X03675D01*
Y011453D01*
X036817Y011462D01*
X036927Y011507D01*
X037021Y011579D01*
X037093Y011673D01*
X037138Y011783D01*
X037154Y0119D01*
Y012D01*
D02*
G37*
G36*
X03665D02*
X036246D01*
Y0119D01*
X036262Y011783D01*
X036307Y011673D01*
X036379Y011579D01*
X036473Y011507D01*
X036583Y011462D01*
X03665Y011453D01*
Y012D01*
D02*
G37*
G36*
X04215Y01265D02*
X04125D01*
Y01145D01*
X04215D01*
Y01265D01*
D02*
G37*
G36*
X02945Y0145D02*
X02935D01*
X029258Y014462D01*
X029188Y014392D01*
X02915Y0143D01*
Y0142D01*
X029188Y014108D01*
X029258Y014038D01*
X02935Y014D01*
X02945D01*
X029542Y014038D01*
X029575Y014072D01*
X039476D01*
X040522Y013026D01*
Y012613D01*
X040473Y012593D01*
X040379Y012521D01*
X040307Y012427D01*
X040262Y012317D01*
X040246Y0122D01*
Y0119D01*
X040262Y011783D01*
X040307Y011673D01*
X040379Y011579D01*
X040473Y011507D01*
X040583Y011462D01*
X0407Y011446D01*
X040817Y011462D01*
X040927Y011507D01*
X041021Y011579D01*
X041093Y011673D01*
X041138Y011783D01*
X041154Y0119D01*
Y0122D01*
X041138Y012317D01*
X041093Y012427D01*
X041021Y012521D01*
X040927Y012593D01*
X040878Y012613D01*
Y0131D01*
X040878Y0131D01*
X040865Y013168D01*
X040826Y013226D01*
X040826Y013226D01*
X039676Y014376D01*
X039618Y014415D01*
X03955Y014428D01*
X029575D01*
X029542Y014462D01*
X02945Y0145D01*
D02*
G37*
G36*
X03885Y013778D02*
X02625D01*
X026182Y013765D01*
X026124Y013726D01*
X025374Y012976D01*
X025335Y012918D01*
X025322Y01285D01*
Y011565D01*
X02505D01*
Y010035D01*
X02595D01*
Y011565D01*
X025678D01*
Y012776D01*
X026324Y013422D01*
X038776D01*
X039522Y012676D01*
Y012613D01*
X039473Y012593D01*
X039379Y012521D01*
X039307Y012427D01*
X039262Y012317D01*
X039246Y0122D01*
Y0119D01*
X039262Y011783D01*
X039307Y011673D01*
X039379Y011579D01*
X039473Y011507D01*
X039583Y011462D01*
X0397Y011446D01*
X039817Y011462D01*
X039927Y011507D01*
X040021Y011579D01*
X040093Y011673D01*
X040138Y011783D01*
X040154Y0119D01*
Y0122D01*
X040138Y012317D01*
X040093Y012427D01*
X040021Y012521D01*
X039927Y012593D01*
X039878Y012613D01*
Y01275D01*
X039878Y01275D01*
X039865Y012818D01*
X039826Y012876D01*
X039826Y012876D01*
X038976Y013726D01*
X038918Y013765D01*
X03885Y013778D01*
D02*
G37*
G36*
X0387Y012654D02*
X038583Y012638D01*
X038473Y012593D01*
X038379Y012521D01*
X038307Y012427D01*
X038262Y012317D01*
X038246Y0122D01*
Y0119D01*
X038262Y011783D01*
X038307Y011673D01*
X038379Y011579D01*
X038473Y011507D01*
X038583Y011462D01*
X0387Y011446D01*
X038817Y011462D01*
X038927Y011507D01*
X039021Y011579D01*
X039093Y011673D01*
X039138Y011783D01*
X039154Y0119D01*
Y0122D01*
X039138Y012317D01*
X039093Y012427D01*
X039021Y012521D01*
X038927Y012593D01*
X038817Y012638D01*
X0387Y012654D01*
D02*
G37*
G36*
X0377D02*
X037583Y012638D01*
X037473Y012593D01*
X037379Y012521D01*
X037307Y012427D01*
X037262Y012317D01*
X037246Y0122D01*
Y0119D01*
X037262Y011783D01*
X037307Y011673D01*
X037379Y011579D01*
X037473Y011507D01*
X037583Y011462D01*
X0377Y011446D01*
X037817Y011462D01*
X037927Y011507D01*
X038021Y011579D01*
X038093Y011673D01*
X038138Y011783D01*
X038154Y0119D01*
Y0122D01*
X038138Y012317D01*
X038093Y012427D01*
X038021Y012521D01*
X037927Y012593D01*
X037817Y012638D01*
X0377Y012654D01*
D02*
G37*
G36*
X027246Y01305D02*
X027154D01*
X027065Y013026D01*
X026985Y01298D01*
X02692Y012915D01*
X026874Y012835D01*
X02685Y012746D01*
Y012654D01*
X026874Y012565D01*
X02692Y012485D01*
X026985Y01242D01*
X027065Y012374D01*
X027154Y01235D01*
X027246D01*
X027335Y012374D01*
X027415Y01242D01*
X02744Y012445D01*
X034944D01*
X035246Y012143D01*
Y0119D01*
X035262Y011783D01*
X035307Y011673D01*
X035379Y011579D01*
X035473Y011507D01*
X035583Y011462D01*
X0357Y011446D01*
X035817Y011462D01*
X035927Y011507D01*
X036021Y011579D01*
X036093Y011673D01*
X036138Y011783D01*
X036154Y0119D01*
Y0122D01*
X036138Y012317D01*
X036093Y012427D01*
X036021Y012521D01*
X035927Y012593D01*
X035817Y012638D01*
X0357Y012654D01*
X035583Y012638D01*
X035504Y012606D01*
X03523Y01288D01*
X035148Y012936D01*
X03505Y012955D01*
X02744D01*
X027415Y01298D01*
X027335Y013026D01*
X027246Y01305D01*
D02*
G37*
G36*
X069451Y011616D02*
X0691D01*
Y011265D01*
X069103D01*
X069205Y011292D01*
X069296Y011345D01*
X069371Y011419D01*
X069424Y011511D01*
X069451Y011613D01*
Y011616D01*
D02*
G37*
G36*
X069D02*
X068649D01*
Y011613D01*
X068676Y011511D01*
X068729Y011419D01*
X068804Y011345D01*
X068895Y011292D01*
X068997Y011265D01*
X069D01*
Y011616D01*
D02*
G37*
G36*
X068451D02*
X0681D01*
Y011265D01*
X068103D01*
X068205Y011292D01*
X068296Y011345D01*
X068371Y011419D01*
X068424Y011511D01*
X068451Y011613D01*
Y011616D01*
D02*
G37*
G36*
X068D02*
X067649D01*
Y011613D01*
X067676Y011511D01*
X067729Y011419D01*
X067804Y011345D01*
X067895Y011292D01*
X067997Y011265D01*
X068D01*
Y011616D01*
D02*
G37*
G36*
X067103Y012067D02*
X066997D01*
X066895Y01204D01*
X066804Y011987D01*
X066729Y011912D01*
X066676Y011821D01*
X066649Y011719D01*
Y011613D01*
X066676Y011511D01*
X066729Y011419D01*
X066804Y011345D01*
X066895Y011292D01*
X066997Y011265D01*
X067103D01*
X067205Y011292D01*
X067296Y011345D01*
X067371Y011419D01*
X067424Y011511D01*
X067451Y011613D01*
Y011719D01*
X067424Y011821D01*
X067371Y011912D01*
X067296Y011987D01*
X067205Y01204D01*
X067103Y012067D01*
D02*
G37*
G36*
X066103D02*
X065997D01*
X065895Y01204D01*
X065804Y011987D01*
X065729Y011912D01*
X065676Y011821D01*
X065649Y011719D01*
Y011613D01*
X065676Y011511D01*
X065729Y011419D01*
X065804Y011345D01*
X065895Y011292D01*
X065997Y011265D01*
X066103D01*
X066205Y011292D01*
X066296Y011345D01*
X066371Y011419D01*
X066424Y011511D01*
X066451Y011613D01*
Y011719D01*
X066424Y011821D01*
X066371Y011912D01*
X066296Y011987D01*
X066205Y01204D01*
X066103Y012067D01*
D02*
G37*
G36*
X065103D02*
X064997D01*
X064895Y01204D01*
X064804Y011987D01*
X064729Y011912D01*
X064676Y011821D01*
X064649Y011719D01*
Y011613D01*
X064676Y011511D01*
X064729Y011419D01*
X064804Y011345D01*
X064895Y011292D01*
X064997Y011265D01*
X065103D01*
X065205Y011292D01*
X065296Y011345D01*
X065371Y011419D01*
X065424Y011511D01*
X065451Y011613D01*
Y011719D01*
X065424Y011821D01*
X065371Y011912D01*
X065296Y011987D01*
X065205Y01204D01*
X065103Y012067D01*
D02*
G37*
G36*
X064103D02*
X063997D01*
X063895Y01204D01*
X063804Y011987D01*
X063729Y011912D01*
X063676Y011821D01*
X063649Y011719D01*
Y011613D01*
X063676Y011511D01*
X063729Y011419D01*
X063804Y011345D01*
X063895Y011292D01*
X063997Y011265D01*
X064103D01*
X064205Y011292D01*
X064296Y011345D01*
X064371Y011419D01*
X064424Y011511D01*
X064451Y011613D01*
Y011719D01*
X064424Y011821D01*
X064371Y011912D01*
X064296Y011987D01*
X064205Y01204D01*
X064103Y012067D01*
D02*
G37*
G36*
X063103D02*
X062997D01*
X062895Y01204D01*
X062804Y011987D01*
X062729Y011912D01*
X062676Y011821D01*
X062649Y011719D01*
Y011613D01*
X062676Y011511D01*
X062729Y011419D01*
X062804Y011345D01*
X062895Y011292D01*
X062997Y011265D01*
X063103D01*
X063205Y011292D01*
X063296Y011345D01*
X063371Y011419D01*
X063424Y011511D01*
X063451Y011613D01*
Y011719D01*
X063424Y011821D01*
X063371Y011912D01*
X063296Y011987D01*
X063205Y01204D01*
X063103Y012067D01*
D02*
G37*
G36*
X062103D02*
X061997D01*
X061895Y01204D01*
X061804Y011987D01*
X061729Y011912D01*
X061676Y011821D01*
X061649Y011719D01*
Y011613D01*
X061676Y011511D01*
X061729Y011419D01*
X061804Y011345D01*
X061895Y011292D01*
X061997Y011265D01*
X062103D01*
X062205Y011292D01*
X062296Y011345D01*
X062371Y011419D01*
X062424Y011511D01*
X062451Y011613D01*
Y011719D01*
X062424Y011821D01*
X062371Y011912D01*
X062296Y011987D01*
X062205Y01204D01*
X062103Y012067D01*
D02*
G37*
G36*
X061103D02*
X060997D01*
X060895Y01204D01*
X060804Y011987D01*
X060729Y011912D01*
X060676Y011821D01*
X060649Y011719D01*
Y011613D01*
X060676Y011511D01*
X060729Y011419D01*
X060804Y011345D01*
X060895Y011292D01*
X060997Y011265D01*
X061103D01*
X061205Y011292D01*
X061296Y011345D01*
X061371Y011419D01*
X061424Y011511D01*
X061451Y011613D01*
Y011719D01*
X061424Y011821D01*
X061371Y011912D01*
X061296Y011987D01*
X061205Y01204D01*
X061103Y012067D01*
D02*
G37*
G36*
X060103D02*
X059997D01*
X059895Y01204D01*
X059804Y011987D01*
X059729Y011912D01*
X059676Y011821D01*
X059649Y011719D01*
Y011613D01*
X059676Y011511D01*
X059729Y011419D01*
X059804Y011345D01*
X059895Y011292D01*
X059997Y011265D01*
X060103D01*
X060205Y011292D01*
X060296Y011345D01*
X060371Y011419D01*
X060424Y011511D01*
X060451Y011613D01*
Y011719D01*
X060424Y011821D01*
X060371Y011912D01*
X060296Y011987D01*
X060205Y01204D01*
X060103Y012067D01*
D02*
G37*
G36*
X059103D02*
X058997D01*
X058895Y01204D01*
X058804Y011987D01*
X058729Y011912D01*
X058676Y011821D01*
X058649Y011719D01*
Y011613D01*
X058676Y011511D01*
X058729Y011419D01*
X058804Y011345D01*
X058895Y011292D01*
X058997Y011265D01*
X059103D01*
X059205Y011292D01*
X059296Y011345D01*
X059371Y011419D01*
X059424Y011511D01*
X059451Y011613D01*
Y011719D01*
X059424Y011821D01*
X059371Y011912D01*
X059296Y011987D01*
X059205Y01204D01*
X059103Y012067D01*
D02*
G37*
G36*
X058103D02*
X057997D01*
X057895Y01204D01*
X057804Y011987D01*
X057729Y011912D01*
X057676Y011821D01*
X057649Y011719D01*
Y011613D01*
X057676Y011511D01*
X057729Y011419D01*
X057804Y011345D01*
X057895Y011292D01*
X057997Y011265D01*
X058103D01*
X058205Y011292D01*
X058296Y011345D01*
X058371Y011419D01*
X058424Y011511D01*
X058451Y011613D01*
Y011719D01*
X058424Y011821D01*
X058371Y011912D01*
X058296Y011987D01*
X058205Y01204D01*
X058103Y012067D01*
D02*
G37*
G36*
X057103D02*
X056997D01*
X056895Y01204D01*
X056804Y011987D01*
X056729Y011912D01*
X056676Y011821D01*
X056649Y011719D01*
Y011613D01*
X056676Y011511D01*
X056729Y011419D01*
X056804Y011345D01*
X056895Y011292D01*
X056997Y011265D01*
X057103D01*
X057205Y011292D01*
X057296Y011345D01*
X057371Y011419D01*
X057424Y011511D01*
X057451Y011613D01*
Y011719D01*
X057424Y011821D01*
X057371Y011912D01*
X057296Y011987D01*
X057205Y01204D01*
X057103Y012067D01*
D02*
G37*
G36*
X056103D02*
X055997D01*
X055895Y01204D01*
X055804Y011987D01*
X055729Y011912D01*
X055676Y011821D01*
X055649Y011719D01*
Y011613D01*
X055676Y011511D01*
X055729Y011419D01*
X055804Y011345D01*
X055895Y011292D01*
X055997Y011265D01*
X056103D01*
X056205Y011292D01*
X056296Y011345D01*
X056371Y011419D01*
X056424Y011511D01*
X056451Y011613D01*
Y011719D01*
X056424Y011821D01*
X056371Y011912D01*
X056296Y011987D01*
X056205Y01204D01*
X056103Y012067D01*
D02*
G37*
G36*
X052103D02*
X051997D01*
X051895Y01204D01*
X051804Y011987D01*
X051729Y011912D01*
X051676Y011821D01*
X051649Y011719D01*
Y011613D01*
X051676Y011511D01*
X051729Y011419D01*
X051804Y011345D01*
X051895Y011292D01*
X051997Y011265D01*
X052103D01*
X052205Y011292D01*
X052296Y011345D01*
X052371Y011419D01*
X052424Y011511D01*
X052451Y011613D01*
Y011719D01*
X052424Y011821D01*
X052371Y011912D01*
X052296Y011987D01*
X052205Y01204D01*
X052103Y012067D01*
D02*
G37*
G36*
X051103D02*
X050997D01*
X050895Y01204D01*
X050804Y011987D01*
X050729Y011912D01*
X050676Y011821D01*
X050649Y011719D01*
Y011613D01*
X050676Y011511D01*
X050729Y011419D01*
X050804Y011345D01*
X050895Y011292D01*
X050997Y011265D01*
X051103D01*
X051205Y011292D01*
X051296Y011345D01*
X051371Y011419D01*
X051424Y011511D01*
X051451Y011613D01*
Y011719D01*
X051424Y011821D01*
X051371Y011912D01*
X051296Y011987D01*
X051205Y01204D01*
X051103Y012067D01*
D02*
G37*
G36*
X050103D02*
X049997D01*
X049895Y01204D01*
X049804Y011987D01*
X049729Y011912D01*
X049676Y011821D01*
X049649Y011719D01*
Y011613D01*
X049676Y011511D01*
X049729Y011419D01*
X049804Y011345D01*
X049895Y011292D01*
X049997Y011265D01*
X050103D01*
X050205Y011292D01*
X050296Y011345D01*
X050371Y011419D01*
X050424Y011511D01*
X050451Y011613D01*
Y011719D01*
X050424Y011821D01*
X050371Y011912D01*
X050296Y011987D01*
X050205Y01204D01*
X050103Y012067D01*
D02*
G37*
G36*
X049103D02*
X048997D01*
X048895Y01204D01*
X048804Y011987D01*
X048729Y011912D01*
X048676Y011821D01*
X048649Y011719D01*
Y011613D01*
X048676Y011511D01*
X048729Y011419D01*
X048804Y011345D01*
X048895Y011292D01*
X048997Y011265D01*
X049103D01*
X049205Y011292D01*
X049296Y011345D01*
X049371Y011419D01*
X049424Y011511D01*
X049451Y011613D01*
Y011719D01*
X049424Y011821D01*
X049371Y011912D01*
X049296Y011987D01*
X049205Y01204D01*
X049103Y012067D01*
D02*
G37*
G36*
X048451Y011616D02*
X0481D01*
Y011265D01*
X048103D01*
X048205Y011292D01*
X048296Y011345D01*
X048371Y011419D01*
X048424Y011511D01*
X048451Y011613D01*
Y011616D01*
D02*
G37*
G36*
X048D02*
X047649D01*
Y011613D01*
X047676Y011511D01*
X047729Y011419D01*
X047804Y011345D01*
X047895Y011292D01*
X047997Y011265D01*
X048D01*
Y011616D01*
D02*
G37*
G36*
X01195Y011565D02*
X01155D01*
Y01085D01*
X01195D01*
Y011565D01*
D02*
G37*
G36*
X01145D02*
X01105D01*
Y01085D01*
X01145D01*
Y011565D01*
D02*
G37*
G36*
X03095D02*
X03005D01*
Y010035D01*
X03095D01*
Y011565D01*
D02*
G37*
G36*
X02995D02*
X02905D01*
Y010035D01*
X02995D01*
Y011565D01*
D02*
G37*
G36*
X02895D02*
X02805D01*
Y010035D01*
X02895D01*
Y011565D01*
D02*
G37*
G36*
X02795D02*
X02705D01*
Y010035D01*
X02795D01*
Y011565D01*
D02*
G37*
G36*
X02695D02*
X02605D01*
Y010035D01*
X02695D01*
Y011565D01*
D02*
G37*
G36*
X02495D02*
X02405D01*
Y010035D01*
X02495D01*
Y011565D01*
D02*
G37*
G36*
X02395D02*
X02305D01*
Y010035D01*
X02395D01*
Y011565D01*
D02*
G37*
G36*
X02195D02*
X02105D01*
Y010035D01*
X02195D01*
Y011565D01*
D02*
G37*
G36*
X02095D02*
X02005D01*
Y010035D01*
X02095D01*
Y011565D01*
D02*
G37*
G36*
X01995D02*
X01905D01*
Y010035D01*
X01995D01*
Y011565D01*
D02*
G37*
G36*
X01895D02*
X01805D01*
Y010035D01*
X01895D01*
Y011565D01*
D02*
G37*
G36*
X01795D02*
X01705D01*
Y010035D01*
X01795D01*
Y011565D01*
D02*
G37*
G36*
X01695D02*
X01605D01*
Y010035D01*
X01695D01*
Y011565D01*
D02*
G37*
G36*
X01595D02*
X01505D01*
Y010035D01*
X01595D01*
Y011565D01*
D02*
G37*
G36*
X01495D02*
X01405D01*
Y010035D01*
X01495D01*
Y011565D01*
D02*
G37*
G36*
X01295D02*
X01205D01*
Y010035D01*
X01295D01*
Y011565D01*
D02*
G37*
G36*
X01195Y01075D02*
X01155D01*
Y010035D01*
X01195D01*
Y01075D01*
D02*
G37*
G36*
X01145D02*
X01105D01*
Y010035D01*
X01145D01*
Y01075D01*
D02*
G37*
G36*
X02295Y011565D02*
X02205D01*
Y010035D01*
X022322D01*
Y00995D01*
X022335Y009882D01*
X022374Y009824D01*
X022624Y009574D01*
X022682Y009535D01*
X02275Y009522D01*
X02275Y009522D01*
X025825D01*
X025858Y009488D01*
X02595Y00945D01*
X02605D01*
X026142Y009488D01*
X026212Y009558D01*
X02625Y00965D01*
Y00975D01*
X026212Y009842D01*
X026142Y009912D01*
X02605Y00995D01*
X02595D01*
X025858Y009912D01*
X025825Y009878D01*
X022824D01*
X022717Y009985D01*
X022738Y010035D01*
X02295D01*
Y011565D01*
D02*
G37*
G36*
X044555Y032565D02*
X044445D01*
X04434Y032537D01*
X044245Y032482D01*
X044168Y032405D01*
X044113Y03231D01*
X044085Y032205D01*
Y032095D01*
X044113Y03199D01*
X044168Y031895D01*
X044245Y031818D01*
X04434Y031763D01*
X044445Y031735D01*
X044555D01*
X04466Y031763D01*
X044755Y031818D01*
X044832Y031895D01*
X044876Y031972D01*
X045126D01*
X045822Y031276D01*
Y01D01*
X045835Y009932D01*
X045874Y009874D01*
X046624Y009124D01*
X046624Y009124D01*
X046682Y009085D01*
X04675Y009072D01*
X04675Y009072D01*
X05445D01*
X054518Y009085D01*
X054576Y009124D01*
X055176Y009724D01*
X055215Y009782D01*
X055228Y00985D01*
Y011306D01*
X055296Y011345D01*
X055371Y011419D01*
X055424Y011511D01*
X055451Y011613D01*
Y011719D01*
X055424Y011821D01*
X055371Y011912D01*
X055296Y011987D01*
X055205Y01204D01*
X055103Y012067D01*
X054997D01*
X054895Y01204D01*
X054804Y011987D01*
X054729Y011912D01*
X054676Y011821D01*
X054649Y011719D01*
Y011613D01*
X054676Y011511D01*
X054729Y011419D01*
X054804Y011345D01*
X054872Y011306D01*
Y009924D01*
X054376Y009428D01*
X046824D01*
X046178Y010074D01*
Y03135D01*
X046178Y03135D01*
X046165Y031418D01*
X046126Y031476D01*
X045326Y032276D01*
X045268Y032315D01*
X0452Y032328D01*
X044876D01*
X044832Y032405D01*
X044755Y032482D01*
X04466Y032537D01*
X044555Y032565D01*
D02*
G37*
%LPD*%
D14*
X02975Y025241D02*
D03*
Y024059D02*
D03*
D46*
X057614Y0333D02*
X05805Y032864D01*
X0576Y0333D02*
X057614D01*
X023438Y026512D02*
X0235Y02645D01*
X023438Y026512D02*
Y026712D01*
X0206Y0273D02*
X02285D01*
X023438Y026712D01*
X02115Y02875D02*
X02255D01*
X024497Y026453D02*
Y026803D01*
Y026453D02*
X0245Y02645D01*
X02255Y02875D02*
X024497Y026803D01*
X0245Y025209D02*
Y02645D01*
X02525Y031972D02*
X0255Y031722D01*
X02525Y031972D02*
Y03205D01*
X0255Y02215D02*
Y031722D01*
X04915Y02655D02*
X04955Y02695D01*
X04915Y02655D02*
X04915D01*
X04955Y02695D02*
Y0306D01*
X0479Y0259D02*
X04855Y02655D01*
Y0306D01*
X020009Y024341D02*
X0205Y02385D01*
X0212D01*
X0215Y02355D01*
X07035Y01795D02*
Y03405D01*
X06955Y03485D02*
X07035Y03405D01*
X041181Y030341D02*
X041259D01*
X04335Y02825D01*
X041049Y030474D02*
X041181Y030341D01*
X041049Y030474D02*
Y030614D01*
X047268Y033118D02*
X047668D01*
X04645Y0323D02*
X047268Y033118D01*
X047668D02*
X0477Y03315D01*
X04645Y0105D02*
Y0323D01*
X0452Y03215D02*
X046Y03135D01*
X0445Y03215D02*
X0452D01*
X046Y01D02*
Y03135D01*
X0469Y01095D02*
Y03135D01*
X0477Y03215D01*
X0501Y0281D02*
X050125D01*
X051775Y02645D01*
X0518D01*
X02275Y0097D02*
X026D01*
X0225Y00995D02*
X02275Y0097D01*
X0225Y00995D02*
Y01115D01*
X0418Y032167D02*
X042049Y031918D01*
Y030614D02*
Y031918D01*
X0418Y032167D02*
Y0322D01*
X00885Y0273D02*
X01005Y0285D01*
X0109Y02545D02*
X011Y02535D01*
X00985Y02545D02*
X0109D01*
X00885D02*
Y0273D01*
X00985Y0163D02*
Y02235D01*
X012181Y024681D01*
Y02535D01*
X03885Y0136D02*
X0397Y01275D01*
X02625Y0136D02*
X03885D01*
X0255Y01285D02*
X02625Y0136D01*
X0255Y01115D02*
Y01285D01*
X0294Y01425D02*
X03955D01*
X0407Y0131D01*
X029748Y02525D02*
X0305D01*
X029744Y025246D02*
X029748Y02525D01*
X06945Y01705D02*
X07035Y01795D01*
X06085Y01705D02*
X06945D01*
X0664Y03545D02*
X0697Y03215D01*
X04105Y03545D02*
X0664D01*
X0608Y03217D02*
X06105Y03192D01*
Y030614D02*
Y03192D01*
X0608Y03217D02*
Y0322D01*
X06885Y0186D02*
X0697Y01945D01*
Y03215D01*
X01722Y02633D02*
Y03303D01*
Y02633D02*
X020258Y023292D01*
X020009Y02505D02*
Y026709D01*
X0206Y0273D01*
X020009Y024341D02*
Y02505D01*
X04875Y0142D02*
X0538D01*
X0545Y0149D01*
Y0184D01*
X0544Y01335D02*
X0553Y01425D01*
Y0181D01*
X0487Y01335D02*
X0544D01*
X0545Y0184D02*
X05705Y02095D01*
Y02165D01*
X05805Y02085D02*
Y02165D01*
X0553Y0181D02*
X05805Y02085D01*
X031549Y027851D02*
Y030614D01*
Y027851D02*
X032Y0274D01*
X03395D02*
X034316Y027766D01*
X032Y0274D02*
X03395D01*
X034316Y028216D02*
X03435Y02825D01*
X034316Y027766D02*
Y028216D01*
X0328Y0269D02*
X04385D01*
X030549Y027101D02*
Y030614D01*
Y027101D02*
X0318Y02585D01*
X035624D01*
X03635Y025124D01*
X04385Y0269D02*
X04435Y0274D01*
X04135Y0257D02*
X04185Y0262D01*
X044712D01*
X04535Y026838D01*
X04135Y025124D02*
Y0257D01*
X0588Y01655D02*
Y016578D01*
X059051Y016829D02*
Y0186D01*
X0588Y016578D02*
X059051Y016829D01*
X04535Y026838D02*
Y029976D01*
X044664Y030614D02*
X044688Y030638D01*
X04535Y029976D01*
X043049Y030614D02*
X044664D01*
X0155Y02215D02*
Y02625D01*
X0305Y02525D02*
X0313Y02445D01*
X0378D01*
X04435Y0274D02*
Y02825D01*
X0165Y02125D02*
X0175Y02025D01*
X0165Y02125D02*
Y02215D01*
X041Y02025D02*
X04435Y0236D01*
X0175Y02025D02*
X041D01*
X04435Y0236D02*
Y025124D01*
X02975Y024059D02*
X038709D01*
X0394Y02475D01*
Y025074D01*
X03935Y025124D02*
X0394Y025074D01*
X038219Y024894D02*
X03835Y025024D01*
X038219Y024869D02*
Y024894D01*
X0378Y02445D02*
X038219Y024869D01*
X03835Y025024D02*
Y025124D01*
X04645Y0105D02*
X0471Y00985D01*
X0469Y01095D02*
X0474Y01045D01*
X04205Y01728D02*
Y0186D01*
X0418Y01703D02*
X04205Y01728D01*
X0418Y017D02*
Y01703D01*
X04675Y00925D02*
X05445D01*
X046Y01D02*
X04675Y00925D01*
X05505Y00985D02*
Y011666D01*
X05445Y00925D02*
X05505Y00985D01*
X0471D02*
X053612D01*
X05405Y010288D02*
Y011666D01*
X053612Y00985D02*
X05405Y010288D01*
X0474Y01045D02*
X0527D01*
X05305Y0108D01*
Y011666D01*
X03905Y01615D02*
Y0186D01*
X0208Y0291D02*
X02115Y02875D01*
X0208Y0291D02*
Y030163D01*
X0203Y0276D02*
X0206Y0273D01*
X0203Y0276D02*
Y030663D01*
X0208Y030163D02*
X0213Y030663D01*
X0215Y02215D02*
Y02355D01*
X0225Y02345D02*
X0228Y02375D01*
X0225Y02215D02*
Y02345D01*
X0228Y02375D02*
X02395D01*
X024391Y024191D02*
Y0251D01*
X02395Y02375D02*
X024391Y024191D01*
Y0251D02*
X0245Y025209D01*
X020258Y022392D02*
Y023292D01*
Y022392D02*
X0205Y02215D01*
X00985Y0163D02*
X0135Y01265D01*
Y01115D02*
Y01265D01*
Y02215D02*
Y032678D01*
X01329Y032888D02*
X0135Y032678D01*
X01329Y032888D02*
Y03305D01*
X016D01*
X01722Y03303D02*
X01993D01*
X0275Y02215D02*
Y03105D01*
X0285Y03205D01*
X0265Y0323D02*
X02725Y03305D01*
X0265Y02215D02*
Y0323D01*
X062051Y0186D02*
X06885D01*
X039049Y030396D02*
Y030614D01*
X02725Y03305D02*
X0285D01*
X0407Y01205D02*
Y0131D01*
X0397Y01205D02*
Y01275D01*
X061051Y017292D02*
Y0186D01*
X06085Y017091D02*
X061051Y017292D01*
X06085Y01705D02*
Y017091D01*
X05785Y016091D02*
X058051Y016292D01*
X05785Y01605D02*
Y016091D01*
X058051Y016292D02*
Y0186D01*
X0387Y03315D02*
X039049Y032801D01*
Y030614D02*
Y032801D01*
X040049Y030614D02*
Y032461D01*
X0399Y032609D02*
Y03265D01*
Y032609D02*
X040049Y032461D01*
X05805Y030614D02*
Y032864D01*
X05905Y030614D02*
Y03242D01*
X0588Y03267D02*
X05905Y03242D01*
X0588Y03267D02*
Y0327D01*
X03985Y016541D02*
X04005Y016741D01*
Y0186D01*
X03985Y0165D02*
Y016541D01*
X03885Y01595D02*
X03905Y01615D01*
D47*
X055841Y029015D02*
X056126Y0293D01*
X058424D01*
X0586Y028139D02*
Y029124D01*
X058424Y0293D02*
X0586Y029124D01*
X058581Y02812D02*
X0586Y028139D01*
X055841Y0281D02*
Y029015D01*
X0071Y0102D02*
Y03035D01*
Y0102D02*
X0082Y0091D01*
X0311D01*
X0315Y0095D01*
Y01115D01*
X01015Y0331D02*
X011Y03395D01*
X0219D01*
X0235Y03235D01*
Y029576D02*
Y03235D01*
X0071Y03035D02*
X00895Y0322D01*
X01185D01*
X035473Y012277D02*
X035515D01*
X0357Y01205D02*
Y012092D01*
X035515Y012277D02*
X0357Y012092D01*
X03505Y0127D02*
X035473Y012277D01*
X0272Y0127D02*
X03505D01*
X0286Y02535D02*
Y027461D01*
X0183Y027154D02*
Y030663D01*
X0184Y027D02*
Y027054D01*
X0183Y027154D02*
X0184Y027054D01*
X0661Y01505D02*
X0661D01*
X0674Y01635D01*
X06745D01*
X0395Y0351D02*
X041387Y033213D01*
X044437D01*
X0277Y0351D02*
X0395D01*
X025691Y033091D02*
X0277Y0351D01*
X0213Y026202D02*
X0215Y026402D01*
X0213Y025179D02*
Y026202D01*
X021191Y02507D02*
X0213Y025179D01*
X0215Y026402D02*
Y02645D01*
X021216Y025075D02*
X023184D01*
X021191Y02505D02*
X021216Y025075D01*
X023184D02*
X023209Y0251D01*
X05305Y02885D02*
X05405Y02985D01*
X05305Y02655D02*
X05385Y02575D01*
X05305Y02655D02*
Y02885D01*
X05105Y0241D02*
X0531D01*
X05375Y02475D02*
Y02555D01*
X0531Y0241D02*
X05375Y02475D01*
Y02555D02*
X05385Y02565D01*
X0315Y01115D02*
X0325D01*
X055841Y0281D02*
X055845Y028095D01*
Y025655D02*
Y028095D01*
Y025655D02*
X05585Y02565D01*
X05405Y02985D02*
X0593D01*
X059919Y029231D01*
X05385Y02565D02*
Y02575D01*
X059919Y02812D02*
Y029231D01*
X05815Y02665D02*
X062272D01*
X06325Y027628D01*
X057911Y026889D02*
Y02812D01*
Y026889D02*
X05815Y02665D01*
X0286Y027461D02*
X02865Y027511D01*
X0286Y02535D02*
X02863Y02532D01*
X029744Y025246D02*
X02975Y025241D01*
X02967Y02532D02*
X029744Y025246D01*
X02863Y02532D02*
X02967D01*
X044437Y033213D02*
X0445Y03315D01*
X025291Y033091D02*
X025691D01*
X02525Y03305D02*
X025291Y033091D01*
D48*
X01015Y0331D02*
D03*
D49*
X00915D02*
D03*
D50*
X03335Y02825D02*
D03*
D51*
X03435D02*
D03*
X03535D02*
D03*
X03635D02*
D03*
X03735D02*
D03*
X03835D02*
D03*
X03935D02*
D03*
X04035D02*
D03*
X04135D02*
D03*
X04235D02*
D03*
X04335D02*
D03*
X04435D02*
D03*
Y025124D02*
D03*
X04335D02*
D03*
X04235D02*
D03*
X04135D02*
D03*
X04035D02*
D03*
X03935D02*
D03*
X03835D02*
D03*
X03735D02*
D03*
X03635D02*
D03*
X03535D02*
D03*
X03435D02*
D03*
X03335D02*
D03*
D52*
X068Y02605D02*
D03*
Y02805D02*
D03*
D53*
X02865Y027511D02*
D03*
X06325Y027628D02*
D03*
D54*
X02865Y028889D02*
D03*
X06325Y02625D02*
D03*
D55*
X01329Y03305D02*
D03*
X016Y03493D02*
D03*
Y03305D02*
D03*
X01329Y03493D02*
D03*
X01722Y03303D02*
D03*
X01993Y03491D02*
D03*
Y03303D02*
D03*
X01722Y03491D02*
D03*
D56*
X0325Y0108D02*
D03*
X0115D02*
D03*
X0315D02*
D03*
X0305D02*
D03*
X0275D02*
D03*
X0285D02*
D03*
X0265D02*
D03*
X0255D02*
D03*
X0245D02*
D03*
X0295D02*
D03*
X0235D02*
D03*
X0225D02*
D03*
X0205D02*
D03*
X0215D02*
D03*
X0195D02*
D03*
X0185D02*
D03*
X0175D02*
D03*
X0165D02*
D03*
X0155D02*
D03*
X0125D02*
D03*
X0325Y0225D02*
D03*
X0115D02*
D03*
X0215D02*
D03*
X0195D02*
D03*
X0125D02*
D03*
X0175D02*
D03*
X0185D02*
D03*
X0145D02*
D03*
X0155D02*
D03*
X0165D02*
D03*
X0285D02*
D03*
X0275D02*
D03*
X0205D02*
D03*
X0255D02*
D03*
X0265D02*
D03*
X0225D02*
D03*
X0235D02*
D03*
X0245D02*
D03*
X0305D02*
D03*
X0295D02*
D03*
X0315D02*
D03*
X0135Y0108D02*
D03*
X0145D02*
D03*
X0135Y0225D02*
D03*
D57*
X0417Y01205D02*
D03*
D58*
X0407D02*
D03*
X0397D02*
D03*
X0387D02*
D03*
X0377D02*
D03*
X0367D02*
D03*
X0357D02*
D03*
D59*
X06905Y02165D02*
D03*
Y011666D02*
D03*
X06805Y02165D02*
D03*
X06705D02*
D03*
X06605D02*
D03*
X06505D02*
D03*
X06405D02*
D03*
X06305D02*
D03*
X06205D02*
D03*
X06105D02*
D03*
X06005D02*
D03*
X05905D02*
D03*
X05805D02*
D03*
X05705D02*
D03*
X05605D02*
D03*
X05505D02*
D03*
X05405D02*
D03*
X05305D02*
D03*
X05205D02*
D03*
X05105D02*
D03*
X05005D02*
D03*
X04905D02*
D03*
X06805Y011666D02*
D03*
X06705D02*
D03*
X06605D02*
D03*
X06505D02*
D03*
X06405D02*
D03*
X06305D02*
D03*
X06205D02*
D03*
X06105D02*
D03*
X06005D02*
D03*
X05905D02*
D03*
X05805D02*
D03*
X05705D02*
D03*
X05605D02*
D03*
X05505D02*
D03*
X05405D02*
D03*
X05305D02*
D03*
X05105D02*
D03*
X05005D02*
D03*
X04905D02*
D03*
X04805D02*
D03*
X05205D02*
D03*
D60*
X04805Y02165D02*
D03*
D61*
X0213Y030663D02*
D03*
X0203D02*
D03*
X0193D02*
D03*
D62*
X0183D02*
D03*
D63*
X03055Y0186D02*
D03*
X03155D02*
D03*
X03255D02*
D03*
X03355D02*
D03*
X033549Y030614D02*
D03*
X032549D02*
D03*
X031549D02*
D03*
X030549D02*
D03*
X029549D02*
D03*
X02955Y0186D02*
D03*
X04005D02*
D03*
X04105D02*
D03*
X04205D02*
D03*
X04305D02*
D03*
X043049Y030614D02*
D03*
X042049D02*
D03*
X041049D02*
D03*
X040049D02*
D03*
X039049D02*
D03*
X03905Y0186D02*
D03*
X05155Y0306D02*
D03*
X05055D02*
D03*
X04955D02*
D03*
X04855D02*
D03*
X048551Y018586D02*
D03*
X049551D02*
D03*
X050551D02*
D03*
X051551D02*
D03*
X052551D02*
D03*
X05255Y0306D02*
D03*
X06205Y030614D02*
D03*
X062051Y0186D02*
D03*
X061051D02*
D03*
X060051D02*
D03*
X059051D02*
D03*
X058051D02*
D03*
X05805Y030614D02*
D03*
X05905D02*
D03*
X06005D02*
D03*
X06105D02*
D03*
D64*
X06295Y01355D02*
D03*
X05105Y0251D02*
D03*
X02525Y03305D02*
D03*
Y03205D02*
D03*
X0285Y03305D02*
D03*
Y03205D02*
D03*
X0445Y03315D02*
D03*
Y03215D02*
D03*
X0477Y03315D02*
D03*
Y03215D02*
D03*
D65*
X06395Y01355D02*
D03*
D66*
X010055Y0315D02*
D03*
D67*
X01005Y0285D02*
D03*
D68*
X05105Y0241D02*
D03*
X02525Y03405D02*
D03*
X0285D02*
D03*
X0445Y03415D02*
D03*
X0477D02*
D03*
D69*
X01635Y0288D02*
D03*
Y0298D02*
D03*
D70*
X0215Y029576D02*
D03*
D71*
X0225D02*
D03*
X0235D02*
D03*
X0245D02*
D03*
Y02645D02*
D03*
X0235D02*
D03*
X0225D02*
D03*
X0215D02*
D03*
D72*
X05385Y02565D02*
D03*
X05585D02*
D03*
D73*
X00985Y02545D02*
D03*
X00885D02*
D03*
X00785D02*
D03*
D74*
X0576Y0333D02*
D03*
X06955Y03485D02*
D03*
X0518Y02645D02*
D03*
X026Y0097D02*
D03*
X0294Y01425D02*
D03*
X04105Y03545D02*
D03*
X04875Y0142D02*
D03*
X0487Y01335D02*
D03*
X0501Y0281D02*
D03*
X0328Y0269D02*
D03*
X0155Y02625D02*
D03*
X0479Y0259D02*
D03*
X04915Y02655D02*
D03*
X0588Y01655D02*
D03*
X06085Y01705D02*
D03*
X05785Y01605D02*
D03*
X0387Y03315D02*
D03*
X0399Y03265D02*
D03*
X0418Y0322D02*
D03*
X0588Y0327D02*
D03*
X0608Y0322D02*
D03*
X0418Y017D02*
D03*
X03985Y0165D02*
D03*
X03885Y01595D02*
D03*
D75*
X01185Y0322D02*
D03*
X0272Y0127D02*
D03*
X0184Y027D02*
D03*
X0661Y01505D02*
D03*
X06745Y01635D02*
D03*
D76*
X054159Y0281D02*
D03*
X055841D02*
D03*
D77*
X02855Y0241D02*
D03*
Y0254D02*
D03*
D78*
X05925Y023887D02*
D03*
D79*
X060589Y02812D02*
D03*
X059919D02*
D03*
X05925D02*
D03*
X058581D02*
D03*
X057911D02*
D03*
D80*
X021191Y02505D02*
D03*
X020009D02*
D03*
X023209Y0251D02*
D03*
X024391D02*
D03*
X011Y02535D02*
D03*
X012181D02*
D03*
D81*
X06325Y027628D02*
X063672Y02805D01*
X068D01*
M02*
