G04*
G04 #@! TF.GenerationSoftware,Altium Limited,Altium Designer,21.9.2 (33)*
G04*
G04 Layer_Color=32896*
%FSTAX24Y24*%
%MOIN*%
G70*
G04*
G04 #@! TF.SameCoordinates,7D792EBD-1CCB-4A66-8B02-D1F74A79ED49*
G04*
G04*
G04 #@! TF.FilePolarity,Positive*
G04*
G01*
G75*
%ADD10C,0.0079*%
%ADD11C,0.0100*%
%ADD12C,0.0050*%
%ADD46C,0.0150*%
%ADD87C,0.0070*%
%ADD88C,0.0060*%
%ADD89C,0.0080*%
%ADD90R,0.0140X0.0250*%
G36*
X010505Y032105D02*
X009795D01*
X010145Y032455D01*
Y032465D01*
X010505Y032105D01*
D02*
G37*
G36*
X041345Y013145D02*
X042055D01*
X041705Y012795D01*
Y012785D01*
X041345Y013145D01*
D02*
G37*
G36*
X06715Y02705D02*
X0674Y0273D01*
Y02715D01*
X06765D01*
Y02695D01*
X0674D01*
Y0268D01*
X06715Y02705D01*
D02*
G37*
G36*
X064595Y009683D02*
X064549D01*
X064616Y009774D01*
X064678D01*
X064595Y009683D01*
D02*
G37*
G36*
X062653D02*
X062607D01*
X062673Y009774D01*
X062735D01*
X062653Y009683D01*
D02*
G37*
G36*
X059183Y009723D02*
X059192Y00972D01*
X059198Y009716D01*
X059199Y009715D01*
X0592Y009714D01*
X059203Y009709D01*
X059206Y009705D01*
X059209Y009697D01*
X05921Y009692D01*
X059211Y009689D01*
Y009687D01*
Y009686D01*
X05921Y00968D01*
X059209Y009674D01*
X059205Y009665D01*
X059203Y009662D01*
X059202Y00966D01*
X0592Y009659D01*
Y009658D01*
X059195Y009654D01*
X059191Y009652D01*
X059181Y009648D01*
X059178D01*
X059175Y009647D01*
X059172D01*
X059166Y009648D01*
X059161Y009649D01*
X059153Y009653D01*
X059147Y009657D01*
X059146Y009659D01*
X059145D01*
X059142Y009663D01*
X059138Y009668D01*
X059135Y009677D01*
X059134Y009681D01*
X059133Y009684D01*
Y009685D01*
Y009686D01*
X059134Y009692D01*
X059135Y009697D01*
X059139Y009707D01*
X059143Y009712D01*
X059144Y009713D01*
X059145Y009714D01*
X05915Y009718D01*
X059154Y009721D01*
X059163Y009724D01*
X059166D01*
X059169Y009725D01*
X059178D01*
X059183Y009723D01*
D02*
G37*
G36*
X064573Y009627D02*
X064529D01*
X064468Y009682D01*
X064407Y009627D01*
X064365D01*
X064444Y00972D01*
X064494D01*
X064573Y009627D01*
D02*
G37*
G36*
X062631D02*
X062586D01*
X062525Y009682D01*
X062464Y009627D01*
X062422D01*
X062501Y00972D01*
X062551D01*
X062631Y009627D01*
D02*
G37*
G36*
X061306Y009623D02*
X061264D01*
X061204Y009708D01*
X061144Y009623D01*
X061099D01*
X061178Y009745D01*
X061227D01*
X061306Y009623D01*
D02*
G37*
G36*
X063633Y00956D02*
X063647Y009558D01*
X06366Y009555D01*
X063672Y009552D01*
X063694Y009543D01*
X063704Y009537D01*
X063712Y009533D01*
X063719Y009527D01*
X063727Y009522D01*
X063732Y009517D01*
X063737Y009513D01*
X063741Y00951D01*
X063743Y009507D01*
X063744Y009505D01*
X063745Y009504D01*
X063754Y009493D01*
X06376Y009481D01*
X063766Y009469D01*
X063771Y009457D01*
X063779Y009431D01*
X063785Y009407D01*
X063787Y009395D01*
X063788Y009385D01*
X063789Y009376D01*
X06379Y009367D01*
X063791Y009361D01*
Y009356D01*
Y009352D01*
Y009352D01*
X06379Y009336D01*
X063789Y009322D01*
X063784Y009295D01*
X06378Y009283D01*
X063777Y009272D01*
X063773Y009262D01*
X063769Y009253D01*
X063766Y009245D01*
X063762Y009238D01*
X063758Y009231D01*
X063754Y009227D01*
X063752Y009223D01*
X06375Y00922D01*
X063748Y009218D01*
Y009217D01*
X06374Y009209D01*
X063731Y009202D01*
X063722Y009194D01*
X063712Y009189D01*
X063693Y00918D01*
X063676Y009175D01*
X063659Y009171D01*
X063653Y00917D01*
X063647Y009169D01*
X063642Y009168D01*
X063635D01*
X063619Y009169D01*
X063605Y009171D01*
X063592Y009175D01*
X063579Y009179D01*
X063568Y009185D01*
X063557Y009191D01*
X063547Y009197D01*
X063539Y009204D01*
X063531Y009211D01*
X063524Y009217D01*
X063519Y009223D01*
X063515Y009228D01*
X063511Y009233D01*
X063508Y009237D01*
X063507Y009239D01*
X063507Y00924D01*
X063505D01*
Y009198D01*
X063507Y009172D01*
X06351Y00915D01*
X063518Y00913D01*
X063526Y009114D01*
X063537Y009099D01*
X063548Y009088D01*
X063561Y009078D01*
X063574Y00907D01*
X063587Y009064D01*
X0636Y009059D01*
X063611Y009056D01*
X063622Y009055D01*
X063631Y009053D01*
X063638Y009052D01*
X063643D01*
X063665Y009054D01*
X063687Y009057D01*
X063707Y009063D01*
X063726Y009069D01*
X063742Y009076D01*
X063748Y009079D01*
X063754Y009081D01*
X063758Y009084D01*
X063762Y009085D01*
X063764Y009087D01*
X063765D01*
Y009027D01*
X063744Y009018D01*
X063724Y009011D01*
X063704Y009006D01*
X063684Y009004D01*
X063668Y009002D01*
X06366Y009001D01*
X063655Y009D01*
X063643D01*
X063625Y009001D01*
X063607Y009003D01*
X063592Y009006D01*
X063577Y009009D01*
X063564Y009014D01*
X063551Y009019D01*
X063539Y009025D01*
X063528Y009032D01*
X063509Y009048D01*
X063493Y009066D01*
X06348Y009084D01*
X06347Y009104D01*
X063461Y009122D01*
X063455Y009141D01*
X06345Y009158D01*
X063447Y009174D01*
X063446Y009187D01*
X063445Y009197D01*
Y009202D01*
Y009204D01*
Y009205D01*
Y009206D01*
Y009552D01*
X063505D01*
Y009499D01*
X063507D01*
X063514Y009511D01*
X063521Y00952D01*
X063531Y009528D01*
X063539Y009535D01*
X063548Y009541D01*
X063557Y009546D01*
X063576Y009553D01*
X063593Y009558D01*
X0636Y009559D01*
X063606Y00956D01*
X063611Y009561D01*
X063618D01*
X063633Y00956D01*
D02*
G37*
G36*
X060365Y00956D02*
X060379Y009558D01*
X060392Y009555D01*
X060404Y009552D01*
X060426Y009543D01*
X060436Y009537D01*
X060444Y009533D01*
X060451Y009527D01*
X060459Y009522D01*
X060464Y009517D01*
X060469Y009513D01*
X060473Y00951D01*
X060475Y009507D01*
X060476Y009505D01*
X060477Y009504D01*
X060486Y009493D01*
X060492Y009481D01*
X060498Y009469D01*
X060503Y009457D01*
X060511Y009431D01*
X060517Y009407D01*
X060519Y009395D01*
X06052Y009385D01*
X060521Y009376D01*
X060522Y009367D01*
X060523Y009361D01*
Y009356D01*
Y009352D01*
Y009352D01*
X060522Y009336D01*
X060521Y009322D01*
X060516Y009295D01*
X060512Y009283D01*
X060509Y009272D01*
X060505Y009262D01*
X060501Y009253D01*
X060498Y009245D01*
X060494Y009238D01*
X06049Y009231D01*
X060486Y009227D01*
X060484Y009223D01*
X060482Y00922D01*
X06048Y009218D01*
Y009217D01*
X060472Y009209D01*
X060463Y009202D01*
X060454Y009194D01*
X060444Y009189D01*
X060425Y00918D01*
X060408Y009175D01*
X060391Y009171D01*
X060385Y00917D01*
X060379Y009169D01*
X060374Y009168D01*
X060367D01*
X060351Y009169D01*
X060337Y009171D01*
X060324Y009175D01*
X060311Y009179D01*
X0603Y009185D01*
X060289Y009191D01*
X060279Y009197D01*
X060271Y009204D01*
X060263Y009211D01*
X060256Y009217D01*
X060251Y009223D01*
X060247Y009228D01*
X060243Y009233D01*
X06024Y009237D01*
X060239Y009239D01*
X060239Y00924D01*
X060237D01*
Y009198D01*
X060239Y009172D01*
X060242Y00915D01*
X06025Y00913D01*
X060258Y009114D01*
X060269Y009099D01*
X06028Y009088D01*
X060293Y009078D01*
X060306Y00907D01*
X060319Y009064D01*
X060332Y009059D01*
X060343Y009056D01*
X060354Y009055D01*
X060363Y009053D01*
X06037Y009052D01*
X060375D01*
X060397Y009054D01*
X060419Y009057D01*
X060439Y009063D01*
X060458Y009069D01*
X060473Y009076D01*
X06048Y009079D01*
X060486Y009081D01*
X06049Y009084D01*
X060494Y009085D01*
X060496Y009087D01*
X060497D01*
Y009027D01*
X060476Y009018D01*
X060456Y009011D01*
X060436Y009006D01*
X060416Y009004D01*
X060399Y009002D01*
X060392Y009001D01*
X060387Y009D01*
X060375D01*
X060357Y009001D01*
X060339Y009003D01*
X060324Y009006D01*
X060309Y009009D01*
X060296Y009014D01*
X060283Y009019D01*
X060271Y009025D01*
X06026Y009032D01*
X060241Y009048D01*
X060225Y009066D01*
X060212Y009084D01*
X060202Y009104D01*
X060193Y009122D01*
X060187Y009141D01*
X060182Y009158D01*
X060179Y009174D01*
X060177Y009187D01*
X060177Y009197D01*
Y009202D01*
Y009204D01*
Y009205D01*
Y009206D01*
Y009552D01*
X060237D01*
Y009499D01*
X060239D01*
X060246Y009511D01*
X060253Y00952D01*
X060263Y009528D01*
X060271Y009535D01*
X06028Y009541D01*
X060289Y009546D01*
X060308Y009553D01*
X060325Y009558D01*
X060332Y009559D01*
X060338Y00956D01*
X060343Y009561D01*
X06035D01*
X060365Y00956D01*
D02*
G37*
G36*
X063118Y009177D02*
X063058D01*
Y009388D01*
X063057Y009408D01*
X063053Y009425D01*
X063049Y009439D01*
X063043Y009452D01*
X063038Y009463D01*
X063033Y00947D01*
X063029Y009474D01*
X063028Y009475D01*
X063016Y009487D01*
X063003Y009495D01*
X062991Y009501D01*
X062979Y009505D01*
X062969Y009508D01*
X062961Y009509D01*
X062955Y00951D01*
X062953D01*
X062938Y009509D01*
X062925Y009505D01*
X062913Y009499D01*
X062903Y009491D01*
X062895Y009483D01*
X062888Y009473D01*
X062882Y009462D01*
X062878Y009451D01*
X062874Y00944D01*
X062871Y009429D01*
X062869Y009419D01*
X062867Y009411D01*
Y009403D01*
X062866Y009397D01*
Y009393D01*
Y009392D01*
Y009177D01*
X062806D01*
Y009408D01*
X062808Y009435D01*
X062812Y009458D01*
X062818Y009479D01*
X062826Y009496D01*
X062836Y009511D01*
X062846Y009524D01*
X062858Y009534D01*
X062869Y009541D01*
X062881Y009548D01*
X062893Y009552D01*
X062903Y009556D01*
X062914Y009558D01*
X062921Y00956D01*
X062928Y009561D01*
X062933D01*
X062948Y00956D01*
X062961Y009558D01*
X062974Y009554D01*
X062986Y009549D01*
X063007Y009538D01*
X063016Y009532D01*
X063025Y009525D01*
X063032Y009518D01*
X063039Y009512D01*
X063043Y009506D01*
X063048Y0095D01*
X063051Y009496D01*
X063054Y009492D01*
X063055Y00949D01*
X063056Y009489D01*
X063058D01*
Y009733D01*
X063118D01*
Y009177D01*
D02*
G37*
G36*
X061789Y009177D02*
X061729D01*
Y009388D01*
X061728Y009408D01*
X061724Y009425D01*
X061719Y009439D01*
X061714Y009452D01*
X061708Y009463D01*
X061704Y00947D01*
X0617Y009474D01*
X061699Y009475D01*
X061687Y009487D01*
X061674Y009495D01*
X061662Y009501D01*
X06165Y009505D01*
X06164Y009508D01*
X061632Y009509D01*
X061626Y00951D01*
X061624D01*
X061608Y009509D01*
X061596Y009505D01*
X061583Y009499D01*
X061574Y009491D01*
X061566Y009483D01*
X061559Y009473D01*
X061553Y009462D01*
X061548Y009451D01*
X061545Y00944D01*
X061542Y009429D01*
X06154Y009419D01*
X061538Y009411D01*
Y009403D01*
X061537Y009397D01*
Y009393D01*
Y009392D01*
Y009177D01*
X061477D01*
Y009408D01*
X061479Y009435D01*
X061483Y009458D01*
X061489Y009479D01*
X061497Y009496D01*
X061507Y009511D01*
X061517Y009524D01*
X061529Y009534D01*
X06154Y009541D01*
X061552Y009548D01*
X061564Y009552D01*
X061574Y009556D01*
X061584Y009558D01*
X061592Y00956D01*
X061598Y009561D01*
X061604D01*
X061619Y00956D01*
X061632Y009558D01*
X061645Y009554D01*
X061657Y009549D01*
X061678Y009538D01*
X061687Y009532D01*
X061695Y009525D01*
X061703Y009518D01*
X061709Y009512D01*
X061714Y009506D01*
X061719Y0095D01*
X061722Y009496D01*
X061725Y009492D01*
X061726Y00949D01*
X061727Y009489D01*
X061729D01*
Y009733D01*
X061789D01*
Y009177D01*
D02*
G37*
G36*
X058596D02*
X058536D01*
Y009388D01*
X058535Y009408D01*
X058531Y009425D01*
X058526Y009439D01*
X058521Y009452D01*
X058515Y009463D01*
X058511Y00947D01*
X058507Y009474D01*
X058506Y009475D01*
X058494Y009487D01*
X058481Y009495D01*
X058469Y009501D01*
X058457Y009505D01*
X058447Y009508D01*
X058439Y009509D01*
X058433Y00951D01*
X058431D01*
X058415Y009509D01*
X058402Y009505D01*
X05839Y009499D01*
X058381Y009491D01*
X058373Y009483D01*
X058365Y009473D01*
X05836Y009462D01*
X058355Y009451D01*
X058352Y00944D01*
X058349Y009429D01*
X058347Y009419D01*
X058345Y009411D01*
Y009403D01*
X058344Y009397D01*
Y009393D01*
Y009392D01*
Y009177D01*
X058284D01*
Y009408D01*
X058286Y009435D01*
X05829Y009458D01*
X058296Y009479D01*
X058303Y009496D01*
X058314Y009511D01*
X058324Y009524D01*
X058336Y009534D01*
X058347Y009541D01*
X058359Y009548D01*
X058371Y009552D01*
X058381Y009556D01*
X058391Y009558D01*
X058399Y00956D01*
X058405Y009561D01*
X058411D01*
X058426Y00956D01*
X058439Y009558D01*
X058451Y009554D01*
X058463Y009549D01*
X058485Y009538D01*
X058494Y009532D01*
X058502Y009525D01*
X05851Y009518D01*
X058516Y009512D01*
X058521Y009506D01*
X058525Y0095D01*
X058529Y009496D01*
X058532Y009492D01*
X058533Y00949D01*
X058534Y009489D01*
X058536D01*
Y009733D01*
X058596D01*
Y009177D01*
D02*
G37*
G36*
X059685Y00956D02*
X059698Y009558D01*
X05971Y009554D01*
X059722Y009549D01*
X059742Y009539D01*
X059758Y009526D01*
X059771Y009513D01*
X059781Y009503D01*
X059783Y009499D01*
X059786Y009495D01*
X059787Y009493D01*
X059788Y009492D01*
X05979D01*
Y009552D01*
X05985D01*
Y009177D01*
X05979D01*
Y00939D01*
X059789Y00941D01*
X059786Y009426D01*
X059782Y009441D01*
X059777Y009453D01*
X059772Y009463D01*
X059768Y009471D01*
X059765Y009475D01*
X059764Y009476D01*
X059754Y009487D01*
X059743Y009496D01*
X059732Y009501D01*
X059721Y009506D01*
X059712Y009508D01*
X059705Y009509D01*
X0597Y00951D01*
X059698D01*
X059684Y009509D01*
X059671Y009505D01*
X059659Y009499D01*
X059649Y009492D01*
X059641Y009484D01*
X059634Y009475D01*
X059628Y009465D01*
X059623Y009455D01*
X059621Y009444D01*
X059618Y009435D01*
X059616Y009426D01*
X059614Y009417D01*
Y00941D01*
X059613Y009404D01*
Y009401D01*
Y0094D01*
Y009177D01*
X059553D01*
Y00939D01*
X059552Y009408D01*
X059549Y009425D01*
X059545Y009438D01*
X059539Y00945D01*
X059535Y009461D01*
X05953Y009468D01*
X059527Y009473D01*
X059526Y009475D01*
X059516Y009487D01*
X059505Y009495D01*
X059494Y009501D01*
X059484Y009505D01*
X059475Y009508D01*
X059467Y009509D01*
X059462Y00951D01*
X059461D01*
X059445Y009509D01*
X059431Y009505D01*
X05942Y009501D01*
X059412Y009496D01*
X059404Y009491D01*
X0594Y009487D01*
X059397Y009483D01*
X059396Y009482D01*
X059389Y00947D01*
X059385Y009456D01*
X059381Y009441D01*
X059379Y009426D01*
X059377Y009413D01*
X059376Y009402D01*
Y009398D01*
Y009395D01*
Y009393D01*
Y009392D01*
Y009177D01*
X059316D01*
Y009408D01*
X059317Y009435D01*
X059322Y009458D01*
X059327Y009479D01*
X059336Y009496D01*
X059345Y009511D01*
X059355Y009524D01*
X059366Y009534D01*
X059378Y009541D01*
X059389Y009548D01*
X059401Y009552D01*
X059412Y009556D01*
X059421Y009558D01*
X059429Y00956D01*
X059435Y009561D01*
X05944D01*
X059455Y00956D01*
X05947Y009557D01*
X059483Y009553D01*
X059495Y009549D01*
X059506Y009543D01*
X059516Y009536D01*
X059525Y009529D01*
X059534Y009522D01*
X059541Y009514D01*
X059548Y009508D01*
X059553Y009501D01*
X059558Y009495D01*
X059561Y00949D01*
X059563Y009487D01*
X059564Y009484D01*
X059565Y009483D01*
X05957Y009496D01*
X059576Y009507D01*
X059583Y009516D01*
X059589Y009524D01*
X059596Y009531D01*
X0596Y009536D01*
X059604Y009538D01*
X059605Y009539D01*
X059616Y009547D01*
X059627Y009551D01*
X059638Y009555D01*
X059648Y009558D01*
X059658Y00956D01*
X059665Y009561D01*
X059672D01*
X059685Y00956D01*
D02*
G37*
G36*
X062024Y009644D02*
Y009552D01*
X062088D01*
Y0095D01*
X062024D01*
Y009278D01*
X062023Y009259D01*
X062019Y009242D01*
X062015Y009228D01*
X062008Y009216D01*
X062001Y009204D01*
X061992Y009196D01*
X061983Y009189D01*
X061974Y009183D01*
X061965Y009179D01*
X061956Y009175D01*
X061948Y009173D01*
X061941Y009171D01*
X061934Y00917D01*
X061929Y009169D01*
X061925D01*
X061912Y00917D01*
X061901Y009171D01*
X061892Y009173D01*
X061883Y009175D01*
X061877Y009177D01*
X061872Y009178D01*
X061869Y009179D01*
X061868D01*
Y009231D01*
X061875Y009228D01*
X061881Y009225D01*
X061894Y009221D01*
X0619Y00922D01*
X061904Y009219D01*
X061908D01*
X061918Y00922D01*
X061928Y009222D01*
X061935Y009224D01*
X061941Y009228D01*
X061945Y00923D01*
X061948Y009232D01*
X06195Y009234D01*
X061951Y009235D01*
X061955Y009241D01*
X061958Y00925D01*
X061962Y009267D01*
X061963Y009276D01*
X061964Y009282D01*
Y009287D01*
Y009289D01*
Y0095D01*
X061868D01*
Y009552D01*
X061964D01*
Y009663D01*
X062024Y009644D01*
D02*
G37*
G36*
X065157Y009471D02*
X065216D01*
Y009413D01*
X065157D01*
Y009177D01*
X065016D01*
X064992Y009178D01*
X06497Y009179D01*
X064949Y009183D01*
X064928Y009189D01*
X06491Y009194D01*
X064893Y0092D01*
X064877Y009207D01*
X064864Y009214D01*
X064851Y00922D01*
X06484Y009228D01*
X06483Y009233D01*
X064822Y00924D01*
X064816Y009244D01*
X064812Y009248D01*
X064809Y00925D01*
X064808Y009251D01*
X064794Y009265D01*
X064782Y00928D01*
X064772Y009296D01*
X064763Y009313D01*
X064755Y009329D01*
X064749Y009346D01*
X064744Y009362D01*
X06474Y009377D01*
X064737Y009391D01*
X064734Y009405D01*
X064733Y009417D01*
X064731Y009427D01*
Y009436D01*
X06473Y009442D01*
Y009447D01*
Y009448D01*
X064731Y009471D01*
X064733Y009493D01*
X064737Y009514D01*
X064742Y009533D01*
X064749Y009551D01*
X064756Y009568D01*
X064765Y009584D01*
X064774Y009598D01*
X064784Y00961D01*
X064795Y009623D01*
X064807Y009634D01*
X064819Y009644D01*
X064831Y009652D01*
X064844Y00966D01*
X06487Y009674D01*
X064897Y009685D01*
X064922Y009693D01*
X064946Y009698D01*
X064967Y009703D01*
X064976Y009704D01*
X064985Y009705D01*
X064992Y009706D01*
X064999D01*
X065003Y009707D01*
X065157D01*
Y009471D01*
D02*
G37*
G36*
X064021Y00956D02*
X064035Y009558D01*
X064048Y009554D01*
X064059Y009549D01*
X06407Y009544D01*
X06408Y009538D01*
X064089Y009532D01*
X064098Y009525D01*
X064105Y009518D01*
X064112Y009512D01*
X064117Y009506D01*
X064121Y0095D01*
X064124Y009496D01*
X064127Y009492D01*
X064128Y00949D01*
X064129Y009489D01*
X064131D01*
Y009552D01*
X064191D01*
Y009177D01*
X064131D01*
Y00939D01*
X06413Y009409D01*
X064126Y009426D01*
X064122Y00944D01*
X064116Y009452D01*
X064111Y009463D01*
X064106Y00947D01*
X064102Y009474D01*
X064101Y009475D01*
X064089Y009487D01*
X064077Y009495D01*
X064064Y009501D01*
X064052Y009505D01*
X064042Y009508D01*
X064034Y009509D01*
X064028Y00951D01*
X064026D01*
X064011Y009509D01*
X063998Y009504D01*
X063986Y009499D01*
X063976Y009491D01*
X063968Y009482D01*
X063961Y009472D01*
X063955Y009462D01*
X063951Y00945D01*
X063947Y009439D01*
X063944Y009428D01*
X063942Y009418D01*
X06394Y009409D01*
Y009401D01*
X063939Y009396D01*
Y009391D01*
Y00939D01*
Y009177D01*
X063879D01*
Y009406D01*
X06388Y009433D01*
X063884Y009456D01*
X06389Y009475D01*
X063895Y009491D01*
X063902Y009504D01*
X063906Y009513D01*
X06391Y009519D01*
X063912Y009521D01*
X063918Y009528D01*
X063925Y009534D01*
X06394Y009544D01*
X063956Y009551D01*
X063971Y009556D01*
X063985Y009559D01*
X063996Y00956D01*
X064001Y009561D01*
X064006D01*
X064021Y00956D01*
D02*
G37*
G36*
X060753Y00956D02*
X060767Y009558D01*
X06078Y009554D01*
X060791Y009549D01*
X060802Y009544D01*
X060812Y009538D01*
X060821Y009532D01*
X06083Y009525D01*
X060837Y009518D01*
X060844Y009512D01*
X060849Y009506D01*
X060853Y0095D01*
X060856Y009496D01*
X060859Y009492D01*
X06086Y00949D01*
X060861Y009489D01*
X060863D01*
Y009552D01*
X060923D01*
Y009177D01*
X060863D01*
Y00939D01*
X060862Y009409D01*
X060858Y009426D01*
X060854Y00944D01*
X060848Y009452D01*
X060843Y009463D01*
X060838Y00947D01*
X060834Y009474D01*
X060833Y009475D01*
X060821Y009487D01*
X060809Y009495D01*
X060796Y009501D01*
X060784Y009505D01*
X060774Y009508D01*
X060766Y009509D01*
X06076Y00951D01*
X060758D01*
X060743Y009509D01*
X06073Y009504D01*
X060718Y009499D01*
X060708Y009491D01*
X0607Y009482D01*
X060693Y009472D01*
X060687Y009462D01*
X060683Y00945D01*
X060679Y009439D01*
X060676Y009428D01*
X060674Y009418D01*
X060672Y009409D01*
Y009401D01*
X060671Y009396D01*
Y009391D01*
Y00939D01*
Y009177D01*
X060611D01*
Y009406D01*
X060612Y009433D01*
X060616Y009456D01*
X060622Y009475D01*
X060627Y009491D01*
X060634Y009504D01*
X060638Y009513D01*
X060642Y009519D01*
X060644Y009521D01*
X06065Y009528D01*
X060657Y009534D01*
X060672Y009544D01*
X060688Y009551D01*
X060703Y009556D01*
X060717Y009559D01*
X060728Y00956D01*
X060732Y009561D01*
X060738D01*
X060753Y00956D01*
D02*
G37*
G36*
X059203Y009177D02*
X059143D01*
Y009552D01*
X059203D01*
Y009177D01*
D02*
G37*
G36*
X058851Y00956D02*
X058865Y009558D01*
X058878Y009554D01*
X058889Y009549D01*
X0589Y009544D01*
X05891Y009538D01*
X05892Y009532D01*
X058928Y009525D01*
X058935Y009518D01*
X058942Y009512D01*
X058947Y009506D01*
X058951Y0095D01*
X058955Y009496D01*
X058957Y009492D01*
X058958Y00949D01*
X058959Y009489D01*
X058961D01*
Y009552D01*
X059021D01*
Y009177D01*
X058961D01*
Y00939D01*
X05896Y009409D01*
X058956Y009426D01*
X058952Y00944D01*
X058946Y009452D01*
X058941Y009463D01*
X058936Y00947D01*
X058932Y009474D01*
X058932Y009475D01*
X05892Y009487D01*
X058907Y009495D01*
X058895Y009501D01*
X058882Y009505D01*
X058872Y009508D01*
X058864Y009509D01*
X058858Y00951D01*
X058857D01*
X058841Y009509D01*
X058828Y009504D01*
X058816Y009499D01*
X058807Y009491D01*
X058798Y009482D01*
X058791Y009472D01*
X058785Y009462D01*
X058781Y00945D01*
X058777Y009439D01*
X058774Y009428D01*
X058772Y009418D01*
X058771Y009409D01*
Y009401D01*
X05877Y009396D01*
Y009391D01*
Y00939D01*
Y009177D01*
X05871D01*
Y009406D01*
X05871Y009433D01*
X058714Y009456D01*
X05872Y009475D01*
X058725Y009491D01*
X058732Y009504D01*
X058736Y009513D01*
X05874Y009519D01*
X058742Y009521D01*
X058748Y009528D01*
X058755Y009534D01*
X058771Y009544D01*
X058786Y009551D01*
X058801Y009556D01*
X058815Y009559D01*
X058826Y00956D01*
X058831Y009561D01*
X058836D01*
X058851Y00956D01*
D02*
G37*
G36*
X064483Y009563D02*
X064498Y009562D01*
X064513Y00956D01*
X064526Y009556D01*
X064539Y009552D01*
X064551Y009548D01*
X064561Y009542D01*
X06457Y009537D01*
X06458Y009533D01*
X064587Y009527D01*
X064593Y009523D01*
X064599Y009519D01*
X064603Y009515D01*
X064605Y009513D01*
X064607Y009512D01*
X064608Y009511D01*
X064618Y0095D01*
X064625Y009488D01*
X064632Y009477D01*
X064638Y009464D01*
X064647Y009439D01*
X064654Y009415D01*
X064655Y009404D01*
X064657Y009394D01*
X064658Y009385D01*
X064659Y009376D01*
X06466Y00937D01*
Y009365D01*
Y009362D01*
Y009361D01*
X064659Y009345D01*
X064658Y00933D01*
X064653Y009302D01*
X064648Y00929D01*
X064644Y009278D01*
X06464Y009268D01*
X064635Y009258D01*
X06463Y00925D01*
X064626Y009242D01*
X064621Y009236D01*
X064618Y00923D01*
X064615Y009227D01*
X064612Y009224D01*
X064611Y009222D01*
X06461Y009221D01*
X0646Y009212D01*
X06459Y009204D01*
X06458Y009197D01*
X064568Y009191D01*
X064556Y009186D01*
X064545Y009181D01*
X064524Y009175D01*
X064515Y009173D01*
X064506Y009171D01*
X064497Y00917D01*
X06449Y009169D01*
X064484Y009168D01*
X064476D01*
X06446Y009169D01*
X064445Y009171D01*
X064432Y009173D01*
X064419Y009177D01*
X064406Y00918D01*
X064395Y009185D01*
X064384Y009191D01*
X064375Y009195D01*
X064367Y0092D01*
X064359Y009205D01*
X064354Y00921D01*
X064348Y009214D01*
X064345Y009217D01*
X064342Y00922D01*
X06434Y009221D01*
X064339Y009222D01*
X06433Y009233D01*
X064321Y009244D01*
X064315Y009255D01*
X064309Y009267D01*
X0643Y009292D01*
X064294Y009315D01*
X064292Y009326D01*
X06429Y009336D01*
X064289Y009345D01*
X064288Y009352D01*
X064287Y009359D01*
Y009364D01*
Y009366D01*
Y009367D01*
X064288Y009384D01*
X064289Y0094D01*
X064292Y009415D01*
X064295Y009429D01*
X064298Y009442D01*
X064302Y009453D01*
X064307Y009464D01*
X064311Y009475D01*
X064316Y009483D01*
X064321Y00949D01*
X064324Y009497D01*
X064328Y009502D01*
X064331Y009506D01*
X064334Y009509D01*
X064334Y009511D01*
X064335Y009512D01*
X064345Y009521D01*
X064355Y009529D01*
X064365Y009536D01*
X064376Y009542D01*
X064387Y009548D01*
X064397Y009551D01*
X064419Y009558D01*
X064437Y009561D01*
X064445Y009562D01*
X064453Y009563D01*
X064458Y009564D01*
X064467D01*
X064483Y009563D01*
D02*
G37*
G36*
X062541D02*
X062556Y009562D01*
X06257Y00956D01*
X062583Y009556D01*
X062596Y009552D01*
X062608Y009548D01*
X062619Y009542D01*
X062628Y009537D01*
X062637Y009533D01*
X062644Y009527D01*
X062651Y009523D01*
X062656Y009519D01*
X06266Y009515D01*
X062663Y009513D01*
X062665Y009512D01*
X062666Y009511D01*
X062675Y0095D01*
X062682Y009488D01*
X06269Y009477D01*
X062695Y009464D01*
X062705Y009439D01*
X062711Y009415D01*
X062713Y009404D01*
X062715Y009394D01*
X062716Y009385D01*
X062717Y009376D01*
X062718Y00937D01*
Y009365D01*
Y009362D01*
Y009361D01*
X062717Y009345D01*
X062716Y00933D01*
X06271Y009302D01*
X062706Y00929D01*
X062702Y009278D01*
X062697Y009268D01*
X062693Y009258D01*
X062688Y00925D01*
X062683Y009242D01*
X062679Y009236D01*
X062675Y00923D01*
X062672Y009227D01*
X062669Y009224D01*
X062669Y009222D01*
X062668Y009221D01*
X062657Y009212D01*
X062647Y009204D01*
X062637Y009197D01*
X062626Y009191D01*
X062614Y009186D01*
X062603Y009181D01*
X062582Y009175D01*
X062572Y009173D01*
X062563Y009171D01*
X062555Y00917D01*
X062547Y009169D01*
X062542Y009168D01*
X062533D01*
X062518Y009169D01*
X062503Y009171D01*
X062489Y009173D01*
X062476Y009177D01*
X062463Y00918D01*
X062452Y009185D01*
X062442Y009191D01*
X062433Y009195D01*
X062424Y0092D01*
X062417Y009205D01*
X062411Y00921D01*
X062406Y009214D01*
X062402Y009217D01*
X062399Y00922D01*
X062397Y009221D01*
X062397Y009222D01*
X062387Y009233D01*
X062379Y009244D01*
X062373Y009255D01*
X062367Y009267D01*
X062358Y009292D01*
X062351Y009315D01*
X062349Y009326D01*
X062348Y009336D01*
X062347Y009345D01*
X062346Y009352D01*
X062345Y009359D01*
Y009364D01*
Y009366D01*
Y009367D01*
X062346Y009384D01*
X062347Y0094D01*
X062349Y009415D01*
X062352Y009429D01*
X062356Y009442D01*
X06236Y009453D01*
X062364Y009464D01*
X062369Y009475D01*
X062373Y009483D01*
X062378Y00949D01*
X062382Y009497D01*
X062385Y009502D01*
X062388Y009506D01*
X062391Y009509D01*
X062392Y009511D01*
X062393Y009512D01*
X062402Y009521D01*
X062412Y009529D01*
X062422Y009536D01*
X062434Y009542D01*
X062445Y009548D01*
X062455Y009551D01*
X062476Y009558D01*
X062495Y009561D01*
X062503Y009562D01*
X06251Y009563D01*
X062516Y009564D01*
X062524D01*
X062541Y009563D01*
D02*
G37*
G36*
X061213Y00956D02*
X061228Y009559D01*
X061243Y009556D01*
X061256Y009552D01*
X061269Y009549D01*
X06128Y009544D01*
X061291Y009538D01*
X0613Y009534D01*
X061309Y009529D01*
X061316Y009524D01*
X061323Y009519D01*
X061328Y009515D01*
X061332Y009512D01*
X061335Y00951D01*
X061337Y009508D01*
X061337Y009507D01*
X061347Y009497D01*
X061354Y009486D01*
X061361Y009474D01*
X061367Y009462D01*
X061376Y009438D01*
X061382Y009413D01*
X061384Y009402D01*
X061386Y009392D01*
X061386Y009383D01*
X061387Y009376D01*
X061388Y009369D01*
Y009364D01*
Y009361D01*
Y00936D01*
X061387Y009344D01*
X061386Y009329D01*
X061381Y009302D01*
X061377Y009289D01*
X061373Y009277D01*
X061368Y009267D01*
X061363Y009257D01*
X06136Y009249D01*
X061355Y009241D01*
X06135Y009235D01*
X061347Y009229D01*
X061344Y009226D01*
X061341Y009223D01*
X06134Y009221D01*
X061339Y00922D01*
X061329Y009211D01*
X061319Y009204D01*
X061309Y009196D01*
X061298Y009191D01*
X061275Y009181D01*
X061254Y009175D01*
X061244Y009173D01*
X061235Y009171D01*
X061226Y00917D01*
X06122Y009169D01*
X061214Y009168D01*
X061206D01*
X06119Y009169D01*
X061176Y009171D01*
X061162Y009173D01*
X061149Y009177D01*
X061137Y00918D01*
X061126Y009185D01*
X061115Y009191D01*
X061106Y009195D01*
X061098Y0092D01*
X06109Y009205D01*
X061085Y00921D01*
X061079Y009214D01*
X061076Y009217D01*
X061073Y00922D01*
X061071Y009221D01*
X06107Y009222D01*
X061061Y009232D01*
X061053Y009243D01*
X061046Y009255D01*
X061041Y009267D01*
X061031Y009291D01*
X061026Y009314D01*
X061024Y009325D01*
X061022Y009334D01*
X061021Y009343D01*
X06102Y009351D01*
X061019Y009357D01*
Y009362D01*
Y009364D01*
Y009365D01*
X06102Y009382D01*
X061021Y009398D01*
X061024Y009413D01*
X061027Y009426D01*
X06103Y009439D01*
X061034Y009451D01*
X061039Y009462D01*
X061042Y009472D01*
X061047Y00948D01*
X061052Y009487D01*
X061055Y009494D01*
X061059Y009499D01*
X061062Y009503D01*
X061065Y009506D01*
X061066Y009508D01*
X061066Y009509D01*
X061076Y009518D01*
X061086Y009526D01*
X061096Y009533D01*
X061107Y009538D01*
X061128Y009548D01*
X06115Y009554D01*
X061168Y009558D01*
X061177Y009559D01*
X061183Y00956D01*
X061189Y009561D01*
X061197D01*
X061213Y00956D01*
D02*
G37*
G36*
X064205Y010774D02*
X064214Y010771D01*
X064219Y010767D01*
X06422Y010766D01*
X064221Y010765D01*
X064225Y01076D01*
X064228Y010756D01*
X06423Y010747D01*
X064231Y010743D01*
X064232Y01074D01*
Y010738D01*
Y010737D01*
X064231Y010731D01*
X06423Y010725D01*
X064227Y010716D01*
X064225Y010713D01*
X064223Y01071D01*
X064221Y01071D01*
Y010709D01*
X064217Y010705D01*
X064212Y010703D01*
X064203Y010699D01*
X064199D01*
X064196Y010698D01*
X064193D01*
X064188Y010699D01*
X064182Y0107D01*
X064174Y010704D01*
X064169Y010708D01*
X064168Y01071D01*
X064167D01*
X064163Y010714D01*
X064159Y010719D01*
X064156Y010728D01*
X064156Y010732D01*
X064155Y010734D01*
Y010736D01*
Y010737D01*
X064156Y010743D01*
X064156Y010748D01*
X06416Y010758D01*
X064165Y010763D01*
X064166Y010764D01*
X064167Y010765D01*
X064171Y010769D01*
X064176Y010771D01*
X064184Y010775D01*
X064188D01*
X064191Y010776D01*
X064199D01*
X064205Y010774D01*
D02*
G37*
G36*
X064003Y010678D02*
X063961D01*
X0639Y010763D01*
X063839Y010678D01*
X063794D01*
X063874Y0108D01*
X063923D01*
X064003Y010678D01*
D02*
G37*
G36*
X060875Y010678D02*
X060833D01*
X060772Y010763D01*
X060711Y010678D01*
X060666D01*
X060746Y0108D01*
X060795D01*
X060875Y010678D01*
D02*
G37*
G36*
X059355D02*
X059313D01*
X059252Y010763D01*
X059191Y010678D01*
X059146D01*
X059226Y0108D01*
X059275D01*
X059355Y010678D01*
D02*
G37*
G36*
X062375Y010759D02*
X062376Y010753D01*
X06238Y010742D01*
X062385Y010734D01*
X062391Y010729D01*
X062396Y010726D01*
X062402Y010724D01*
X062405Y010723D01*
X062406D01*
X062414Y010724D01*
X062422Y010726D01*
X06243Y010729D01*
X062438Y010732D01*
X062444Y010734D01*
X062449Y010737D01*
X062453Y010739D01*
X062454Y01074D01*
X062465Y010747D01*
X062476Y010751D01*
X062485Y010755D01*
X062493Y010757D01*
X0625Y010759D01*
X062504Y010759D01*
X062509D01*
X06252Y010759D01*
X06253Y010756D01*
X062539Y010752D01*
X062545Y010747D01*
X062551Y010743D01*
X062554Y010739D01*
X062557Y010736D01*
X062558Y010735D01*
X062564Y010726D01*
X062568Y010715D01*
X062571Y010705D01*
X062574Y010695D01*
X062575Y010685D01*
X062576Y010678D01*
Y010673D01*
Y010673D01*
Y010672D01*
X062541D01*
Y010679D01*
X06254Y010685D01*
X062536Y010696D01*
X062531Y010703D01*
X062525Y010708D01*
X062519Y010711D01*
X062514Y010712D01*
X06251Y010713D01*
X062509D01*
X062503Y010712D01*
X062495Y01071D01*
X062481Y010706D01*
X062475Y010702D01*
X062469Y0107D01*
X062466Y010698D01*
X062465Y010697D01*
X062453Y010691D01*
X062442Y010686D01*
X062431Y010683D01*
X062422Y010681D01*
X062415Y010679D01*
X062409Y010678D01*
X062405D01*
X062394Y010679D01*
X062384Y010682D01*
X062377Y010686D01*
X062369Y010691D01*
X062365Y010695D01*
X06236Y010699D01*
X062358Y010702D01*
X062357Y010703D01*
X062351Y010713D01*
X062346Y010723D01*
X062343Y010734D01*
X062341Y010745D01*
X06234Y010753D01*
X062339Y01076D01*
Y010765D01*
Y010767D01*
X062375D01*
Y010759D01*
D02*
G37*
G36*
X05765Y010755D02*
X057651Y010748D01*
X057655Y010737D01*
X05766Y01073D01*
X057666Y010725D01*
X057671Y010722D01*
X057677Y010721D01*
X057681Y01072D01*
X057681D01*
X057689Y010721D01*
X057697Y010722D01*
X057712Y010728D01*
X057718Y010731D01*
X057723Y010733D01*
X057727Y010734D01*
X057728Y010735D01*
X057739Y010742D01*
X05775Y010747D01*
X057759Y01075D01*
X057767Y010752D01*
X057773Y010754D01*
X057779Y010755D01*
X057782D01*
X057793Y010754D01*
X057804Y010751D01*
X057812Y010747D01*
X057819Y010743D01*
X057825Y010738D01*
X057829Y010734D01*
X057831Y010732D01*
X057832Y010731D01*
X057838Y010722D01*
X057842Y010711D01*
X057845Y010701D01*
X057848Y010691D01*
X057849Y010682D01*
X05785Y010674D01*
Y01067D01*
Y010669D01*
Y010668D01*
X057815D01*
Y010675D01*
X057813Y010682D01*
X057809Y010692D01*
X057805Y010699D01*
X057798Y010704D01*
X057792Y010708D01*
X057787Y010709D01*
X057783Y01071D01*
X057782D01*
X057776Y010709D01*
X057769Y010707D01*
X057755Y010702D01*
X057749Y010698D01*
X057743Y010697D01*
X05774Y010695D01*
X057739Y010694D01*
X057727Y010687D01*
X057716Y010683D01*
X057706Y010679D01*
X057696Y010677D01*
X05769Y010675D01*
X057684Y010674D01*
X05768D01*
X057669Y010675D01*
X057659Y010678D01*
X057652Y010682D01*
X057644Y010686D01*
X05764Y010691D01*
X057635Y010695D01*
X057633Y010697D01*
X057632Y010698D01*
X057626Y010709D01*
X057621Y010719D01*
X057619Y01073D01*
X057616Y01074D01*
X057615Y010748D01*
X057614Y010756D01*
Y01076D01*
Y010762D01*
X05765D01*
Y010755D01*
D02*
G37*
G36*
X061754Y010228D02*
X061694D01*
Y010439D01*
X061693Y010459D01*
X06169Y010475D01*
X061685Y01049D01*
X061679Y010503D01*
X061674Y010513D01*
X061669Y010521D01*
X061665Y010525D01*
X061665Y010526D01*
X061653Y010537D01*
X06164Y010546D01*
X061628Y010552D01*
X061616Y010556D01*
X061605Y010559D01*
X061597Y01056D01*
X061591Y010561D01*
X06159D01*
X061574Y01056D01*
X061561Y010556D01*
X061549Y010549D01*
X06154Y010542D01*
X061531Y010534D01*
X061524Y010524D01*
X061518Y010512D01*
X061514Y010502D01*
X06151Y010491D01*
X061507Y01048D01*
X061505Y01047D01*
X061504Y010462D01*
Y010454D01*
X061503Y010448D01*
Y010444D01*
Y010443D01*
Y010228D01*
X061443D01*
Y010459D01*
X061444Y010486D01*
X061448Y010509D01*
X061455Y01053D01*
X061462Y010547D01*
X061472Y010562D01*
X061482Y010574D01*
X061494Y010585D01*
X061505Y010592D01*
X061517Y010599D01*
X061529Y010603D01*
X06154Y010607D01*
X06155Y010609D01*
X061557Y010611D01*
X061564Y010611D01*
X061569D01*
X061584Y010611D01*
X061597Y010609D01*
X06161Y010605D01*
X061622Y0106D01*
X061643Y010589D01*
X061653Y010583D01*
X061661Y010576D01*
X061668Y010569D01*
X061675Y010562D01*
X061679Y010557D01*
X061684Y010551D01*
X061688Y010547D01*
X06169Y010543D01*
X061691Y010541D01*
X061692Y01054D01*
X061694D01*
Y010784D01*
X061754D01*
Y010228D01*
D02*
G37*
G36*
X066105Y010228D02*
X066043D01*
Y010467D01*
X065772D01*
Y010228D01*
X06571D01*
Y010753D01*
X065772D01*
Y010523D01*
X066043D01*
Y010753D01*
X066105D01*
Y010228D01*
D02*
G37*
G36*
X060791Y010613D02*
X060815Y01061D01*
X060838Y010604D01*
X060857Y010598D01*
X060865Y010594D01*
X060873Y01059D01*
X060878Y010587D01*
X060884Y010585D01*
X060888Y010583D01*
X060891Y010581D01*
X060893Y010579D01*
X060894D01*
Y010517D01*
X060884Y010525D01*
X060873Y010533D01*
X060862Y010538D01*
X060851Y010544D01*
X06083Y010552D01*
X060811Y010558D01*
X060795Y010561D01*
X060788Y010562D01*
X060781D01*
X060777Y010563D01*
X06077D01*
X060756Y010562D01*
X060744Y01056D01*
X060734Y010554D01*
X060725Y010549D01*
X060717Y010541D01*
X060711Y010533D01*
X060706Y010525D01*
X060702Y010515D01*
X060696Y010498D01*
X060695Y010489D01*
X060693Y010482D01*
Y010476D01*
X060692Y010472D01*
Y010468D01*
Y010467D01*
X060805Y010451D01*
X060827Y010447D01*
X060847Y010441D01*
X060863Y010434D01*
X060878Y010425D01*
X06089Y010415D01*
X0609Y010404D01*
X060909Y010394D01*
X060915Y010383D01*
X060921Y010372D01*
X060925Y010362D01*
X060927Y010352D01*
X060929Y010344D01*
X06093Y010338D01*
X060931Y010332D01*
Y010328D01*
Y010328D01*
X060929Y01031D01*
X060925Y010294D01*
X060921Y010281D01*
X060914Y01027D01*
X060909Y010261D01*
X060903Y010254D01*
X0609Y010251D01*
X060899Y010249D01*
X060886Y010239D01*
X060871Y010232D01*
X060856Y010227D01*
X060842Y010223D01*
X060829Y010221D01*
X060819Y01022D01*
X060815Y010219D01*
X06081D01*
X060796Y01022D01*
X060783Y010222D01*
X060771Y010226D01*
X060759Y010229D01*
X06074Y010241D01*
X060723Y010253D01*
X06071Y010265D01*
X060701Y010276D01*
X060697Y010279D01*
X060695Y010283D01*
X060693Y010285D01*
Y010286D01*
X060692D01*
Y010228D01*
X060631D01*
Y010474D01*
X060633Y010499D01*
X060637Y010521D01*
X060643Y010539D01*
X060652Y010555D01*
X060662Y010569D01*
X060674Y010581D01*
X060686Y01059D01*
X060698Y010598D01*
X06071Y010603D01*
X060722Y010608D01*
X060734Y010611D01*
X060743Y010613D01*
X060752Y010614D01*
X060759Y010615D01*
X060765D01*
X060791Y010613D01*
D02*
G37*
G36*
X059272D02*
X059296Y01061D01*
X059318Y010604D01*
X059337Y010598D01*
X059346Y010594D01*
X059353Y01059D01*
X059359Y010587D01*
X059364Y010585D01*
X059369Y010583D01*
X059371Y010581D01*
X059373Y010579D01*
X059374D01*
Y010517D01*
X059364Y010525D01*
X059353Y010533D01*
X059342Y010538D01*
X059332Y010544D01*
X05931Y010552D01*
X059291Y010558D01*
X059275Y010561D01*
X059268Y010562D01*
X059261D01*
X059257Y010563D01*
X05925D01*
X059236Y010562D01*
X059224Y01056D01*
X059214Y010554D01*
X059205Y010549D01*
X059198Y010541D01*
X059191Y010533D01*
X059186Y010525D01*
X059182Y010515D01*
X059176Y010498D01*
X059175Y010489D01*
X059174Y010482D01*
Y010476D01*
X059173Y010472D01*
Y010468D01*
Y010467D01*
X059285Y010451D01*
X059308Y010447D01*
X059327Y010441D01*
X059344Y010434D01*
X059359Y010425D01*
X059371Y010415D01*
X059381Y010404D01*
X059389Y010394D01*
X059396Y010383D01*
X059401Y010372D01*
X059405Y010362D01*
X059408Y010352D01*
X059409Y010344D01*
X05941Y010338D01*
X059411Y010332D01*
Y010328D01*
Y010328D01*
X059409Y01031D01*
X059406Y010294D01*
X059401Y010281D01*
X059395Y01027D01*
X059389Y010261D01*
X059383Y010254D01*
X05938Y010251D01*
X059379Y010249D01*
X059366Y010239D01*
X059351Y010232D01*
X059336Y010227D01*
X059322Y010223D01*
X059309Y010221D01*
X059299Y01022D01*
X059296Y010219D01*
X05929D01*
X059276Y01022D01*
X059263Y010222D01*
X059251Y010226D01*
X059239Y010229D01*
X05922Y010241D01*
X059203Y010253D01*
X05919Y010265D01*
X059181Y010276D01*
X059177Y010279D01*
X059175Y010283D01*
X059174Y010285D01*
Y010286D01*
X059173D01*
Y010228D01*
X059112D01*
Y010474D01*
X059113Y010499D01*
X059117Y010521D01*
X059124Y010539D01*
X059132Y010555D01*
X059142Y010569D01*
X059154Y010581D01*
X059166Y01059D01*
X059178Y010598D01*
X05919Y010603D01*
X059202Y010608D01*
X059214Y010611D01*
X059223Y010613D01*
X059233Y010614D01*
X059239Y010615D01*
X059245D01*
X059272Y010613D01*
D02*
G37*
G36*
X057753Y01061D02*
X057777Y010606D01*
X057799Y0106D01*
X057817Y010594D01*
X057826Y01059D01*
X057833Y010587D01*
X05784Y010585D01*
X057844Y010582D01*
X057849Y01058D01*
X057852Y010578D01*
X057854Y010576D01*
X057854D01*
Y010514D01*
X057844Y010523D01*
X057833Y01053D01*
X057823Y010536D01*
X057812Y010541D01*
X057792Y010549D01*
X057773Y010555D01*
X057756Y010558D01*
X05775Y01056D01*
X057743D01*
X057739Y010561D01*
X057732D01*
X057718Y01056D01*
X057706Y010557D01*
X057696Y010552D01*
X057687Y010546D01*
X05768Y010538D01*
X057673Y01053D01*
X057669Y010522D01*
X057664Y010513D01*
X057658Y010496D01*
X057657Y010488D01*
X057656Y01048D01*
Y010475D01*
X057655Y010469D01*
Y010466D01*
Y010465D01*
X057768Y01045D01*
X05779Y010445D01*
X057808Y010439D01*
X057825Y010432D01*
X057839Y010423D01*
X057851Y010414D01*
X057861Y010403D01*
X057869Y010392D01*
X057876Y010381D01*
X057881Y010371D01*
X057885Y010361D01*
X057888Y010352D01*
X05789Y010343D01*
X057891Y010337D01*
X057891Y010331D01*
Y010328D01*
Y010327D01*
X057891Y010309D01*
X057887Y010293D01*
X057881Y01028D01*
X057876Y010269D01*
X05787Y01026D01*
X057865Y010253D01*
X057861Y01025D01*
X05786Y010248D01*
X057847Y010239D01*
X057832Y010231D01*
X057818Y010227D01*
X057804Y010223D01*
X057792Y010221D01*
X057781Y01022D01*
X057778Y010219D01*
X057772D01*
X057758Y01022D01*
X057745Y010222D01*
X057733Y010226D01*
X057721Y010229D01*
X057702Y010241D01*
X057685Y010253D01*
X057673Y010265D01*
X057664Y010276D01*
X05766Y010279D01*
X057658Y010283D01*
X057657Y010285D01*
Y010286D01*
X057655D01*
Y010228D01*
X057595D01*
Y010472D01*
X057596Y010497D01*
X0576Y010518D01*
X057607Y010537D01*
X057615Y010552D01*
X057625Y010566D01*
X057636Y010577D01*
X057648Y010587D01*
X05766Y010594D01*
X057673Y010599D01*
X057685Y010604D01*
X057696Y010607D01*
X057706Y01061D01*
X057715Y010611D01*
X057721Y010611D01*
X057727D01*
X057753Y01061D01*
D02*
G37*
G36*
X063008Y010228D02*
X062946D01*
Y010486D01*
X062945D01*
X062941Y010481D01*
X062936Y010475D01*
X062933Y01047D01*
X062931Y010469D01*
Y010468D01*
X062727Y010228D01*
X062641D01*
X062883Y0105D01*
X062657Y010753D01*
X062734D01*
X062931Y010524D01*
X062936Y010517D01*
X062941Y010512D01*
X062944Y010508D01*
X062945Y010506D01*
X062946D01*
Y010753D01*
X063008D01*
Y010228D01*
D02*
G37*
G36*
X060049D02*
X05999D01*
Y010579D01*
Y010604D01*
Y010625D01*
X059991Y010643D01*
Y010658D01*
X059992Y010669D01*
Y010676D01*
X059993Y010681D01*
Y010683D01*
X059991D01*
X059988Y01067D01*
X059986Y010659D01*
X059983Y010649D01*
X05998Y010642D01*
X059978Y010636D01*
X059976Y010632D01*
X059975Y010629D01*
Y010628D01*
X059796Y010228D01*
X059766D01*
X059587Y010631D01*
X059584Y010637D01*
X059581Y010646D01*
X059576Y010662D01*
X059574Y010671D01*
X059572Y010677D01*
X059571Y010681D01*
Y010683D01*
X059569D01*
X059571Y010661D01*
X059572Y010641D01*
X059574Y010624D01*
Y010609D01*
X059575Y010597D01*
Y010587D01*
Y010582D01*
Y010581D01*
Y01058D01*
Y010228D01*
X059513D01*
Y010753D01*
X059591D01*
X059755Y010388D01*
X059759Y010378D01*
X059763Y010368D01*
X059767Y010358D01*
X059771Y010347D01*
X059775Y010338D01*
X059778Y01033D01*
X059779Y010325D01*
X05978Y010324D01*
Y010323D01*
X059782D01*
X059785Y010332D01*
X059789Y010342D01*
X059792Y010352D01*
X059796Y010363D01*
X0598Y010372D01*
X059803Y010379D01*
X059805Y010385D01*
X059806Y010387D01*
X059968Y010753D01*
X060049D01*
Y010228D01*
D02*
G37*
G36*
X05853D02*
X058471D01*
Y010579D01*
Y010604D01*
Y010625D01*
X058471Y010643D01*
Y010658D01*
X058472Y010669D01*
Y010676D01*
X058473Y010681D01*
Y010683D01*
X058471D01*
X058469Y01067D01*
X058466Y010659D01*
X058463Y010649D01*
X05846Y010642D01*
X058458Y010636D01*
X058457Y010632D01*
X058456Y010629D01*
Y010628D01*
X058276Y010228D01*
X058247D01*
X058067Y010631D01*
X058064Y010637D01*
X058062Y010646D01*
X058056Y010662D01*
X058054Y010671D01*
X058052Y010677D01*
X058051Y010681D01*
Y010683D01*
X05805D01*
X058051Y010661D01*
X058052Y010641D01*
X058054Y010624D01*
Y010609D01*
X058055Y010597D01*
Y010587D01*
Y010582D01*
Y010581D01*
Y01058D01*
Y010228D01*
X057993D01*
Y010753D01*
X058071D01*
X058236Y010388D01*
X058239Y010378D01*
X058243Y010368D01*
X058248Y010358D01*
X058251Y010347D01*
X058255Y010338D01*
X058258Y01033D01*
X05826Y010325D01*
X058261Y010324D01*
Y010323D01*
X058262D01*
X058265Y010332D01*
X058269Y010342D01*
X058273Y010352D01*
X058276Y010363D01*
X05828Y010372D01*
X058284Y010379D01*
X058286Y010385D01*
X058286Y010387D01*
X058448Y010753D01*
X05853D01*
Y010228D01*
D02*
G37*
G36*
X062488D02*
X062518Y010157D01*
X062523Y010148D01*
X062528Y01014D01*
X062533Y010132D01*
X062539Y010126D01*
X062544Y01012D01*
X06255Y010116D01*
X062561Y010109D01*
X062571Y010106D01*
X062579Y010104D01*
X062585Y010103D01*
X062587D01*
X0626Y010104D01*
X062611Y010106D01*
X062615Y010107D01*
X062619Y010108D01*
X062622Y010109D01*
X062623D01*
Y010055D01*
X06261Y010052D01*
X062597Y010051D01*
X062591Y01005D01*
X062583D01*
X062567Y010051D01*
X062553Y010055D01*
X06254Y010061D01*
X062528Y010069D01*
X062516Y010077D01*
X062504Y010087D01*
X062495Y010098D01*
X062486Y010109D01*
X062479Y010119D01*
X062472Y01013D01*
X062466Y010141D01*
X062461Y010149D01*
X062457Y010156D01*
X062454Y010163D01*
X062454Y010167D01*
X062453Y010167D01*
X062278Y010606D01*
X062341D01*
X062449Y010314D01*
X062451Y010307D01*
X062453Y010301D01*
X062454Y010296D01*
X062454Y010292D01*
X062456Y010288D01*
Y010286D01*
X062458D01*
X06246Y010294D01*
X062462Y0103D01*
X062463Y010305D01*
X062464Y010309D01*
X062465Y010312D01*
X062466Y010314D01*
Y010315D01*
X062568Y010606D01*
X062636D01*
X062488Y010228D01*
D02*
G37*
G36*
X064498Y010228D02*
X064439D01*
X06429Y010603D01*
X064353D01*
X064452Y010328D01*
X064458Y010311D01*
X06446Y010303D01*
X064462Y010294D01*
X064463Y010288D01*
X064464Y010282D01*
X064465Y010278D01*
Y010278D01*
X064465D01*
X064468Y010295D01*
X064471Y010304D01*
X064473Y010313D01*
X064475Y010319D01*
X064477Y010326D01*
X064477Y010329D01*
X064478Y01033D01*
X064575Y010603D01*
X06464D01*
X064498Y010228D01*
D02*
G37*
G36*
X061989Y010695D02*
Y010603D01*
X062053D01*
Y010551D01*
X061989D01*
Y010329D01*
X061988Y01031D01*
X061985Y010293D01*
X06198Y010278D01*
X061973Y010266D01*
X061966Y010255D01*
X061958Y010247D01*
X061949Y01024D01*
X061939Y010234D01*
X06193Y010229D01*
X061922Y010226D01*
X061913Y010224D01*
X061906Y010222D01*
X061899Y010221D01*
X061895Y01022D01*
X06189D01*
X061877Y010221D01*
X061866Y010222D01*
X061857Y010224D01*
X061849Y010226D01*
X061842Y010228D01*
X061838Y010229D01*
X061835Y01023D01*
X061834D01*
Y010282D01*
X06184Y010278D01*
X061847Y010276D01*
X06186Y010272D01*
X061865Y010271D01*
X06187Y01027D01*
X061874D01*
X061884Y010271D01*
X061893Y010273D01*
X0619Y010275D01*
X061906Y010278D01*
X061911Y010281D01*
X061913Y010283D01*
X061915Y010285D01*
X061916Y010286D01*
X061921Y010292D01*
X061924Y010301D01*
X061927Y010318D01*
X061928Y010327D01*
X061929Y010333D01*
Y010338D01*
Y01034D01*
Y010551D01*
X061834D01*
Y010603D01*
X061929D01*
Y010714D01*
X061989Y010695D01*
D02*
G37*
G36*
X060498D02*
Y010603D01*
X060562D01*
Y010551D01*
X060498D01*
Y010329D01*
X060497Y01031D01*
X060493Y010293D01*
X060489Y010278D01*
X060482Y010266D01*
X060475Y010255D01*
X060467Y010247D01*
X060457Y01024D01*
X060448Y010234D01*
X060439Y010229D01*
X060431Y010226D01*
X060422Y010224D01*
X060415Y010222D01*
X060408Y010221D01*
X060404Y01022D01*
X060399D01*
X060386Y010221D01*
X060375Y010222D01*
X060366Y010224D01*
X060358Y010226D01*
X060351Y010228D01*
X060346Y010229D01*
X060344Y01023D01*
X060343D01*
Y010282D01*
X060349Y010278D01*
X060356Y010276D01*
X060369Y010272D01*
X060374Y010271D01*
X060379Y01027D01*
X060382D01*
X060393Y010271D01*
X060402Y010273D01*
X060409Y010275D01*
X060415Y010278D01*
X060419Y010281D01*
X060422Y010283D01*
X060424Y010285D01*
X060425Y010286D01*
X06043Y010292D01*
X060432Y010301D01*
X060436Y010318D01*
X060437Y010327D01*
X060438Y010333D01*
Y010338D01*
Y01034D01*
Y010551D01*
X060343D01*
Y010603D01*
X060438D01*
Y010714D01*
X060498Y010695D01*
D02*
G37*
G36*
X058978D02*
Y010603D01*
X059042D01*
Y010551D01*
X058978D01*
Y010329D01*
X058977Y01031D01*
X058974Y010293D01*
X058969Y010278D01*
X058963Y010266D01*
X058955Y010255D01*
X058947Y010247D01*
X058938Y01024D01*
X058928Y010234D01*
X058919Y010229D01*
X058911Y010226D01*
X058902Y010224D01*
X058895Y010222D01*
X058889Y010221D01*
X058884Y01022D01*
X058879D01*
X058866Y010221D01*
X058855Y010222D01*
X058846Y010224D01*
X058838Y010226D01*
X058831Y010228D01*
X058827Y010229D01*
X058824Y01023D01*
X058823D01*
Y010282D01*
X058829Y010278D01*
X058836Y010276D01*
X058849Y010272D01*
X058854Y010271D01*
X058859Y01027D01*
X058863D01*
X058873Y010271D01*
X058882Y010273D01*
X05889Y010275D01*
X058895Y010278D01*
X0589Y010281D01*
X058902Y010283D01*
X058904Y010285D01*
X058905Y010286D01*
X05891Y010292D01*
X058913Y010301D01*
X058916Y010318D01*
X058917Y010327D01*
X058918Y010333D01*
Y010338D01*
Y01034D01*
Y010551D01*
X058823D01*
Y010603D01*
X058918D01*
Y010714D01*
X058978Y010695D01*
D02*
G37*
G36*
X064983Y010611D02*
X064998Y010609D01*
X065013Y010606D01*
X065027Y010603D01*
X065039Y010599D01*
X065051Y010594D01*
X065061Y010588D01*
X065071Y010584D01*
X06508Y010578D01*
X065088Y010573D01*
X065094Y010568D01*
X065099Y010564D01*
X065104Y010561D01*
X065106Y010558D01*
X065108Y010556D01*
X065109Y010555D01*
X065118Y010544D01*
X065127Y010533D01*
X065133Y010521D01*
X06514Y010508D01*
X065144Y010496D01*
X065149Y010483D01*
X065155Y01046D01*
X065157Y010449D01*
X065159Y010438D01*
X06516Y010429D01*
X065161Y010422D01*
X065162Y010415D01*
Y01041D01*
Y010407D01*
Y010406D01*
X065161Y010391D01*
X06516Y010377D01*
X065155Y01035D01*
X065146Y010327D01*
X065142Y010316D01*
X065137Y010307D01*
X065133Y010299D01*
X065129Y010291D01*
X065124Y010286D01*
X06512Y01028D01*
X065118Y010277D01*
X065115Y010274D01*
X065114Y010272D01*
X065113Y010271D01*
X065104Y010262D01*
X065094Y010254D01*
X065082Y010247D01*
X065072Y010241D01*
X06505Y010232D01*
X06503Y010226D01*
X065011Y010222D01*
X065004Y010221D01*
X064996Y01022D01*
X064991Y010219D01*
X064983D01*
X064962Y01022D01*
X064943Y010223D01*
X064925Y010228D01*
X064909Y010232D01*
X064897Y010236D01*
X064888Y010241D01*
X064885Y010242D01*
X064883Y010243D01*
X064882Y010244D01*
X064881D01*
Y010302D01*
X064897Y01029D01*
X064913Y010283D01*
X064929Y010278D01*
X064944Y010273D01*
X064956Y010271D01*
X064965Y01027D01*
X064969Y010269D01*
X064973D01*
X064994Y010271D01*
X065012Y010275D01*
X065029Y010281D01*
X065042Y010289D01*
X065053Y010295D01*
X06506Y010302D01*
X065065Y010305D01*
X065067Y010307D01*
X065078Y010323D01*
X065086Y01034D01*
X065093Y010357D01*
X065096Y010374D01*
X065099Y010389D01*
X0651Y010395D01*
Y010401D01*
X065101Y010405D01*
Y010409D01*
Y010411D01*
Y010412D01*
X065099Y010436D01*
X065095Y010457D01*
X065089Y010475D01*
X065082Y01049D01*
X065076Y010502D01*
X065069Y010512D01*
X065066Y010517D01*
X065064Y010519D01*
X065057Y010526D01*
X065049Y010533D01*
X065033Y010543D01*
X065018Y01055D01*
X065003Y010555D01*
X06499Y010559D01*
X064979Y01056D01*
X064975Y010561D01*
X06497D01*
X064952Y01056D01*
X064935Y010556D01*
X06492Y010551D01*
X064907Y010547D01*
X064896Y010541D01*
X064887Y010537D01*
X064882Y010533D01*
X06488Y010532D01*
Y010593D01*
X064895Y010599D01*
X064909Y010604D01*
X064924Y010607D01*
X064937Y01061D01*
X064949Y010611D01*
X064958Y010611D01*
X064967D01*
X064983Y010611D01*
D02*
G37*
G36*
X063907Y010614D02*
X06392Y010612D01*
X063933Y01061D01*
X063944Y010607D01*
X063965Y010598D01*
X063984Y010587D01*
X063991Y010582D01*
X063998Y010576D01*
X064004Y010572D01*
X064008Y010568D01*
X064012Y010564D01*
X064015Y010562D01*
X064017Y01056D01*
X064018Y010559D01*
X064026Y010548D01*
X064034Y010537D01*
X064041Y010525D01*
X064046Y010513D01*
X064056Y010489D01*
X064061Y010466D01*
X064063Y010456D01*
X064065Y010446D01*
X064066Y010438D01*
X064067Y01043D01*
X064068Y010424D01*
Y010419D01*
Y010416D01*
Y010415D01*
X064067Y010398D01*
X064066Y010382D01*
X064063Y010367D01*
X06406Y010352D01*
X064058Y01034D01*
X064053Y010328D01*
X064049Y010317D01*
X064045Y010307D01*
X064041Y010299D01*
X064036Y010291D01*
X064033Y010285D01*
X06403Y010279D01*
X064026Y010276D01*
X064024Y010273D01*
X064023Y010271D01*
X064022Y01027D01*
X064013Y010261D01*
X064004Y010253D01*
X063994Y010247D01*
X063983Y010241D01*
X063962Y010231D01*
X063942Y010226D01*
X063923Y010222D01*
X063916Y010221D01*
X063909Y01022D01*
X063903Y010219D01*
X063896D01*
X063866Y010221D01*
X06384Y010225D01*
X063818Y01023D01*
X063808Y010233D01*
X063799Y010237D01*
X06379Y010241D01*
X063784Y010243D01*
X063777Y010246D01*
X063773Y010249D01*
X063769Y010252D01*
X063765Y010253D01*
X063764Y010254D01*
X063763D01*
Y010312D01*
X063774Y010304D01*
X063784Y010298D01*
X063804Y010287D01*
X063824Y010279D01*
X063843Y010275D01*
X063859Y010271D01*
X063865Y01027D01*
X063871D01*
X063875Y010269D01*
X063882D01*
X063902Y010271D01*
X06392Y010275D01*
X063934Y01028D01*
X063947Y010287D01*
X063958Y010292D01*
X063965Y010298D01*
X06397Y010302D01*
X063971Y010303D01*
X063983Y010317D01*
X06399Y010333D01*
X063996Y01035D01*
X064Y010365D01*
X064003Y010379D01*
X064004Y010386D01*
Y010391D01*
X064005Y010395D01*
Y010399D01*
Y010401D01*
Y010402D01*
X063737D01*
Y010433D01*
Y010449D01*
X063739Y010463D01*
X063741Y010477D01*
X063744Y01049D01*
X063747Y010502D01*
X06375Y010513D01*
X063754Y010524D01*
X063758Y010532D01*
X063762Y01054D01*
X063765Y010548D01*
X063769Y010553D01*
X063772Y010558D01*
X063774Y010562D01*
X063776Y010565D01*
X063777Y010566D01*
X063778Y010567D01*
X063786Y010575D01*
X063795Y010583D01*
X063804Y010589D01*
X063813Y010595D01*
X063833Y010603D01*
X06385Y01061D01*
X063867Y010612D01*
X063874Y010613D01*
X063881Y010614D01*
X063885Y010615D01*
X063893D01*
X063907Y010614D01*
D02*
G37*
G36*
X061336Y010378D02*
Y010364D01*
X061334Y010351D01*
X061331Y010326D01*
X061324Y010304D01*
X061315Y010287D01*
X061305Y010271D01*
X061294Y010258D01*
X061282Y010248D01*
X061269Y01024D01*
X061257Y010232D01*
X061245Y010228D01*
X061233Y010224D01*
X061223Y010222D01*
X061214Y01022D01*
X061208Y010219D01*
X061202D01*
X061188Y01022D01*
X061174Y010222D01*
X061162Y010226D01*
X061151Y010229D01*
X06114Y010235D01*
X061131Y010241D01*
X061122Y010247D01*
X061115Y010253D01*
X061102Y010266D01*
X061094Y010277D01*
X06109Y01028D01*
X061088Y010284D01*
X061086Y010286D01*
Y010287D01*
X061085D01*
Y010228D01*
X061024D01*
Y010603D01*
X061085D01*
Y010387D01*
X061085Y010368D01*
X061089Y010352D01*
X061094Y010337D01*
X061098Y010325D01*
X061104Y010315D01*
X061109Y010307D01*
X061112Y010303D01*
X061113Y010302D01*
X061124Y01029D01*
X061136Y010283D01*
X061148Y010278D01*
X06116Y010273D01*
X06117Y010271D01*
X061178Y01027D01*
X061184Y010269D01*
X061185D01*
X061201Y01027D01*
X061216Y010275D01*
X061228Y01028D01*
X061238Y010288D01*
X061247Y010297D01*
X061255Y010307D01*
X06126Y010317D01*
X061266Y010328D01*
X06127Y01034D01*
X061272Y010351D01*
X061274Y01036D01*
X061275Y010369D01*
X061276Y010377D01*
X061277Y010383D01*
Y010387D01*
Y010388D01*
Y010603D01*
X061336D01*
Y010378D01*
D02*
G37*
G36*
X064225Y010228D02*
X064165D01*
Y010603D01*
X064225D01*
Y010228D01*
D02*
G37*
G36*
X063477Y010611D02*
X06349Y010609D01*
X063503Y010605D01*
X063515Y0106D01*
X063526Y010595D01*
X063536Y010589D01*
X063545Y010583D01*
X063553Y010576D01*
X063561Y010569D01*
X063567Y010562D01*
X063573Y010557D01*
X063577Y010551D01*
X06358Y010547D01*
X063583Y010543D01*
X063584Y010541D01*
X063585Y01054D01*
X063587D01*
Y010603D01*
X063647D01*
Y010228D01*
X063587D01*
Y010441D01*
X063586Y01046D01*
X063582Y010476D01*
X063577Y010491D01*
X063572Y010503D01*
X063566Y010513D01*
X063562Y010521D01*
X063558Y010525D01*
X063557Y010526D01*
X063545Y010537D01*
X063533Y010546D01*
X06352Y010552D01*
X063508Y010556D01*
X063498Y010559D01*
X06349Y01056D01*
X063484Y010561D01*
X063482D01*
X063466Y01056D01*
X063453Y010555D01*
X063441Y010549D01*
X063432Y010542D01*
X063424Y010533D01*
X063416Y010523D01*
X063411Y010512D01*
X063406Y010501D01*
X063403Y01049D01*
X0634Y010479D01*
X063398Y010469D01*
X063396Y01046D01*
Y010452D01*
X063395Y010447D01*
Y010442D01*
Y010441D01*
Y010228D01*
X063335D01*
Y010457D01*
X063336Y010484D01*
X06334Y010507D01*
X063345Y010526D01*
X063351Y010542D01*
X063357Y010555D01*
X063362Y010564D01*
X063366Y01057D01*
X063367Y010572D01*
X063374Y010579D01*
X06338Y010585D01*
X063396Y010595D01*
X063412Y010602D01*
X063427Y010607D01*
X063441Y01061D01*
X063452Y010611D01*
X063456Y010611D01*
X063462D01*
X063477Y010611D01*
D02*
G37*
G36*
X065429Y010614D02*
X065444Y010613D01*
X065459Y010611D01*
X065472Y010607D01*
X065485Y010603D01*
X065497Y010599D01*
X065507Y010593D01*
X065516Y010588D01*
X065525Y010584D01*
X065533Y010578D01*
X065539Y010574D01*
X065545Y01057D01*
X065549Y010566D01*
X065551Y010564D01*
X065553Y010562D01*
X065554Y010562D01*
X065563Y010551D01*
X065571Y010539D01*
X065578Y010528D01*
X065584Y010515D01*
X065593Y01049D01*
X065599Y010466D01*
X065601Y010455D01*
X065603Y010445D01*
X065604Y010436D01*
X065605Y010427D01*
X065606Y010421D01*
Y010416D01*
Y010413D01*
Y010412D01*
X065605Y010396D01*
X065604Y010381D01*
X065599Y010353D01*
X065594Y01034D01*
X06559Y010329D01*
X065586Y010319D01*
X065581Y010309D01*
X065576Y010301D01*
X065572Y010293D01*
X065567Y010287D01*
X065563Y010281D01*
X065561Y010278D01*
X065558Y010275D01*
X065557Y010273D01*
X065556Y010272D01*
X065546Y010263D01*
X065536Y010254D01*
X065525Y010248D01*
X065514Y010241D01*
X065502Y010237D01*
X065491Y010232D01*
X06547Y010226D01*
X065461Y010224D01*
X065451Y010222D01*
X065443Y010221D01*
X065436Y01022D01*
X06543Y010219D01*
X065422D01*
X065406Y01022D01*
X065391Y010222D01*
X065377Y010224D01*
X065365Y010228D01*
X065352Y010231D01*
X06534Y010236D01*
X06533Y010241D01*
X065321Y010246D01*
X065313Y010251D01*
X065305Y010256D01*
X0653Y010261D01*
X065294Y010265D01*
X065291Y010268D01*
X065288Y010271D01*
X065286Y010272D01*
X065285Y010273D01*
X065276Y010284D01*
X065267Y010295D01*
X065261Y010306D01*
X065255Y010318D01*
X065246Y010343D01*
X06524Y010366D01*
X065238Y010377D01*
X065236Y010387D01*
X065235Y010396D01*
X065234Y010403D01*
X065233Y01041D01*
Y010414D01*
Y010417D01*
Y010418D01*
X065234Y010435D01*
X065235Y010451D01*
X065238Y010466D01*
X065241Y01048D01*
X065244Y010493D01*
X065248Y010504D01*
X065253Y010515D01*
X065257Y010525D01*
X065262Y010534D01*
X065266Y010541D01*
X06527Y010548D01*
X065274Y010553D01*
X065277Y010557D01*
X065279Y01056D01*
X06528Y010562D01*
X065281Y010562D01*
X065291Y010572D01*
X065301Y01058D01*
X065311Y010587D01*
X065322Y010593D01*
X065333Y010599D01*
X065343Y010602D01*
X065365Y010609D01*
X065383Y010612D01*
X065391Y010613D01*
X065399Y010614D01*
X065404Y010615D01*
X065413D01*
X065429Y010614D01*
D02*
G37*
G36*
X065428Y010182D02*
X065437Y01018D01*
X065442Y010176D01*
X065443Y010175D01*
X065444Y010174D01*
X065448Y01017D01*
X065451Y010166D01*
X065453Y010157D01*
X065454Y010155D01*
X065455Y010152D01*
Y01015D01*
Y010149D01*
X065454Y010143D01*
X065453Y010138D01*
X06545Y01013D01*
X065447Y010125D01*
X065445Y010124D01*
Y010123D01*
X06544Y010119D01*
X065436Y010117D01*
X065427Y010114D01*
X065424Y010113D01*
X065421Y010112D01*
X065418D01*
X065413Y010113D01*
X065408Y010114D01*
X0654Y010118D01*
X065395Y010121D01*
X065393Y010123D01*
X06539Y010127D01*
X065387Y010131D01*
X065383Y01014D01*
Y010143D01*
X065382Y010146D01*
Y010148D01*
Y010149D01*
Y010155D01*
X065384Y010159D01*
X065388Y010167D01*
X065391Y010172D01*
X065392Y010174D01*
X065393D01*
X065397Y010178D01*
X065402Y01018D01*
X06541Y010183D01*
X065413D01*
X065415Y010184D01*
X065424D01*
X065428Y010182D01*
D02*
G37*
G36*
X063898D02*
X063907Y01018D01*
X063912Y010176D01*
X063913Y010175D01*
X063914Y010174D01*
X063918Y01017D01*
X063921Y010166D01*
X063923Y010157D01*
X063924Y010155D01*
X063925Y010152D01*
Y01015D01*
Y010149D01*
X063924Y010143D01*
X063923Y010138D01*
X06392Y01013D01*
X063917Y010125D01*
X063915Y010124D01*
Y010123D01*
X06391Y010119D01*
X063906Y010117D01*
X063897Y010114D01*
X063894Y010113D01*
X063891Y010112D01*
X063888D01*
X063883Y010113D01*
X063878Y010114D01*
X06387Y010118D01*
X063865Y010121D01*
X063863Y010123D01*
X06386Y010127D01*
X063857Y010131D01*
X063853Y01014D01*
Y010143D01*
X063852Y010146D01*
Y010148D01*
Y010149D01*
Y010155D01*
X063854Y010159D01*
X063858Y010167D01*
X063861Y010172D01*
X063862Y010174D01*
X063863D01*
X063867Y010178D01*
X063872Y01018D01*
X06388Y010183D01*
X063883D01*
X063885Y010184D01*
X063894D01*
X063898Y010182D01*
D02*
G37*
G36*
X060776Y010182D02*
X060784Y01018D01*
X060789Y010176D01*
X06079Y010175D01*
X060791Y010174D01*
X060795Y01017D01*
X060798Y010166D01*
X060801Y010157D01*
X060802Y010155D01*
X060802Y010152D01*
Y01015D01*
Y010149D01*
X060802Y010143D01*
X060801Y010138D01*
X060797Y01013D01*
X060794Y010125D01*
X060792Y010124D01*
Y010123D01*
X060788Y010119D01*
X060783Y010117D01*
X060775Y010114D01*
X060771Y010113D01*
X060768Y010112D01*
X060765D01*
X06076Y010113D01*
X060755Y010114D01*
X060747Y010118D01*
X060742Y010121D01*
X06074Y010123D01*
X060737Y010127D01*
X060734Y010131D01*
X06073Y01014D01*
Y010143D01*
X060729Y010146D01*
Y010148D01*
Y010149D01*
Y010155D01*
X060731Y010159D01*
X060735Y010167D01*
X060739Y010172D01*
X06074Y010174D01*
X06074D01*
X060744Y010178D01*
X060749Y01018D01*
X060757Y010183D01*
X06076D01*
X060763Y010184D01*
X060771D01*
X060776Y010182D01*
D02*
G37*
G36*
X059256D02*
X059264Y01018D01*
X05927Y010176D01*
X059271Y010175D01*
X059272Y010174D01*
X059275Y01017D01*
X059278Y010166D01*
X059281Y010157D01*
X059282Y010155D01*
X059283Y010152D01*
Y01015D01*
Y010149D01*
X059282Y010143D01*
X059281Y010138D01*
X059277Y01013D01*
X059274Y010125D01*
X059272Y010124D01*
Y010123D01*
X059268Y010119D01*
X059263Y010117D01*
X059255Y010114D01*
X059251Y010113D01*
X059248Y010112D01*
X059246D01*
X05924Y010113D01*
X059235Y010114D01*
X059227Y010118D01*
X059223Y010121D01*
X059221Y010123D01*
X059217Y010127D01*
X059214Y010131D01*
X059211Y01014D01*
Y010143D01*
X05921Y010146D01*
Y010148D01*
Y010149D01*
Y010155D01*
X059211Y010159D01*
X059215Y010167D01*
X059219Y010172D01*
X05922Y010174D01*
X059221D01*
X059224Y010178D01*
X059229Y01018D01*
X059237Y010183D01*
X05924D01*
X059243Y010184D01*
X059251D01*
X059256Y010182D01*
D02*
G37*
%LPC*%
G36*
X063616Y00951D02*
X06361D01*
X063594Y009509D01*
X06358Y009505D01*
X063567Y009499D01*
X063556Y009494D01*
X063547Y009487D01*
X063541Y009483D01*
X063536Y009479D01*
X063535Y009477D01*
X063525Y009465D01*
X063518Y009452D01*
X063512Y009439D01*
X063508Y009427D01*
X063507Y009417D01*
X063505Y009409D01*
Y009403D01*
Y009402D01*
Y009401D01*
Y009346D01*
X063506Y009326D01*
X063509Y009308D01*
X063515Y009292D01*
X06352Y009278D01*
X063527Y009268D01*
X063532Y00926D01*
X063535Y009255D01*
X063537Y009253D01*
X06355Y009241D01*
X063563Y009233D01*
X063577Y009227D01*
X06359Y009223D01*
X063601Y00922D01*
X06361Y009219D01*
X063614Y009218D01*
X063618D01*
X063636Y00922D01*
X063652Y009224D01*
X063666Y00923D01*
X063678Y009237D01*
X063687Y009243D01*
X063693Y00925D01*
X063697Y009253D01*
X063699Y009255D01*
X063709Y00927D01*
X063717Y009287D01*
X063722Y009304D01*
X063726Y00932D01*
X063728Y009334D01*
X063729Y00934D01*
Y009346D01*
X06373Y00935D01*
Y009353D01*
Y009355D01*
Y009356D01*
X063729Y009382D01*
X063725Y009404D01*
X063719Y009424D01*
X063714Y00944D01*
X063708Y009452D01*
X063703Y009462D01*
X063699Y009467D01*
X063698Y009469D01*
X063692Y009476D01*
X063685Y009483D01*
X063671Y009492D01*
X063656Y009499D01*
X063643Y009505D01*
X06363Y009508D01*
X063619Y009509D01*
X063616Y00951D01*
D02*
G37*
G36*
X060348Y00951D02*
X060342D01*
X060326Y009509D01*
X060312Y009505D01*
X060299Y009499D01*
X060288Y009494D01*
X060279Y009487D01*
X060273Y009483D01*
X060268Y009479D01*
X060267Y009477D01*
X060257Y009465D01*
X06025Y009452D01*
X060244Y009439D01*
X06024Y009427D01*
X060239Y009417D01*
X060237Y009409D01*
Y009403D01*
Y009402D01*
Y009401D01*
Y009346D01*
X060238Y009326D01*
X060241Y009308D01*
X060247Y009292D01*
X060252Y009278D01*
X060259Y009268D01*
X060264Y00926D01*
X060267Y009255D01*
X060269Y009253D01*
X060282Y009241D01*
X060295Y009233D01*
X060309Y009227D01*
X060322Y009223D01*
X060333Y00922D01*
X060342Y009219D01*
X060346Y009218D01*
X06035D01*
X060368Y00922D01*
X060384Y009224D01*
X060398Y00923D01*
X06041Y009237D01*
X060419Y009243D01*
X060425Y00925D01*
X060429Y009253D01*
X060431Y009255D01*
X060441Y00927D01*
X060449Y009287D01*
X060454Y009304D01*
X060458Y00932D01*
X06046Y009334D01*
X060461Y00934D01*
Y009346D01*
X060461Y00935D01*
Y009353D01*
Y009355D01*
Y009356D01*
X060461Y009382D01*
X060457Y009404D01*
X060451Y009424D01*
X060446Y00944D01*
X06044Y009452D01*
X060435Y009462D01*
X060431Y009467D01*
X06043Y009469D01*
X060424Y009476D01*
X060417Y009483D01*
X060403Y009492D01*
X060388Y009499D01*
X060375Y009505D01*
X060362Y009508D01*
X060351Y009509D01*
X060348Y00951D01*
D02*
G37*
G36*
X065095Y00965D02*
X065012D01*
X064993Y009649D01*
X064975Y009648D01*
X064957Y009646D01*
X06494Y009642D01*
X064926Y009637D01*
X064912Y009632D01*
X064899Y009625D01*
X064887Y009619D01*
X064876Y009611D01*
X064865Y009603D01*
X064848Y009586D01*
X064834Y009568D01*
X064822Y009549D01*
X064814Y00953D01*
X064806Y009512D01*
X064802Y009494D01*
X064799Y009478D01*
X064797Y009465D01*
X064795Y009455D01*
Y009451D01*
Y00945D01*
Y009448D01*
Y009447D01*
X064796Y009428D01*
X064798Y009411D01*
X064801Y009394D01*
X064804Y009378D01*
X064809Y009364D01*
X064814Y009352D01*
X064819Y009339D01*
X064824Y009328D01*
X064829Y009319D01*
X064835Y009311D01*
X06484Y009304D01*
X064844Y009298D01*
X064848Y009293D01*
X064851Y00929D01*
X064852Y009289D01*
X064853Y009288D01*
X064864Y009277D01*
X064877Y009269D01*
X06489Y009262D01*
X064903Y009255D01*
X064917Y009251D01*
X06493Y009246D01*
X064957Y00924D01*
X064969Y009237D01*
X06498Y009235D01*
X06499Y009234D01*
X064999Y009233D01*
X065006Y009232D01*
X065095D01*
Y009413D01*
X064971D01*
Y009471D01*
X065095D01*
Y00965D01*
D02*
G37*
G36*
X064477Y009512D02*
X064471D01*
X064451Y009511D01*
X064433Y009506D01*
X064418Y0095D01*
X064405Y009493D01*
X064395Y009486D01*
X064387Y00948D01*
X064383Y009475D01*
X064382Y009474D01*
X064371Y009458D01*
X064363Y00944D01*
X064358Y009423D01*
X064353Y009405D01*
X064351Y009389D01*
X06435Y009382D01*
Y009376D01*
X064349Y009371D01*
Y009367D01*
Y009365D01*
Y009364D01*
X06435Y009339D01*
X064354Y009318D01*
X064359Y0093D01*
X064365Y009284D01*
X064371Y009272D01*
X064376Y009264D01*
X06438Y009258D01*
X064382Y009256D01*
X064395Y009243D01*
X064408Y009234D01*
X064424Y009228D01*
X064438Y009223D01*
X064451Y00922D01*
X064462Y009219D01*
X064466Y009218D01*
X064471D01*
X064492Y00922D01*
X06451Y009225D01*
X064526Y00923D01*
X06454Y009238D01*
X06455Y009245D01*
X064557Y009251D01*
X064562Y009255D01*
X064564Y009257D01*
X064575Y009273D01*
X064583Y00929D01*
X06459Y009308D01*
X064593Y009325D01*
X064596Y00934D01*
X064597Y009347D01*
Y009352D01*
X064598Y009357D01*
Y009361D01*
Y009363D01*
Y009364D01*
X064596Y009388D01*
X064593Y00941D01*
X064587Y009428D01*
X06458Y009444D01*
X064575Y009456D01*
X064569Y009465D01*
X064566Y009471D01*
X064564Y009473D01*
X064557Y00948D01*
X06455Y009486D01*
X064535Y009496D01*
X064519Y009503D01*
X064505Y009508D01*
X064492Y009511D01*
X064481Y009512D01*
X064477Y009512D01*
D02*
G37*
G36*
X062534D02*
X062529D01*
X062509Y009511D01*
X06249Y009506D01*
X062475Y0095D01*
X062462Y009493D01*
X062452Y009486D01*
X062445Y00948D01*
X062441Y009475D01*
X062439Y009474D01*
X062428Y009458D01*
X062421Y00944D01*
X062415Y009423D01*
X06241Y009405D01*
X062409Y009389D01*
X062408Y009382D01*
Y009376D01*
X062407Y009371D01*
Y009367D01*
Y009365D01*
Y009364D01*
X062408Y009339D01*
X062411Y009318D01*
X062417Y0093D01*
X062422Y009284D01*
X062429Y009272D01*
X062434Y009264D01*
X062437Y009258D01*
X062439Y009256D01*
X062452Y009243D01*
X062466Y009234D01*
X062482Y009228D01*
X062496Y009223D01*
X062509Y00922D01*
X06252Y009219D01*
X062523Y009218D01*
X062529D01*
X062549Y00922D01*
X062568Y009225D01*
X062583Y00923D01*
X062597Y009238D01*
X062607Y009245D01*
X062615Y009251D01*
X06262Y009255D01*
X062621Y009257D01*
X062632Y009273D01*
X062641Y00929D01*
X062647Y009308D01*
X062651Y009325D01*
X062654Y00934D01*
X062655Y009347D01*
Y009352D01*
X062656Y009357D01*
Y009361D01*
Y009363D01*
Y009364D01*
X062654Y009388D01*
X06265Y00941D01*
X062644Y009428D01*
X062638Y009444D01*
X062632Y009456D01*
X062627Y009465D01*
X062623Y009471D01*
X062621Y009473D01*
X062615Y00948D01*
X062607Y009486D01*
X062593Y009496D01*
X062577Y009503D01*
X062562Y009508D01*
X062549Y009511D01*
X062538Y009512D01*
X062534Y009512D01*
D02*
G37*
G36*
X061207Y00951D02*
X061201D01*
X061181Y009508D01*
X061163Y009504D01*
X061148Y009498D01*
X061135Y009491D01*
X061125Y009484D01*
X061117Y009477D01*
X061114Y009474D01*
X061112Y009472D01*
X061102Y009456D01*
X061093Y009438D01*
X061088Y009421D01*
X061084Y009403D01*
X061082Y009388D01*
X061081Y009381D01*
X06108Y009376D01*
Y00937D01*
Y009366D01*
Y009364D01*
Y009364D01*
X061081Y009339D01*
X061085Y009317D01*
X06109Y009299D01*
X061096Y009283D01*
X061102Y009271D01*
X061107Y009263D01*
X061111Y009257D01*
X061112Y009255D01*
X061125Y009243D01*
X061139Y009234D01*
X061154Y009228D01*
X061168Y009223D01*
X061181Y00922D01*
X061192Y009219D01*
X061196Y009218D01*
X061201D01*
X061222Y00922D01*
X06124Y009224D01*
X061256Y00923D01*
X061269Y009238D01*
X061279Y009244D01*
X061287Y009251D01*
X061291Y009254D01*
X061293Y009256D01*
X061304Y009272D01*
X061312Y00929D01*
X061319Y009307D01*
X061323Y009324D01*
X061325Y009339D01*
X061326Y009345D01*
Y009351D01*
X061327Y009355D01*
Y009359D01*
Y009361D01*
Y009362D01*
X061325Y009387D01*
X061322Y009408D01*
X061317Y009426D01*
X061311Y009442D01*
X061304Y009454D01*
X0613Y009463D01*
X061296Y009468D01*
X061294Y00947D01*
X061287Y009477D01*
X06128Y009483D01*
X061265Y009493D01*
X06125Y0095D01*
X061235Y009505D01*
X061222Y009508D01*
X061211Y009509D01*
X061207Y00951D01*
D02*
G37*
G36*
X060692Y010419D02*
Y010381D01*
X060693Y010364D01*
X060697Y010348D01*
X060702Y010334D01*
X060707Y010323D01*
X060713Y010314D01*
X060717Y010306D01*
X060721Y010303D01*
X060722Y010301D01*
X060733Y01029D01*
X060746Y010282D01*
X060758Y010277D01*
X06077Y010273D01*
X06078Y010271D01*
X060789Y01027D01*
X060794Y010269D01*
X060796D01*
X060808Y01027D01*
X060818Y010272D01*
X060827Y010275D01*
X060835Y010278D01*
X06084Y010281D01*
X060845Y010284D01*
X060848Y010286D01*
X060849Y010287D01*
X060855Y010294D01*
X06086Y010302D01*
X060863Y010309D01*
X060865Y010316D01*
X060867Y010323D01*
X060868Y010328D01*
Y010331D01*
Y010332D01*
X060867Y010345D01*
X060864Y010356D01*
X060862Y010365D01*
X060857Y010373D01*
X060853Y010378D01*
X060851Y010382D01*
X060848Y010384D01*
X060847Y010385D01*
X060838Y01039D01*
X060827Y010395D01*
X060817Y010399D01*
X060807Y010402D01*
X060798Y010403D01*
X06079Y010405D01*
X060785Y010406D01*
X060783D01*
X060692Y010419D01*
D02*
G37*
G36*
X059173D02*
Y010381D01*
X059174Y010364D01*
X059177Y010348D01*
X059182Y010334D01*
X059187Y010323D01*
X059193Y010314D01*
X059198Y010306D01*
X059201Y010303D01*
X059202Y010301D01*
X059213Y01029D01*
X059226Y010282D01*
X059238Y010277D01*
X05925Y010273D01*
X05926Y010271D01*
X059269Y01027D01*
X059274Y010269D01*
X059276D01*
X059288Y01027D01*
X059298Y010272D01*
X059308Y010275D01*
X059315Y010278D01*
X059321Y010281D01*
X059325Y010284D01*
X059328Y010286D01*
X059329Y010287D01*
X059335Y010294D01*
X05934Y010302D01*
X059344Y010309D01*
X059346Y010316D01*
X059347Y010323D01*
X059348Y010328D01*
Y010331D01*
Y010332D01*
X059347Y010345D01*
X059345Y010356D01*
X059342Y010365D01*
X059337Y010373D01*
X059334Y010378D01*
X059331Y010382D01*
X059328Y010384D01*
X059327Y010385D01*
X059318Y01039D01*
X059308Y010395D01*
X059297Y010399D01*
X059287Y010402D01*
X059278Y010403D01*
X059271Y010405D01*
X059265Y010406D01*
X059263D01*
X059173Y010419D01*
D02*
G37*
G36*
X057655Y010417D02*
Y010379D01*
X057656Y010363D01*
X057659Y010347D01*
X057664Y010334D01*
X057669Y010322D01*
X057675Y010313D01*
X05768Y010306D01*
X057683Y010303D01*
X057684Y010301D01*
X057695Y01029D01*
X057707Y010282D01*
X05772Y010277D01*
X057731Y010273D01*
X057742Y010271D01*
X05775Y01027D01*
X057755Y010269D01*
X057757D01*
X057769Y01027D01*
X05778Y010272D01*
X057789Y010275D01*
X057796Y010278D01*
X057802Y01028D01*
X057806Y010283D01*
X057809Y010285D01*
X05781Y010286D01*
X057817Y010293D01*
X057821Y010301D01*
X057825Y010308D01*
X057827Y010315D01*
X057829Y010322D01*
X057829Y010327D01*
Y01033D01*
Y010331D01*
X057829Y010344D01*
X057826Y010355D01*
X057823Y010365D01*
X057818Y010372D01*
X057815Y010377D01*
X057812Y010381D01*
X057809Y010383D01*
X057808Y010384D01*
X057799Y010389D01*
X05779Y010393D01*
X057779Y010397D01*
X057768Y0104D01*
X057759Y010402D01*
X057752Y010403D01*
X057747Y010404D01*
X057745D01*
X057655Y010417D01*
D02*
G37*
G36*
X063902Y010563D02*
X063895D01*
X063879Y010562D01*
X063865Y010559D01*
X063853Y010554D01*
X063843Y010549D01*
X063836Y010543D01*
X06383Y010538D01*
X063826Y010535D01*
X063825Y010534D01*
X063817Y010522D01*
X063811Y010509D01*
X063806Y010496D01*
X063803Y010482D01*
X063801Y010471D01*
X0638Y010461D01*
X063799Y010457D01*
Y010455D01*
Y010453D01*
Y010452D01*
X064004D01*
X064Y01047D01*
X063996Y010486D01*
X06399Y0105D01*
X063984Y010512D01*
X063977Y010521D01*
X063972Y010527D01*
X063969Y010532D01*
X063968Y010533D01*
X063956Y010543D01*
X063944Y01055D01*
X063931Y010556D01*
X06392Y01056D01*
X06391Y010562D01*
X063902Y010563D01*
D02*
G37*
G36*
X065423D02*
X065417D01*
X065397Y010562D01*
X065378Y010557D01*
X065364Y010551D01*
X065351Y010544D01*
X06534Y010537D01*
X065333Y010531D01*
X065329Y010526D01*
X065328Y010525D01*
X065316Y010509D01*
X065309Y010491D01*
X065303Y010474D01*
X065299Y010456D01*
X065297Y01044D01*
X065296Y010433D01*
Y010427D01*
X065295Y010422D01*
Y010418D01*
Y010416D01*
Y010415D01*
X065296Y01039D01*
X0653Y010369D01*
X065305Y010351D01*
X065311Y010335D01*
X065317Y010323D01*
X065322Y010315D01*
X065326Y010309D01*
X065328Y010307D01*
X06534Y010294D01*
X065354Y010285D01*
X06537Y010278D01*
X065384Y010274D01*
X065397Y010271D01*
X065408Y01027D01*
X065412Y010269D01*
X065417D01*
X065438Y010271D01*
X065456Y010276D01*
X065472Y010281D01*
X065486Y010289D01*
X065496Y010296D01*
X065503Y010302D01*
X065508Y010306D01*
X06551Y010308D01*
X065521Y010324D01*
X065529Y010341D01*
X065536Y010359D01*
X065539Y010376D01*
X065542Y010391D01*
X065543Y010398D01*
Y010403D01*
X065544Y010408D01*
Y010412D01*
Y010414D01*
Y010414D01*
X065542Y010439D01*
X065538Y010461D01*
X065533Y010479D01*
X065526Y010495D01*
X065521Y010507D01*
X065515Y010516D01*
X065512Y010522D01*
X06551Y010524D01*
X065503Y010531D01*
X065496Y010537D01*
X065481Y010547D01*
X065465Y010554D01*
X065451Y010559D01*
X065438Y010562D01*
X065427Y010562D01*
X065423Y010563D01*
D02*
G37*
%LPD*%
D10*
X033389Y028803D02*
G03*
X033389Y028803I-000039J0D01*
G01*
X056614Y0281D02*
G03*
X056614Y0281I-000039J0D01*
G01*
X057793Y029143D02*
G03*
X057793Y029143I-000039J0D01*
G01*
X021539Y030011D02*
G03*
X021539Y030011I-000039J0D01*
G01*
X00825Y03263D02*
X01108D01*
X00825D02*
Y03565D01*
X01108D01*
Y03263D02*
Y03565D01*
X02874Y0237D02*
X02895D01*
Y0258D01*
X02826Y02461D02*
Y02489D01*
X02883Y02461D02*
Y02489D01*
X02815Y0258D02*
X02895D01*
X02815Y0237D02*
Y0258D01*
Y0237D02*
X02874D01*
X02156Y02513D02*
Y02544D01*
X01964D02*
X02156D01*
X02046Y02478D02*
X02074D01*
X02046Y02531D02*
X02074D01*
X01964Y02466D02*
Y02544D01*
Y02466D02*
X02156D01*
Y02513D01*
X02284Y02471D02*
Y02502D01*
Y02471D02*
X02476D01*
X02366Y02537D02*
X02394D01*
X02366Y02484D02*
X02394D01*
X02476Y02471D02*
Y02549D01*
X02284D02*
X02476D01*
X02284Y02502D02*
Y02549D01*
X02936Y02561D02*
X02967D01*
X02936Y02369D02*
Y02561D01*
X03002Y02451D02*
Y02479D01*
X02949Y02451D02*
Y02479D01*
X02936Y02369D02*
X03014D01*
Y02561D01*
X02967D02*
X03014D01*
X010631Y02496D02*
Y02527D01*
Y02496D02*
X012551D01*
X011451Y02562D02*
X011731D01*
X011451Y02509D02*
X011731D01*
X012551Y02496D02*
Y02574D01*
X010631D02*
X012551D01*
X010631Y02527D02*
Y02574D01*
D11*
X00884Y03563D02*
G03*
X00885Y03562I00001J0D01*
G01*
D02*
G03*
X00884Y03561I0J-00001D01*
G01*
X01049Y03461D02*
G03*
X0105Y03462I0J00001D01*
G01*
X030225Y0282D02*
G03*
X030225Y0282I-001575J0D01*
G01*
X034258Y01253D02*
G03*
X034258Y01253I-000158J0D01*
G01*
X034394Y022406D02*
G03*
X034Y0228I-000394J0D01*
G01*
X010087D02*
G03*
X009693Y022406I0J-000394D01*
G01*
X009706Y010894D02*
G03*
X0101Y0105I000394J0D01*
G01*
X034013D02*
G03*
X034407Y010894I0J000394D01*
G01*
X05232Y02461D02*
G03*
X05232Y02461I-00128J0D01*
G01*
X064825Y026939D02*
G03*
X064825Y026939I-001575J0D01*
G01*
X05635Y02565D02*
G03*
X05635Y02565I-0015J0D01*
G01*
X05485D02*
G03*
X05435Y02565I-00025J0D01*
G01*
X05535D02*
G03*
X05485Y02565I-00025J0D01*
G01*
X00884Y03462D02*
Y03561D01*
Y03462D02*
X00925D01*
Y03564D01*
X0101Y03461D02*
Y03563D01*
Y03461D02*
X01051D01*
Y03561D01*
X027075Y0282D02*
X030225D01*
X02969D02*
X02977D01*
X03015Y02858D01*
X02916Y0282D02*
X02939D01*
X03005Y02886D01*
X02887Y0282D02*
X02899D01*
X0299Y02911D01*
X02842Y0282D02*
X0286D01*
X02973Y02933D01*
X02811Y0282D02*
X02819D01*
X0295Y02951D01*
X02779Y0282D02*
X02924Y02965D01*
X02739Y0282D02*
X02892Y02973D01*
X02708Y02822D02*
Y02835D01*
X0285Y02977D01*
X02725Y02888D02*
Y0289D01*
X02796Y02961D01*
X0097Y010857D02*
Y0225D01*
X0344Y0108D02*
Y02245D01*
X010087Y0228D02*
X034D01*
X0101Y0105D02*
X034013D01*
X034427Y019503D02*
X03635D01*
Y018623D02*
Y019503D01*
X034427Y018703D02*
X03635D01*
Y01758D02*
Y018703D01*
X0355Y01758D02*
X03635D01*
X0355Y01658D02*
Y01758D01*
Y01658D02*
X03635D01*
Y01558D02*
Y01658D01*
X0355Y01558D02*
X03635D01*
X0355Y01468D02*
Y01558D01*
Y01468D02*
X03635D01*
Y01378D02*
Y01468D01*
X0349Y01378D02*
X03635D01*
X034427Y013087D02*
Y02018D01*
X03412D02*
X0368D01*
X02675Y019648D02*
Y02018D01*
X027084D01*
X02675Y013087D02*
X027084D01*
X02675D02*
Y013612D01*
X03412Y013087D02*
X036805D01*
Y020173D01*
X0126Y017153D02*
Y017374D01*
X012547Y020553D02*
X0126D01*
Y02033D02*
Y020553D01*
X010803D02*
X011538D01*
X0094Y017153D02*
X009991D01*
X0094D02*
Y020553D01*
X009991D01*
X010803Y017153D02*
X011538D01*
X012547D02*
X0126D01*
Y012747D02*
Y012968D01*
X012547Y016147D02*
X0126D01*
Y015924D02*
Y016147D01*
X010803D02*
X011538D01*
X0094Y012747D02*
X009991D01*
X0094D02*
Y016147D01*
X009991D01*
X010803Y012747D02*
X011538D01*
X012547D02*
X0126D01*
X04978Y02461D02*
X05229D01*
X05188D02*
X05198D01*
X05187D02*
X05196D01*
X05226Y02491D01*
X05162Y02461D02*
X05164D01*
X05217Y02514D01*
X05126Y02461D02*
X05132D01*
X05206Y02535D01*
X05098Y02461D02*
X05101D01*
X05191Y02551D01*
X05066Y02461D02*
X05068D01*
X05173Y02566D01*
X05029Y02461D02*
X05033D01*
X05151Y02579D01*
X05Y02461D02*
X05124Y02585D01*
X04976Y02458D02*
Y02472D01*
X05091Y02587D01*
X06394Y025529D02*
X06465Y026239D01*
Y026259D01*
X0634Y025369D02*
X06482Y026789D01*
Y026919D01*
X06298Y025409D02*
X06451Y026939D01*
X06266Y025489D02*
X06411Y026939D01*
X0624Y025629D02*
X06371Y026939D01*
X06379D01*
X06217Y025809D02*
X0633Y026939D01*
X06348D01*
X062Y026029D02*
X06291Y026939D01*
X06303D01*
X06185Y026279D02*
X06251Y026939D01*
X06274D01*
X06175Y026559D02*
X06213Y026939D01*
X06221D01*
X061675D02*
X064825D01*
X0072Y035599D02*
X0078D01*
Y035299D01*
X0077Y035199D01*
X0076D01*
X0075Y035299D01*
Y035599D01*
Y035299D01*
X0074Y035199D01*
X0073D01*
X0072Y035299D01*
Y035599D01*
X0074Y034899D02*
Y034699D01*
X0075Y034599D01*
X0078D01*
Y034899D01*
X0077Y034999D01*
X0076Y034899D01*
Y034599D01*
X0073Y0343D02*
X0074D01*
Y034399D01*
Y0342D01*
Y0343D01*
X0077D01*
X0078Y0342D01*
X0073Y0338D02*
X0074D01*
Y0339D01*
Y0337D01*
Y0338D01*
X0077D01*
X0078Y0337D01*
Y0331D02*
Y0333D01*
X0077Y0334D01*
X0075D01*
X0074Y0333D01*
Y0331D01*
X0075Y033D01*
X0076D01*
Y0334D01*
X0074Y0328D02*
X0078D01*
X0076D01*
X0075Y0327D01*
X0074Y0326D01*
Y0325D01*
Y0322D02*
X0077D01*
X0078Y0321D01*
Y0318D01*
X0079D01*
X008Y0319D01*
Y032D01*
X0078Y0318D02*
X0074D01*
X0073Y031001D02*
X0072Y030901D01*
Y030701D01*
X0073Y030601D01*
X0074D01*
X0075Y030701D01*
Y030801D01*
Y030701D01*
X0076Y030601D01*
X0077D01*
X0078Y030701D01*
Y030901D01*
X0077Y031001D01*
X0072Y030401D02*
X0076D01*
X0078Y030201D01*
X0076Y030001D01*
X0072D01*
X044749Y0288D02*
Y0294D01*
X044549Y0292D01*
X044349Y0294D01*
Y0288D01*
X04415D02*
Y0292D01*
X04395Y0294D01*
X04375Y0292D01*
Y0288D01*
Y0291D01*
X04415D01*
X04355Y0294D02*
X04315Y0288D01*
Y0294D02*
X04355Y0288D01*
X04295Y0294D02*
X04255D01*
Y0293D01*
X04295Y0289D01*
Y0288D01*
X04195D02*
X04235D01*
X04195Y0292D01*
Y0293D01*
X04205Y0294D01*
X04225D01*
X04235Y0293D01*
X04175Y0288D02*
X04155D01*
X04165D01*
Y0294D01*
X04175Y0293D01*
X041251Y0289D02*
X041151Y0288D01*
X040951D01*
X040851Y0289D01*
Y0293D01*
X040951Y0294D01*
X041151D01*
X041251Y0293D01*
Y0292D01*
X041151Y0291D01*
X040851D01*
X0558Y0294D02*
X0556D01*
X0557D01*
Y0288D01*
X0558D01*
X0556D01*
X0553D02*
Y0294D01*
X0549Y0288D01*
Y0294D01*
X0543Y0293D02*
X0544Y0294D01*
X0546D01*
X0547Y0293D01*
Y0292D01*
X0546Y0291D01*
X0544D01*
X0543Y029D01*
Y0289D01*
X0544Y0288D01*
X0546D01*
X0547Y0289D01*
X0541Y0288D02*
X0539D01*
X054D01*
Y0294D01*
X0541Y0293D01*
X0695Y028749D02*
X0699D01*
X0701Y028549D01*
X0699Y028349D01*
X0695D01*
X0698Y02815D02*
Y02775D01*
X0696Y02795D02*
X07D01*
X0696Y02595D02*
X0695Y02605D01*
Y02625D01*
X0696Y02635D01*
X07D01*
X0701Y02625D01*
Y02605D01*
X07Y02595D01*
X0698D01*
Y02615D01*
X0701Y02575D02*
X0695D01*
X0701Y02535D01*
X0695D01*
Y025151D02*
X0701D01*
Y024851D01*
X07Y024751D01*
X0696D01*
X0695Y024851D01*
Y025151D01*
X0285Y03065D02*
X0286Y03075D01*
X0288D01*
X0289Y03065D01*
Y03025D01*
X0288Y03015D01*
X0286D01*
X0285Y03025D01*
X0283Y03015D02*
X0281D01*
X0282D01*
Y03075D01*
X0283Y03065D01*
X0275Y0245D02*
X0276Y0246D01*
X0278D01*
X0279Y0245D01*
Y0241D01*
X0278Y024D01*
X0276D01*
X0275Y0241D01*
X0269Y024D02*
X0273D01*
X0269Y0244D01*
Y0245D01*
X027Y0246D01*
X0272D01*
X0273Y0245D01*
X01205Y035449D02*
X01265D01*
Y035149D01*
X01255Y035049D01*
X01245D01*
X01235Y035149D01*
Y035449D01*
Y035149D01*
X01225Y035049D01*
X01215D01*
X01205Y035149D01*
Y035449D01*
X01225Y034849D02*
X01255D01*
X01265Y03475D01*
Y03445D01*
X01225D01*
X01215Y03415D02*
X01225D01*
Y03425D01*
Y03405D01*
Y03415D01*
X01255D01*
X01265Y03405D01*
X01215Y03365D02*
X01225D01*
Y03375D01*
Y03355D01*
Y03365D01*
X01255D01*
X01265Y03355D01*
Y03315D02*
Y03295D01*
X01255Y03285D01*
X01235D01*
X01225Y03295D01*
Y03315D01*
X01235Y03325D01*
X01255D01*
X01265Y03315D01*
Y03265D02*
X01225D01*
Y03235D01*
X01235Y03225D01*
X01265D01*
Y031051D02*
Y031451D01*
X01225Y031051D01*
X01215D01*
X01205Y031151D01*
Y031351D01*
X01215Y031451D01*
X02055Y035499D02*
X02115D01*
Y035199D01*
X02105Y035099D01*
X02095D01*
X02085Y035199D01*
Y035499D01*
Y035199D01*
X02075Y035099D01*
X02065D01*
X02055Y035199D01*
Y035499D01*
X02075Y0349D02*
X02105D01*
X02115Y0348D01*
Y0345D01*
X02075D01*
X02065Y0342D02*
X02075D01*
Y0343D01*
Y0341D01*
Y0342D01*
X02105D01*
X02115Y0341D01*
X02065Y0337D02*
X02075D01*
Y0338D01*
Y0336D01*
Y0337D01*
X02105D01*
X02115Y0336D01*
Y0332D02*
Y033D01*
X02105Y0329D01*
X02085D01*
X02075Y033D01*
Y0332D01*
X02085Y0333D01*
X02105D01*
X02115Y0332D01*
Y0327D02*
X02075D01*
Y0324D01*
X02085Y0323D01*
X02115D01*
Y031501D02*
Y031301D01*
Y031401D01*
X02055D01*
X02065Y031501D01*
X047649Y00955D02*
Y01015D01*
X047449Y00995D01*
X047249Y01015D01*
Y00955D01*
X047049D02*
Y00995D01*
X04685Y01015D01*
X04665Y00995D01*
Y00955D01*
Y00985D01*
X047049D01*
X04645Y01015D02*
X04605Y00955D01*
Y01015D02*
X04645Y00955D01*
X04585Y00965D02*
X04575Y00955D01*
X04555D01*
X04545Y00965D01*
Y01005D01*
X04555Y01015D01*
X04575D01*
X04585Y01005D01*
Y00995D01*
X04575Y00985D01*
X04545D01*
X04525Y01005D02*
X04515Y01015D01*
X04495D01*
X04485Y01005D01*
Y00995D01*
X04495Y00985D01*
X04485Y00975D01*
Y00965D01*
X04495Y00955D01*
X04515D01*
X04525Y00965D01*
Y00975D01*
X04515Y00985D01*
X04525Y00995D01*
Y01005D01*
X04515Y00985D02*
X04495D01*
X04465Y01005D02*
X04455Y01015D01*
X04435D01*
X04425Y01005D01*
Y00995D01*
X04435Y00985D01*
X04445D01*
X04435D01*
X04425Y00975D01*
Y00965D01*
X04435Y00955D01*
X04455D01*
X04465Y00965D01*
X043651Y01015D02*
X04405D01*
Y00985D01*
X04385Y00995D01*
X043751D01*
X043651Y00985D01*
Y00965D01*
X043751Y00955D01*
X04395D01*
X04405Y00965D01*
X043451Y01015D02*
X043051D01*
Y01005D01*
X043451Y00965D01*
Y00955D01*
X066616Y0206D02*
X067282D01*
Y0196D01*
X066616D01*
X067282Y0201D02*
X066949D01*
X065616Y020433D02*
X065783Y0206D01*
X066116D01*
X066283Y020433D01*
Y020267D01*
X066116Y0201D01*
X065783D01*
X065616Y019933D01*
Y019767D01*
X065783Y0196D01*
X066116D01*
X066283Y019767D01*
X065283Y0196D02*
Y0206D01*
X064783D01*
X064616Y020433D01*
Y0201D01*
X064783Y019933D01*
X065283D01*
X064283Y020433D02*
X064117Y0206D01*
X063783D01*
X063617Y020433D01*
Y020267D01*
X063783Y0201D01*
X06395D01*
X063783D01*
X063617Y019933D01*
Y019767D01*
X063783Y0196D01*
X064117D01*
X064283Y019767D01*
X062617Y0196D02*
X063284D01*
X062617Y020267D01*
Y020433D01*
X062784Y0206D01*
X063117D01*
X063284Y020433D01*
X061617D02*
X061784Y0206D01*
X062117D01*
X062284Y020433D01*
Y020267D01*
X062117Y0201D01*
X061784D01*
X061617Y019933D01*
Y019767D01*
X061784Y0196D01*
X062117D01*
X062284Y019767D01*
X061284Y020433D02*
X061118Y0206D01*
X060784D01*
X060618Y020433D01*
Y020267D01*
X060784Y0201D01*
X060951D01*
X060784D01*
X060618Y019933D01*
Y019767D01*
X060784Y0196D01*
X061118D01*
X061284Y019767D01*
X011549Y0274D02*
Y0268D01*
X01125D01*
X01115Y0269D01*
Y027D01*
X01125Y0271D01*
X011549D01*
X01125D01*
X01115Y0272D01*
Y0273D01*
X01125Y0274D01*
X011549D01*
X01095Y0272D02*
Y0269D01*
X01085Y0268D01*
X01055D01*
Y0272D01*
X01035D02*
X00995D01*
X01035Y0268D01*
X00995D01*
X00975Y0272D02*
X00935D01*
X00975Y0268D01*
X00935D01*
X00885D02*
X00905D01*
X00915Y0269D01*
Y0271D01*
X00905Y0272D01*
X00885D01*
X00875Y0271D01*
Y027D01*
X00915D01*
X00855Y0272D02*
Y0268D01*
Y027D01*
X00845Y0271D01*
X00835Y0272D01*
X008251D01*
X010035Y030945D02*
Y030545D01*
X009835Y030745D02*
X010235D01*
X0617Y025549D02*
X0623D01*
Y02515D01*
Y02495D02*
X0617D01*
X0619Y02475D01*
X0617Y02455D01*
X0623D01*
Y02395D02*
Y02435D01*
X0619Y02395D01*
X0618D01*
X0617Y02405D01*
Y02425D01*
X0618Y02435D01*
X0617Y02335D02*
Y02375D01*
X062D01*
X0619Y02355D01*
Y02345D01*
X062Y02335D01*
X0622D01*
X0623Y02345D01*
Y02365D01*
X0622Y02375D01*
Y02315D02*
X0623Y02305D01*
Y02285D01*
X0622Y02275D01*
X0618D01*
X0617Y02285D01*
Y02305D01*
X0618Y02315D01*
X0619D01*
X062Y02305D01*
Y02275D01*
X0617Y022151D02*
X0618Y02235D01*
X062Y02255D01*
X0622D01*
X0623Y02245D01*
Y022251D01*
X0622Y022151D01*
X0621D01*
X062Y022251D01*
Y02255D01*
X0123Y0236D02*
Y0242D01*
X012D01*
X0119Y0241D01*
Y0239D01*
X012Y0238D01*
X0123D01*
X0121D02*
X0119Y0236D01*
X0114D02*
Y0242D01*
X0117Y0239D01*
X0113D01*
X0212Y0238D02*
Y0244D01*
X0209D01*
X0208Y0243D01*
Y0241D01*
X0209Y024D01*
X0212D01*
X021D02*
X0208Y0238D01*
X0202D02*
X0206D01*
X0202Y0242D01*
Y0243D01*
X0203Y0244D01*
X0205D01*
X0206Y0243D01*
X0317Y0245D02*
Y0251D01*
X0314D01*
X0313Y025D01*
Y0248D01*
X0314Y0247D01*
X0317D01*
X0315D02*
X0313Y0245D01*
X0311Y025D02*
X031Y0251D01*
X0308D01*
X0307Y025D01*
Y0249D01*
X0308Y0248D01*
X0309D01*
X0308D01*
X0307Y0247D01*
Y0246D01*
X0308Y0245D01*
X031D01*
X0311Y0246D01*
X06437Y02936D02*
X06447Y02946D01*
X06467D01*
X06477Y02936D01*
Y02896D01*
X06467Y02886D01*
X06447D01*
X06437Y02896D01*
X06377Y02946D02*
X06417D01*
Y02916D01*
X06397Y02926D01*
X06387D01*
X06377Y02916D01*
Y02896D01*
X06387Y02886D01*
X06407D01*
X06417Y02896D01*
X05187Y02674D02*
X05197Y02684D01*
X05217D01*
X05227Y02674D01*
Y02634D01*
X05217Y02624D01*
X05197D01*
X05187Y02634D01*
X05167Y02674D02*
X05157Y02684D01*
X05137D01*
X05127Y02674D01*
Y02664D01*
X05137Y02654D01*
X05147D01*
X05137D01*
X05127Y02644D01*
Y02634D01*
X05137Y02624D01*
X05157D01*
X05167Y02634D01*
X0155Y0297D02*
Y0296D01*
X0153Y0294D01*
X0151Y0296D01*
Y0297D01*
X0153Y0294D02*
Y0291D01*
X0149D02*
X0147D01*
X0148D01*
Y0297D01*
X0149Y0296D01*
X02415Y0238D02*
Y0244D01*
X02385D01*
X02375Y0243D01*
Y0241D01*
X02385Y024D01*
X02415D01*
X02395D02*
X02375Y0238D01*
X02355D02*
X02335D01*
X02345D01*
Y0244D01*
X02355Y0243D01*
X00895Y02345D02*
Y02385D01*
X00905Y02395D01*
X00925D01*
X00935Y02385D01*
Y02345D01*
X00925Y02335D01*
X00905D01*
X00915Y02355D02*
X00895Y02335D01*
X00905D02*
X00895Y02345D01*
X00875Y02335D02*
X00855D01*
X00865D01*
Y02395D01*
X00875Y02385D01*
X0557Y0237D02*
Y0231D01*
X0553D01*
X0551D02*
X0549D01*
X055D01*
Y0237D01*
X0551Y0236D01*
X02Y029599D02*
X0206D01*
Y0293D01*
X0205Y0292D01*
X0201D01*
X02Y0293D01*
Y029599D01*
X0201Y0286D02*
X02Y0287D01*
Y0289D01*
X0201Y029D01*
X0202D01*
X0203Y0289D01*
Y0287D01*
X0204Y0286D01*
X0205D01*
X0206Y0287D01*
Y0289D01*
X0205Y029D01*
X0206Y0284D02*
Y0282D01*
Y0283D01*
X02D01*
X0201Y0284D01*
Y0279D02*
X02Y0278D01*
Y0276D01*
X0201Y0275D01*
X0202D01*
X0203Y0276D01*
Y0277D01*
Y0276D01*
X0204Y0275D01*
X0205D01*
X0206Y0276D01*
Y0278D01*
X0205Y0279D01*
X0201Y0273D02*
X02Y0272D01*
Y027D01*
X0201Y0269D01*
X0205D01*
X0206Y027D01*
Y0272D01*
X0205Y0273D01*
X0201D01*
X02Y0267D02*
Y026301D01*
X0201D01*
X0205Y0267D01*
X0206D01*
D12*
X032837Y028062D02*
X032965D01*
X044735D02*
X044863D01*
X032837Y025312D02*
X032965D01*
X044735D02*
X044863D01*
X032837D02*
Y028062D01*
X044863Y025312D02*
Y028062D01*
X053976Y027525D02*
X056024D01*
X053976Y028675D02*
X056024D01*
X0109Y02105D02*
Y02155D01*
Y02105D02*
X03305D01*
Y0216D01*
X031975Y02105D02*
Y0216D01*
X031015Y02105D02*
Y0216D01*
X030005Y02105D02*
Y0216D01*
X029024Y02105D02*
Y0216D01*
X028017Y02105D02*
Y0216D01*
X026995Y02105D02*
Y0216D01*
X026017Y02105D02*
Y0216D01*
X025011Y02105D02*
Y0216D01*
X023989Y02105D02*
Y0216D01*
X023025Y02105D02*
Y0216D01*
X022014Y02105D02*
Y0216D01*
X021014Y02105D02*
Y0216D01*
X020014Y02105D02*
Y0216D01*
X019034Y02105D02*
Y0216D01*
X018019Y02105D02*
Y0216D01*
X017026Y02105D02*
Y0216D01*
X016019Y02105D02*
Y0216D01*
X014986Y02105D02*
Y0216D01*
X013994Y02105D02*
Y0216D01*
X013032Y02105D02*
Y0216D01*
X011997Y02105D02*
Y0216D01*
X03305Y0117D02*
Y0122D01*
X0109D02*
X03305D01*
X0109Y01165D02*
Y0122D01*
X03305Y0117D02*
Y0122D01*
X0109D02*
X03305D01*
X0109Y01165D02*
Y0122D01*
X030972Y0117D02*
Y0122D01*
X012019Y0117D02*
Y0122D01*
X013009Y0117D02*
Y0122D01*
X014029Y0117D02*
Y0122D01*
X015009Y0117D02*
Y0122D01*
X015974Y0117D02*
Y0122D01*
X016994Y0117D02*
Y0122D01*
X018034Y0117D02*
Y0122D01*
X018989Y0117D02*
Y0122D01*
X020039Y0117D02*
Y0122D01*
X021022Y0117D02*
Y0122D01*
X022009Y0117D02*
Y0122D01*
X023009Y0117D02*
Y0122D01*
X024009Y0117D02*
Y0122D01*
X025049Y0117D02*
Y0122D01*
X026025Y0117D02*
Y0122D01*
X027005Y0117D02*
Y0122D01*
X027995Y0117D02*
Y0122D01*
X029Y0117D02*
Y0122D01*
X03Y0117D02*
Y0122D01*
X032015Y0117D02*
Y0122D01*
X030972Y0117D02*
Y0122D01*
X012019Y0117D02*
Y0122D01*
X013009Y0117D02*
Y0122D01*
X014029Y0117D02*
Y0122D01*
X015009Y0117D02*
Y0122D01*
X015974Y0117D02*
Y0122D01*
X016994Y0117D02*
Y0122D01*
X018034Y0117D02*
Y0122D01*
X018989Y0117D02*
Y0122D01*
X020039Y0117D02*
Y0122D01*
X021022Y0117D02*
Y0122D01*
X022009Y0117D02*
Y0122D01*
X023009Y0117D02*
Y0122D01*
X024009Y0117D02*
Y0122D01*
X025049Y0117D02*
Y0122D01*
X026025Y0117D02*
Y0122D01*
X027005Y0117D02*
Y0122D01*
X027995Y0117D02*
Y0122D01*
X029Y0117D02*
Y0122D01*
X03Y0117D02*
Y0122D01*
X032015Y0117D02*
Y0122D01*
X030972Y0117D02*
Y0122D01*
X012019Y0117D02*
Y0122D01*
X013009Y0117D02*
Y0122D01*
X014029Y0117D02*
Y0122D01*
X015009Y0117D02*
Y0122D01*
X015974Y0117D02*
Y0122D01*
X016994Y0117D02*
Y0122D01*
X018034Y0117D02*
Y0122D01*
X018989Y0117D02*
Y0122D01*
X020039Y0117D02*
Y0122D01*
X021022Y0117D02*
Y0122D01*
X022009Y0117D02*
Y0122D01*
X023009Y0117D02*
Y0122D01*
X024009Y0117D02*
Y0122D01*
X025049Y0117D02*
Y0122D01*
X026025Y0117D02*
Y0122D01*
X027005Y0117D02*
Y0122D01*
X027995Y0117D02*
Y0122D01*
X029Y0117D02*
Y0122D01*
X03Y0117D02*
Y0122D01*
X032015Y0117D02*
Y0122D01*
X05725Y025565D02*
Y026605D01*
X06125D01*
Y025565D02*
Y026605D01*
X016505Y029275D02*
X016655D01*
X016505Y02915D02*
Y0294D01*
X016205Y02915D02*
Y0294D01*
X016075Y029275D02*
X016205D01*
X015935Y028755D02*
Y029845D01*
X016045D01*
X015935Y028755D02*
X016045D01*
X016655D02*
X016765D01*
Y029855D01*
X016655D02*
X016765D01*
X021049Y026464D02*
Y029562D01*
X024951Y026464D02*
Y029562D01*
D46*
X03465Y01205D02*
X03525D01*
X04215D02*
X04275D01*
Y00935D02*
Y01205D01*
X03465Y00935D02*
Y01205D01*
X04205Y00935D02*
X04275D01*
X04205D02*
Y01055D01*
X04145D02*
X04205D01*
X04145Y00935D02*
Y01055D01*
X03605Y00935D02*
X04145D01*
X03605D02*
Y01055D01*
X03545D02*
X03605D01*
X03545Y00935D02*
Y01055D01*
X03465Y00935D02*
X03545D01*
D87*
X0676Y025598D02*
G03*
X067546Y025652I0004J000452D01*
G01*
X066544Y02805D02*
G03*
X066544Y02805I-000064J0D01*
G01*
X066534Y02603D02*
G03*
X066534Y02603I-000064J0D01*
G01*
X0676Y027598D02*
G03*
X067539Y02766I0004J000452D01*
G01*
X007685Y025018D02*
G03*
X010049Y02505I001175J000556D01*
G01*
X066Y02505D02*
X06615D01*
Y02515D01*
X066Y02505D02*
Y02905D01*
X0676Y02505D02*
X06879D01*
X069D02*
Y02905D01*
X067575Y025625D02*
X06842Y02647D01*
X06728Y02703D02*
X06879D01*
X0662Y02911D02*
X06645D01*
X066Y02905D02*
X0675D01*
X06618Y02515D02*
X06649D01*
Y02505D02*
Y02515D01*
Y02505D02*
X069D01*
X0675Y02905D02*
X069D01*
X067Y02505D02*
Y02905D01*
X06757Y02762D02*
X06842Y02847D01*
X01581Y03512D02*
X01582Y03511D01*
X01974Y0351D02*
X01975Y03509D01*
X00787Y0261D02*
X0099D01*
X01003Y02584D01*
X007697Y025852D02*
X00787Y0261D01*
D88*
X01517Y03392D02*
G03*
X01517Y03392I-0005J0D01*
G01*
X0191Y0339D02*
G03*
X0191Y0339I-0005J0D01*
G01*
X01357Y03352D02*
Y03447D01*
X01388Y03497D02*
X01542D01*
X01582Y03352D02*
Y03447D01*
X01387Y03297D02*
X01542D01*
X0175Y0335D02*
Y03445D01*
X01781Y03495D02*
X01935D01*
X01975Y0335D02*
Y03445D01*
X0178Y03295D02*
X01935D01*
X032092Y011828D02*
X032143Y011777D01*
X032245D01*
X032296Y011828D01*
Y011879D01*
X032245Y01193D01*
X032194D01*
X032245D01*
X032296Y011981D01*
Y012032D01*
X032245Y012083D01*
X032143D01*
X032092Y012032D01*
X032398Y011777D02*
Y011981D01*
X0325Y012083D01*
X032602Y011981D01*
Y011777D01*
X032704Y011828D02*
X032755Y011777D01*
X032857D01*
X032908Y011828D01*
Y011879D01*
X032857Y01193D01*
X032806D01*
X032857D01*
X032908Y011981D01*
Y012032D01*
X032857Y012083D01*
X032755D01*
X032704Y012032D01*
X031042Y011828D02*
X031093Y011777D01*
X031195D01*
X031246Y011828D01*
Y011879D01*
X031195Y01193D01*
X031144D01*
X031195D01*
X031246Y011981D01*
Y012032D01*
X031195Y012083D01*
X031093D01*
X031042Y012032D01*
X031348Y011777D02*
Y011981D01*
X03145Y012083D01*
X031552Y011981D01*
Y011777D01*
X031654Y011828D02*
X031705Y011777D01*
X031807D01*
X031858Y011828D01*
Y011879D01*
X031807Y01193D01*
X031756D01*
X031807D01*
X031858Y011981D01*
Y012032D01*
X031807Y012083D01*
X031705D01*
X031654Y012032D01*
X030092Y012083D02*
Y011777D01*
X030245D01*
X030296Y011828D01*
Y01193D01*
X030245Y011981D01*
X030092D01*
X030194D02*
X030296Y012083D01*
X030602Y011828D02*
X030551Y011777D01*
X030449D01*
X030398Y011828D01*
Y011879D01*
X030449Y01193D01*
X030551D01*
X030602Y011981D01*
Y012032D01*
X030551Y012083D01*
X030449D01*
X030398Y012032D01*
X030704Y011777D02*
X030908D01*
X030806D01*
Y012083D01*
X029502Y012081D02*
Y011778D01*
X02935Y01193D01*
X029552D01*
X028652Y011778D02*
X02845D01*
Y01193D01*
X028551Y011879D01*
X028602D01*
X028652Y01193D01*
Y012031D01*
X028602Y012081D01*
X028501D01*
X02845Y012031D01*
X027602Y011778D02*
X027501Y011828D01*
X0274Y01193D01*
Y012031D01*
X027451Y012081D01*
X027552D01*
X027602Y012031D01*
Y01198D01*
X027552Y01193D01*
X0274D01*
X0264Y011778D02*
X026602D01*
Y011828D01*
X0264Y012031D01*
Y012081D01*
X025295Y012083D02*
X025398D01*
X025347D01*
Y011777D01*
X025295Y011828D01*
X025755Y011777D02*
X025551D01*
Y01193D01*
X025653Y011879D01*
X025704D01*
X025755Y01193D01*
Y012032D01*
X025704Y012083D01*
X025602D01*
X025551Y012032D01*
X024345Y012083D02*
X024448D01*
X024397D01*
Y011777D01*
X024345Y011828D01*
X024805Y011777D02*
X024703Y011828D01*
X024601Y01193D01*
Y012032D01*
X024652Y012083D01*
X024754D01*
X024805Y012032D01*
Y011981D01*
X024754Y01193D01*
X024601D01*
X023345Y012083D02*
X023448D01*
X023397D01*
Y011777D01*
X023345Y011828D01*
X023601Y011777D02*
X023805D01*
Y011828D01*
X023601Y012032D01*
Y012083D01*
X022295D02*
X022398D01*
X022347D01*
Y011777D01*
X022295Y011828D01*
X022551D02*
X022602Y011777D01*
X022704D01*
X022755Y011828D01*
Y011879D01*
X022704Y01193D01*
X022755Y011981D01*
Y012032D01*
X022704Y012083D01*
X022602D01*
X022551Y012032D01*
Y011981D01*
X022602Y01193D01*
X022551Y011879D01*
Y011828D01*
X022602Y01193D02*
X022704D01*
X0214Y011828D02*
X021451Y011778D01*
X021552D01*
X021602Y011828D01*
Y011879D01*
X021552Y01193D01*
X021602Y01198D01*
Y012031D01*
X021552Y012081D01*
X021451D01*
X0214Y012031D01*
Y01198D01*
X021451Y01193D01*
X0214Y011879D01*
Y011828D01*
X021451Y01193D02*
X021552D01*
X0204Y011828D02*
X020451Y011778D01*
X020552D01*
X020602Y011828D01*
Y011879D01*
X020552Y01193D01*
X020501D01*
X020552D01*
X020602Y01198D01*
Y012031D01*
X020552Y012082D01*
X020451D01*
X0204Y012031D01*
X019399Y012083D02*
Y011777D01*
X019245Y01193D01*
X01945D01*
X019756Y011777D02*
X019654Y011828D01*
X019552Y01193D01*
Y012032D01*
X019603Y012083D01*
X019705D01*
X019756Y012032D01*
Y011981D01*
X019705Y01193D01*
X019552D01*
X0184Y012031D02*
X018451Y012082D01*
X018552D01*
X018602Y012031D01*
Y011828D01*
X018552Y011778D01*
X018451D01*
X0184Y011828D01*
Y011879D01*
X018451Y01193D01*
X018602D01*
X016345Y012083D02*
X016448D01*
X016397D01*
Y011777D01*
X016345Y011828D01*
X016601Y012083D02*
X016703D01*
X016652D01*
Y011777D01*
X016601Y011828D01*
X015295Y012083D02*
X015398D01*
X015347D01*
Y011777D01*
X015295Y011828D01*
X015755Y012083D02*
X015551D01*
X015755Y011879D01*
Y011828D01*
X015704Y011777D01*
X015602D01*
X015551Y011828D01*
X014296Y012083D02*
X014398D01*
X014347D01*
Y011777D01*
X014296Y011828D01*
X014551D02*
X014602Y011777D01*
X014704D01*
X014755Y011828D01*
Y011879D01*
X014704Y01193D01*
X014653D01*
X014704D01*
X014755Y011981D01*
Y012032D01*
X014704Y012083D01*
X014602D01*
X014551Y012032D01*
X013296Y012083D02*
X013398D01*
X013347D01*
Y011777D01*
X013296Y011828D01*
X013704Y012083D02*
Y011777D01*
X013551Y01193D01*
X013755D01*
X017296Y012083D02*
X017398D01*
X017347D01*
Y011777D01*
X017296Y011828D01*
X017551D02*
X017602Y011777D01*
X017704D01*
X017755Y011828D01*
Y012032D01*
X017704Y012083D01*
X017602D01*
X017551Y012032D01*
Y011828D01*
X0125Y011777D02*
X012296D01*
Y01193D01*
X012398Y011879D01*
X012449D01*
X0125Y01193D01*
Y012032D01*
X012449Y012083D01*
X012347D01*
X012296Y012032D01*
X012602Y011777D02*
Y011981D01*
X012704Y012083D01*
X012806Y011981D01*
Y011777D01*
X011246Y011828D02*
X011195Y011777D01*
X011093D01*
X011042Y011828D01*
Y012032D01*
X011093Y012083D01*
X011195D01*
X011246Y012032D01*
Y01193D01*
X011144D01*
X011348Y012083D02*
Y011777D01*
X011552Y012083D01*
Y011777D01*
X011654D02*
Y012083D01*
X011807D01*
X011858Y012032D01*
Y011828D01*
X011807Y011777D01*
X011654D01*
X032704Y021422D02*
X032755Y021473D01*
X032857D01*
X032908Y021422D01*
Y021218D01*
X032857Y021167D01*
X032755D01*
X032704Y021218D01*
Y02132D01*
X032806D01*
X032602Y021167D02*
Y021473D01*
X032398Y021167D01*
Y021473D01*
X032296D02*
Y021167D01*
X032143D01*
X032092Y021218D01*
Y021422D01*
X032143Y021473D01*
X032296D01*
X031755D02*
X03155D01*
X031652D01*
Y021167D01*
X031448Y021473D02*
X031244Y021167D01*
Y021473D02*
X031448Y021167D01*
X030705Y021167D02*
Y021473D01*
X030551D01*
X0305Y021422D01*
Y02132D01*
X030551Y021269D01*
X030705D01*
X030602D02*
X0305Y021167D01*
X030398Y021473D02*
X030194Y021167D01*
Y021473D02*
X030398Y021167D01*
X0296Y021168D02*
X029499D01*
X029549D01*
Y021472D01*
X0296Y021422D01*
X028448Y021168D02*
X02865D01*
X028448Y021371D01*
Y021422D01*
X028498Y021472D01*
X028599D01*
X02865Y021422D01*
X027701Y021167D02*
Y021473D01*
X027854Y02132D01*
X02765D01*
X027344Y021167D02*
X027548D01*
X027344Y021371D01*
Y021422D01*
X027395Y021473D01*
X027497D01*
X027548Y021422D01*
X026601Y021167D02*
Y021473D01*
X026755Y02132D01*
X02655D01*
X026448Y021167D02*
X026346D01*
X026397D01*
Y021473D01*
X026448Y021422D01*
X020755Y021422D02*
X020703Y021473D01*
X020601D01*
X02055Y021422D01*
Y021371D01*
X020601Y02132D01*
X020652D01*
X020601D01*
X02055Y021269D01*
Y021218D01*
X020601Y021167D01*
X020703D01*
X020755Y021218D01*
X020244Y021473D02*
X020448D01*
Y02132D01*
X020346Y021371D01*
X020295D01*
X020244Y02132D01*
Y021218D01*
X020295Y021167D01*
X020397D01*
X020448Y021218D01*
X021805Y021422D02*
X021753Y021473D01*
X021651D01*
X0216Y021422D01*
Y021371D01*
X021651Y02132D01*
X021702D01*
X021651D01*
X0216Y021269D01*
Y021218D01*
X021651Y021167D01*
X021753D01*
X021805Y021218D01*
X021294Y021473D02*
X021396Y021422D01*
X021498Y02132D01*
Y021218D01*
X021447Y021167D01*
X021345D01*
X021294Y021218D01*
Y021269D01*
X021345Y02132D01*
X021498D01*
X022705Y021422D02*
X022653Y021473D01*
X022551D01*
X0225Y021422D01*
Y021371D01*
X022551Y02132D01*
X022602D01*
X022551D01*
X0225Y021269D01*
Y021218D01*
X022551Y021167D01*
X022653D01*
X022705Y021218D01*
X022398Y021473D02*
X022194D01*
Y021422D01*
X022398Y021218D01*
Y021167D01*
X023805Y021422D02*
X023753Y021473D01*
X023651D01*
X0236Y021422D01*
Y021371D01*
X023651Y02132D01*
X023702D01*
X023651D01*
X0236Y021269D01*
Y021218D01*
X023651Y021167D01*
X023753D01*
X023805Y021218D01*
X023498Y021422D02*
X023447Y021473D01*
X023345D01*
X023294Y021422D01*
Y021371D01*
X023345Y02132D01*
X023294Y021269D01*
Y021218D01*
X023345Y021167D01*
X023447D01*
X023498Y021218D01*
Y021269D01*
X023447Y02132D01*
X023498Y021371D01*
Y021422D01*
X023447Y02132D02*
X023345D01*
X024804Y021422D02*
X024753Y021473D01*
X024651D01*
X0246Y021422D01*
Y021371D01*
X024651Y02132D01*
X024702D01*
X024651D01*
X0246Y021269D01*
Y021218D01*
X024651Y021167D01*
X024753D01*
X024804Y021218D01*
X024498D02*
X024447Y021167D01*
X024345D01*
X024294Y021218D01*
Y021422D01*
X024345Y021473D01*
X024447D01*
X024498Y021422D01*
Y021371D01*
X024447Y02132D01*
X024294D01*
X025651Y021167D02*
Y021473D01*
X025805Y02132D01*
X0256D01*
X025498Y021422D02*
X025447Y021473D01*
X025345D01*
X025294Y021422D01*
Y021218D01*
X025345Y021167D01*
X025447D01*
X025498Y021218D01*
Y021422D01*
X01965Y021422D02*
X019599Y021472D01*
X019498D01*
X019448Y021422D01*
Y021219D01*
X019498Y021168D01*
X019599D01*
X01965Y021219D01*
Y021422D01*
X018601Y021167D02*
Y021473D01*
X018755Y02132D01*
X01855D01*
X018244Y021473D02*
X018448D01*
Y02132D01*
X018346Y021371D01*
X018295D01*
X018244Y02132D01*
Y021218D01*
X018295Y021167D01*
X018397D01*
X018448Y021218D01*
X016651Y021167D02*
Y021473D01*
X016805Y02132D01*
X0166D01*
X016498Y021473D02*
X016294D01*
Y021422D01*
X016498Y021218D01*
Y021167D01*
X017651D02*
Y021473D01*
X017805Y02132D01*
X0176D01*
X017498Y021422D02*
X017447Y021473D01*
X017345D01*
X017294Y021422D01*
Y021371D01*
X017345Y02132D01*
X017294Y021269D01*
Y021218D01*
X017345Y021167D01*
X017447D01*
X017498Y021218D01*
Y021269D01*
X017447Y02132D01*
X017498Y021371D01*
Y021422D01*
X017447Y02132D02*
X017345D01*
X0155Y021167D02*
X015705D01*
X0155Y021371D01*
Y021422D01*
X015551Y021473D01*
X015654D01*
X015705Y021422D01*
X015398Y021167D02*
X015296D01*
X015347D01*
Y021473D01*
X015398Y021422D01*
X013705Y021167D02*
X013602D01*
X013654D01*
Y021473D01*
X013705Y021422D01*
X013449Y021218D02*
X013398Y021167D01*
X013296D01*
X013245Y021218D01*
Y021422D01*
X013296Y021473D01*
X013398D01*
X013449Y021422D01*
Y021371D01*
X013398Y02132D01*
X013245D01*
X01455Y021167D02*
X014755D01*
X01455Y021371D01*
Y021422D01*
X014601Y021473D01*
X014704D01*
X014755Y021422D01*
X014448D02*
X014397Y021473D01*
X014295D01*
X014244Y021422D01*
Y021218D01*
X014295Y021167D01*
X014397D01*
X014448Y021218D01*
Y021422D01*
X012754Y021422D02*
X012805Y021473D01*
X012907D01*
X012958Y021422D01*
Y021218D01*
X012907Y021167D01*
X012805D01*
X012754Y021218D01*
Y02132D01*
X012856D01*
X012652Y021167D02*
Y021473D01*
X012448Y021167D01*
Y021473D01*
X012346D02*
Y021167D01*
X012193D01*
X012142Y021218D01*
Y021422D01*
X012193Y021473D01*
X012346D01*
X011654Y021472D02*
X011705Y021523D01*
X011807D01*
X011858Y021472D01*
Y021268D01*
X011807Y021217D01*
X011705D01*
X011654Y021268D01*
Y02137D01*
X011756D01*
X011552Y021217D02*
Y021523D01*
X011348Y021217D01*
Y021523D01*
X011246D02*
Y021217D01*
X011093D01*
X011042Y021268D01*
Y021472D01*
X011093Y021523D01*
X011246D01*
X014296Y012083D02*
X014398D01*
X014347D01*
Y011777D01*
X014296Y011828D01*
X014551D02*
X014602Y011777D01*
X014704D01*
X014755Y011828D01*
Y011879D01*
X014704Y01193D01*
X014653D01*
X014704D01*
X014755Y011981D01*
Y012032D01*
X014704Y012083D01*
X014602D01*
X014551Y012032D01*
X019399Y012083D02*
Y011777D01*
X019245Y01193D01*
X01945D01*
X019756Y011777D02*
X019654Y011828D01*
X019552Y01193D01*
Y012032D01*
X019603Y012083D01*
X019705D01*
X019756Y012032D01*
Y011981D01*
X019705Y01193D01*
X019552D01*
X0204Y011828D02*
X020451Y011778D01*
X020552D01*
X020602Y011828D01*
Y011879D01*
X020552Y01193D01*
X020501D01*
X020552D01*
X020602Y01198D01*
Y012031D01*
X020552Y012082D01*
X020451D01*
X0204Y012031D01*
X0214Y011828D02*
X021451Y011778D01*
X021552D01*
X021602Y011828D01*
Y011879D01*
X021552Y01193D01*
X021602Y01198D01*
Y012031D01*
X021552Y012081D01*
X021451D01*
X0214Y012031D01*
Y01198D01*
X021451Y01193D01*
X0214Y011879D01*
Y011828D01*
X021451Y01193D02*
X021552D01*
X022295Y012083D02*
X022398D01*
X022347D01*
Y011777D01*
X022295Y011828D01*
X022551D02*
X022602Y011777D01*
X022704D01*
X022755Y011828D01*
Y011879D01*
X022704Y01193D01*
X022755Y011981D01*
Y012032D01*
X022704Y012083D01*
X022602D01*
X022551Y012032D01*
Y011981D01*
X022602Y01193D01*
X022551Y011879D01*
Y011828D01*
X022602Y01193D02*
X022704D01*
X024345Y012083D02*
X024448D01*
X024397D01*
Y011777D01*
X024345Y011828D01*
X024805Y011777D02*
X024703Y011828D01*
X024601Y01193D01*
Y012032D01*
X024652Y012083D01*
X024754D01*
X024805Y012032D01*
Y011981D01*
X024754Y01193D01*
X024601D01*
X025295Y012083D02*
X025398D01*
X025347D01*
Y011777D01*
X025295Y011828D01*
X025755Y011777D02*
X025551D01*
Y01193D01*
X025653Y011879D01*
X025704D01*
X025755Y01193D01*
Y012032D01*
X025704Y012083D01*
X025602D01*
X025551Y012032D01*
X0264Y011778D02*
X026602D01*
Y011828D01*
X0264Y012031D01*
Y012081D01*
X027602Y011778D02*
X027501Y011828D01*
X0274Y01193D01*
Y012031D01*
X027451Y012081D01*
X027552D01*
X027602Y012031D01*
Y01198D01*
X027552Y01193D01*
X0274D01*
X028652Y011778D02*
X02845D01*
Y01193D01*
X028551Y011879D01*
X028602D01*
X028652Y01193D01*
Y012031D01*
X028602Y012081D01*
X028501D01*
X02845Y012031D01*
X029502Y012081D02*
Y011778D01*
X02935Y01193D01*
X029552D01*
X030092Y012083D02*
Y011777D01*
X030245D01*
X030296Y011828D01*
Y01193D01*
X030245Y011981D01*
X030092D01*
X030194D02*
X030296Y012083D01*
X030602Y011828D02*
X030551Y011777D01*
X030449D01*
X030398Y011828D01*
Y011879D01*
X030449Y01193D01*
X030551D01*
X030602Y011981D01*
Y012032D01*
X030551Y012083D01*
X030449D01*
X030398Y012032D01*
X030704Y011777D02*
X030908D01*
X030806D01*
Y012083D01*
X031042Y011828D02*
X031093Y011777D01*
X031195D01*
X031246Y011828D01*
Y011879D01*
X031195Y01193D01*
X031144D01*
X031195D01*
X031246Y011981D01*
Y012032D01*
X031195Y012083D01*
X031093D01*
X031042Y012032D01*
X031348Y011777D02*
Y011981D01*
X03145Y012083D01*
X031552Y011981D01*
Y011777D01*
X031654Y011828D02*
X031705Y011777D01*
X031807D01*
X031858Y011828D01*
Y011879D01*
X031807Y01193D01*
X031756D01*
X031807D01*
X031858Y011981D01*
Y012032D01*
X031807Y012083D01*
X031705D01*
X031654Y012032D01*
X032092Y011828D02*
X032143Y011777D01*
X032245D01*
X032296Y011828D01*
Y011879D01*
X032245Y01193D01*
X032194D01*
X032245D01*
X032296Y011981D01*
Y012032D01*
X032245Y012083D01*
X032143D01*
X032092Y012032D01*
X032398Y011777D02*
Y011981D01*
X0325Y012083D01*
X032602Y011981D01*
Y011777D01*
X032704Y011828D02*
X032755Y011777D01*
X032857D01*
X032908Y011828D01*
Y011879D01*
X032857Y01193D01*
X032806D01*
X032857D01*
X032908Y011981D01*
Y012032D01*
X032857Y012083D01*
X032755D01*
X032704Y012032D01*
X032092Y011828D02*
X032143Y011777D01*
X032245D01*
X032296Y011828D01*
Y011879D01*
X032245Y01193D01*
X032194D01*
X032245D01*
X032296Y011981D01*
Y012032D01*
X032245Y012083D01*
X032143D01*
X032092Y012032D01*
X032398Y011777D02*
Y011981D01*
X0325Y012083D01*
X032602Y011981D01*
Y011777D01*
X032704Y011828D02*
X032755Y011777D01*
X032857D01*
X032908Y011828D01*
Y011879D01*
X032857Y01193D01*
X032806D01*
X032857D01*
X032908Y011981D01*
Y012032D01*
X032857Y012083D01*
X032755D01*
X032704Y012032D01*
X031042Y011828D02*
X031093Y011777D01*
X031195D01*
X031246Y011828D01*
Y011879D01*
X031195Y01193D01*
X031144D01*
X031195D01*
X031246Y011981D01*
Y012032D01*
X031195Y012083D01*
X031093D01*
X031042Y012032D01*
X031348Y011777D02*
Y011981D01*
X03145Y012083D01*
X031552Y011981D01*
Y011777D01*
X031654Y011828D02*
X031705Y011777D01*
X031807D01*
X031858Y011828D01*
Y011879D01*
X031807Y01193D01*
X031756D01*
X031807D01*
X031858Y011981D01*
Y012032D01*
X031807Y012083D01*
X031705D01*
X031654Y012032D01*
X030092Y012083D02*
Y011777D01*
X030245D01*
X030296Y011828D01*
Y01193D01*
X030245Y011981D01*
X030092D01*
X030194D02*
X030296Y012083D01*
X030602Y011828D02*
X030551Y011777D01*
X030449D01*
X030398Y011828D01*
Y011879D01*
X030449Y01193D01*
X030551D01*
X030602Y011981D01*
Y012032D01*
X030551Y012083D01*
X030449D01*
X030398Y012032D01*
X030704Y011777D02*
X030908D01*
X030806D01*
Y012083D01*
X029502Y012081D02*
Y011778D01*
X02935Y01193D01*
X029552D01*
X028652Y011778D02*
X02845D01*
Y01193D01*
X028551Y011879D01*
X028602D01*
X028652Y01193D01*
Y012031D01*
X028602Y012081D01*
X028501D01*
X02845Y012031D01*
X027602Y011778D02*
X027501Y011828D01*
X0274Y01193D01*
Y012031D01*
X027451Y012081D01*
X027552D01*
X027602Y012031D01*
Y01198D01*
X027552Y01193D01*
X0274D01*
X0264Y011778D02*
X026602D01*
Y011828D01*
X0264Y012031D01*
Y012081D01*
X025295Y012083D02*
X025398D01*
X025347D01*
Y011777D01*
X025295Y011828D01*
X025755Y011777D02*
X025551D01*
Y01193D01*
X025653Y011879D01*
X025704D01*
X025755Y01193D01*
Y012032D01*
X025704Y012083D01*
X025602D01*
X025551Y012032D01*
X024345Y012083D02*
X024448D01*
X024397D01*
Y011777D01*
X024345Y011828D01*
X024805Y011777D02*
X024703Y011828D01*
X024601Y01193D01*
Y012032D01*
X024652Y012083D01*
X024754D01*
X024805Y012032D01*
Y011981D01*
X024754Y01193D01*
X024601D01*
X022295Y012083D02*
X022398D01*
X022347D01*
Y011777D01*
X022295Y011828D01*
X022551D02*
X022602Y011777D01*
X022704D01*
X022755Y011828D01*
Y011879D01*
X022704Y01193D01*
X022755Y011981D01*
Y012032D01*
X022704Y012083D01*
X022602D01*
X022551Y012032D01*
Y011981D01*
X022602Y01193D01*
X022551Y011879D01*
Y011828D01*
X022602Y01193D02*
X022704D01*
X0214Y011828D02*
X021451Y011778D01*
X021552D01*
X021602Y011828D01*
Y011879D01*
X021552Y01193D01*
X021602Y01198D01*
Y012031D01*
X021552Y012081D01*
X021451D01*
X0214Y012031D01*
Y01198D01*
X021451Y01193D01*
X0214Y011879D01*
Y011828D01*
X021451Y01193D02*
X021552D01*
X0204Y011828D02*
X020451Y011778D01*
X020552D01*
X020602Y011828D01*
Y011879D01*
X020552Y01193D01*
X020501D01*
X020552D01*
X020602Y01198D01*
Y012031D01*
X020552Y012082D01*
X020451D01*
X0204Y012031D01*
X019399Y012083D02*
Y011777D01*
X019245Y01193D01*
X01945D01*
X019756Y011777D02*
X019654Y011828D01*
X019552Y01193D01*
Y012032D01*
X019603Y012083D01*
X019705D01*
X019756Y012032D01*
Y011981D01*
X019705Y01193D01*
X019552D01*
X014296Y012083D02*
X014398D01*
X014347D01*
Y011777D01*
X014296Y011828D01*
X014551D02*
X014602Y011777D01*
X014704D01*
X014755Y011828D01*
Y011879D01*
X014704Y01193D01*
X014653D01*
X014704D01*
X014755Y011981D01*
Y012032D01*
X014704Y012083D01*
X014602D01*
X014551Y012032D01*
D89*
X008625Y028445D02*
G03*
X00861Y028459I001433J001553D01*
G01*
X02577Y016859D02*
Y01608D01*
X02551Y01634D01*
X025251Y01608D01*
Y016859D01*
X024602Y01608D02*
X024862D01*
X024991Y01621D01*
Y016469D01*
X024862Y016599D01*
X024602D01*
X024472Y016469D01*
Y01634D01*
X024991D01*
X024213Y01608D02*
Y016599D01*
X023953Y016859D01*
X023694Y016599D01*
Y01608D01*
Y016469D01*
X024213D01*
X022915Y016599D02*
X023305D01*
X023434Y016469D01*
Y01621D01*
X023305Y01608D01*
X022915D01*
X022526Y016729D02*
Y016599D01*
X022656D01*
X022396D01*
X022526D01*
Y01621D01*
X022396Y01608D01*
X022007Y016469D02*
X021488D01*
X020709Y016859D02*
X021228D01*
Y01608D01*
X020709D01*
X021228Y016469D02*
X020969D01*
X019931Y016729D02*
X020061Y016859D01*
X02032D01*
X02045Y016729D01*
Y016599D01*
X02032Y016469D01*
X020061D01*
X019931Y01634D01*
Y01621D01*
X020061Y01608D01*
X02032D01*
X02045Y01621D01*
X019671Y01608D02*
Y016859D01*
X019282D01*
X019152Y016729D01*
Y016469D01*
X019282Y01634D01*
X019671D01*
X018893Y016729D02*
X018763Y016859D01*
X018504D01*
X018374Y016729D01*
Y016599D01*
X018504Y016469D01*
X018633D01*
X018504D01*
X018374Y01634D01*
Y01621D01*
X018504Y01608D01*
X018763D01*
X018893Y01621D01*
X017595Y01608D02*
X018114D01*
X017595Y016599D01*
Y016729D01*
X017725Y016859D01*
X017985D01*
X018114Y016729D01*
X017336Y016469D02*
X016817D01*
X016038Y016729D02*
X016168Y016859D01*
X016427D01*
X016557Y016729D01*
Y016599D01*
X016427Y016469D01*
X016168D01*
X016038Y01634D01*
Y01621D01*
X016168Y01608D01*
X016427D01*
X016557Y01621D01*
X015779Y016729D02*
X015649Y016859D01*
X015389D01*
X01526Y016729D01*
Y016599D01*
X015389Y016469D01*
X015519D01*
X015389D01*
X01526Y01634D01*
Y01621D01*
X015389Y01608D01*
X015649D01*
X015779Y01621D01*
X015Y016469D02*
X014481D01*
X014222Y01608D02*
Y016599D01*
X013962Y016859D01*
X013703Y016599D01*
Y01608D01*
Y016469D01*
X014222D01*
D90*
X016355Y02928D02*
D03*
M02*
