G04*
G04 #@! TF.GenerationSoftware,Altium Limited,Altium Designer,21.9.2 (33)*
G04*
G04 Layer_Color=8388736*
%FSTAX24Y24*%
%MOIN*%
G70*
G04*
G04 #@! TF.SameCoordinates,7D792EBD-1CCB-4A66-8B02-D1F74A79ED49*
G04*
G04*
G04 #@! TF.FilePolarity,Negative*
G04*
G01*
G75*
%ADD15R,0.0592X0.1241*%
%ADD16R,0.0710X0.0671*%
%ADD17R,0.0780X0.0780*%
%ADD18O,0.0780X0.0830*%
%ADD19R,0.0599X0.0599*%
%ADD20C,0.0599*%
%ADD21C,0.1180*%
%ADD22R,0.0907X0.0907*%
%ADD23C,0.0907*%
%ADD24C,0.0830*%
%ADD25R,0.0740X0.1370*%
%ADD26R,0.0780X0.1080*%
%ADD27O,0.0780X0.1080*%
%ADD28C,0.0682*%
%ADD29R,0.0682X0.0682*%
%ADD30C,0.0080*%
%ADD31C,0.0674*%
%ADD32R,0.0674X0.0674*%
%ADD33O,0.0516X0.0952*%
%ADD34C,0.0710*%
%ADD35R,0.0710X0.0710*%
%ADD36R,0.0671X0.0671*%
%ADD37C,0.0671*%
%ADD38R,0.0710X0.0710*%
%ADD39C,0.0560*%
%ADD40R,0.0556X0.0556*%
%ADD41C,0.0556*%
%ADD42C,0.0980*%
%ADD43O,0.0740X0.1080*%
%ADD44C,0.0380*%
%ADD45C,0.0580*%
D15*
X06575Y013641D02*
D03*
X06675D02*
D03*
X06775D02*
D03*
X06875D02*
D03*
Y032759D02*
D03*
X06775D02*
D03*
X06675D02*
D03*
X06575D02*
D03*
D16*
X07015Y011659D02*
D03*
Y012841D02*
D03*
D17*
X01015Y0331D02*
D03*
D18*
X00915D02*
D03*
D19*
X03335Y02825D02*
D03*
D20*
X03435D02*
D03*
X03535D02*
D03*
X03635D02*
D03*
X03735D02*
D03*
X03835D02*
D03*
X03935D02*
D03*
X04035D02*
D03*
X04135D02*
D03*
X04235D02*
D03*
X04335D02*
D03*
X04435D02*
D03*
Y025124D02*
D03*
X04335D02*
D03*
X04235D02*
D03*
X04135D02*
D03*
X04035D02*
D03*
X03935D02*
D03*
X03835D02*
D03*
X03735D02*
D03*
X03635D02*
D03*
X03535D02*
D03*
X03435D02*
D03*
X03335D02*
D03*
D21*
X068Y02605D02*
D03*
Y02805D02*
D03*
D22*
X02865Y027511D02*
D03*
X06325Y027628D02*
D03*
D23*
X02865Y028889D02*
D03*
X06325Y02625D02*
D03*
D24*
X01329Y03305D02*
D03*
X016Y03493D02*
D03*
Y03305D02*
D03*
X01329Y03493D02*
D03*
X01722Y03303D02*
D03*
X01993Y03491D02*
D03*
Y03303D02*
D03*
X01722Y03491D02*
D03*
D25*
X0325Y0108D02*
D03*
X0115D02*
D03*
X0315D02*
D03*
X0305D02*
D03*
X0275D02*
D03*
X0285D02*
D03*
X0265D02*
D03*
X0255D02*
D03*
X0245D02*
D03*
X0295D02*
D03*
X0235D02*
D03*
X0225D02*
D03*
X0205D02*
D03*
X0215D02*
D03*
X0195D02*
D03*
X0185D02*
D03*
X0175D02*
D03*
X0165D02*
D03*
X0155D02*
D03*
X0125D02*
D03*
X0325Y0225D02*
D03*
X0115D02*
D03*
X0215D02*
D03*
X0195D02*
D03*
X0125D02*
D03*
X0175D02*
D03*
X0185D02*
D03*
X0145D02*
D03*
X0155D02*
D03*
X0165D02*
D03*
X0285D02*
D03*
X0275D02*
D03*
X0205D02*
D03*
X0255D02*
D03*
X0265D02*
D03*
X0225D02*
D03*
X0235D02*
D03*
X0245D02*
D03*
X0305D02*
D03*
X0295D02*
D03*
X0315D02*
D03*
X0135Y0108D02*
D03*
X0145D02*
D03*
X0135Y0225D02*
D03*
D26*
X0417Y01205D02*
D03*
D27*
X0407D02*
D03*
X0397D02*
D03*
X0387D02*
D03*
X0377D02*
D03*
X0367D02*
D03*
X0357D02*
D03*
D28*
X06905Y02165D02*
D03*
Y011666D02*
D03*
X06805Y02165D02*
D03*
X06705D02*
D03*
X06605D02*
D03*
X06505D02*
D03*
X06405D02*
D03*
X06305D02*
D03*
X06205D02*
D03*
X06105D02*
D03*
X06005D02*
D03*
X05905D02*
D03*
X05805D02*
D03*
X05705D02*
D03*
X05605D02*
D03*
X05505D02*
D03*
X05405D02*
D03*
X05305D02*
D03*
X05205D02*
D03*
X05105D02*
D03*
X05005D02*
D03*
X04905D02*
D03*
X06805Y011666D02*
D03*
X06705D02*
D03*
X06605D02*
D03*
X06505D02*
D03*
X06405D02*
D03*
X06305D02*
D03*
X06205D02*
D03*
X06105D02*
D03*
X06005D02*
D03*
X05905D02*
D03*
X05805D02*
D03*
X05705D02*
D03*
X05605D02*
D03*
X05505D02*
D03*
X05405D02*
D03*
X05305D02*
D03*
X05105D02*
D03*
X05005D02*
D03*
X04905D02*
D03*
X04805D02*
D03*
X05205D02*
D03*
D29*
X04805Y02165D02*
D03*
D30*
X00755Y01485D02*
D03*
D03*
D03*
D03*
X06605Y0182D02*
D03*
Y0282D02*
D03*
D31*
X0213Y030663D02*
D03*
X0203D02*
D03*
X0193D02*
D03*
D32*
X0183D02*
D03*
D33*
X03055Y0186D02*
D03*
X03155D02*
D03*
X03255D02*
D03*
X03355D02*
D03*
X033549Y030614D02*
D03*
X032549D02*
D03*
X031549D02*
D03*
X030549D02*
D03*
X029549D02*
D03*
X02955Y0186D02*
D03*
X04005D02*
D03*
X04105D02*
D03*
X04205D02*
D03*
X04305D02*
D03*
X043049Y030614D02*
D03*
X042049D02*
D03*
X041049D02*
D03*
X040049D02*
D03*
X039049D02*
D03*
X03905Y0186D02*
D03*
X05155Y0306D02*
D03*
X05055D02*
D03*
X04955D02*
D03*
X04855D02*
D03*
X048551Y018586D02*
D03*
X049551D02*
D03*
X050551D02*
D03*
X051551D02*
D03*
X052551D02*
D03*
X05255Y0306D02*
D03*
X06205Y030614D02*
D03*
X062051Y0186D02*
D03*
X061051D02*
D03*
X060051D02*
D03*
X059051D02*
D03*
X058051D02*
D03*
X05805Y030614D02*
D03*
X05905D02*
D03*
X06005D02*
D03*
X06105D02*
D03*
D34*
X06295Y01355D02*
D03*
X05105Y0251D02*
D03*
X02525Y03305D02*
D03*
Y03205D02*
D03*
X0285Y03305D02*
D03*
Y03205D02*
D03*
X0445Y03315D02*
D03*
Y03215D02*
D03*
X0477Y03315D02*
D03*
Y03215D02*
D03*
D35*
X06395Y01355D02*
D03*
D36*
X010055Y0315D02*
D03*
D37*
X01005Y0285D02*
D03*
D38*
X05105Y0241D02*
D03*
X02525Y03405D02*
D03*
X0285D02*
D03*
X0445Y03415D02*
D03*
X0477D02*
D03*
D39*
X01635Y0288D02*
D03*
Y0298D02*
D03*
D40*
X0215Y029576D02*
D03*
D41*
X0225D02*
D03*
X0235D02*
D03*
X0245D02*
D03*
Y02645D02*
D03*
X0235D02*
D03*
X0225D02*
D03*
X0215D02*
D03*
D42*
X05385Y02565D02*
D03*
X05585D02*
D03*
D43*
X00985Y02545D02*
D03*
X00885D02*
D03*
X00785D02*
D03*
D44*
X0576Y0333D02*
D03*
X06955Y03485D02*
D03*
X0518Y02645D02*
D03*
X026Y0097D02*
D03*
X0294Y01425D02*
D03*
X04105Y03545D02*
D03*
X04875Y0142D02*
D03*
X0487Y01335D02*
D03*
X0501Y0281D02*
D03*
X0328Y0269D02*
D03*
X0155Y02625D02*
D03*
X0479Y0259D02*
D03*
X04915Y02655D02*
D03*
X0588Y01655D02*
D03*
X06085Y01705D02*
D03*
X05785Y01605D02*
D03*
X0387Y03315D02*
D03*
X0399Y03265D02*
D03*
X0418Y0322D02*
D03*
X0588Y0327D02*
D03*
X0608Y0322D02*
D03*
X0418Y017D02*
D03*
X03985Y0165D02*
D03*
X03885Y01595D02*
D03*
D45*
X01185Y0322D02*
D03*
X0272Y0127D02*
D03*
X0184Y027D02*
D03*
X0661Y01505D02*
D03*
X06745Y01635D02*
D03*
M02*
