G04*
G04 #@! TF.GenerationSoftware,Altium Limited,Altium Designer,21.9.2 (33)*
G04*
G04 Layer_Color=255*
%FSTAX24Y24*%
%MOIN*%
G70*
G04*
G04 #@! TF.SameCoordinates,7D792EBD-1CCB-4A66-8B02-D1F74A79ED49*
G04*
G04*
G04 #@! TF.FilePolarity,Positive*
G04*
G01*
G75*
%ADD13R,0.0512X0.1161*%
%ADD14R,0.0630X0.0591*%
%ADD48R,0.0700X0.0700*%
%ADD49O,0.0700X0.0750*%
%ADD50R,0.0519X0.0519*%
%ADD51C,0.0519*%
%ADD52C,0.1100*%
%ADD53R,0.0827X0.0827*%
%ADD54C,0.0827*%
%ADD55C,0.0750*%
%ADD56R,0.0700X0.1330*%
%ADD57R,0.0700X0.1000*%
%ADD58O,0.0700X0.1000*%
%ADD59C,0.0602*%
%ADD60R,0.0602X0.0602*%
%ADD61C,0.0594*%
%ADD62R,0.0594X0.0594*%
%ADD63O,0.0436X0.0872*%
%ADD64C,0.0630*%
%ADD65R,0.0630X0.0630*%
%ADD66R,0.0591X0.0591*%
%ADD67C,0.0591*%
%ADD68R,0.0630X0.0630*%
%ADD69C,0.0480*%
%ADD70R,0.0476X0.0476*%
%ADD71C,0.0476*%
%ADD72C,0.0900*%
%ADD73O,0.0660X0.1000*%
D13*
X06575Y013641D02*
D03*
X06675D02*
D03*
X06775D02*
D03*
X06875D02*
D03*
Y032759D02*
D03*
X06775D02*
D03*
X06675D02*
D03*
X06575D02*
D03*
D14*
X07015Y011659D02*
D03*
Y012841D02*
D03*
D48*
X01015Y0331D02*
D03*
D49*
X00915D02*
D03*
D50*
X03335Y02825D02*
D03*
D51*
X03435D02*
D03*
X03535D02*
D03*
X03635D02*
D03*
X03735D02*
D03*
X03835D02*
D03*
X03935D02*
D03*
X04035D02*
D03*
X04135D02*
D03*
X04235D02*
D03*
X04335D02*
D03*
X04435D02*
D03*
Y025124D02*
D03*
X04335D02*
D03*
X04235D02*
D03*
X04135D02*
D03*
X04035D02*
D03*
X03935D02*
D03*
X03835D02*
D03*
X03735D02*
D03*
X03635D02*
D03*
X03535D02*
D03*
X03435D02*
D03*
X03335D02*
D03*
D52*
X068Y02605D02*
D03*
Y02805D02*
D03*
D53*
X02865Y027511D02*
D03*
X06325Y027628D02*
D03*
D54*
X02865Y028889D02*
D03*
X06325Y02625D02*
D03*
D55*
X01329Y03305D02*
D03*
X016Y03493D02*
D03*
Y03305D02*
D03*
X01329Y03493D02*
D03*
X01722Y03303D02*
D03*
X01993Y03491D02*
D03*
Y03303D02*
D03*
X01722Y03491D02*
D03*
D56*
X0325Y0108D02*
D03*
X0115D02*
D03*
X0315D02*
D03*
X0305D02*
D03*
X0275D02*
D03*
X0285D02*
D03*
X0265D02*
D03*
X0255D02*
D03*
X0245D02*
D03*
X0295D02*
D03*
X0235D02*
D03*
X0225D02*
D03*
X0205D02*
D03*
X0215D02*
D03*
X0195D02*
D03*
X0185D02*
D03*
X0175D02*
D03*
X0165D02*
D03*
X0155D02*
D03*
X0125D02*
D03*
X0325Y0225D02*
D03*
X0115D02*
D03*
X0215D02*
D03*
X0195D02*
D03*
X0125D02*
D03*
X0175D02*
D03*
X0185D02*
D03*
X0145D02*
D03*
X0155D02*
D03*
X0165D02*
D03*
X0285D02*
D03*
X0275D02*
D03*
X0205D02*
D03*
X0255D02*
D03*
X0265D02*
D03*
X0225D02*
D03*
X0235D02*
D03*
X0245D02*
D03*
X0305D02*
D03*
X0295D02*
D03*
X0315D02*
D03*
X0135Y0108D02*
D03*
X0145D02*
D03*
X0135Y0225D02*
D03*
D57*
X0417Y01205D02*
D03*
D58*
X0407D02*
D03*
X0397D02*
D03*
X0387D02*
D03*
X0377D02*
D03*
X0367D02*
D03*
X0357D02*
D03*
D59*
X06905Y02165D02*
D03*
Y011666D02*
D03*
X06805Y02165D02*
D03*
X06705D02*
D03*
X06605D02*
D03*
X06505D02*
D03*
X06405D02*
D03*
X06305D02*
D03*
X06205D02*
D03*
X06105D02*
D03*
X06005D02*
D03*
X05905D02*
D03*
X05805D02*
D03*
X05705D02*
D03*
X05605D02*
D03*
X05505D02*
D03*
X05405D02*
D03*
X05305D02*
D03*
X05205D02*
D03*
X05105D02*
D03*
X05005D02*
D03*
X04905D02*
D03*
X06805Y011666D02*
D03*
X06705D02*
D03*
X06605D02*
D03*
X06505D02*
D03*
X06405D02*
D03*
X06305D02*
D03*
X06205D02*
D03*
X06105D02*
D03*
X06005D02*
D03*
X05905D02*
D03*
X05805D02*
D03*
X05705D02*
D03*
X05605D02*
D03*
X05505D02*
D03*
X05405D02*
D03*
X05305D02*
D03*
X05105D02*
D03*
X05005D02*
D03*
X04905D02*
D03*
X04805D02*
D03*
X05205D02*
D03*
D60*
X04805Y02165D02*
D03*
D61*
X0213Y030663D02*
D03*
X0203D02*
D03*
X0193D02*
D03*
D62*
X0183D02*
D03*
D63*
X03055Y0186D02*
D03*
X03155D02*
D03*
X03255D02*
D03*
X03355D02*
D03*
X033549Y030614D02*
D03*
X032549D02*
D03*
X031549D02*
D03*
X030549D02*
D03*
X029549D02*
D03*
X02955Y0186D02*
D03*
X04005D02*
D03*
X04105D02*
D03*
X04205D02*
D03*
X04305D02*
D03*
X043049Y030614D02*
D03*
X042049D02*
D03*
X041049D02*
D03*
X040049D02*
D03*
X039049D02*
D03*
X03905Y0186D02*
D03*
X05155Y0306D02*
D03*
X05055D02*
D03*
X04955D02*
D03*
X04855D02*
D03*
X048551Y018586D02*
D03*
X049551D02*
D03*
X050551D02*
D03*
X051551D02*
D03*
X052551D02*
D03*
X05255Y0306D02*
D03*
X06205Y030614D02*
D03*
X062051Y0186D02*
D03*
X061051D02*
D03*
X060051D02*
D03*
X059051D02*
D03*
X058051D02*
D03*
X05805Y030614D02*
D03*
X05905D02*
D03*
X06005D02*
D03*
X06105D02*
D03*
D64*
X06295Y01355D02*
D03*
X05105Y0251D02*
D03*
X02525Y03305D02*
D03*
Y03205D02*
D03*
X0285Y03305D02*
D03*
Y03205D02*
D03*
X0445Y03315D02*
D03*
Y03215D02*
D03*
X0477Y03315D02*
D03*
Y03215D02*
D03*
D65*
X06395Y01355D02*
D03*
D66*
X010055Y0315D02*
D03*
D67*
X01005Y0285D02*
D03*
D68*
X05105Y0241D02*
D03*
X02525Y03405D02*
D03*
X0285D02*
D03*
X0445Y03415D02*
D03*
X0477D02*
D03*
D69*
X01635Y0288D02*
D03*
Y0298D02*
D03*
D70*
X0215Y029576D02*
D03*
D71*
X0225D02*
D03*
X0235D02*
D03*
X0245D02*
D03*
Y02645D02*
D03*
X0235D02*
D03*
X0225D02*
D03*
X0215D02*
D03*
D72*
X05385Y02565D02*
D03*
X05585D02*
D03*
D73*
X00985Y02545D02*
D03*
X00885D02*
D03*
X00785D02*
D03*
M02*
