G04*
G04 #@! TF.GenerationSoftware,Altium Limited,Altium Designer,21.9.2 (33)*
G04*
G04 Layer_Color=128*
%FSTAX24Y24*%
%MOIN*%
G70*
G04*
G04 #@! TF.SameCoordinates,7D792EBD-1CCB-4A66-8B02-D1F74A79ED49*
G04*
G04*
G04 #@! TF.FilePolarity,Positive*
G04*
G01*
G75*
%ADD92C,0.0020*%
D92*
X009953Y0331D02*
X010347D01*
X01015Y032903D02*
Y033297D01*
X008953Y0331D02*
X009347D01*
X00915Y032903D02*
Y033297D01*
X033191Y02825D02*
X033509D01*
X03335Y028091D02*
Y028409D01*
X034191Y02825D02*
X034509D01*
X03435Y028091D02*
Y028409D01*
X035191Y02825D02*
X035509D01*
X03535Y028091D02*
Y028409D01*
X036191Y02825D02*
X036509D01*
X03635Y028091D02*
Y028409D01*
X037191Y02825D02*
X037509D01*
X03735Y028091D02*
Y028409D01*
X038191Y02825D02*
X038509D01*
X03835Y028091D02*
Y028409D01*
X039191Y02825D02*
X039509D01*
X03935Y028091D02*
Y028409D01*
X040191Y02825D02*
X040509D01*
X04035Y028091D02*
Y028409D01*
X041191Y02825D02*
X041509D01*
X04135Y028091D02*
Y028409D01*
X042191Y02825D02*
X042509D01*
X04235Y028091D02*
Y028409D01*
X043191Y02825D02*
X043509D01*
X04335Y028091D02*
Y028409D01*
X044191Y02825D02*
X044509D01*
X04435Y028091D02*
Y028409D01*
X044191Y025124D02*
X044509D01*
X04435Y024965D02*
Y025283D01*
X043191Y025124D02*
X043509D01*
X04335Y024965D02*
Y025283D01*
X042191Y025124D02*
X042509D01*
X04235Y024965D02*
Y025283D01*
X041191Y025124D02*
X041509D01*
X04135Y024965D02*
Y025283D01*
X040191Y025124D02*
X040509D01*
X04035Y024965D02*
Y025283D01*
X039191Y025124D02*
X039509D01*
X03935Y024965D02*
Y025283D01*
X038191Y025124D02*
X038509D01*
X03835Y024965D02*
Y025283D01*
X037191Y025124D02*
X037509D01*
X03735Y024965D02*
Y025283D01*
X036191Y025124D02*
X036509D01*
X03635Y024965D02*
Y025283D01*
X035191Y025124D02*
X035509D01*
X03535Y024965D02*
Y025283D01*
X034191Y025124D02*
X034509D01*
X03435Y024965D02*
Y025283D01*
X033191Y025124D02*
X033509D01*
X03335Y024965D02*
Y025283D01*
X06775Y02605D02*
X06825D01*
X068Y0258D02*
Y0263D01*
X06775Y02805D02*
X06825D01*
X068Y0278D02*
Y0283D01*
X028473Y027511D02*
X028827D01*
X02865Y027334D02*
Y027688D01*
X028473Y028889D02*
X028827D01*
X02865Y028712D02*
Y029066D01*
X013135Y03305D02*
X013445D01*
X01329Y032895D02*
Y033205D01*
X015845Y03493D02*
X016155D01*
X016Y034775D02*
Y035085D01*
X015845Y03305D02*
X016155D01*
X016Y032895D02*
Y033205D01*
X013135Y03493D02*
X013445D01*
X01329Y034775D02*
Y035085D01*
X017065Y03303D02*
X017375D01*
X01722Y032875D02*
Y033185D01*
X019775Y03491D02*
X020085D01*
X01993Y034755D02*
Y035065D01*
X019775Y03303D02*
X020085D01*
X01993Y032875D02*
Y033185D01*
X017065Y03491D02*
X017375D01*
X01722Y034755D02*
Y035065D01*
X032275Y01115D02*
X032725D01*
X0325Y010925D02*
Y011375D01*
X011275Y01115D02*
X011725D01*
X0115Y010925D02*
Y011375D01*
X031275Y01115D02*
X031725D01*
X0315Y010925D02*
Y011375D01*
X030275Y01115D02*
X030725D01*
X0305Y010925D02*
Y011375D01*
X027275Y01115D02*
X027725D01*
X0275Y010925D02*
Y011375D01*
X028275Y01115D02*
X028725D01*
X0285Y010925D02*
Y011375D01*
X026275Y01115D02*
X026725D01*
X0265Y010925D02*
Y011375D01*
X025275Y01115D02*
X025725D01*
X0255Y010925D02*
Y011375D01*
X024275Y01115D02*
X024725D01*
X0245Y010925D02*
Y011375D01*
X029275Y01115D02*
X029725D01*
X0295Y010925D02*
Y011375D01*
X023275Y01115D02*
X023725D01*
X0235Y010925D02*
Y011375D01*
X022275Y01115D02*
X022725D01*
X0225Y010925D02*
Y011375D01*
X020275Y01115D02*
X020725D01*
X0205Y010925D02*
Y011375D01*
X021275Y01115D02*
X021725D01*
X0215Y010925D02*
Y011375D01*
X019275Y01115D02*
X019725D01*
X0195Y010925D02*
Y011375D01*
X018275Y01115D02*
X018725D01*
X0185Y010925D02*
Y011375D01*
X017275Y01115D02*
X017725D01*
X0175Y010925D02*
Y011375D01*
X016275Y01115D02*
X016725D01*
X0165Y010925D02*
Y011375D01*
X015275Y01115D02*
X015725D01*
X0155Y010925D02*
Y011375D01*
X012275Y01115D02*
X012725D01*
X0125Y010925D02*
Y011375D01*
X032275Y02215D02*
X032725D01*
X0325Y021925D02*
Y022375D01*
X011275Y02215D02*
X011725D01*
X0115Y021925D02*
Y022375D01*
X021275Y02215D02*
X021725D01*
X0215Y021925D02*
Y022375D01*
X019275Y02215D02*
X019725D01*
X0195Y021925D02*
Y022375D01*
X012275Y02215D02*
X012725D01*
X0125Y021925D02*
Y022375D01*
X017275Y02215D02*
X017725D01*
X0175Y021925D02*
Y022375D01*
X018275Y02215D02*
X018725D01*
X0185Y021925D02*
Y022375D01*
X014275Y02215D02*
X014725D01*
X0145Y021925D02*
Y022375D01*
X015275Y02215D02*
X015725D01*
X0155Y021925D02*
Y022375D01*
X016275Y02215D02*
X016725D01*
X0165Y021925D02*
Y022375D01*
X028275Y02215D02*
X028725D01*
X0285Y021925D02*
Y022375D01*
X027275Y02215D02*
X027725D01*
X0275Y021925D02*
Y022375D01*
X020275Y02215D02*
X020725D01*
X0205Y021925D02*
Y022375D01*
X025275Y02215D02*
X025725D01*
X0255Y021925D02*
Y022375D01*
X026275Y02215D02*
X026725D01*
X0265Y021925D02*
Y022375D01*
X022275Y02215D02*
X022725D01*
X0225Y021925D02*
Y022375D01*
X023275Y02215D02*
X023725D01*
X0235Y021925D02*
Y022375D01*
X024275Y02215D02*
X024725D01*
X0245Y021925D02*
Y022375D01*
X030275Y02215D02*
X030725D01*
X0305Y021925D02*
Y022375D01*
X029275Y02215D02*
X029725D01*
X0295Y021925D02*
Y022375D01*
X031275Y02215D02*
X031725D01*
X0315Y021925D02*
Y022375D01*
X013275Y01115D02*
X013725D01*
X0135Y010925D02*
Y011375D01*
X014275Y01115D02*
X014725D01*
X0145Y010925D02*
Y011375D01*
X013275Y02215D02*
X013725D01*
X0135Y021925D02*
Y022375D01*
X0415Y01205D02*
X0419D01*
X0417Y01185D02*
Y01225D01*
X0405Y01205D02*
X0409D01*
X0407Y01185D02*
Y01225D01*
X0395Y01205D02*
X0399D01*
X0397Y01185D02*
Y01225D01*
X0385Y01205D02*
X0389D01*
X0387Y01185D02*
Y01225D01*
X0375Y01205D02*
X0379D01*
X0377Y01185D02*
Y01225D01*
X0365Y01205D02*
X0369D01*
X0367Y01185D02*
Y01225D01*
X0355Y01205D02*
X0359D01*
X0357Y01185D02*
Y01225D01*
X068849Y02165D02*
X069251D01*
X06905Y021449D02*
Y021851D01*
X068849Y011666D02*
X069251D01*
X06905Y011465D02*
Y011867D01*
X067849Y02165D02*
X068251D01*
X06805Y021449D02*
Y021851D01*
X066849Y02165D02*
X067251D01*
X06705Y021449D02*
Y021851D01*
X065849Y02165D02*
X066251D01*
X06605Y021449D02*
Y021851D01*
X064849Y02165D02*
X065251D01*
X06505Y021449D02*
Y021851D01*
X063849Y02165D02*
X064251D01*
X06405Y021449D02*
Y021851D01*
X062849Y02165D02*
X063251D01*
X06305Y021449D02*
Y021851D01*
X061849Y02165D02*
X062251D01*
X06205Y021449D02*
Y021851D01*
X060849Y02165D02*
X061251D01*
X06105Y021449D02*
Y021851D01*
X059849Y02165D02*
X060251D01*
X06005Y021449D02*
Y021851D01*
X058849Y02165D02*
X059251D01*
X05905Y021449D02*
Y021851D01*
X057849Y02165D02*
X058251D01*
X05805Y021449D02*
Y021851D01*
X056849Y02165D02*
X057251D01*
X05705Y021449D02*
Y021851D01*
X055849Y02165D02*
X056251D01*
X05605Y021449D02*
Y021851D01*
X054849Y02165D02*
X055251D01*
X05505Y021449D02*
Y021851D01*
X053849Y02165D02*
X054251D01*
X05405Y021449D02*
Y021851D01*
X052849Y02165D02*
X053251D01*
X05305Y021449D02*
Y021851D01*
X051849Y02165D02*
X052251D01*
X05205Y021449D02*
Y021851D01*
X050849Y02165D02*
X051251D01*
X05105Y021449D02*
Y021851D01*
X049849Y02165D02*
X050251D01*
X05005Y021449D02*
Y021851D01*
X048849Y02165D02*
X049251D01*
X04905Y021449D02*
Y021851D01*
X047849Y02165D02*
X048251D01*
X04805Y021449D02*
Y021851D01*
X067849Y011666D02*
X068251D01*
X06805Y011465D02*
Y011867D01*
X066849Y011666D02*
X067251D01*
X06705Y011465D02*
Y011867D01*
X065849Y011666D02*
X066251D01*
X06605Y011465D02*
Y011867D01*
X064849Y011666D02*
X065251D01*
X06505Y011465D02*
Y011867D01*
X063849Y011666D02*
X064251D01*
X06405Y011465D02*
Y011867D01*
X062849Y011666D02*
X063251D01*
X06305Y011465D02*
Y011867D01*
X061849Y011666D02*
X062251D01*
X06205Y011465D02*
Y011867D01*
X060849Y011666D02*
X061251D01*
X06105Y011465D02*
Y011867D01*
X059849Y011666D02*
X060251D01*
X06005Y011465D02*
Y011867D01*
X058849Y011666D02*
X059251D01*
X05905Y011465D02*
Y011867D01*
X057849Y011666D02*
X058251D01*
X05805Y011465D02*
Y011867D01*
X056849Y011666D02*
X057251D01*
X05705Y011465D02*
Y011867D01*
X055849Y011666D02*
X056251D01*
X05605Y011465D02*
Y011867D01*
X054849Y011666D02*
X055251D01*
X05505Y011465D02*
Y011867D01*
X053849Y011666D02*
X054251D01*
X05405Y011465D02*
Y011867D01*
X052849Y011666D02*
X053251D01*
X05305Y011465D02*
Y011867D01*
X050849Y011666D02*
X051251D01*
X05105Y011465D02*
Y011867D01*
X049849Y011666D02*
X050251D01*
X05005Y011465D02*
Y011867D01*
X048849Y011666D02*
X049251D01*
X04905Y011465D02*
Y011867D01*
X047849Y011666D02*
X048251D01*
X04805Y011465D02*
Y011867D01*
X051849Y011666D02*
X052251D01*
X05205Y011465D02*
Y011867D01*
X021103Y030663D02*
X021497D01*
X0213Y030466D02*
Y03086D01*
X020103Y030663D02*
X020497D01*
X0203Y030466D02*
Y03086D01*
X019103Y030663D02*
X019497D01*
X0193Y030466D02*
Y03086D01*
X018103Y030663D02*
X018497D01*
X0183Y030466D02*
Y03086D01*
X030432Y0186D02*
X030668D01*
X03055Y018482D02*
Y018718D01*
X031432Y0186D02*
X031668D01*
X03155Y018482D02*
Y018718D01*
X032432Y0186D02*
X032668D01*
X03255Y018482D02*
Y018718D01*
X033432Y0186D02*
X033668D01*
X03355Y018482D02*
Y018718D01*
X033431Y030614D02*
X033667D01*
X033549Y030496D02*
Y030732D01*
X032431Y030614D02*
X032667D01*
X032549Y030496D02*
Y030732D01*
X031431Y030614D02*
X031667D01*
X031549Y030496D02*
Y030732D01*
X030431Y030614D02*
X030667D01*
X030549Y030496D02*
Y030732D01*
X029431Y030614D02*
X029667D01*
X029549Y030496D02*
Y030732D01*
X029432Y0186D02*
X029668D01*
X02955Y018482D02*
Y018718D01*
X039932Y0186D02*
X040168D01*
X04005Y018482D02*
Y018718D01*
X040932Y0186D02*
X041168D01*
X04105Y018482D02*
Y018718D01*
X041932Y0186D02*
X042168D01*
X04205Y018482D02*
Y018718D01*
X042932Y0186D02*
X043168D01*
X04305Y018482D02*
Y018718D01*
X042931Y030614D02*
X043167D01*
X043049Y030496D02*
Y030732D01*
X041931Y030614D02*
X042167D01*
X042049Y030496D02*
Y030732D01*
X040931Y030614D02*
X041167D01*
X041049Y030496D02*
Y030732D01*
X039931Y030614D02*
X040167D01*
X040049Y030496D02*
Y030732D01*
X038931Y030614D02*
X039167D01*
X039049Y030496D02*
Y030732D01*
X038932Y0186D02*
X039168D01*
X03905Y018482D02*
Y018718D01*
X051432Y0306D02*
X051668D01*
X05155Y030482D02*
Y030718D01*
X050432Y0306D02*
X050668D01*
X05055Y030482D02*
Y030718D01*
X049432Y0306D02*
X049668D01*
X04955Y030482D02*
Y030718D01*
X048432Y0306D02*
X048668D01*
X04855Y030482D02*
Y030718D01*
X048433Y018586D02*
X048669D01*
X048551Y018468D02*
Y018704D01*
X049433Y018586D02*
X049669D01*
X049551Y018468D02*
Y018704D01*
X050433Y018586D02*
X050669D01*
X050551Y018468D02*
Y018704D01*
X051433Y018586D02*
X051669D01*
X051551Y018468D02*
Y018704D01*
X052433Y018586D02*
X052669D01*
X052551Y018468D02*
Y018704D01*
X052432Y0306D02*
X052668D01*
X05255Y030482D02*
Y030718D01*
X061932Y030614D02*
X062168D01*
X06205Y030496D02*
Y030732D01*
X061933Y0186D02*
X062169D01*
X062051Y018482D02*
Y018718D01*
X060933Y0186D02*
X061169D01*
X061051Y018482D02*
Y018718D01*
X059933Y0186D02*
X060169D01*
X060051Y018482D02*
Y018718D01*
X058933Y0186D02*
X059169D01*
X059051Y018482D02*
Y018718D01*
X057933Y0186D02*
X058169D01*
X058051Y018482D02*
Y018718D01*
X057932Y030614D02*
X058168D01*
X05805Y030496D02*
Y030732D01*
X058932Y030614D02*
X059168D01*
X05905Y030496D02*
Y030732D01*
X059932Y030614D02*
X060168D01*
X06005Y030496D02*
Y030732D01*
X060932Y030614D02*
X061168D01*
X06105Y030496D02*
Y030732D01*
X062793Y01355D02*
X063107D01*
X06295Y013393D02*
Y013707D01*
X063793Y01355D02*
X064107D01*
X06395Y013393D02*
Y013707D01*
X009898Y0315D02*
X010212D01*
X010055Y031343D02*
Y031657D01*
X009893Y0285D02*
X010207D01*
X01005Y028343D02*
Y028657D01*
X050893Y0241D02*
X051207D01*
X05105Y023943D02*
Y024257D01*
X050893Y0251D02*
X051207D01*
X05105Y024943D02*
Y025257D01*
X025033Y03405D02*
X025467D01*
X02525Y033833D02*
Y034267D01*
X025033Y03305D02*
X025467D01*
X02525Y032833D02*
Y033267D01*
X025033Y03205D02*
X025467D01*
X02525Y031833D02*
Y032267D01*
X028283Y03405D02*
X028717D01*
X0285Y033833D02*
Y034267D01*
X028283Y03305D02*
X028717D01*
X0285Y032833D02*
Y033267D01*
X028283Y03205D02*
X028717D01*
X0285Y031833D02*
Y032267D01*
X044283Y03415D02*
X044717D01*
X0445Y033933D02*
Y034367D01*
X044283Y03315D02*
X044717D01*
X0445Y032933D02*
Y033367D01*
X044283Y03215D02*
X044717D01*
X0445Y031933D02*
Y032367D01*
X047483Y03415D02*
X047917D01*
X0477Y033933D02*
Y034367D01*
X047483Y03315D02*
X047917D01*
X0477Y032933D02*
Y033367D01*
X047483Y03215D02*
X047917D01*
X0477Y031933D02*
Y032367D01*
X063073Y02625D02*
X063427D01*
X06325Y026073D02*
Y026427D01*
X063073Y027628D02*
X063427D01*
X06325Y027451D02*
Y027805D01*
X01621Y0288D02*
X01649D01*
X01635Y02866D02*
Y02894D01*
X01621Y0298D02*
X01649D01*
X01635Y02966D02*
Y02994D01*
X021331Y029576D02*
X021669D01*
X0215Y029407D02*
Y029745D01*
X022331Y029576D02*
X022669D01*
X0225Y029407D02*
Y029745D01*
X023331Y029576D02*
X023669D01*
X0235Y029407D02*
Y029745D01*
X024331Y029576D02*
X024669D01*
X0245Y029407D02*
Y029745D01*
X024331Y02645D02*
X024669D01*
X0245Y026281D02*
Y026619D01*
X023331Y02645D02*
X023669D01*
X0235Y026281D02*
Y026619D01*
X022331Y02645D02*
X022669D01*
X0225Y026281D02*
Y026619D01*
X021331Y02645D02*
X021669D01*
X0215Y026281D02*
Y026619D01*
X0536Y02565D02*
X0541D01*
X05385Y0254D02*
Y0259D01*
X0556Y02565D02*
X0561D01*
X05585Y0254D02*
Y0259D01*
X00969Y02545D02*
X01001D01*
X00985Y02529D02*
Y02561D01*
X00869Y02545D02*
X00901D01*
X00885Y02529D02*
Y02561D01*
X00769Y02545D02*
X00801D01*
X00785Y02529D02*
Y02561D01*
X0575Y0333D02*
X0577D01*
X0576Y0332D02*
Y0334D01*
X06945Y03485D02*
X06965D01*
X06955Y03475D02*
Y03495D01*
X0517Y02645D02*
X0519D01*
X0518Y02635D02*
Y02655D01*
X0259Y0097D02*
X0261D01*
X026Y0096D02*
Y0098D01*
X0117Y0322D02*
X012D01*
X01185Y03205D02*
Y03235D01*
X02705Y0127D02*
X02735D01*
X0272Y01255D02*
Y01285D01*
X0293Y01425D02*
X0295D01*
X0294Y01415D02*
Y01435D01*
X01825Y027D02*
X01855D01*
X0184Y02685D02*
Y02715D01*
X06595Y01505D02*
X06625D01*
X0661Y0149D02*
Y0152D01*
X0673Y01635D02*
X0676D01*
X06745Y0162D02*
Y0165D01*
X04095Y03545D02*
X04115D01*
X04105Y03535D02*
Y03555D01*
X04865Y0142D02*
X04885D01*
X04875Y0141D02*
Y0143D01*
X0486Y01335D02*
X0488D01*
X0487Y01325D02*
Y01345D01*
X05Y0281D02*
X0502D01*
X0501Y028D02*
Y0282D01*
X0327Y0269D02*
X0329D01*
X0328Y0268D02*
Y027D01*
X0154Y02625D02*
X0156D01*
X0155Y02615D02*
Y02635D01*
X0478Y0259D02*
X048D01*
X0479Y0258D02*
Y026D01*
X04905Y02655D02*
X04925D01*
X04915Y02645D02*
Y02665D01*
X0587Y01655D02*
X0589D01*
X0588Y01645D02*
Y01665D01*
X06075Y01705D02*
X06095D01*
X06085Y01695D02*
Y01715D01*
X05775Y01605D02*
X05795D01*
X05785Y01595D02*
Y01615D01*
X0386Y03315D02*
X0388D01*
X0387Y03305D02*
Y03325D01*
X0398Y03265D02*
X04D01*
X0399Y03255D02*
Y03275D01*
X0417Y0322D02*
X0419D01*
X0418Y0321D02*
Y0323D01*
X0587Y0327D02*
X0589D01*
X0588Y0326D02*
Y0328D01*
X0607Y0322D02*
X0609D01*
X0608Y0321D02*
Y0323D01*
X0417Y017D02*
X0419D01*
X0418Y0169D02*
Y0171D01*
X03975Y0165D02*
X03995D01*
X03985Y0164D02*
Y0166D01*
X03875Y01595D02*
X03895D01*
X03885Y01585D02*
Y01605D01*
M02*
