M48
;Layer_Color=9474304
;FILE_FORMAT=2:4
INCH,LZ
;TYPE=PLATED
T1F00S00C0.0200
T2F00S00C0.0236
T3F00S00C0.0280
T4F00S00C0.0300
T5F00S00C0.0310
T6F00S00C0.0315
T7F00S00C0.0319
T8F00S00C0.0320
T9F00S00C0.0339
T10F00S00C0.0354
T11F00S00C0.0394
T12F00S00C0.0400
T13F00S00C0.0402
T14F00S00C0.0433
T15F00S00C0.0450
T16F00S00C0.0500
;TYPE=NON_PLATED
T17F00S00C0.0394
%
T01
X026Y0097
X0294Y01425
X04875Y0142
X0487Y01335
X05785Y01605
X0588Y01655
X06085Y01705
X0518Y02645
X04915Y02655
X0479Y0259
X0501Y0281
X0328Y0269
X03885Y01595
X03985Y0165
X0418Y017
X0155Y02625
X0387Y03315
X0399Y03265
X0418Y0322
X04105Y03545
X0576Y0333
X0588Y0327
X0608Y0322
X06955Y03485
T02
X048551Y018586
X049551
X050551
X051551
X052551
X058051Y0186
X059051
X060051
X061051
X062051
X06205Y030614
X06105
X06005
X05905
X05805
X05255Y0306
X05155
X05055
X04955
X04855
X043049Y030614
X042049
X041049
X040049
X039049
X033549
X032549
X031549
X03155Y0186
X03255
X03355
X03905
X04005
X04105
X04205
X04305
X03055
X02955
X029549Y030614
X030549
T03
X01635Y0288
Y0298
T04
X0272Y0127
X0661Y01505
X06745Y01635
X0184Y027
X01185Y0322
T05
X01329Y03305
Y03493
X016
X01722Y03491
Y03303
X016Y03305
X01993Y03303
Y03491
T06
X06295Y01355
X06395
X05105Y0241
Y0251
X01005Y0285
X010055Y0315
T07
X03335Y025124
X03435
X03535
X03635
X03735
X03835
X03935
X04035
X04135
X04235
X04335
X04435
Y02825
X04335
X04235
X04135
X04035
X03935
X03835
X03735
X03635
X03535
X03435
X03335
T08
X00785Y02545
X00885
X00985
T09
X0215Y02645
X0225
X0235
X0245
Y029576
X0235
X0225
X0215
T10
X06325Y02625
Y027628
X02865Y027511
Y028889
T11
X0183Y030663
X0193
X0203
X0213
T12
X0357Y01205
X0367
X0377
X0387
X0397
X0407
X0417
T13
X04805Y011666
X04905
X05005
X05105
X05205
X05305
X05405
X05505
X05605
X05705
X05805
X05905
X06005
X06105
X06205
X06305
X06405
X06505
X06605
X06705
X06805
X06905
Y02165
X06805
X06705
X06605
X06505
X06405
X06305
X06205
X06105
X06005
X05905
X05805
X05705
X05605
X05505
X05405
X05305
X05205
X05105
X05005
X04905
X04805
T14
X02525Y03205
Y03305
Y03405
X0285
Y03305
Y03205
X0445Y03215
Y03315
Y03415
X0477
Y03315
Y03215
T15
X0115Y01115
X0125
X0135
X0145
X0155
X0165
X0175
X0185
X0195
X0205
X0215
X0225
X0235
X0245
X0255
X0265
X0275
X0285
X0295
X0305
X0315
X0325
Y02215
X0315
X0305
X0295
X0285
X0275
X0265
X0255
X0245
X0235
X0225
X0215
X0205
X0195
X0185
X0175
X0165
X0155
X0145
X0135
X0125
X0115
T16
X068Y02605
Y02805
X05585Y02565
X05385
T17
X00915Y0331
X01015
M30
