G04*
G04 #@! TF.GenerationSoftware,Altium Limited,Altium Designer,21.9.2 (33)*
G04*
G04 Layer_Color=2752767*
%FSTAX24Y24*%
%MOIN*%
G70*
G04*
G04 #@! TF.SameCoordinates,7D792EBD-1CCB-4A66-8B02-D1F74A79ED49*
G04*
G04*
G04 #@! TF.FilePolarity,Positive*
G04*
G01*
G75*
%ADD92C,0.0020*%
%ADD93C,0.0027*%
%ADD94C,0.0013*%
D92*
X01007Y03302D02*
Y03318D01*
X01023D01*
Y03302D01*
X01007D01*
X00907D02*
Y03318D01*
X00923D01*
Y03302D01*
X00907D01*
X068Y02597D02*
X06792Y02613D01*
X06808D01*
X068Y02597D01*
Y02797D02*
X06792Y02813D01*
X06808D01*
X068Y02797D01*
X02865Y027431D02*
X02869Y027471D01*
X02873D01*
X02869Y027511D01*
X02873Y027551D01*
X02869D01*
X02865Y027591D01*
X02861Y027551D01*
X02857D01*
X02861Y027511D01*
X02857Y027471D01*
X02861D01*
X02865Y027431D01*
Y028809D02*
X02869Y028849D01*
X02873D01*
X02869Y028889D01*
X02873Y028929D01*
X02869D01*
X02865Y028969D01*
X02861Y028929D01*
X02857D01*
X02861Y028889D01*
X02857Y028849D01*
X02861D01*
X02865Y028809D01*
X01321Y03297D02*
X01325Y03305D01*
X01321Y03313D01*
X01329Y03309D01*
X01337Y03313D01*
X01333Y03305D01*
X01337Y03297D01*
X01329Y03301D01*
X01321Y03297D01*
X01592Y03485D02*
X01596Y03493D01*
X01592Y03501D01*
X016Y03497D01*
X01608Y03501D01*
X01604Y03493D01*
X01608Y03485D01*
X016Y03489D01*
X01592Y03485D01*
Y03297D02*
X01596Y03305D01*
X01592Y03313D01*
X016Y03309D01*
X01608Y03313D01*
X01604Y03305D01*
X01608Y03297D01*
X016Y03301D01*
X01592Y03297D01*
X01321Y03485D02*
X01325Y03493D01*
X01321Y03501D01*
X01329Y03497D01*
X01337Y03501D01*
X01333Y03493D01*
X01337Y03485D01*
X01329Y03489D01*
X01321Y03485D01*
X01714Y03295D02*
X01718Y03303D01*
X01714Y03311D01*
X01722Y03307D01*
X0173Y03311D01*
X01726Y03303D01*
X0173Y03295D01*
X01722Y03299D01*
X01714Y03295D01*
X01985Y03483D02*
X01989Y03491D01*
X01985Y03499D01*
X01993Y03495D01*
X02001Y03499D01*
X01997Y03491D01*
X02001Y03483D01*
X01993Y03487D01*
X01985Y03483D01*
Y03295D02*
X01989Y03303D01*
X01985Y03311D01*
X01993Y03307D01*
X02001Y03311D01*
X01997Y03303D01*
X02001Y03295D01*
X01993Y03299D01*
X01985Y03295D01*
X01714Y03483D02*
X01718Y03491D01*
X01714Y03499D01*
X01722Y03495D01*
X0173Y03499D01*
X01726Y03491D01*
X0173Y03483D01*
X01722Y03487D01*
X01714Y03483D01*
X03246Y01111D02*
Y01107D01*
X03254D01*
Y01111D01*
X03258D01*
Y01119D01*
X03254D01*
Y01123D01*
X03246D01*
Y01119D01*
X03242D01*
Y01111D01*
X03246D01*
X01146D02*
Y01107D01*
X01154D01*
Y01111D01*
X01158D01*
Y01119D01*
X01154D01*
Y01123D01*
X01146D01*
Y01119D01*
X01142D01*
Y01111D01*
X01146D01*
X03146D02*
Y01107D01*
X03154D01*
Y01111D01*
X03158D01*
Y01119D01*
X03154D01*
Y01123D01*
X03146D01*
Y01119D01*
X03142D01*
Y01111D01*
X03146D01*
X03046D02*
Y01107D01*
X03054D01*
Y01111D01*
X03058D01*
Y01119D01*
X03054D01*
Y01123D01*
X03046D01*
Y01119D01*
X03042D01*
Y01111D01*
X03046D01*
X02746D02*
Y01107D01*
X02754D01*
Y01111D01*
X02758D01*
Y01119D01*
X02754D01*
Y01123D01*
X02746D01*
Y01119D01*
X02742D01*
Y01111D01*
X02746D01*
X02846D02*
Y01107D01*
X02854D01*
Y01111D01*
X02858D01*
Y01119D01*
X02854D01*
Y01123D01*
X02846D01*
Y01119D01*
X02842D01*
Y01111D01*
X02846D01*
X02646D02*
Y01107D01*
X02654D01*
Y01111D01*
X02658D01*
Y01119D01*
X02654D01*
Y01123D01*
X02646D01*
Y01119D01*
X02642D01*
Y01111D01*
X02646D01*
X02546D02*
Y01107D01*
X02554D01*
Y01111D01*
X02558D01*
Y01119D01*
X02554D01*
Y01123D01*
X02546D01*
Y01119D01*
X02542D01*
Y01111D01*
X02546D01*
X02446D02*
Y01107D01*
X02454D01*
Y01111D01*
X02458D01*
Y01119D01*
X02454D01*
Y01123D01*
X02446D01*
Y01119D01*
X02442D01*
Y01111D01*
X02446D01*
X02946D02*
Y01107D01*
X02954D01*
Y01111D01*
X02958D01*
Y01119D01*
X02954D01*
Y01123D01*
X02946D01*
Y01119D01*
X02942D01*
Y01111D01*
X02946D01*
X02346D02*
Y01107D01*
X02354D01*
Y01111D01*
X02358D01*
Y01119D01*
X02354D01*
Y01123D01*
X02346D01*
Y01119D01*
X02342D01*
Y01111D01*
X02346D01*
X02246D02*
Y01107D01*
X02254D01*
Y01111D01*
X02258D01*
Y01119D01*
X02254D01*
Y01123D01*
X02246D01*
Y01119D01*
X02242D01*
Y01111D01*
X02246D01*
X02046D02*
Y01107D01*
X02054D01*
Y01111D01*
X02058D01*
Y01119D01*
X02054D01*
Y01123D01*
X02046D01*
Y01119D01*
X02042D01*
Y01111D01*
X02046D01*
X02146D02*
Y01107D01*
X02154D01*
Y01111D01*
X02158D01*
Y01119D01*
X02154D01*
Y01123D01*
X02146D01*
Y01119D01*
X02142D01*
Y01111D01*
X02146D01*
X01946D02*
Y01107D01*
X01954D01*
Y01111D01*
X01958D01*
Y01119D01*
X01954D01*
Y01123D01*
X01946D01*
Y01119D01*
X01942D01*
Y01111D01*
X01946D01*
X01846D02*
Y01107D01*
X01854D01*
Y01111D01*
X01858D01*
Y01119D01*
X01854D01*
Y01123D01*
X01846D01*
Y01119D01*
X01842D01*
Y01111D01*
X01846D01*
X01746D02*
Y01107D01*
X01754D01*
Y01111D01*
X01758D01*
Y01119D01*
X01754D01*
Y01123D01*
X01746D01*
Y01119D01*
X01742D01*
Y01111D01*
X01746D01*
X01646D02*
Y01107D01*
X01654D01*
Y01111D01*
X01658D01*
Y01119D01*
X01654D01*
Y01123D01*
X01646D01*
Y01119D01*
X01642D01*
Y01111D01*
X01646D01*
X01546D02*
Y01107D01*
X01554D01*
Y01111D01*
X01558D01*
Y01119D01*
X01554D01*
Y01123D01*
X01546D01*
Y01119D01*
X01542D01*
Y01111D01*
X01546D01*
X01246D02*
Y01107D01*
X01254D01*
Y01111D01*
X01258D01*
Y01119D01*
X01254D01*
Y01123D01*
X01246D01*
Y01119D01*
X01242D01*
Y01111D01*
X01246D01*
X03246Y02211D02*
Y02207D01*
X03254D01*
Y02211D01*
X03258D01*
Y02219D01*
X03254D01*
Y02223D01*
X03246D01*
Y02219D01*
X03242D01*
Y02211D01*
X03246D01*
X01146D02*
Y02207D01*
X01154D01*
Y02211D01*
X01158D01*
Y02219D01*
X01154D01*
Y02223D01*
X01146D01*
Y02219D01*
X01142D01*
Y02211D01*
X01146D01*
X02146D02*
Y02207D01*
X02154D01*
Y02211D01*
X02158D01*
Y02219D01*
X02154D01*
Y02223D01*
X02146D01*
Y02219D01*
X02142D01*
Y02211D01*
X02146D01*
X01946D02*
Y02207D01*
X01954D01*
Y02211D01*
X01958D01*
Y02219D01*
X01954D01*
Y02223D01*
X01946D01*
Y02219D01*
X01942D01*
Y02211D01*
X01946D01*
X01246D02*
Y02207D01*
X01254D01*
Y02211D01*
X01258D01*
Y02219D01*
X01254D01*
Y02223D01*
X01246D01*
Y02219D01*
X01242D01*
Y02211D01*
X01246D01*
X01746D02*
Y02207D01*
X01754D01*
Y02211D01*
X01758D01*
Y02219D01*
X01754D01*
Y02223D01*
X01746D01*
Y02219D01*
X01742D01*
Y02211D01*
X01746D01*
X01846D02*
Y02207D01*
X01854D01*
Y02211D01*
X01858D01*
Y02219D01*
X01854D01*
Y02223D01*
X01846D01*
Y02219D01*
X01842D01*
Y02211D01*
X01846D01*
X01446D02*
Y02207D01*
X01454D01*
Y02211D01*
X01458D01*
Y02219D01*
X01454D01*
Y02223D01*
X01446D01*
Y02219D01*
X01442D01*
Y02211D01*
X01446D01*
X01546D02*
Y02207D01*
X01554D01*
Y02211D01*
X01558D01*
Y02219D01*
X01554D01*
Y02223D01*
X01546D01*
Y02219D01*
X01542D01*
Y02211D01*
X01546D01*
X01646D02*
Y02207D01*
X01654D01*
Y02211D01*
X01658D01*
Y02219D01*
X01654D01*
Y02223D01*
X01646D01*
Y02219D01*
X01642D01*
Y02211D01*
X01646D01*
X02846D02*
Y02207D01*
X02854D01*
Y02211D01*
X02858D01*
Y02219D01*
X02854D01*
Y02223D01*
X02846D01*
Y02219D01*
X02842D01*
Y02211D01*
X02846D01*
X02746D02*
Y02207D01*
X02754D01*
Y02211D01*
X02758D01*
Y02219D01*
X02754D01*
Y02223D01*
X02746D01*
Y02219D01*
X02742D01*
Y02211D01*
X02746D01*
X02046D02*
Y02207D01*
X02054D01*
Y02211D01*
X02058D01*
Y02219D01*
X02054D01*
Y02223D01*
X02046D01*
Y02219D01*
X02042D01*
Y02211D01*
X02046D01*
X02546D02*
Y02207D01*
X02554D01*
Y02211D01*
X02558D01*
Y02219D01*
X02554D01*
Y02223D01*
X02546D01*
Y02219D01*
X02542D01*
Y02211D01*
X02546D01*
X02646D02*
Y02207D01*
X02654D01*
Y02211D01*
X02658D01*
Y02219D01*
X02654D01*
Y02223D01*
X02646D01*
Y02219D01*
X02642D01*
Y02211D01*
X02646D01*
X02246D02*
Y02207D01*
X02254D01*
Y02211D01*
X02258D01*
Y02219D01*
X02254D01*
Y02223D01*
X02246D01*
Y02219D01*
X02242D01*
Y02211D01*
X02246D01*
X02346D02*
Y02207D01*
X02354D01*
Y02211D01*
X02358D01*
Y02219D01*
X02354D01*
Y02223D01*
X02346D01*
Y02219D01*
X02342D01*
Y02211D01*
X02346D01*
X02446D02*
Y02207D01*
X02454D01*
Y02211D01*
X02458D01*
Y02219D01*
X02454D01*
Y02223D01*
X02446D01*
Y02219D01*
X02442D01*
Y02211D01*
X02446D01*
X03046D02*
Y02207D01*
X03054D01*
Y02211D01*
X03058D01*
Y02219D01*
X03054D01*
Y02223D01*
X03046D01*
Y02219D01*
X03042D01*
Y02211D01*
X03046D01*
X02946D02*
Y02207D01*
X02954D01*
Y02211D01*
X02958D01*
Y02219D01*
X02954D01*
Y02223D01*
X02946D01*
Y02219D01*
X02942D01*
Y02211D01*
X02946D01*
X03146D02*
Y02207D01*
X03154D01*
Y02211D01*
X03158D01*
Y02219D01*
X03154D01*
Y02223D01*
X03146D01*
Y02219D01*
X03142D01*
Y02211D01*
X03146D01*
X01346Y01111D02*
Y01107D01*
X01354D01*
Y01111D01*
X01358D01*
Y01119D01*
X01354D01*
Y01123D01*
X01346D01*
Y01119D01*
X01342D01*
Y01111D01*
X01346D01*
X01446D02*
Y01107D01*
X01454D01*
Y01111D01*
X01458D01*
Y01119D01*
X01454D01*
Y01123D01*
X01446D01*
Y01119D01*
X01442D01*
Y01111D01*
X01446D01*
X01346Y02211D02*
Y02207D01*
X01354D01*
Y02211D01*
X01358D01*
Y02219D01*
X01354D01*
Y02223D01*
X01346D01*
Y02219D01*
X01342D01*
Y02211D01*
X01346D01*
X04162Y01197D02*
X04166D01*
X0417Y01201D01*
X04174Y01197D01*
X04178D01*
Y01201D01*
X04174Y01205D01*
X04178Y01209D01*
Y01213D01*
X04174D01*
X0417Y01209D01*
X04166Y01213D01*
X04162D01*
Y01209D01*
X04166Y01205D01*
X04162Y01201D01*
Y01197D01*
X04062D02*
X04066D01*
X0407Y01201D01*
X04074Y01197D01*
X04078D01*
Y01201D01*
X04074Y01205D01*
X04078Y01209D01*
Y01213D01*
X04074D01*
X0407Y01209D01*
X04066Y01213D01*
X04062D01*
Y01209D01*
X04066Y01205D01*
X04062Y01201D01*
Y01197D01*
X03962D02*
X03966D01*
X0397Y01201D01*
X03974Y01197D01*
X03978D01*
Y01201D01*
X03974Y01205D01*
X03978Y01209D01*
Y01213D01*
X03974D01*
X0397Y01209D01*
X03966Y01213D01*
X03962D01*
Y01209D01*
X03966Y01205D01*
X03962Y01201D01*
Y01197D01*
X03862D02*
X03866D01*
X0387Y01201D01*
X03874Y01197D01*
X03878D01*
Y01201D01*
X03874Y01205D01*
X03878Y01209D01*
Y01213D01*
X03874D01*
X0387Y01209D01*
X03866Y01213D01*
X03862D01*
Y01209D01*
X03866Y01205D01*
X03862Y01201D01*
Y01197D01*
X03762D02*
X03766D01*
X0377Y01201D01*
X03774Y01197D01*
X03778D01*
Y01201D01*
X03774Y01205D01*
X03778Y01209D01*
Y01213D01*
X03774D01*
X0377Y01209D01*
X03766Y01213D01*
X03762D01*
Y01209D01*
X03766Y01205D01*
X03762Y01201D01*
Y01197D01*
X03662D02*
X03666D01*
X0367Y01201D01*
X03674Y01197D01*
X03678D01*
Y01201D01*
X03674Y01205D01*
X03678Y01209D01*
Y01213D01*
X03674D01*
X0367Y01209D01*
X03666Y01213D01*
X03662D01*
Y01209D01*
X03666Y01205D01*
X03662Y01201D01*
Y01197D01*
X03562D02*
X03566D01*
X0357Y01201D01*
X03574Y01197D01*
X03578D01*
Y01201D01*
X03574Y01205D01*
X03578Y01209D01*
Y01213D01*
X03574D01*
X0357Y01209D01*
X03566Y01213D01*
X03562D01*
Y01209D01*
X03566Y01205D01*
X03562Y01201D01*
Y01197D01*
X06897Y02165D02*
X06905Y02173D01*
X06913Y02165D01*
X06905Y02157D01*
X06897Y02165D01*
Y011666D02*
X06905Y011746D01*
X06913Y011666D01*
X06905Y011586D01*
X06897Y011666D01*
X06797Y02165D02*
X06805Y02173D01*
X06813Y02165D01*
X06805Y02157D01*
X06797Y02165D01*
X06697D02*
X06705Y02173D01*
X06713Y02165D01*
X06705Y02157D01*
X06697Y02165D01*
X06597D02*
X06605Y02173D01*
X06613Y02165D01*
X06605Y02157D01*
X06597Y02165D01*
X06497D02*
X06505Y02173D01*
X06513Y02165D01*
X06505Y02157D01*
X06497Y02165D01*
X06397D02*
X06405Y02173D01*
X06413Y02165D01*
X06405Y02157D01*
X06397Y02165D01*
X06297D02*
X06305Y02173D01*
X06313Y02165D01*
X06305Y02157D01*
X06297Y02165D01*
X06197D02*
X06205Y02173D01*
X06213Y02165D01*
X06205Y02157D01*
X06197Y02165D01*
X06097D02*
X06105Y02173D01*
X06113Y02165D01*
X06105Y02157D01*
X06097Y02165D01*
X05997D02*
X06005Y02173D01*
X06013Y02165D01*
X06005Y02157D01*
X05997Y02165D01*
X05897D02*
X05905Y02173D01*
X05913Y02165D01*
X05905Y02157D01*
X05897Y02165D01*
X05797D02*
X05805Y02173D01*
X05813Y02165D01*
X05805Y02157D01*
X05797Y02165D01*
X05697D02*
X05705Y02173D01*
X05713Y02165D01*
X05705Y02157D01*
X05697Y02165D01*
X05597D02*
X05605Y02173D01*
X05613Y02165D01*
X05605Y02157D01*
X05597Y02165D01*
X05497D02*
X05505Y02173D01*
X05513Y02165D01*
X05505Y02157D01*
X05497Y02165D01*
X05397D02*
X05405Y02173D01*
X05413Y02165D01*
X05405Y02157D01*
X05397Y02165D01*
X05297D02*
X05305Y02173D01*
X05313Y02165D01*
X05305Y02157D01*
X05297Y02165D01*
X05197D02*
X05205Y02173D01*
X05213Y02165D01*
X05205Y02157D01*
X05197Y02165D01*
X05097D02*
X05105Y02173D01*
X05113Y02165D01*
X05105Y02157D01*
X05097Y02165D01*
X04997D02*
X05005Y02173D01*
X05013Y02165D01*
X05005Y02157D01*
X04997Y02165D01*
X04897D02*
X04905Y02173D01*
X04913Y02165D01*
X04905Y02157D01*
X04897Y02165D01*
X04797D02*
X04805Y02173D01*
X04813Y02165D01*
X04805Y02157D01*
X04797Y02165D01*
X06797Y011666D02*
X06805Y011746D01*
X06813Y011666D01*
X06805Y011586D01*
X06797Y011666D01*
X06697D02*
X06705Y011746D01*
X06713Y011666D01*
X06705Y011586D01*
X06697Y011666D01*
X06597D02*
X06605Y011746D01*
X06613Y011666D01*
X06605Y011586D01*
X06597Y011666D01*
X06497D02*
X06505Y011746D01*
X06513Y011666D01*
X06505Y011586D01*
X06497Y011666D01*
X06397D02*
X06405Y011746D01*
X06413Y011666D01*
X06405Y011586D01*
X06397Y011666D01*
X06297D02*
X06305Y011746D01*
X06313Y011666D01*
X06305Y011586D01*
X06297Y011666D01*
X06197D02*
X06205Y011746D01*
X06213Y011666D01*
X06205Y011586D01*
X06197Y011666D01*
X06097D02*
X06105Y011746D01*
X06113Y011666D01*
X06105Y011586D01*
X06097Y011666D01*
X05997D02*
X06005Y011746D01*
X06013Y011666D01*
X06005Y011586D01*
X05997Y011666D01*
X05897D02*
X05905Y011746D01*
X05913Y011666D01*
X05905Y011586D01*
X05897Y011666D01*
X05797D02*
X05805Y011746D01*
X05813Y011666D01*
X05805Y011586D01*
X05797Y011666D01*
X05697D02*
X05705Y011746D01*
X05713Y011666D01*
X05705Y011586D01*
X05697Y011666D01*
X05597D02*
X05605Y011746D01*
X05613Y011666D01*
X05605Y011586D01*
X05597Y011666D01*
X05497D02*
X05505Y011746D01*
X05513Y011666D01*
X05505Y011586D01*
X05497Y011666D01*
X05397D02*
X05405Y011746D01*
X05413Y011666D01*
X05405Y011586D01*
X05397Y011666D01*
X05297D02*
X05305Y011746D01*
X05313Y011666D01*
X05305Y011586D01*
X05297Y011666D01*
X05097D02*
X05105Y011746D01*
X05113Y011666D01*
X05105Y011586D01*
X05097Y011666D01*
X04997D02*
X05005Y011746D01*
X05013Y011666D01*
X05005Y011586D01*
X04997Y011666D01*
X04897D02*
X04905Y011746D01*
X04913Y011666D01*
X04905Y011586D01*
X04897Y011666D01*
X04797D02*
X04805Y011746D01*
X04813Y011666D01*
X04805Y011586D01*
X04797Y011666D01*
X05197D02*
X05205Y011746D01*
X05213Y011666D01*
X05205Y011586D01*
X05197Y011666D01*
X02122Y030583D02*
Y030743D01*
X02138D01*
Y030583D01*
X02122D01*
X02126Y030623D02*
Y030703D01*
X02134D01*
Y030623D01*
X02126D01*
X02022Y030583D02*
Y030743D01*
X02038D01*
Y030583D01*
X02022D01*
X02026Y030623D02*
Y030703D01*
X02034D01*
Y030623D01*
X02026D01*
X01922Y030583D02*
Y030743D01*
X01938D01*
Y030583D01*
X01922D01*
X01926Y030623D02*
Y030703D01*
X01934D01*
Y030623D01*
X01926D01*
X01822Y030583D02*
Y030743D01*
X01838D01*
Y030583D01*
X01822D01*
X01826Y030623D02*
Y030703D01*
X01834D01*
Y030623D01*
X01826D01*
X06295Y01347D02*
X06287Y01363D01*
X06303D01*
X06295Y01347D01*
Y01351D02*
X06291Y01359D01*
X06299D01*
X06295Y01351D01*
X06395Y01347D02*
X06387Y01363D01*
X06403D01*
X06395Y01347D01*
Y01351D02*
X06391Y01359D01*
X06399D01*
X06395Y01351D01*
X010055Y03142D02*
X009975Y03158D01*
X010135D01*
X010055Y03142D01*
Y03146D02*
X010015Y03154D01*
X010095D01*
X010055Y03146D01*
X01005Y02842D02*
X00997Y02858D01*
X01013D01*
X01005Y02842D01*
Y02846D02*
X01001Y02854D01*
X01009D01*
X01005Y02846D01*
X05105Y02402D02*
X05097Y02418D01*
X05113D01*
X05105Y02402D01*
Y02406D02*
X05101Y02414D01*
X05109D01*
X05105Y02406D01*
Y02502D02*
X05097Y02518D01*
X05113D01*
X05105Y02502D01*
Y02506D02*
X05101Y02514D01*
X05109D01*
X05105Y02506D01*
X02525Y03397D02*
X02529Y03401D01*
X02533D01*
X02529Y03405D01*
X02533Y03409D01*
X02529D01*
X02525Y03413D01*
X02521Y03409D01*
X02517D01*
X02521Y03405D01*
X02517Y03401D01*
X02521D01*
X02525Y03397D01*
Y03401D02*
X02527Y03403D01*
X02529D01*
X02527Y03405D01*
X02529Y03407D01*
X02527D01*
X02525Y03409D01*
X02523Y03407D01*
X02521D01*
X02523Y03405D01*
X02521Y03403D01*
X02523D01*
X02525Y03401D01*
Y03297D02*
X02529Y03301D01*
X02533D01*
X02529Y03305D01*
X02533Y03309D01*
X02529D01*
X02525Y03313D01*
X02521Y03309D01*
X02517D01*
X02521Y03305D01*
X02517Y03301D01*
X02521D01*
X02525Y03297D01*
Y03301D02*
X02527Y03303D01*
X02529D01*
X02527Y03305D01*
X02529Y03307D01*
X02527D01*
X02525Y03309D01*
X02523Y03307D01*
X02521D01*
X02523Y03305D01*
X02521Y03303D01*
X02523D01*
X02525Y03301D01*
Y03197D02*
X02529Y03201D01*
X02533D01*
X02529Y03205D01*
X02533Y03209D01*
X02529D01*
X02525Y03213D01*
X02521Y03209D01*
X02517D01*
X02521Y03205D01*
X02517Y03201D01*
X02521D01*
X02525Y03197D01*
Y03201D02*
X02527Y03203D01*
X02529D01*
X02527Y03205D01*
X02529Y03207D01*
X02527D01*
X02525Y03209D01*
X02523Y03207D01*
X02521D01*
X02523Y03205D01*
X02521Y03203D01*
X02523D01*
X02525Y03201D01*
X0285Y03397D02*
X02854Y03401D01*
X02858D01*
X02854Y03405D01*
X02858Y03409D01*
X02854D01*
X0285Y03413D01*
X02846Y03409D01*
X02842D01*
X02846Y03405D01*
X02842Y03401D01*
X02846D01*
X0285Y03397D01*
Y03401D02*
X02852Y03403D01*
X02854D01*
X02852Y03405D01*
X02854Y03407D01*
X02852D01*
X0285Y03409D01*
X02848Y03407D01*
X02846D01*
X02848Y03405D01*
X02846Y03403D01*
X02848D01*
X0285Y03401D01*
Y03297D02*
X02854Y03301D01*
X02858D01*
X02854Y03305D01*
X02858Y03309D01*
X02854D01*
X0285Y03313D01*
X02846Y03309D01*
X02842D01*
X02846Y03305D01*
X02842Y03301D01*
X02846D01*
X0285Y03297D01*
Y03301D02*
X02852Y03303D01*
X02854D01*
X02852Y03305D01*
X02854Y03307D01*
X02852D01*
X0285Y03309D01*
X02848Y03307D01*
X02846D01*
X02848Y03305D01*
X02846Y03303D01*
X02848D01*
X0285Y03301D01*
Y03197D02*
X02854Y03201D01*
X02858D01*
X02854Y03205D01*
X02858Y03209D01*
X02854D01*
X0285Y03213D01*
X02846Y03209D01*
X02842D01*
X02846Y03205D01*
X02842Y03201D01*
X02846D01*
X0285Y03197D01*
Y03201D02*
X02852Y03203D01*
X02854D01*
X02852Y03205D01*
X02854Y03207D01*
X02852D01*
X0285Y03209D01*
X02848Y03207D01*
X02846D01*
X02848Y03205D01*
X02846Y03203D01*
X02848D01*
X0285Y03201D01*
X0445Y03407D02*
X04454Y03411D01*
X04458D01*
X04454Y03415D01*
X04458Y03419D01*
X04454D01*
X0445Y03423D01*
X04446Y03419D01*
X04442D01*
X04446Y03415D01*
X04442Y03411D01*
X04446D01*
X0445Y03407D01*
Y03411D02*
X04452Y03413D01*
X04454D01*
X04452Y03415D01*
X04454Y03417D01*
X04452D01*
X0445Y03419D01*
X04448Y03417D01*
X04446D01*
X04448Y03415D01*
X04446Y03413D01*
X04448D01*
X0445Y03411D01*
Y03307D02*
X04454Y03311D01*
X04458D01*
X04454Y03315D01*
X04458Y03319D01*
X04454D01*
X0445Y03323D01*
X04446Y03319D01*
X04442D01*
X04446Y03315D01*
X04442Y03311D01*
X04446D01*
X0445Y03307D01*
Y03311D02*
X04452Y03313D01*
X04454D01*
X04452Y03315D01*
X04454Y03317D01*
X04452D01*
X0445Y03319D01*
X04448Y03317D01*
X04446D01*
X04448Y03315D01*
X04446Y03313D01*
X04448D01*
X0445Y03311D01*
Y03207D02*
X04454Y03211D01*
X04458D01*
X04454Y03215D01*
X04458Y03219D01*
X04454D01*
X0445Y03223D01*
X04446Y03219D01*
X04442D01*
X04446Y03215D01*
X04442Y03211D01*
X04446D01*
X0445Y03207D01*
Y03211D02*
X04452Y03213D01*
X04454D01*
X04452Y03215D01*
X04454Y03217D01*
X04452D01*
X0445Y03219D01*
X04448Y03217D01*
X04446D01*
X04448Y03215D01*
X04446Y03213D01*
X04448D01*
X0445Y03211D01*
X0477Y03407D02*
X04774Y03411D01*
X04778D01*
X04774Y03415D01*
X04778Y03419D01*
X04774D01*
X0477Y03423D01*
X04766Y03419D01*
X04762D01*
X04766Y03415D01*
X04762Y03411D01*
X04766D01*
X0477Y03407D01*
Y03411D02*
X04772Y03413D01*
X04774D01*
X04772Y03415D01*
X04774Y03417D01*
X04772D01*
X0477Y03419D01*
X04768Y03417D01*
X04766D01*
X04768Y03415D01*
X04766Y03413D01*
X04768D01*
X0477Y03411D01*
Y03307D02*
X04774Y03311D01*
X04778D01*
X04774Y03315D01*
X04778Y03319D01*
X04774D01*
X0477Y03323D01*
X04766Y03319D01*
X04762D01*
X04766Y03315D01*
X04762Y03311D01*
X04766D01*
X0477Y03307D01*
Y03311D02*
X04772Y03313D01*
X04774D01*
X04772Y03315D01*
X04774Y03317D01*
X04772D01*
X0477Y03319D01*
X04768Y03317D01*
X04766D01*
X04768Y03315D01*
X04766Y03313D01*
X04768D01*
X0477Y03311D01*
Y03207D02*
X04774Y03211D01*
X04778D01*
X04774Y03215D01*
X04778Y03219D01*
X04774D01*
X0477Y03223D01*
X04766Y03219D01*
X04762D01*
X04766Y03215D01*
X04762Y03211D01*
X04766D01*
X0477Y03207D01*
Y03211D02*
X04772Y03213D01*
X04774D01*
X04772Y03215D01*
X04774Y03217D01*
X04772D01*
X0477Y03219D01*
X04768Y03217D01*
X04766D01*
X04768Y03215D01*
X04766Y03213D01*
X04768D01*
X0477Y03211D01*
X06325Y02617D02*
X06329Y02621D01*
X06333D01*
X06329Y02625D01*
X06333Y02629D01*
X06329D01*
X06325Y02633D01*
X06321Y02629D01*
X06317D01*
X06321Y02625D01*
X06317Y02621D01*
X06321D01*
X06325Y02617D01*
Y027548D02*
X06329Y027588D01*
X06333D01*
X06329Y027628D01*
X06333Y027668D01*
X06329D01*
X06325Y027708D01*
X06321Y027668D01*
X06317D01*
X06321Y027628D01*
X06317Y027588D01*
X06321D01*
X06325Y027548D01*
X01627Y02872D02*
X01631Y0288D01*
X01627Y02888D01*
X01635Y02884D01*
X01643Y02888D01*
X01639Y0288D01*
X01643Y02872D01*
X01635Y02876D01*
X01627Y02872D01*
X01631Y02876D02*
X01633Y0288D01*
X01631Y02884D01*
X01635Y02882D01*
X01639Y02884D01*
X01637Y0288D01*
X01639Y02876D01*
X01635Y02878D01*
X01631Y02876D01*
X01627Y02972D02*
X01631Y0298D01*
X01627Y02988D01*
X01635Y02984D01*
X01643Y02988D01*
X01639Y0298D01*
X01643Y02972D01*
X01635Y02976D01*
X01627Y02972D01*
X01631Y02976D02*
X01633Y0298D01*
X01631Y02984D01*
X01635Y02982D01*
X01639Y02984D01*
X01637Y0298D01*
X01639Y02976D01*
X01635Y02978D01*
X01631Y02976D01*
X02146Y029536D02*
Y029496D01*
X02154D01*
Y029536D01*
X02158D01*
Y029616D01*
X02154D01*
Y029656D01*
X02146D01*
Y029616D01*
X02142D01*
Y029536D01*
X02146D01*
X02148Y029556D02*
Y029536D01*
X02152D01*
Y029556D01*
X02154D01*
Y029596D01*
X02152D01*
Y029616D01*
X02148D01*
Y029596D01*
X02146D01*
Y029556D01*
X02148D01*
X02246Y029536D02*
Y029496D01*
X02254D01*
Y029536D01*
X02258D01*
Y029616D01*
X02254D01*
Y029656D01*
X02246D01*
Y029616D01*
X02242D01*
Y029536D01*
X02246D01*
X02248Y029556D02*
Y029536D01*
X02252D01*
Y029556D01*
X02254D01*
Y029596D01*
X02252D01*
Y029616D01*
X02248D01*
Y029596D01*
X02246D01*
Y029556D01*
X02248D01*
X02346Y029536D02*
Y029496D01*
X02354D01*
Y029536D01*
X02358D01*
Y029616D01*
X02354D01*
Y029656D01*
X02346D01*
Y029616D01*
X02342D01*
Y029536D01*
X02346D01*
X02348Y029556D02*
Y029536D01*
X02352D01*
Y029556D01*
X02354D01*
Y029596D01*
X02352D01*
Y029616D01*
X02348D01*
Y029596D01*
X02346D01*
Y029556D01*
X02348D01*
X02446Y029536D02*
Y029496D01*
X02454D01*
Y029536D01*
X02458D01*
Y029616D01*
X02454D01*
Y029656D01*
X02446D01*
Y029616D01*
X02442D01*
Y029536D01*
X02446D01*
X02448Y029556D02*
Y029536D01*
X02452D01*
Y029556D01*
X02454D01*
Y029596D01*
X02452D01*
Y029616D01*
X02448D01*
Y029596D01*
X02446D01*
Y029556D01*
X02448D01*
X02446Y02641D02*
Y02637D01*
X02454D01*
Y02641D01*
X02458D01*
Y02649D01*
X02454D01*
Y02653D01*
X02446D01*
Y02649D01*
X02442D01*
Y02641D01*
X02446D01*
X02448Y02643D02*
Y02641D01*
X02452D01*
Y02643D01*
X02454D01*
Y02647D01*
X02452D01*
Y02649D01*
X02448D01*
Y02647D01*
X02446D01*
Y02643D01*
X02448D01*
X02346Y02641D02*
Y02637D01*
X02354D01*
Y02641D01*
X02358D01*
Y02649D01*
X02354D01*
Y02653D01*
X02346D01*
Y02649D01*
X02342D01*
Y02641D01*
X02346D01*
X02348Y02643D02*
Y02641D01*
X02352D01*
Y02643D01*
X02354D01*
Y02647D01*
X02352D01*
Y02649D01*
X02348D01*
Y02647D01*
X02346D01*
Y02643D01*
X02348D01*
X02246Y02641D02*
Y02637D01*
X02254D01*
Y02641D01*
X02258D01*
Y02649D01*
X02254D01*
Y02653D01*
X02246D01*
Y02649D01*
X02242D01*
Y02641D01*
X02246D01*
X02248Y02643D02*
Y02641D01*
X02252D01*
Y02643D01*
X02254D01*
Y02647D01*
X02252D01*
Y02649D01*
X02248D01*
Y02647D01*
X02246D01*
Y02643D01*
X02248D01*
X02146Y02641D02*
Y02637D01*
X02154D01*
Y02641D01*
X02158D01*
Y02649D01*
X02154D01*
Y02653D01*
X02146D01*
Y02649D01*
X02142D01*
Y02641D01*
X02146D01*
X02148Y02643D02*
Y02641D01*
X02152D01*
Y02643D01*
X02154D01*
Y02647D01*
X02152D01*
Y02649D01*
X02148D01*
Y02647D01*
X02146D01*
Y02643D01*
X02148D01*
X05385Y02557D02*
X05377Y02573D01*
X05393D01*
X05385Y02557D01*
X05585D02*
X05577Y02573D01*
X05593D01*
X05585Y02557D01*
X00977Y02537D02*
X00981D01*
X00985Y02541D01*
X00989Y02537D01*
X00993D01*
Y02541D01*
X00989Y02545D01*
X00993Y02549D01*
Y02553D01*
X00989D01*
X00985Y02549D01*
X00981Y02553D01*
X00977D01*
Y02549D01*
X00981Y02545D01*
X00977Y02541D01*
Y02537D01*
X00981Y02541D02*
X00983D01*
X00985Y02543D01*
X00987Y02541D01*
X00989D01*
Y02543D01*
X00987Y02545D01*
X00989Y02547D01*
Y02549D01*
X00987D01*
X00985Y02547D01*
X00983Y02549D01*
X00981D01*
Y02547D01*
X00983Y02545D01*
X00981Y02543D01*
Y02541D01*
X00877Y02537D02*
X00881D01*
X00885Y02541D01*
X00889Y02537D01*
X00893D01*
Y02541D01*
X00889Y02545D01*
X00893Y02549D01*
Y02553D01*
X00889D01*
X00885Y02549D01*
X00881Y02553D01*
X00877D01*
Y02549D01*
X00881Y02545D01*
X00877Y02541D01*
Y02537D01*
X00881Y02541D02*
X00883D01*
X00885Y02543D01*
X00887Y02541D01*
X00889D01*
Y02543D01*
X00887Y02545D01*
X00889Y02547D01*
Y02549D01*
X00887D01*
X00885Y02547D01*
X00883Y02549D01*
X00881D01*
Y02547D01*
X00883Y02545D01*
X00881Y02543D01*
Y02541D01*
X00777Y02537D02*
X00781D01*
X00785Y02541D01*
X00789Y02537D01*
X00793D01*
Y02541D01*
X00789Y02545D01*
X00793Y02549D01*
Y02553D01*
X00789D01*
X00785Y02549D01*
X00781Y02553D01*
X00777D01*
Y02549D01*
X00781Y02545D01*
X00777Y02541D01*
Y02537D01*
X00781Y02541D02*
X00783D01*
X00785Y02543D01*
X00787Y02541D01*
X00789D01*
Y02543D01*
X00787Y02545D01*
X00789Y02547D01*
Y02549D01*
X00787D01*
X00785Y02547D01*
X00783Y02549D01*
X00781D01*
Y02547D01*
X00783Y02545D01*
X00781Y02543D01*
Y02541D01*
X0576Y0333D02*
Y033433D01*
X057667Y0335D01*
X057733Y033433D01*
Y0333D01*
Y0334D01*
X0576D01*
X06955Y03485D02*
Y034983D01*
X069617Y03505D01*
X069683Y034983D01*
Y03485D01*
Y03495D01*
X06955D01*
X0518Y02645D02*
Y026583D01*
X051867Y02665D01*
X051933Y026583D01*
Y02645D01*
Y02655D01*
X0518D01*
X026Y0097D02*
Y009833D01*
X026067Y0099D01*
X026133Y009833D01*
Y0097D01*
Y0098D01*
X026D01*
X01185Y0324D02*
Y0322D01*
X01195D01*
X011983Y032233D01*
Y032267D01*
X01195Y0323D01*
X01185D01*
X01195D01*
X011983Y032333D01*
Y032367D01*
X01195Y0324D01*
X01185D01*
X0272Y0129D02*
Y0127D01*
X0273D01*
X027333Y012733D01*
Y012767D01*
X0273Y0128D01*
X0272D01*
X0273D01*
X027333Y012833D01*
Y012867D01*
X0273Y0129D01*
X0272D01*
X0294Y01425D02*
Y014383D01*
X029467Y01445D01*
X029533Y014383D01*
Y01425D01*
Y01435D01*
X0294D01*
X0184Y0272D02*
Y027D01*
X0185D01*
X018533Y027033D01*
Y027067D01*
X0185Y0271D01*
X0184D01*
X0185D01*
X018533Y027133D01*
Y027167D01*
X0185Y0272D01*
X0184D01*
X0661Y01525D02*
Y01505D01*
X0662D01*
X066233Y015083D01*
Y015117D01*
X0662Y01515D01*
X0661D01*
X0662D01*
X066233Y015183D01*
Y015217D01*
X0662Y01525D01*
X0661D01*
X06745Y01655D02*
Y01635D01*
X06755D01*
X067583Y016383D01*
Y016417D01*
X06755Y01645D01*
X06745D01*
X06755D01*
X067583Y016483D01*
Y016517D01*
X06755Y01655D01*
X06745D01*
X04105Y03545D02*
Y035583D01*
X041117Y03565D01*
X041183Y035583D01*
Y03545D01*
Y03555D01*
X04105D01*
X04875Y0142D02*
Y014333D01*
X048817Y0144D01*
X048883Y014333D01*
Y0142D01*
Y0143D01*
X04875D01*
X0487Y01335D02*
Y013483D01*
X048767Y01355D01*
X048833Y013483D01*
Y01335D01*
Y01345D01*
X0487D01*
X0501Y0281D02*
Y028233D01*
X050167Y0283D01*
X050233Y028233D01*
Y0281D01*
Y0282D01*
X0501D01*
X0328Y0269D02*
Y027033D01*
X032867Y0271D01*
X032933Y027033D01*
Y0269D01*
Y027D01*
X0328D01*
X0155Y02625D02*
Y026383D01*
X015567Y02645D01*
X015633Y026383D01*
Y02625D01*
Y02635D01*
X0155D01*
X0479Y0259D02*
Y026033D01*
X047967Y0261D01*
X048033Y026033D01*
Y0259D01*
Y026D01*
X0479D01*
X04915Y02655D02*
Y026683D01*
X049217Y02675D01*
X049283Y026683D01*
Y02655D01*
Y02665D01*
X04915D01*
X0588Y01655D02*
Y016683D01*
X058867Y01675D01*
X058933Y016683D01*
Y01655D01*
Y01665D01*
X0588D01*
X06085Y01705D02*
Y017183D01*
X060917Y01725D01*
X060983Y017183D01*
Y01705D01*
Y01715D01*
X06085D01*
X05785Y01605D02*
Y016183D01*
X057917Y01625D01*
X057983Y016183D01*
Y01605D01*
Y01615D01*
X05785D01*
X0387Y03315D02*
Y033283D01*
X038767Y03335D01*
X038833Y033283D01*
Y03315D01*
Y03325D01*
X0387D01*
X0399Y03265D02*
Y032783D01*
X039967Y03285D01*
X040033Y032783D01*
Y03265D01*
Y03275D01*
X0399D01*
X0418Y0322D02*
Y032333D01*
X041867Y0324D01*
X041933Y032333D01*
Y0322D01*
Y0323D01*
X0418D01*
X0588Y0327D02*
Y032833D01*
X058867Y0329D01*
X058933Y032833D01*
Y0327D01*
Y0328D01*
X0588D01*
X0608Y0322D02*
Y032333D01*
X060867Y0324D01*
X060933Y032333D01*
Y0322D01*
Y0323D01*
X0608D01*
X0418Y017D02*
Y017133D01*
X041867Y0172D01*
X041933Y017133D01*
Y017D01*
Y0171D01*
X0418D01*
X03985Y0165D02*
Y016633D01*
X039917Y0167D01*
X039983Y016633D01*
Y0165D01*
Y0166D01*
X03985D01*
X03885Y01595D02*
Y016083D01*
X038917Y01615D01*
X038983Y016083D01*
Y01595D01*
Y01605D01*
X03885D01*
D93*
X03343Y02825D02*
G03*
X03343Y02825I-00008J0D01*
G01*
X03443D02*
G03*
X03443Y02825I-00008J0D01*
G01*
X03543D02*
G03*
X03543Y02825I-00008J0D01*
G01*
X03643D02*
G03*
X03643Y02825I-00008J0D01*
G01*
X03743D02*
G03*
X03743Y02825I-00008J0D01*
G01*
X03843D02*
G03*
X03843Y02825I-00008J0D01*
G01*
X03943D02*
G03*
X03943Y02825I-00008J0D01*
G01*
X04043D02*
G03*
X04043Y02825I-00008J0D01*
G01*
X04143D02*
G03*
X04143Y02825I-00008J0D01*
G01*
X04243D02*
G03*
X04243Y02825I-00008J0D01*
G01*
X04343D02*
G03*
X04343Y02825I-00008J0D01*
G01*
X04443D02*
G03*
X04443Y02825I-00008J0D01*
G01*
Y025124D02*
G03*
X04443Y025124I-00008J0D01*
G01*
X04343D02*
G03*
X04343Y025124I-00008J0D01*
G01*
X04243D02*
G03*
X04243Y025124I-00008J0D01*
G01*
X04143D02*
G03*
X04143Y025124I-00008J0D01*
G01*
X04043D02*
G03*
X04043Y025124I-00008J0D01*
G01*
X03943D02*
G03*
X03943Y025124I-00008J0D01*
G01*
X03843D02*
G03*
X03843Y025124I-00008J0D01*
G01*
X03743D02*
G03*
X03743Y025124I-00008J0D01*
G01*
X03643D02*
G03*
X03643Y025124I-00008J0D01*
G01*
X03543D02*
G03*
X03543Y025124I-00008J0D01*
G01*
X03443D02*
G03*
X03443Y025124I-00008J0D01*
G01*
X03343D02*
G03*
X03343Y025124I-00008J0D01*
G01*
X03063Y0186D02*
G03*
X03063Y0186I-00008J0D01*
G01*
X03163D02*
G03*
X03163Y0186I-00008J0D01*
G01*
X03263D02*
G03*
X03263Y0186I-00008J0D01*
G01*
X03363D02*
G03*
X03363Y0186I-00008J0D01*
G01*
X033629Y030614D02*
G03*
X033629Y030614I-00008J0D01*
G01*
X032629D02*
G03*
X032629Y030614I-00008J0D01*
G01*
X031629D02*
G03*
X031629Y030614I-00008J0D01*
G01*
X030629D02*
G03*
X030629Y030614I-00008J0D01*
G01*
X029629D02*
G03*
X029629Y030614I-00008J0D01*
G01*
X02963Y0186D02*
G03*
X02963Y0186I-00008J0D01*
G01*
X04013D02*
G03*
X04013Y0186I-00008J0D01*
G01*
X04113D02*
G03*
X04113Y0186I-00008J0D01*
G01*
X04213D02*
G03*
X04213Y0186I-00008J0D01*
G01*
X04313D02*
G03*
X04313Y0186I-00008J0D01*
G01*
X043129Y030614D02*
G03*
X043129Y030614I-00008J0D01*
G01*
X042129D02*
G03*
X042129Y030614I-00008J0D01*
G01*
X041129D02*
G03*
X041129Y030614I-00008J0D01*
G01*
X040129D02*
G03*
X040129Y030614I-00008J0D01*
G01*
X039129D02*
G03*
X039129Y030614I-00008J0D01*
G01*
X03913Y0186D02*
G03*
X03913Y0186I-00008J0D01*
G01*
X05163Y0306D02*
G03*
X05163Y0306I-00008J0D01*
G01*
X05063D02*
G03*
X05063Y0306I-00008J0D01*
G01*
X04963D02*
G03*
X04963Y0306I-00008J0D01*
G01*
X04863D02*
G03*
X04863Y0306I-00008J0D01*
G01*
X048631Y018586D02*
G03*
X048631Y018586I-00008J0D01*
G01*
X049631D02*
G03*
X049631Y018586I-00008J0D01*
G01*
X050631D02*
G03*
X050631Y018586I-00008J0D01*
G01*
X051631D02*
G03*
X051631Y018586I-00008J0D01*
G01*
X052631D02*
G03*
X052631Y018586I-00008J0D01*
G01*
X05263Y0306D02*
G03*
X05263Y0306I-00008J0D01*
G01*
X06213Y030614D02*
G03*
X06213Y030614I-00008J0D01*
G01*
X062131Y0186D02*
G03*
X062131Y0186I-00008J0D01*
G01*
X061131D02*
G03*
X061131Y0186I-00008J0D01*
G01*
X060131D02*
G03*
X060131Y0186I-00008J0D01*
G01*
X059131D02*
G03*
X059131Y0186I-00008J0D01*
G01*
X058131D02*
G03*
X058131Y0186I-00008J0D01*
G01*
X05813Y030614D02*
G03*
X05813Y030614I-00008J0D01*
G01*
X05913D02*
G03*
X05913Y030614I-00008J0D01*
G01*
X06013D02*
G03*
X06013Y030614I-00008J0D01*
G01*
X06113D02*
G03*
X06113Y030614I-00008J0D01*
G01*
D94*
X03059Y0186D02*
G03*
X03059Y0186I-00004J0D01*
G01*
X03159D02*
G03*
X03159Y0186I-00004J0D01*
G01*
X03259D02*
G03*
X03259Y0186I-00004J0D01*
G01*
X03359D02*
G03*
X03359Y0186I-00004J0D01*
G01*
X033589Y030614D02*
G03*
X033589Y030614I-00004J0D01*
G01*
X032589D02*
G03*
X032589Y030614I-00004J0D01*
G01*
X031589D02*
G03*
X031589Y030614I-00004J0D01*
G01*
X030589D02*
G03*
X030589Y030614I-00004J0D01*
G01*
X029589D02*
G03*
X029589Y030614I-00004J0D01*
G01*
X02959Y0186D02*
G03*
X02959Y0186I-00004J0D01*
G01*
X04009D02*
G03*
X04009Y0186I-00004J0D01*
G01*
X04109D02*
G03*
X04109Y0186I-00004J0D01*
G01*
X04209D02*
G03*
X04209Y0186I-00004J0D01*
G01*
X04309D02*
G03*
X04309Y0186I-00004J0D01*
G01*
X043089Y030614D02*
G03*
X043089Y030614I-00004J0D01*
G01*
X042089D02*
G03*
X042089Y030614I-00004J0D01*
G01*
X041089D02*
G03*
X041089Y030614I-00004J0D01*
G01*
X040089D02*
G03*
X040089Y030614I-00004J0D01*
G01*
X039089D02*
G03*
X039089Y030614I-00004J0D01*
G01*
X03909Y0186D02*
G03*
X03909Y0186I-00004J0D01*
G01*
X05159Y0306D02*
G03*
X05159Y0306I-00004J0D01*
G01*
X05059D02*
G03*
X05059Y0306I-00004J0D01*
G01*
X04959D02*
G03*
X04959Y0306I-00004J0D01*
G01*
X04859D02*
G03*
X04859Y0306I-00004J0D01*
G01*
X048591Y018586D02*
G03*
X048591Y018586I-00004J0D01*
G01*
X049591D02*
G03*
X049591Y018586I-00004J0D01*
G01*
X050591D02*
G03*
X050591Y018586I-00004J0D01*
G01*
X051591D02*
G03*
X051591Y018586I-00004J0D01*
G01*
X052591D02*
G03*
X052591Y018586I-00004J0D01*
G01*
X05259Y0306D02*
G03*
X05259Y0306I-00004J0D01*
G01*
X06209Y030614D02*
G03*
X06209Y030614I-00004J0D01*
G01*
X062091Y0186D02*
G03*
X062091Y0186I-00004J0D01*
G01*
X061091D02*
G03*
X061091Y0186I-00004J0D01*
G01*
X060091D02*
G03*
X060091Y0186I-00004J0D01*
G01*
X059091D02*
G03*
X059091Y0186I-00004J0D01*
G01*
X058091D02*
G03*
X058091Y0186I-00004J0D01*
G01*
X05809Y030614D02*
G03*
X05809Y030614I-00004J0D01*
G01*
X05909D02*
G03*
X05909Y030614I-00004J0D01*
G01*
X06009D02*
G03*
X06009Y030614I-00004J0D01*
G01*
X06109D02*
G03*
X06109Y030614I-00004J0D01*
G01*
M02*
