G04*
G04 #@! TF.GenerationSoftware,Altium Limited,Altium Designer,21.9.2 (33)*
G04*
G04 Layer_Color=65535*
%FSTAX24Y24*%
%MOIN*%
G70*
G04*
G04 #@! TF.SameCoordinates,7D792EBD-1CCB-4A66-8B02-D1F74A79ED49*
G04*
G04*
G04 #@! TF.FilePolarity,Positive*
G04*
G01*
G75*
%ADD10C,0.0079*%
%ADD11C,0.0100*%
%ADD12C,0.0050*%
D10*
X018339Y031391D02*
G03*
X018339Y031391I-000039J0D01*
G01*
X065872Y012629D02*
G03*
X065872Y012629I-000039J0D01*
G01*
X06976Y01321D02*
X07023D01*
X06976Y01129D02*
Y01321D01*
Y01129D02*
X07054D01*
X07041Y01211D02*
Y01239D01*
X06988Y01211D02*
Y01239D01*
X07054Y01129D02*
Y01321D01*
X07023D02*
X07054D01*
X02475Y03155D02*
Y03455D01*
Y03155D02*
X02575D01*
Y03455D01*
X02475D02*
X02575D01*
X02475Y03355D02*
X02575D01*
X028Y03155D02*
Y03455D01*
Y03155D02*
X029D01*
Y03455D01*
X028D02*
X029D01*
X028Y03355D02*
X029D01*
X044Y03165D02*
Y03465D01*
Y03165D02*
X045D01*
Y03465D01*
X044D02*
X045D01*
X044Y03365D02*
X045D01*
X0472Y03165D02*
Y03465D01*
Y03165D02*
X0482D01*
Y03465D01*
X0472D02*
X0482D01*
X0472Y03365D02*
X0482D01*
D11*
X06472Y01356D02*
G03*
X06472Y01356I-00128J0D01*
G01*
X06218Y01369D02*
X06333Y01484D01*
X06347D01*
X0622Y01336D02*
X06344Y0146D01*
X06226Y01309D02*
X06344Y01427D01*
Y01431D01*
X06239Y01287D02*
X06344Y01392D01*
Y01394D01*
X06254Y01269D02*
X06344Y01359D01*
Y01362D01*
X0627Y01254D02*
X06344Y01328D01*
Y01334D01*
X06291Y01243D02*
X06344Y01296D01*
Y01298D01*
X06314Y01234D02*
X06344Y01264D01*
Y01273D01*
Y01262D02*
Y01272D01*
Y01231D02*
Y01482D01*
X013968Y02115D02*
X013635D01*
X013469Y020983D01*
Y020317D01*
X013635Y02015D01*
X013968D01*
X014135Y020317D01*
Y020983D01*
X013968Y02115D01*
X014468D02*
Y02015D01*
X015135D01*
X016134Y02115D02*
X015468D01*
Y02015D01*
X016134D01*
X015468Y02065D02*
X015801D01*
X016468Y02115D02*
Y02015D01*
X016968D01*
X017134Y020317D01*
Y020983D01*
X016968Y02115D01*
X016468D01*
X018467Y02015D02*
X0188D01*
X018634D01*
Y02115D01*
X018467Y020983D01*
X0193Y02015D02*
Y020317D01*
X019467D01*
Y02015D01*
X0193D01*
X020133Y020983D02*
X0203Y02115D01*
X020633D01*
X0208Y020983D01*
Y020817D01*
X020633Y02065D01*
X020466D01*
X020633D01*
X0208Y020483D01*
Y020317D01*
X020633Y02015D01*
X0203D01*
X020133Y020317D01*
X022132Y02115D02*
X022466D01*
X022299D01*
Y02015D01*
X022132D01*
X022466D01*
X022966D02*
Y02115D01*
X023632Y02015D01*
Y02115D01*
X024632Y020983D02*
X024465Y02115D01*
X024132D01*
X023965Y020983D01*
Y020317D01*
X024132Y02015D01*
X024465D01*
X024632Y020317D01*
X024965Y02115D02*
Y02015D01*
Y02065D01*
X025631D01*
Y02115D01*
Y02015D01*
X027218Y02975D02*
Y02875D01*
X027885D01*
X028884Y02975D02*
X028218D01*
Y02875D01*
X028884D01*
X028218Y02925D02*
X028551D01*
X029217Y02975D02*
Y02875D01*
X029717D01*
X029884Y028917D01*
Y029583D01*
X029717Y02975D01*
X029217D01*
X031217D02*
X031883D01*
Y029583D01*
X031217Y028917D01*
Y02875D01*
X033883Y029583D02*
X033716Y02975D01*
X033383D01*
X033216Y029583D01*
Y029417D01*
X033383Y02925D01*
X033716D01*
X033883Y029083D01*
Y028917D01*
X033716Y02875D01*
X033383D01*
X033216Y028917D01*
X034882Y02975D02*
X034216D01*
Y02875D01*
X034882D01*
X034216Y02925D02*
X034549D01*
X035882Y029583D02*
X035715Y02975D01*
X035382D01*
X035215Y029583D01*
Y028917D01*
X035382Y02875D01*
X035715D01*
X035882Y028917D01*
Y02925D01*
X035549D01*
X036718Y02975D02*
Y02875D01*
X037385D01*
X038384Y02975D02*
X037718D01*
Y02875D01*
X038384D01*
X037718Y02925D02*
X038051D01*
X038717Y02975D02*
Y02875D01*
X039217D01*
X039384Y028917D01*
Y029583D01*
X039217Y02975D01*
X038717D01*
X040717D02*
X041383D01*
Y029583D01*
X040717Y028917D01*
Y02875D01*
X043383Y029583D02*
X043216Y02975D01*
X042883D01*
X042716Y029583D01*
Y029417D01*
X042883Y02925D01*
X043216D01*
X043383Y029083D01*
Y028917D01*
X043216Y02875D01*
X042883D01*
X042716Y028917D01*
X044382Y02975D02*
X043716D01*
Y02875D01*
X044382D01*
X043716Y02925D02*
X044049D01*
X045382Y029583D02*
X045215Y02975D01*
X044882D01*
X044715Y029583D01*
Y028917D01*
X044882Y02875D01*
X045215D01*
X045382Y028917D01*
Y02925D01*
X045049D01*
X046368Y0297D02*
Y0287D01*
X047035D01*
X048034Y0297D02*
X047368D01*
Y0287D01*
X048034D01*
X047368Y0292D02*
X047701D01*
X048367Y0297D02*
Y0287D01*
X048867D01*
X049034Y028867D01*
Y029533D01*
X048867Y0297D01*
X048367D01*
X050367D02*
X051033D01*
Y029533D01*
X050367Y028867D01*
Y0287D01*
X053033Y029533D02*
X052866Y0297D01*
X052533D01*
X052366Y029533D01*
Y029367D01*
X052533Y0292D01*
X052866D01*
X053033Y029033D01*
Y028867D01*
X052866Y0287D01*
X052533D01*
X052366Y028867D01*
X054032Y0297D02*
X053366D01*
Y0287D01*
X054032D01*
X053366Y0292D02*
X053699D01*
X055032Y029533D02*
X054865Y0297D01*
X054532D01*
X054365Y029533D01*
Y028867D01*
X054532Y0287D01*
X054865D01*
X055032Y028867D01*
Y0292D01*
X054699D01*
X055568Y0297D02*
Y0287D01*
X056235D01*
X057234Y0297D02*
X056568D01*
Y0287D01*
X057234D01*
X056568Y0292D02*
X056901D01*
X057567Y0297D02*
Y0287D01*
X058067D01*
X058234Y028867D01*
Y029533D01*
X058067Y0297D01*
X057567D01*
X059567D02*
X060233D01*
Y029533D01*
X059567Y028867D01*
Y0287D01*
X062233Y029533D02*
X062066Y0297D01*
X061733D01*
X061566Y029533D01*
Y029367D01*
X061733Y0292D01*
X062066D01*
X062233Y029033D01*
Y028867D01*
X062066Y0287D01*
X061733D01*
X061566Y028867D01*
X063232Y0297D02*
X062566D01*
Y0287D01*
X063232D01*
X062566Y0292D02*
X062899D01*
X064232Y029533D02*
X064065Y0297D01*
X063732D01*
X063565Y029533D01*
Y028867D01*
X063732Y0287D01*
X064065D01*
X064232Y028867D01*
Y0292D01*
X063899D01*
X06635Y027599D02*
X06575D01*
Y027199D01*
X06635Y0266D02*
Y027D01*
X06575D01*
Y0266D01*
X06605Y027D02*
Y0268D01*
X06635Y0264D02*
X06575D01*
Y0261D01*
X06585Y026D01*
X06625D01*
X06635Y0261D01*
Y0264D01*
X06575Y0252D02*
X06635D01*
Y0249D01*
X06625Y0248D01*
X06605D01*
X06595Y0249D01*
Y0252D01*
Y025D02*
X06575Y0248D01*
X06625Y0242D02*
X06635Y0243D01*
Y0245D01*
X06625Y0246D01*
X06585D01*
X06575Y0245D01*
Y0243D01*
X06585Y0242D01*
X06605D01*
Y0244D01*
X06635Y024001D02*
X06575D01*
Y023701D01*
X06585Y023601D01*
X06595D01*
X06605Y023701D01*
Y024001D01*
Y023701D01*
X06615Y023601D01*
X06625D01*
X06635Y023701D01*
Y024001D01*
X06095Y0136D02*
X06085Y0137D01*
X06065D01*
X06055Y0136D01*
Y0132D01*
X06065Y0131D01*
X06085D01*
X06095Y0132D01*
X06155Y0137D02*
X06135Y0136D01*
X06115Y0134D01*
Y0132D01*
X06125Y0131D01*
X06145D01*
X06155Y0132D01*
Y0133D01*
X06145Y0134D01*
X06115D01*
X06955Y01355D02*
Y01415D01*
X06985D01*
X06995Y01405D01*
Y01385D01*
X06985Y01375D01*
X06955D01*
X06975D02*
X06995Y01355D01*
X07055Y01415D02*
X07015D01*
Y01385D01*
X07035Y01395D01*
X07045D01*
X07055Y01385D01*
Y01365D01*
X07045Y01355D01*
X07025D01*
X07015Y01365D01*
X048901Y0344D02*
X049101D01*
X049001D01*
Y0338D01*
X048901D01*
X049101D01*
X0494D02*
Y0344D01*
X0498Y0338D01*
Y0344D01*
X05Y0338D02*
Y0344D01*
X0502Y0342D01*
X0504Y0344D01*
Y0338D01*
X0506D02*
Y0344D01*
X0509D01*
X051Y0343D01*
Y0341D01*
X0509Y034D01*
X0506D01*
X0515Y0338D02*
Y0344D01*
X0512Y0341D01*
X0516D01*
X0521Y0338D02*
Y0344D01*
X0518Y0341D01*
X0522D01*
X052399Y0338D02*
X052599D01*
X052499D01*
Y0344D01*
X052399Y0343D01*
X029451Y0344D02*
X029651D01*
X029551D01*
Y0338D01*
X029451D01*
X029651D01*
X02995D02*
Y0344D01*
X03035Y0338D01*
Y0344D01*
X03055Y0338D02*
Y0344D01*
X03075Y0342D01*
X03095Y0344D01*
Y0338D01*
X03115D02*
Y0344D01*
X03145D01*
X03155Y0343D01*
Y0341D01*
X03145Y034D01*
X03115D01*
X03205Y0338D02*
Y0344D01*
X03175Y0341D01*
X03215D01*
X03265Y0338D02*
Y0344D01*
X03235Y0341D01*
X03275D01*
X032949Y0338D02*
X033149D01*
X033049D01*
Y0344D01*
X032949Y0343D01*
D12*
X012812Y017907D02*
Y031175D01*
Y017907D02*
X026788D01*
Y031175D01*
X012812D02*
X026788D01*
X026826Y017907D02*
Y031293D01*
Y017907D02*
X036274D01*
Y031293D01*
X026824Y031307D02*
X036273D01*
X036326Y017907D02*
Y031293D01*
Y017907D02*
X045774D01*
Y031293D01*
X036324Y031307D02*
X045773D01*
X055274Y017907D02*
Y031293D01*
X045826D02*
X055274D01*
X045826Y017907D02*
Y031293D01*
X045827Y017893D02*
X055276D01*
X055327Y017907D02*
X064776D01*
X055326Y017921D02*
Y031307D01*
X064774D01*
Y017921D02*
Y031307D01*
X06525Y0132D02*
X065341D01*
X06525D02*
Y0332D01*
X065341D01*
X069159D02*
X06925D01*
Y0132D02*
Y0332D01*
X069159Y0132D02*
X06925D01*
M02*
