G04*
G04 #@! TF.GenerationSoftware,Altium Limited,Altium Designer,21.9.2 (33)*
G04*
G04 Layer_Color=128*
%FSTAX24Y24*%
%MOIN*%
G70*
G04*
G04 #@! TF.SameCoordinates,7D792EBD-1CCB-4A66-8B02-D1F74A79ED49*
G04*
G04*
G04 #@! TF.FilePolarity,Positive*
G04*
G01*
G75*
%ADD14R,0.0630X0.0591*%
G04:AMPARAMS|DCode=76|XSize=91.7mil|YSize=61mil|CornerRadius=15.3mil|HoleSize=0mil|Usage=FLASHONLY|Rotation=180.000|XOffset=0mil|YOffset=0mil|HoleType=Round|Shape=RoundedRectangle|*
%AMROUNDEDRECTD76*
21,1,0.0917,0.0305,0,0,180.0*
21,1,0.0612,0.0610,0,0,180.0*
1,1,0.0305,-0.0306,0.0153*
1,1,0.0305,0.0306,0.0153*
1,1,0.0305,0.0306,-0.0153*
1,1,0.0305,-0.0306,-0.0153*
%
%ADD76ROUNDEDRECTD76*%
%ADD77R,0.0669X0.0669*%
%ADD79R,0.0390X0.1492*%
%ADD80R,0.0591X0.0630*%
G36*
X05914Y024624D02*
X058648D01*
Y025222D01*
X05914D01*
Y024624D01*
D02*
G37*
G36*
X058427D02*
X057935D01*
Y025222D01*
X058427D01*
Y024624D01*
D02*
G37*
G36*
X057715D02*
X057222D01*
Y025222D01*
X057715D01*
Y024624D01*
D02*
G37*
G36*
X05914Y023588D02*
X058648D01*
Y024187D01*
X05914D01*
Y023588D01*
D02*
G37*
G36*
X058427D02*
X057935D01*
Y024187D01*
X058427D01*
Y023588D01*
D02*
G37*
G36*
X057715D02*
X057222D01*
Y024187D01*
X057715D01*
Y023588D01*
D02*
G37*
G36*
X05914Y022553D02*
X058648D01*
Y023151D01*
X05914D01*
Y022553D01*
D02*
G37*
G36*
X058427D02*
X057935D01*
Y023151D01*
X058427D01*
Y022553D01*
D02*
G37*
G36*
X057715D02*
X057222D01*
Y023151D01*
X057715D01*
Y022553D01*
D02*
G37*
G36*
X061278Y024624D02*
X060785D01*
Y025222D01*
X061278D01*
Y024624D01*
D02*
G37*
G36*
X060565D02*
X060073D01*
Y025222D01*
X060565D01*
Y024624D01*
D02*
G37*
G36*
X059852D02*
X05936D01*
Y025222D01*
X059852D01*
Y024624D01*
D02*
G37*
G36*
X061278Y023588D02*
X060785D01*
Y024187D01*
X061278D01*
Y023588D01*
D02*
G37*
G36*
X060565D02*
X060073D01*
Y024187D01*
X060565D01*
Y023588D01*
D02*
G37*
G36*
X059852D02*
X05936D01*
Y024187D01*
X059852D01*
Y023588D01*
D02*
G37*
G36*
X061278Y022553D02*
X060785D01*
Y023151D01*
X061278D01*
Y022553D01*
D02*
G37*
G36*
X060565D02*
X060073D01*
Y023151D01*
X060565D01*
Y022553D01*
D02*
G37*
G36*
X059852D02*
X05936D01*
Y023151D01*
X059852D01*
Y022553D01*
D02*
G37*
D14*
X02975Y025241D02*
D03*
Y024059D02*
D03*
D76*
X054159Y0281D02*
D03*
X055841D02*
D03*
D77*
X02855Y0241D02*
D03*
Y0254D02*
D03*
D79*
X060589Y02812D02*
D03*
X059919D02*
D03*
X05925D02*
D03*
X058581D02*
D03*
X057911D02*
D03*
D80*
X021191Y02505D02*
D03*
X020009D02*
D03*
X023209Y0251D02*
D03*
X024391D02*
D03*
X011Y02535D02*
D03*
X012181D02*
D03*
M02*
